<svg id="svg" xmlns="http://www.w3.org/2000/svg" xmlns:xlink="http://www.w3.org/1999/xlink" width="400" height="449.45454545454544" viewBox="0, 0, 400,449.45454545454544"><g id="svgg"><path id="path0" d="M399.695 1.931 C 399.698 2.468,399.624 3.075,399.532 3.280 C 399.439 3.485,399.346 3.948,399.324 4.309 C 399.212 6.185,399.003 7.509,398.690 8.332 C 398.591 8.593,398.567 8.806,398.637 8.806 C 398.707 8.806,398.664 8.905,398.543 9.026 C 398.374 9.195,398.376 9.313,398.552 9.530 C 398.740 9.762,398.734 9.785,398.516 9.654 C 398.313 9.531,398.280 9.573,398.379 9.829 C 398.450 10.014,398.419 10.271,398.311 10.402 C 398.132 10.618,397.947 11.581,397.925 12.412 C 397.920 12.593,397.832 12.740,397.729 12.740 C 397.626 12.740,397.608 12.845,397.689 12.974 C 397.874 13.269,397.782 13.877,397.499 14.221 C 397.381 14.365,397.269 14.745,397.251 15.064 C 397.190 16.148,396.954 17.237,396.779 17.237 C 396.684 17.237,396.648 17.306,396.701 17.390 C 396.753 17.475,396.688 17.753,396.556 18.007 C 396.328 18.445,396.260 18.774,396.239 19.532 C 396.234 19.712,396.158 19.859,396.071 19.859 C 395.984 19.859,395.957 20.028,396.011 20.234 C 396.065 20.440,396.018 20.609,395.906 20.609 C 395.794 20.609,395.751 20.735,395.810 20.890 C 395.870 21.044,395.821 21.171,395.703 21.171 C 395.584 21.171,395.501 21.276,395.517 21.405 C 395.606 22.085,395.487 22.682,395.289 22.559 C 395.137 22.465,395.112 22.576,395.203 22.939 C 395.286 23.271,395.263 23.409,395.138 23.331 C 395.030 23.264,394.988 23.323,395.043 23.466 C 395.097 23.606,395.011 24.029,394.854 24.407 C 394.696 24.784,394.567 25.312,394.567 25.579 C 394.567 25.898,394.493 26.018,394.350 25.931 C 394.219 25.850,394.185 25.879,394.263 26.005 C 394.333 26.119,394.266 26.512,394.114 26.877 C 393.961 27.242,393.885 27.541,393.944 27.541 C 394.002 27.541,393.966 27.646,393.862 27.775 C 393.758 27.904,393.614 28.284,393.543 28.620 C 393.471 28.956,393.353 29.194,393.280 29.149 C 393.159 29.074,393.096 29.370,393.057 30.196 C 393.049 30.368,392.926 30.553,392.783 30.608 C 392.640 30.663,392.557 30.879,392.598 31.091 C 392.638 31.303,392.583 31.475,392.475 31.475 C 392.367 31.475,392.327 31.602,392.386 31.756 C 392.446 31.911,392.407 32.037,392.302 32.037 C 392.196 32.037,392.161 32.122,392.225 32.225 C 392.289 32.328,392.246 32.412,392.131 32.412 C 392.016 32.412,391.974 32.496,392.037 32.600 C 392.101 32.703,392.059 32.787,391.944 32.787 C 391.829 32.787,391.783 32.865,391.842 32.961 C 391.901 33.057,391.868 33.186,391.768 33.248 C 391.667 33.310,391.633 33.485,391.691 33.636 C 391.749 33.787,391.721 33.911,391.629 33.911 C 391.537 33.911,391.447 34.099,391.430 34.330 C 391.413 34.560,391.310 34.778,391.202 34.814 C 391.093 34.850,391.052 34.957,391.111 35.051 C 391.169 35.145,391.145 35.222,391.058 35.222 C 390.971 35.222,390.886 35.405,390.869 35.627 C 390.852 35.850,390.729 36.101,390.595 36.186 C 390.461 36.271,390.425 36.342,390.515 36.344 C 390.605 36.345,390.584 36.460,390.470 36.598 C 390.355 36.736,390.316 36.905,390.384 36.973 C 390.452 37.041,390.388 37.097,390.242 37.099 C 390.020 37.101,390.022 37.130,390.252 37.276 C 390.490 37.426,390.485 37.467,390.217 37.570 C 390.046 37.635,389.949 37.801,390.002 37.937 C 390.054 38.073,389.944 38.363,389.758 38.581 C 389.571 38.799,389.409 39.081,389.398 39.207 C 389.343 39.834,389.308 39.921,389.150 39.823 C 389.056 39.765,389.004 39.865,389.033 40.046 C 389.063 40.227,388.908 40.578,388.689 40.826 C 388.470 41.075,388.417 41.206,388.571 41.118 C 388.797 40.990,388.810 41.012,388.638 41.229 C 388.145 41.851,387.652 42.904,387.854 42.904 C 387.971 42.904,387.872 43.073,387.635 43.279 C 387.397 43.485,387.296 43.653,387.410 43.653 C 387.634 43.653,387.184 44.613,386.696 45.175 C 386.540 45.355,386.297 45.894,386.155 46.373 C 386.014 46.852,385.783 47.288,385.643 47.342 C 385.503 47.396,385.431 47.508,385.483 47.592 C 385.535 47.676,385.454 47.868,385.303 48.019 C 385.153 48.169,385.089 48.352,385.161 48.424 C 385.233 48.496,385.129 48.675,384.929 48.821 C 384.729 48.967,384.626 49.087,384.700 49.087 C 384.774 49.087,384.703 49.340,384.543 49.649 C 384.383 49.958,384.167 50.211,384.062 50.211 C 383.957 50.211,383.885 50.316,383.902 50.445 C 383.963 50.920,383.883 51.167,383.702 51.055 C 383.596 50.990,383.565 51.064,383.628 51.230 C 383.694 51.402,383.614 51.567,383.428 51.639 C 383.257 51.704,383.160 51.871,383.213 52.010 C 383.266 52.148,383.136 52.383,382.923 52.533 C 382.710 52.682,382.584 52.883,382.644 52.979 C 382.703 53.075,382.541 53.352,382.284 53.594 C 382.026 53.836,381.859 54.146,381.912 54.284 C 381.965 54.421,381.883 54.582,381.731 54.640 C 381.579 54.699,381.499 54.819,381.554 54.907 C 381.608 54.996,381.488 55.233,381.287 55.434 C 381.086 55.635,380.970 55.849,381.030 55.909 C 381.091 55.970,381.036 56.019,380.910 56.019 C 380.784 56.019,380.733 56.103,380.796 56.206 C 380.860 56.309,380.818 56.393,380.703 56.393 C 380.587 56.393,380.537 56.464,380.590 56.549 C 380.707 56.740,379.822 58.080,379.578 58.080 C 379.481 58.080,379.451 58.205,379.510 58.359 C 379.571 58.518,379.489 58.688,379.318 58.753 C 379.153 58.817,379.065 58.944,379.122 59.036 C 379.179 59.128,379.132 59.204,379.018 59.204 C 378.904 59.204,378.682 59.510,378.525 59.885 C 378.213 60.632,377.582 61.588,377.143 61.979 C 376.963 62.139,376.953 62.182,377.115 62.099 C 377.447 61.928,377.145 62.501,376.596 63.084 C 376.382 63.311,376.206 63.554,376.206 63.624 C 376.206 63.693,376.025 63.907,375.803 64.100 C 375.581 64.292,375.451 64.450,375.513 64.450 C 375.576 64.450,375.414 64.663,375.153 64.923 C 374.893 65.184,374.713 65.498,374.755 65.622 C 374.832 65.856,374.712 66.047,374.005 66.818 C 373.773 67.070,373.583 67.362,373.583 67.467 C 373.583 67.571,373.485 67.596,373.364 67.521 C 373.218 67.431,373.184 67.487,373.261 67.689 C 373.337 67.886,373.200 68.130,372.871 68.389 C 372.593 68.608,372.492 68.732,372.646 68.665 C 372.834 68.584,372.819 68.632,372.602 68.810 C 372.424 68.957,372.323 69.122,372.378 69.177 C 372.433 69.232,372.158 69.551,371.766 69.885 C 371.374 70.219,371.180 70.423,371.335 70.339 C 371.642 70.172,371.449 70.468,370.726 71.274 C 370.546 71.475,370.398 71.708,370.398 71.792 C 370.398 71.875,370.258 71.944,370.086 71.944 C 369.914 71.944,369.825 71.995,369.887 72.057 C 369.949 72.119,369.791 72.364,369.536 72.601 C 369.208 72.905,369.142 73.060,369.313 73.129 C 369.456 73.186,369.407 73.232,369.196 73.240 C 368.998 73.249,368.889 73.308,368.954 73.372 C 369.120 73.539,368.142 74.772,367.942 74.648 C 367.850 74.591,367.775 74.679,367.775 74.843 C 367.775 75.006,367.649 75.189,367.494 75.248 C 367.340 75.308,367.213 75.426,367.213 75.512 C 367.213 75.598,366.960 75.945,366.651 76.283 C 366.342 76.622,366.089 77.020,366.089 77.169 C 366.089 77.318,366.037 77.387,365.973 77.324 C 365.853 77.203,365.340 77.630,365.340 77.849 C 365.340 78.093,364.638 78.861,364.521 78.745 C 364.456 78.679,364.403 78.772,364.403 78.949 C 364.403 79.146,364.318 79.220,364.187 79.139 C 364.053 79.057,364.021 79.088,364.102 79.219 C 364.250 79.458,363.736 80.064,363.232 80.245 C 363.052 80.310,362.904 80.489,362.904 80.643 C 362.904 80.797,362.728 81.018,362.513 81.133 C 362.298 81.248,362.169 81.389,362.227 81.446 C 362.284 81.503,361.818 82.045,361.191 82.649 C 360.564 83.253,360.103 83.747,360.166 83.747 C 360.229 83.747,360.133 83.903,359.953 84.093 C 359.773 84.284,359.466 84.663,359.271 84.936 C 359.076 85.210,358.819 85.433,358.698 85.433 C 358.578 85.433,358.231 85.768,357.928 86.178 C 357.625 86.588,357.272 86.925,357.143 86.928 C 357.014 86.930,356.930 87.037,356.956 87.166 C 356.981 87.295,356.902 87.381,356.778 87.357 C 356.655 87.333,356.384 87.553,356.175 87.846 C 355.555 88.717,354.714 89.555,354.460 89.555 C 354.330 89.555,354.274 89.606,354.336 89.667 C 354.464 89.796,353.359 91.070,353.183 90.996 C 353.120 90.970,352.760 91.267,352.385 91.657 C 352.009 92.047,351.738 92.365,351.783 92.365 C 351.828 92.365,351.756 92.483,351.623 92.627 C 351.490 92.770,351.327 92.855,351.261 92.815 C 351.194 92.775,351.090 92.874,351.028 93.034 C 350.966 93.195,350.829 93.272,350.723 93.206 C 350.616 93.141,350.553 93.199,350.581 93.335 C 350.609 93.472,350.507 93.555,350.351 93.521 C 350.197 93.486,350.134 93.522,350.211 93.599 C 350.390 93.778,349.815 94.426,349.479 94.426 C 349.341 94.426,349.227 94.489,349.227 94.567 C 349.226 94.869,348.299 95.765,348.109 95.647 C 347.997 95.579,347.930 95.634,347.958 95.771 C 347.986 95.907,347.904 95.998,347.775 95.972 C 347.646 95.946,347.562 95.988,347.588 96.066 C 347.614 96.143,347.572 96.227,347.495 96.254 C 347.138 96.375,346.417 97.147,346.414 97.411 C 346.412 97.651,346.381 97.658,346.247 97.446 C 346.120 97.244,346.007 97.307,345.739 97.727 C 345.324 98.378,345.089 98.560,344.851 98.413 C 344.753 98.352,344.733 98.400,344.807 98.519 C 344.888 98.651,344.753 98.807,344.461 98.918 C 344.197 99.019,343.981 99.229,343.981 99.386 C 343.981 99.547,343.818 99.672,343.608 99.672 C 343.403 99.672,343.130 99.841,343.001 100.047 C 342.872 100.253,342.647 100.422,342.500 100.422 C 342.353 100.422,342.289 100.478,342.358 100.547 C 342.507 100.696,341.946 101.358,341.671 101.358 C 341.565 101.358,341.262 101.595,340.997 101.884 C 340.732 102.173,340.600 102.274,340.703 102.109 C 340.806 101.944,340.709 101.997,340.488 102.227 C 340.266 102.457,340.021 102.588,339.942 102.517 C 339.864 102.447,339.857 102.490,339.928 102.614 C 340.041 102.810,339.452 103.299,339.079 103.319 C 339.010 103.323,338.884 103.402,338.798 103.496 C 338.705 103.597,338.756 103.606,338.923 103.518 C 339.077 103.437,338.909 103.625,338.548 103.937 C 338.187 104.250,337.827 104.465,337.747 104.417 C 337.667 104.368,337.625 104.434,337.653 104.564 C 337.682 104.694,337.428 104.936,337.089 105.102 C 336.750 105.267,336.539 105.476,336.620 105.565 C 336.702 105.654,336.617 105.673,336.431 105.606 C 336.241 105.537,336.140 105.561,336.201 105.659 C 336.260 105.755,335.927 106.057,335.461 106.330 C 334.995 106.604,334.614 106.908,334.614 107.006 C 334.614 107.105,334.319 107.309,333.958 107.459 C 333.597 107.610,333.302 107.864,333.302 108.023 C 333.302 108.182,333.217 108.260,333.113 108.196 C 332.887 108.056,332.328 108.566,332.509 108.746 C 332.578 108.816,332.490 108.817,332.313 108.749 C 332.100 108.667,331.991 108.717,331.991 108.896 C 331.991 109.151,331.120 109.704,330.825 109.636 C 330.751 109.619,330.601 109.773,330.491 109.978 C 330.381 110.184,330.168 110.351,330.017 110.351 C 329.866 110.351,329.742 110.483,329.742 110.643 C 329.742 110.804,329.658 110.883,329.555 110.820 C 329.452 110.756,329.368 110.807,329.368 110.934 C 329.368 111.060,329.312 111.107,329.244 111.039 C 329.176 110.971,329.003 111.084,328.859 111.289 C 328.715 111.495,328.469 111.663,328.313 111.663 C 328.157 111.663,327.903 111.789,327.748 111.944 C 327.594 112.098,327.532 112.225,327.610 112.225 C 327.689 112.225,327.590 112.344,327.392 112.489 C 327.193 112.635,326.966 112.714,326.887 112.666 C 326.809 112.617,326.745 112.672,326.745 112.787 C 326.745 112.902,326.667 112.948,326.572 112.890 C 326.478 112.831,326.223 113.008,326.008 113.282 C 325.792 113.556,325.571 113.737,325.518 113.683 C 325.464 113.630,325.162 113.827,324.846 114.122 C 324.530 114.417,324.195 114.612,324.103 114.555 C 324.010 114.498,323.934 114.540,323.934 114.649 C 323.934 114.758,323.803 114.848,323.642 114.848 C 323.482 114.848,323.402 114.932,323.466 115.035 C 323.530 115.138,323.493 115.222,323.383 115.222 C 323.274 115.222,323.143 115.222,323.091 115.222 C 323.040 115.222,322.829 115.391,322.623 115.597 C 322.417 115.803,322.117 115.972,321.956 115.972 C 321.796 115.972,321.716 116.056,321.780 116.159 C 321.844 116.262,321.764 116.347,321.604 116.347 C 321.443 116.347,321.311 116.431,321.311 116.534 C 321.311 116.637,321.194 116.721,321.050 116.721 C 320.907 116.721,320.741 116.848,320.682 117.002 C 320.622 117.157,320.445 117.283,320.287 117.283 C 320.129 117.283,320.000 117.368,320.000 117.471 C 320.000 117.574,319.871 117.658,319.713 117.658 C 319.555 117.658,319.378 117.785,319.318 117.939 C 319.259 118.094,319.004 118.220,318.751 118.220 C 318.493 118.220,318.342 118.302,318.407 118.407 C 318.512 118.576,318.266 118.676,317.892 118.617 C 317.815 118.605,317.752 118.719,317.752 118.870 C 317.752 119.026,317.641 119.103,317.495 119.047 C 317.354 118.992,317.188 119.079,317.126 119.240 C 317.064 119.400,316.906 119.532,316.774 119.532 C 316.642 119.532,316.310 119.722,316.035 119.953 C 315.382 120.505,313.762 121.488,313.583 121.442 C 313.506 121.422,313.443 121.494,313.443 121.604 C 313.443 121.713,313.367 121.755,313.275 121.698 C 313.183 121.641,313.059 121.721,313.000 121.875 C 312.941 122.029,312.727 122.155,312.525 122.155 C 312.323 122.155,312.031 122.281,311.877 122.436 C 311.722 122.590,311.501 122.717,311.384 122.717 C 311.268 122.717,311.215 122.785,311.267 122.870 C 311.349 123.002,310.242 123.794,310.117 123.692 C 309.972 123.573,309.690 123.680,309.777 123.821 C 309.886 123.997,309.487 124.222,308.856 124.343 C 308.651 124.382,308.218 124.672,307.893 124.987 C 307.469 125.397,307.274 125.489,307.202 125.309 C 307.129 125.126,307.098 125.122,307.087 125.293 C 307.079 125.422,306.946 125.527,306.792 125.527 C 306.637 125.527,306.511 125.651,306.511 125.802 C 306.511 125.958,306.399 126.035,306.254 125.979 C 306.112 125.924,305.869 126.007,305.714 126.163 C 305.558 126.319,305.379 126.394,305.315 126.330 C 305.251 126.266,305.199 126.301,305.199 126.408 C 305.199 126.514,304.862 126.824,304.450 127.097 C 304.037 127.370,303.700 127.508,303.700 127.403 C 303.700 127.299,303.532 127.382,303.326 127.588 C 302.976 127.937,302.702 128.045,302.328 127.980 C 302.243 127.965,302.223 128.033,302.283 128.130 C 302.343 128.227,302.133 128.364,301.816 128.433 C 301.499 128.503,301.192 128.683,301.134 128.834 C 301.076 128.985,300.916 129.065,300.777 129.012 C 300.638 128.958,300.441 129.059,300.339 129.235 C 300.236 129.411,300.149 129.486,300.146 129.401 C 300.143 129.316,300.007 129.381,299.844 129.543 C 299.682 129.706,299.450 129.783,299.329 129.714 C 299.209 129.645,299.173 129.658,299.250 129.743 C 299.429 129.941,298.378 130.585,297.877 130.585 C 297.667 130.585,297.548 130.670,297.611 130.773 C 297.714 130.939,297.316 131.036,297.036 130.913 C 296.977 130.888,296.846 131.016,296.743 131.198 C 296.641 131.381,296.479 131.481,296.382 131.421 C 296.285 131.362,296.206 131.402,296.206 131.511 C 296.206 131.620,296.032 131.710,295.820 131.710 C 295.608 131.710,295.481 131.785,295.538 131.877 C 295.664 132.081,295.119 132.316,294.873 132.165 C 294.777 132.105,294.721 132.152,294.749 132.269 C 294.778 132.385,294.465 132.599,294.054 132.744 C 293.643 132.889,293.279 133.090,293.245 133.191 C 293.212 133.292,293.063 133.328,292.915 133.272 C 292.767 133.215,292.646 133.262,292.646 133.376 C 292.646 133.490,292.473 133.583,292.261 133.583 C 292.048 133.583,291.925 133.665,291.987 133.765 C 292.082 133.918,291.412 134.207,290.907 134.232 C 290.825 134.236,290.695 134.342,290.617 134.468 C 290.539 134.595,290.283 134.727,290.047 134.763 C 289.811 134.799,289.550 134.939,289.467 135.073 C 289.380 135.214,289.215 135.255,289.079 135.171 C 288.933 135.080,288.888 135.100,288.963 135.221 C 289.109 135.457,288.574 135.697,288.291 135.522 C 288.177 135.451,288.147 135.487,288.220 135.606 C 288.290 135.719,288.184 135.900,287.983 136.008 C 287.715 136.151,287.593 136.141,287.524 135.970 C 287.470 135.836,287.424 135.880,287.415 136.074 C 287.407 136.259,287.295 136.389,287.166 136.363 C 286.890 136.307,285.542 136.929,285.186 137.276 C 284.932 137.524,284.689 137.588,284.243 137.527 C 284.104 137.508,284.040 137.573,284.101 137.671 C 284.202 137.834,283.565 138.148,283.232 138.100 C 283.155 138.089,283.091 138.164,283.091 138.267 C 283.091 138.370,283.028 138.436,282.951 138.415 C 282.874 138.393,282.632 138.474,282.413 138.595 C 282.195 138.717,281.963 138.763,281.898 138.698 C 281.833 138.632,281.780 138.683,281.780 138.809 C 281.780 138.935,281.696 138.986,281.593 138.923 C 281.489 138.859,281.405 138.910,281.405 139.037 C 281.405 139.163,281.354 139.215,281.292 139.153 C 281.229 139.090,281.005 139.200,280.795 139.396 C 280.584 139.592,280.350 139.715,280.274 139.668 C 280.198 139.621,280.036 139.703,279.914 139.850 C 279.792 139.998,279.559 140.067,279.397 140.005 C 279.227 139.940,279.001 140.032,278.861 140.223 C 278.728 140.404,278.530 140.497,278.420 140.429 C 278.310 140.361,278.220 140.397,278.220 140.509 C 278.220 140.734,277.444 141.096,276.721 141.209 C 276.464 141.249,276.153 141.413,276.031 141.573 C 275.909 141.733,275.727 141.813,275.626 141.751 C 275.525 141.688,275.412 141.726,275.376 141.836 C 275.339 141.945,275.157 142.057,274.970 142.084 C 274.783 142.112,274.561 142.246,274.477 142.382 C 274.393 142.519,274.189 142.579,274.024 142.516 C 273.859 142.452,273.724 142.472,273.724 142.560 C 273.724 142.648,273.576 142.774,273.396 142.840 C 273.215 142.907,272.773 143.123,272.412 143.322 C 272.052 143.521,271.651 143.647,271.522 143.604 C 271.393 143.560,271.288 143.600,271.288 143.692 C 271.288 143.852,269.888 144.402,269.878 144.245 C 269.876 144.203,269.639 144.354,269.351 144.580 C 269.052 144.815,268.700 144.941,268.529 144.876 C 268.330 144.799,268.274 144.834,268.364 144.980 C 268.440 145.102,268.392 145.212,268.255 145.228 C 268.120 145.243,267.925 145.267,267.822 145.279 C 267.719 145.292,267.529 145.369,267.400 145.449 C 267.272 145.530,267.166 145.533,267.166 145.455 C 267.166 145.378,267.034 145.478,266.871 145.678 C 266.709 145.878,266.631 145.916,266.698 145.761 C 266.767 145.600,266.699 145.628,266.537 145.827 C 266.381 146.018,266.038 146.186,265.774 146.202 C 265.509 146.217,265.293 146.293,265.293 146.370 C 265.293 146.447,265.141 146.511,264.956 146.511 C 264.770 146.511,264.517 146.612,264.393 146.735 C 264.270 146.859,264.169 146.888,264.169 146.800 C 264.169 146.712,263.986 146.800,263.762 146.997 C 263.511 147.217,263.418 147.246,263.520 147.073 C 263.650 146.853,263.576 146.863,263.184 147.119 C 262.909 147.300,262.549 147.447,262.384 147.447 C 262.204 147.447,262.139 147.534,262.221 147.666 C 262.312 147.814,262.254 147.846,262.045 147.766 C 261.873 147.700,261.733 147.733,261.733 147.839 C 261.733 147.945,261.656 147.984,261.562 147.926 C 261.467 147.867,261.359 147.912,261.322 148.025 C 261.284 148.139,261.024 148.245,260.744 148.261 C 260.464 148.277,260.234 148.347,260.234 148.416 C 260.234 148.486,259.918 148.644,259.532 148.769 C 259.145 148.893,258.727 149.076,258.603 149.174 C 258.479 149.273,258.276 149.291,258.153 149.214 C 258.000 149.120,257.977 149.155,258.081 149.324 C 258.192 149.503,258.150 149.539,257.929 149.455 C 257.761 149.390,257.573 149.419,257.511 149.519 C 257.449 149.620,257.325 149.657,257.237 149.602 C 257.148 149.547,257.022 149.588,256.957 149.692 C 256.893 149.797,256.685 149.883,256.496 149.883 C 256.307 149.883,256.100 150.019,256.037 150.185 C 255.963 150.377,255.784 150.452,255.548 150.390 C 255.343 150.337,255.176 150.369,255.176 150.463 C 255.176 150.556,255.007 150.632,254.801 150.632 C 254.595 150.632,254.426 150.703,254.426 150.790 C 254.426 150.876,254.068 151.060,253.630 151.198 C 253.192 151.336,252.732 151.526,252.608 151.619 C 252.483 151.712,252.301 151.739,252.201 151.677 C 252.102 151.616,251.901 151.685,251.755 151.831 C 251.478 152.109,250.117 152.555,250.117 152.368 C 250.117 152.309,249.954 152.408,249.754 152.589 C 249.555 152.769,249.311 152.868,249.213 152.807 C 249.116 152.747,248.935 152.818,248.813 152.965 C 248.691 153.112,248.471 153.187,248.325 153.131 C 248.179 153.075,248.011 153.155,247.952 153.309 C 247.844 153.590,246.290 154.131,245.855 154.038 C 245.726 154.011,245.621 154.076,245.621 154.184 C 245.621 154.291,245.459 154.379,245.262 154.379 C 245.064 154.379,244.860 154.485,244.808 154.614 C 244.736 154.791,244.710 154.793,244.699 154.619 C 244.690 154.494,244.558 154.439,244.404 154.499 C 244.250 154.558,244.179 154.695,244.246 154.803 C 244.323 154.928,244.220 154.962,243.964 154.895 C 243.735 154.835,243.560 154.877,243.560 154.990 C 243.560 155.101,243.504 155.136,243.436 155.068 C 243.369 155.000,243.200 155.039,243.062 155.153 C 242.923 155.268,242.810 155.299,242.810 155.222 C 242.810 155.146,242.684 155.188,242.529 155.316 C 242.375 155.444,242.248 155.484,242.248 155.404 C 242.248 155.324,242.101 155.387,241.920 155.545 C 241.740 155.702,241.445 155.807,241.264 155.778 C 241.083 155.748,240.983 155.801,241.041 155.895 C 241.099 155.989,240.994 156.075,240.807 156.087 C 240.186 156.127,240.097 156.157,239.587 156.503 C 239.308 156.692,238.992 156.793,238.884 156.726 C 238.777 156.660,238.689 156.695,238.689 156.804 C 238.689 156.913,238.483 157.002,238.231 157.002 C 237.980 157.002,237.724 157.083,237.663 157.182 C 237.602 157.280,237.429 157.313,237.277 157.255 C 237.126 157.197,237.002 157.248,237.002 157.368 C 237.002 157.488,236.918 157.534,236.814 157.470 C 236.589 157.331,235.316 157.762,235.316 157.977 C 235.316 158.059,235.070 158.126,234.770 158.126 C 234.469 158.126,234.191 158.224,234.151 158.342 C 234.112 158.461,233.915 158.572,233.714 158.588 C 233.513 158.604,233.159 158.721,232.927 158.847 C 232.696 158.973,232.505 159.010,232.503 158.929 C 232.501 158.848,232.438 158.880,232.361 159.001 C 232.285 159.121,231.844 159.275,231.382 159.344 C 230.919 159.413,230.498 159.526,230.446 159.595 C 230.225 159.886,229.323 160.228,229.052 160.124 C 228.891 160.062,228.759 160.098,228.759 160.204 C 228.759 160.310,228.671 160.342,228.563 160.276 C 228.456 160.209,228.139 160.307,227.861 160.492 C 227.346 160.833,227.090 160.919,226.417 160.972 C 226.211 160.989,225.898 161.124,225.721 161.273 C 225.545 161.422,225.281 161.498,225.135 161.443 C 224.989 161.387,224.775 161.435,224.660 161.551 C 224.544 161.667,224.450 161.692,224.450 161.607 C 224.450 161.522,224.323 161.558,224.169 161.686 C 224.014 161.814,223.886 161.846,223.885 161.756 C 223.883 161.666,223.802 161.719,223.704 161.874 C 223.520 162.165,223.458 162.186,222.659 162.225 C 222.395 162.238,222.220 162.314,222.270 162.395 C 222.320 162.476,222.220 162.554,222.047 162.567 C 221.442 162.615,219.784 163.146,219.471 163.392 C 219.360 163.480,219.084 163.515,218.857 163.471 C 218.587 163.419,218.489 163.464,218.574 163.601 C 218.658 163.738,218.594 163.769,218.391 163.691 C 218.219 163.625,218.080 163.662,218.080 163.775 C 218.080 163.887,217.915 163.935,217.714 163.882 C 217.513 163.830,217.323 163.860,217.292 163.949 C 217.262 164.038,217.068 164.139,216.862 164.172 C 216.656 164.206,216.309 164.332,216.090 164.452 C 215.872 164.572,215.643 164.620,215.581 164.558 C 215.519 164.496,215.245 164.592,214.971 164.772 C 214.698 164.951,214.531 165.004,214.602 164.891 C 214.781 164.600,214.584 164.633,214.046 164.985 C 213.793 165.151,213.466 165.241,213.319 165.185 C 213.172 165.128,213.007 165.199,212.952 165.342 C 212.897 165.486,212.681 165.570,212.468 165.529 C 212.257 165.488,212.084 165.534,212.084 165.631 C 212.084 165.728,211.910 165.808,211.697 165.808 C 211.484 165.808,211.152 165.892,210.960 165.996 C 210.767 166.099,210.368 166.210,210.074 166.242 C 209.779 166.274,209.437 166.363,209.312 166.440 C 209.188 166.517,209.002 166.527,208.899 166.464 C 208.796 166.400,208.711 166.416,208.710 166.499 C 208.710 166.583,208.499 166.749,208.242 166.868 C 207.985 166.987,207.775 167.008,207.775 166.914 C 207.775 166.821,207.686 166.745,207.577 166.745 C 207.468 166.745,207.439 166.843,207.514 166.964 C 207.604 167.110,207.548 167.144,207.344 167.066 C 207.175 167.001,206.987 167.030,206.925 167.131 C 206.863 167.231,206.729 167.261,206.626 167.198 C 206.524 167.135,206.282 167.226,206.088 167.401 C 205.894 167.577,205.626 167.681,205.491 167.632 C 205.356 167.584,205.077 167.633,204.871 167.741 C 204.534 167.917,203.984 168.045,203.326 168.099 C 203.197 168.110,203.091 168.179,203.091 168.254 C 203.091 168.377,202.687 168.491,201.686 168.652 C 201.480 168.685,201.194 168.824,201.050 168.960 C 200.862 169.138,200.752 169.149,200.659 168.998 C 200.569 168.853,200.452 168.881,200.278 169.090 C 200.120 169.280,199.871 169.352,199.604 169.285 C 199.371 169.227,199.128 169.264,199.064 169.367 C 199.000 169.470,198.695 169.555,198.385 169.555 C 198.058 169.555,197.872 169.633,197.939 169.742 C 198.003 169.845,197.881 169.940,197.669 169.953 C 196.783 170.007,196.616 170.036,196.393 170.178 C 196.265 170.260,196.062 170.266,195.943 170.193 C 195.809 170.110,195.777 170.141,195.860 170.274 C 195.946 170.414,195.842 170.480,195.561 170.464 C 195.049 170.433,194.605 170.535,194.469 170.715 C 194.367 170.849,193.492 171.075,192.927 171.112 C 192.747 171.124,192.600 171.206,192.600 171.294 C 192.600 171.382,192.420 171.397,192.201 171.327 C 191.952 171.248,191.847 171.272,191.921 171.391 C 191.991 171.505,191.889 171.542,191.663 171.483 C 191.457 171.429,191.288 171.472,191.288 171.578 C 191.288 171.684,191.077 171.747,190.820 171.719 C 190.562 171.691,190.351 171.745,190.351 171.840 C 190.351 171.935,190.273 171.964,190.177 171.905 C 190.081 171.846,189.953 171.878,189.892 171.976 C 189.831 172.074,189.615 172.123,189.411 172.084 C 189.207 172.044,189.040 172.099,189.040 172.204 C 189.040 172.310,188.934 172.358,188.806 172.312 C 188.677 172.265,188.318 172.329,188.009 172.454 C 187.700 172.580,187.299 172.660,187.118 172.634 C 186.938 172.607,186.837 172.662,186.895 172.756 C 186.954 172.850,186.827 172.938,186.615 172.951 C 186.403 172.964,186.061 172.995,185.855 173.021 C 185.649 173.047,185.349 173.078,185.188 173.091 C 185.018 173.105,184.952 173.205,185.030 173.331 C 185.108 173.457,185.081 173.497,184.967 173.426 C 184.859 173.359,184.407 173.433,183.963 173.590 C 183.518 173.746,183.051 173.835,182.924 173.786 C 182.798 173.738,182.667 173.778,182.634 173.877 C 182.569 174.074,182.062 174.202,180.807 174.338 C 180.348 174.388,179.927 174.498,179.870 174.582 C 179.678 174.863,179.135 174.970,179.043 174.744 C 178.978 174.584,178.948 174.590,178.938 174.765 C 178.929 174.900,178.838 174.958,178.735 174.895 C 178.632 174.831,178.548 174.866,178.548 174.974 C 178.548 175.081,178.296 175.139,177.988 175.103 C 177.661 175.065,177.336 175.149,177.207 175.305 C 177.085 175.452,176.768 175.551,176.502 175.525 C 176.236 175.499,175.850 175.568,175.644 175.678 C 175.438 175.787,175.080 175.846,174.848 175.809 C 174.616 175.771,174.426 175.817,174.426 175.911 C 174.426 176.116,172.784 176.492,172.450 176.364 C 172.321 176.315,172.159 176.366,172.090 176.477 C 172.021 176.589,171.886 176.632,171.790 176.573 C 171.694 176.514,171.616 176.554,171.616 176.663 C 171.616 176.773,171.553 176.846,171.475 176.826 C 171.398 176.806,170.880 176.892,170.324 177.017 C 169.768 177.142,169.270 177.201,169.217 177.148 C 169.164 177.096,169.007 177.147,168.867 177.263 C 168.728 177.379,168.350 177.504,168.027 177.542 C 167.704 177.579,167.310 177.716,167.150 177.845 C 166.909 178.040,166.888 178.033,167.026 177.799 C 167.169 177.556,167.148 177.553,166.874 177.775 C 166.700 177.916,166.557 177.962,166.557 177.878 C 166.557 177.793,166.463 177.818,166.347 177.934 C 166.232 178.049,166.020 178.099,165.876 178.044 C 165.733 177.989,165.497 178.043,165.351 178.164 C 165.205 178.285,164.975 178.361,164.838 178.333 C 164.702 178.305,164.390 178.392,164.146 178.527 C 163.882 178.673,163.753 178.689,163.829 178.567 C 164.005 178.282,163.724 178.319,163.307 178.635 C 163.117 178.779,162.842 178.851,162.696 178.795 C 162.550 178.739,162.289 178.808,162.116 178.949 C 161.846 179.168,161.825 179.164,161.967 178.923 C 162.108 178.683,162.088 178.678,161.825 178.891 C 161.656 179.028,161.157 179.182,160.715 179.232 C 160.273 179.283,159.819 179.402,159.705 179.497 C 159.590 179.591,159.437 179.609,159.364 179.535 C 159.290 179.462,159.152 179.526,159.056 179.678 C 158.903 179.919,158.881 179.918,158.876 179.672 C 158.872 179.464,158.832 179.451,158.723 179.622 C 158.643 179.749,158.206 179.900,157.754 179.957 C 157.301 180.014,156.842 180.130,156.732 180.215 C 156.623 180.301,156.323 180.352,156.066 180.330 C 155.808 180.307,155.390 180.424,155.136 180.589 C 154.863 180.767,154.734 180.794,154.819 180.656 C 154.900 180.525,154.876 180.422,154.765 180.422 C 154.656 180.422,154.567 180.495,154.567 180.585 C 154.567 180.676,154.356 180.764,154.098 180.781 C 153.019 180.854,152.881 180.885,152.881 181.046 C 152.881 181.139,152.712 181.171,152.506 181.117 C 152.300 181.063,152.088 181.090,152.034 181.177 C 151.980 181.264,151.769 181.303,151.565 181.264 C 151.361 181.225,151.194 181.282,151.194 181.391 C 151.194 181.500,151.026 181.545,150.820 181.491 C 150.614 181.437,150.445 181.471,150.445 181.567 C 150.445 181.662,150.239 181.703,149.987 181.657 C 149.736 181.612,149.502 181.657,149.469 181.758 C 149.435 181.858,149.072 181.957,148.662 181.978 C 148.251 181.998,147.870 182.075,147.815 182.149 C 147.759 182.223,147.422 182.301,147.065 182.322 C 146.709 182.344,146.315 182.438,146.191 182.532 C 146.067 182.625,145.877 182.648,145.769 182.581 C 145.662 182.515,145.572 182.571,145.571 182.706 C 145.569 182.884,145.520 182.875,145.391 182.671 C 145.257 182.459,145.162 182.444,144.997 182.610 C 144.877 182.730,144.649 182.778,144.490 182.717 C 144.283 182.638,144.245 182.678,144.356 182.857 C 144.469 183.040,144.428 183.076,144.205 182.991 C 144.037 182.926,143.847 182.958,143.783 183.062 C 143.709 183.182,143.558 183.162,143.367 183.007 C 143.141 182.824,143.101 182.822,143.207 182.998 C 143.337 183.214,142.936 183.314,142.063 183.283 C 141.935 183.278,141.869 183.335,141.915 183.410 C 141.961 183.485,141.728 183.562,141.398 183.580 C 140.340 183.640,138.923 183.875,138.923 183.991 C 138.923 184.012,138.754 184.058,138.548 184.093 C 138.342 184.128,137.830 184.230,137.409 184.319 C 136.989 184.408,136.505 184.460,136.332 184.435 C 136.160 184.410,136.019 184.472,136.019 184.573 C 136.019 184.675,135.829 184.742,135.597 184.723 C 135.365 184.705,135.133 184.705,135.082 184.724 C 134.866 184.805,134.204 184.923,133.724 184.966 C 133.441 184.991,133.209 185.081,133.209 185.165 C 133.209 185.249,133.040 185.264,132.834 185.199 C 132.628 185.134,132.459 185.165,132.459 185.269 C 132.459 185.373,132.292 185.426,132.088 185.387 C 131.884 185.348,131.676 185.384,131.624 185.466 C 131.573 185.549,131.306 185.574,131.030 185.521 C 130.736 185.465,130.576 185.500,130.641 185.605 C 130.704 185.707,130.492 185.776,130.153 185.763 C 129.824 185.752,129.457 185.814,129.337 185.902 C 129.217 185.990,128.795 186.091,128.400 186.126 C 128.005 186.162,127.681 186.206,127.681 186.225 C 127.681 186.294,125.804 186.631,125.199 186.671 C 124.967 186.686,124.778 186.771,124.778 186.860 C 124.778 186.949,124.527 186.985,124.220 186.940 C 123.913 186.895,123.639 186.924,123.611 187.004 C 123.583 187.084,123.222 187.168,122.810 187.190 C 122.398 187.212,121.961 187.306,121.839 187.399 C 121.716 187.491,121.362 187.527,121.052 187.478 C 120.742 187.429,120.462 187.461,120.431 187.549 C 120.372 187.716,118.256 188.122,117.051 188.198 C 116.665 188.222,116.244 188.326,116.114 188.430 C 115.984 188.533,115.567 188.603,115.188 188.585 C 114.787 188.566,114.543 188.627,114.608 188.731 C 114.675 188.841,114.449 188.867,114.030 188.799 C 113.562 188.723,113.381 188.752,113.465 188.889 C 113.547 189.022,113.393 189.061,113.011 189.005 C 112.691 188.958,112.479 188.996,112.537 189.090 C 112.594 189.183,112.358 189.241,112.012 189.217 C 111.665 189.194,111.226 189.241,111.037 189.322 C 110.847 189.402,110.320 189.474,109.866 189.481 C 109.411 189.488,109.040 189.551,109.040 189.620 C 109.040 189.689,108.871 189.790,108.665 189.844 C 108.459 189.898,108.337 189.865,108.395 189.772 C 108.455 189.675,108.305 189.677,108.039 189.778 C 107.786 189.874,107.532 189.905,107.474 189.847 C 107.417 189.790,107.050 189.868,106.659 190.021 C 106.268 190.175,105.680 190.306,105.351 190.313 C 105.023 190.320,104.601 190.399,104.415 190.489 C 104.228 190.579,103.759 190.646,103.372 190.639 C 102.986 190.633,102.670 190.682,102.670 190.748 C 102.670 190.950,101.929 191.078,101.816 190.896 C 101.758 190.802,101.627 190.726,101.524 190.726 C 101.421 190.726,101.380 190.798,101.434 190.885 C 101.528 191.036,101.053 191.116,99.737 191.170 C 99.412 191.183,99.179 191.248,99.219 191.313 C 99.259 191.378,99.019 191.439,98.686 191.448 C 98.352 191.457,97.914 191.471,97.711 191.479 C 97.508 191.486,97.277 191.594,97.198 191.718 C 97.090 191.888,97.054 191.884,97.052 191.699 C 97.050 191.564,96.960 191.509,96.850 191.576 C 96.741 191.644,96.383 191.741,96.054 191.793 C 95.726 191.845,95.299 191.972,95.106 192.075 C 94.845 192.214,94.791 192.205,94.895 192.037 C 95.002 191.865,94.941 191.862,94.632 192.027 C 94.412 192.146,94.136 192.183,94.019 192.111 C 93.888 192.030,93.858 192.063,93.940 192.196 C 94.035 192.350,93.880 192.388,93.407 192.327 C 92.965 192.271,92.739 192.318,92.737 192.468 C 92.735 192.607,92.665 192.585,92.553 192.412 C 92.450 192.253,92.370 192.226,92.368 192.349 C 92.367 192.468,92.218 192.543,92.037 192.514 C 91.857 192.484,91.625 192.512,91.522 192.576 C 91.419 192.639,91.124 192.703,90.867 192.719 C 90.609 192.734,90.356 192.765,90.304 192.787 C 90.253 192.809,89.969 192.810,89.674 192.790 C 89.379 192.770,89.186 192.832,89.245 192.927 C 89.303 193.022,89.232 193.099,89.087 193.099 C 88.941 193.099,88.874 193.016,88.936 192.914 C 89.005 192.803,88.953 192.789,88.806 192.881 C 88.586 193.016,88.014 193.143,87.354 193.203 C 87.225 193.215,87.119 193.305,87.119 193.403 C 87.119 193.502,87.003 193.486,86.861 193.368 C 86.667 193.207,86.469 193.207,86.065 193.370 C 85.769 193.488,85.148 193.608,84.684 193.635 C 84.220 193.663,83.841 193.700,83.841 193.719 C 83.841 193.789,83.072 193.940,82.623 193.958 C 82.365 193.969,82.093 194.068,82.017 194.178 C 81.925 194.312,81.878 194.299,81.876 194.139 C 81.874 193.952,81.785 193.945,81.479 194.109 C 81.262 194.225,80.714 194.326,80.261 194.333 C 79.808 194.339,79.438 194.395,79.438 194.456 C 79.438 194.517,79.248 194.578,79.016 194.591 C 78.785 194.605,78.131 194.679,77.564 194.756 C 76.998 194.833,76.218 194.889,75.831 194.882 C 75.445 194.874,75.129 194.940,75.129 195.029 C 75.129 195.117,74.918 195.166,74.660 195.138 C 74.403 195.110,74.192 195.173,74.192 195.279 C 74.192 195.386,74.144 195.424,74.084 195.365 C 74.025 195.305,73.730 195.327,73.429 195.414 C 73.093 195.510,72.881 195.501,72.881 195.390 C 72.881 195.287,72.699 195.306,72.459 195.435 C 72.227 195.559,71.616 195.696,71.101 195.739 C 69.714 195.855,69.150 195.919,68.993 195.978 C 68.916 196.007,68.642 196.051,68.384 196.076 C 68.126 196.101,67.385 196.217,66.736 196.333 C 66.087 196.450,65.483 196.500,65.393 196.445 C 65.304 196.389,65.188 196.450,65.136 196.580 C 65.061 196.766,65.038 196.765,65.027 196.576 C 65.015 196.394,64.872 196.409,64.429 196.638 C 64.055 196.832,63.898 196.857,63.990 196.708 C 64.087 196.550,64.056 196.524,63.890 196.626 C 63.756 196.709,63.259 196.814,62.784 196.861 C 61.572 196.980,60.999 197.052,60.890 197.100 C 60.758 197.157,59.630 197.272,58.689 197.324 C 58.251 197.348,57.892 197.439,57.892 197.526 C 57.892 197.612,57.731 197.632,57.533 197.569 C 57.336 197.507,57.118 197.547,57.048 197.659 C 56.979 197.772,56.487 197.852,55.955 197.839 C 55.423 197.825,54.718 197.898,54.388 198.001 C 54.058 198.105,53.552 198.162,53.264 198.130 C 52.976 198.097,52.618 198.167,52.470 198.286 C 52.257 198.455,52.232 198.447,52.352 198.248 C 52.478 198.039,52.429 198.036,52.064 198.231 C 51.822 198.360,51.274 198.484,50.845 198.506 C 50.417 198.528,49.972 198.604,49.858 198.675 C 49.743 198.746,49.649 198.712,49.649 198.599 C 49.649 198.452,49.539 198.453,49.259 198.603 C 48.888 198.801,47.007 198.989,45.480 198.981 C 45.094 198.978,44.778 199.051,44.778 199.143 C 44.778 199.234,44.612 199.266,44.410 199.213 C 44.208 199.160,43.668 199.244,43.212 199.400 C 42.587 199.613,42.327 199.630,42.166 199.468 C 42.005 199.307,41.912 199.318,41.791 199.513 C 41.691 199.675,41.469 199.730,41.200 199.660 C 40.963 199.598,40.660 199.638,40.526 199.749 C 40.392 199.860,40.114 199.906,39.907 199.852 C 39.692 199.796,39.530 199.846,39.529 199.971 C 39.527 200.128,39.487 200.126,39.383 199.963 C 39.277 199.796,39.054 199.789,38.496 199.938 C 38.087 200.047,37.400 200.146,36.971 200.158 C 36.541 200.169,36.235 200.252,36.291 200.342 C 36.346 200.432,36.232 200.420,36.037 200.316 C 35.797 200.188,35.571 200.187,35.344 200.314 C 35.158 200.418,34.486 200.527,33.850 200.556 C 33.214 200.585,32.693 200.626,32.693 200.647 C 32.693 200.711,31.981 200.825,31.007 200.915 C 30.492 200.963,29.733 201.053,29.321 201.114 C 28.267 201.272,26.520 201.432,25.199 201.491 C 24.200 201.536,23.242 201.647,22.254 201.833 C 22.076 201.867,21.878 201.947,21.813 202.012 C 21.748 202.077,21.492 202.054,21.245 201.960 C 20.998 201.866,20.796 201.857,20.796 201.941 C 20.796 202.118,20.780 202.120,18.829 202.226 C 18.005 202.270,17.330 202.324,17.330 202.344 C 17.330 202.384,16.329 202.508,15.082 202.622 C 14.670 202.660,14.333 202.702,14.333 202.715 C 14.333 202.779,12.336 202.957,11.400 202.976 C 10.817 202.988,10.368 203.043,10.402 203.098 C 10.436 203.153,10.323 203.207,10.150 203.218 C 9.977 203.229,9.119 203.298,8.244 203.371 C 7.368 203.444,6.356 203.508,5.995 203.514 C 5.635 203.520,5.270 203.617,5.185 203.730 C 5.075 203.874,5.002 203.866,4.935 203.700 C 4.883 203.571,4.758 203.466,4.657 203.466 C 4.557 203.466,4.517 203.535,4.570 203.620 C 4.664 203.773,3.896 203.852,1.827 203.902 C 1.234 203.916,0.749 203.996,0.749 204.080 C 0.749 204.163,0.602 204.207,0.422 204.177 C 0.110 204.124,0.091 210.082,0.047 326.792 L -0.000 449.461 200.000 449.461 L 400.000 449.461 400.000 225.304 C 400.000 102.017,399.930 1.103,399.845 1.051 C 399.760 0.998,399.693 1.394,399.695 1.931 " stroke="none" fill="#f4f8fb" fill-rule="evenodd"></path><path id="path1" d="M397.530 13.571 C 397.489 13.924,397.512 14.178,397.581 14.135 C 397.774 14.016,397.907 13.117,397.747 13.018 C 397.669 12.970,397.571 13.219,397.530 13.571 M394.394 25.433 C 394.386 25.562,394.381 25.710,394.383 25.763 C 394.385 25.816,394.254 26.116,394.091 26.432 C 393.928 26.747,393.825 27.096,393.863 27.209 C 393.900 27.321,394.081 27.021,394.264 26.540 C 394.448 26.060,394.555 25.562,394.503 25.433 C 394.428 25.246,394.406 25.246,394.394 25.433 M393.298 28.712 C 392.845 30.091,392.884 30.408,393.346 29.098 C 393.520 28.602,393.741 28.049,393.836 27.869 C 393.930 27.689,393.935 27.541,393.845 27.541 C 393.756 27.541,393.509 28.068,393.298 28.712 M387.017 44.309 C 386.845 44.670,386.766 44.962,386.841 44.959 C 387.017 44.951,387.631 43.653,387.458 43.653 C 387.387 43.653,387.189 43.948,387.017 44.309 M384.356 49.649 C 384.196 49.958,384.107 50.211,384.159 50.211 C 384.211 50.211,384.383 49.958,384.543 49.649 C 384.703 49.340,384.792 49.087,384.740 49.087 C 384.689 49.087,384.516 49.340,384.356 49.649 M383.613 51.070 C 383.438 51.337,383.338 51.597,383.390 51.650 C 383.443 51.702,383.620 51.484,383.785 51.165 C 384.149 50.460,384.049 50.405,383.613 51.070 M380.203 57.096 C 380.026 57.379,379.793 57.738,379.683 57.892 C 379.519 58.124,379.534 58.135,379.766 57.954 C 380.076 57.711,380.783 56.581,380.624 56.581 C 380.569 56.581,380.379 56.813,380.203 57.096 M376.803 62.523 C 376.578 62.803,376.393 63.115,376.393 63.215 C 376.393 63.316,376.604 63.113,376.862 62.763 C 377.119 62.414,377.330 62.103,377.330 62.071 C 377.330 61.926,377.181 62.053,376.803 62.523 M374.159 66.464 C 373.786 67.123,373.785 67.138,374.141 66.698 C 374.349 66.440,374.607 66.124,374.715 65.995 C 374.825 65.862,374.833 65.761,374.733 65.761 C 374.636 65.761,374.378 66.077,374.159 66.464 M371.798 69.649 L 371.468 70.164 371.964 69.710 C 372.499 69.219,372.548 69.133,372.293 69.133 C 372.202 69.133,371.979 69.365,371.798 69.649 M368.362 74.098 C 368.149 74.459,368.004 74.754,368.040 74.754 C 368.076 74.754,368.330 74.459,368.606 74.098 C 368.881 73.738,369.025 73.443,368.927 73.443 C 368.829 73.443,368.575 73.738,368.362 74.098 M363.777 79.625 C 363.501 79.934,363.342 80.187,363.423 80.187 C 363.570 80.187,364.020 79.718,364.285 79.289 C 364.533 78.888,364.291 79.048,363.777 79.625 M359.506 84.325 C 359.262 84.643,358.952 85.023,358.816 85.168 C 358.679 85.314,358.647 85.433,358.743 85.433 C 358.839 85.433,359.076 85.210,359.271 84.936 C 359.466 84.663,359.773 84.284,359.953 84.093 C 360.133 83.903,360.206 83.747,360.115 83.747 C 360.023 83.747,359.749 84.007,359.506 84.325 M357.564 86.370 C 357.268 86.679,357.105 86.927,357.201 86.922 C 357.367 86.912,358.332 85.808,358.176 85.808 C 358.136 85.808,357.861 86.061,357.564 86.370 M353.622 90.358 C 353.156 90.898,353.143 91.110,353.600 90.693 C 353.874 90.444,354.098 90.212,354.098 90.178 C 354.098 90.037,353.803 90.148,353.622 90.358 M352.307 91.663 L 351.756 92.272 352.365 91.721 C 352.700 91.419,352.974 91.145,352.974 91.112 C 352.974 90.968,352.820 91.095,352.307 91.663 M350.179 93.679 C 349.724 94.090,349.432 94.426,349.532 94.426 C 349.632 94.426,350.042 94.089,350.445 93.677 C 351.383 92.717,351.245 92.718,350.179 93.679 M348.190 95.594 C 347.678 96.133,347.509 96.364,347.814 96.109 C 348.527 95.510,348.703 95.339,349.016 94.941 C 349.518 94.302,349.106 94.627,348.190 95.594 M344.962 98.366 C 344.625 98.672,344.415 98.923,344.495 98.923 C 344.654 98.923,345.667 98.025,345.667 97.885 C 345.667 97.740,345.597 97.789,344.962 98.366 M339.297 103.152 C 338.834 103.518,338.286 103.961,338.080 104.138 C 337.874 104.314,337.496 104.604,337.242 104.782 C 336.987 104.960,336.887 105.105,337.020 105.105 C 337.153 105.105,337.741 104.689,338.326 104.179 C 338.912 103.670,339.602 103.083,339.859 102.874 C 340.117 102.666,340.286 102.493,340.234 102.490 C 340.183 102.488,339.761 102.786,339.297 103.152 M335.738 105.948 C 335.389 106.206,335.166 106.417,335.243 106.417 C 335.320 106.417,335.693 106.206,336.072 105.948 C 336.451 105.691,336.674 105.480,336.567 105.480 C 336.460 105.480,336.087 105.691,335.738 105.948 M327.147 112.350 C 326.808 112.718,326.944 112.817,327.365 112.509 C 327.551 112.372,327.636 112.219,327.552 112.169 C 327.469 112.118,327.287 112.200,327.147 112.350 M324.590 114.208 L 324.028 114.691 324.637 114.288 C 324.972 114.067,325.246 113.849,325.246 113.805 C 325.246 113.664,325.167 113.713,324.590 114.208 M315.167 120.361 C 314.230 121.024,314.196 121.133,315.081 120.635 C 315.518 120.389,315.876 120.124,315.877 120.047 C 315.879 119.859,315.875 119.860,315.167 120.361 M310.606 123.289 C 310.259 123.592,310.244 123.634,310.539 123.483 C 311.174 123.158,311.486 122.910,311.262 122.907 C 311.145 122.905,310.850 123.077,310.606 123.289 M309.219 124.041 C 309.021 124.362,309.199 124.393,309.591 124.106 C 309.895 123.884,309.904 123.841,309.649 123.841 C 309.481 123.841,309.287 123.931,309.219 124.041 M304.403 126.851 C 304.016 127.055,303.700 127.306,303.700 127.408 C 303.700 127.510,304.037 127.370,304.450 127.097 C 304.862 126.824,305.199 126.570,305.199 126.532 C 305.199 126.434,305.177 126.442,304.403 126.851 M298.645 130.125 C 298.182 130.378,297.904 130.585,298.025 130.585 C 298.257 130.585,299.578 129.853,299.578 129.724 C 299.578 129.615,299.567 129.620,298.645 130.125 M294.707 132.272 C 294.347 132.469,294.155 132.634,294.281 132.639 C 294.408 132.643,294.787 132.478,295.124 132.272 C 295.905 131.796,295.577 131.796,294.707 132.272 M288.384 135.505 C 287.946 135.725,287.588 135.976,287.588 136.064 C 287.588 136.185,289.006 135.482,289.446 135.142 C 289.699 134.947,289.063 135.164,288.384 135.505 M284.566 137.455 C 284.331 137.740,284.349 137.746,284.778 137.523 C 285.406 137.196,285.453 137.143,285.113 137.143 C 284.954 137.143,284.708 137.283,284.566 137.455 M277.611 140.733 C 277.328 140.836,277.096 140.992,277.096 141.079 C 277.096 141.165,277.349 141.110,277.658 140.956 C 278.093 140.739,278.452 140.442,278.173 140.530 C 278.148 140.538,277.895 140.629,277.611 140.733 M272.255 143.168 C 271.808 143.374,271.479 143.578,271.524 143.623 C 271.640 143.740,272.925 143.182,273.066 142.954 C 273.209 142.722,273.249 142.712,272.255 143.168 M265.855 146.065 L 265.386 146.339 265.855 146.214 C 266.377 146.075,266.517 145.986,266.401 145.870 C 266.358 145.827,266.112 145.915,265.855 146.065 M247.030 153.554 C 245.903 153.967,245.799 154.220,246.902 153.868 C 247.579 153.651,248.429 153.097,247.822 153.268 C 247.796 153.276,247.440 153.404,247.030 153.554 M239.297 156.446 C 239.066 156.539,238.876 156.660,238.876 156.715 C 238.876 156.897,239.174 156.819,239.543 156.540 C 239.957 156.226,239.899 156.204,239.297 156.446 M229.415 159.913 C 229.103 160.056,228.989 160.174,229.159 160.179 C 229.327 160.184,229.707 160.061,230.002 159.907 C 230.672 159.558,230.179 159.563,229.415 159.913 M226.885 160.753 C 226.662 160.900,226.690 160.926,227.021 160.880 C 227.250 160.848,227.496 160.763,227.567 160.692 C 227.766 160.493,227.203 160.543,226.885 160.753 M222.857 162.067 C 222.534 162.212,222.552 162.228,222.991 162.186 C 223.270 162.159,223.558 162.078,223.631 162.006 C 223.813 161.824,223.313 161.864,222.857 162.067 M219.286 163.273 C 218.813 163.631,219.018 163.634,219.698 163.280 C 219.993 163.126,220.103 162.999,219.942 162.999 C 219.781 162.998,219.486 163.121,219.286 163.273 M215.833 164.289 C 215.564 164.364,215.453 164.472,215.571 164.545 C 215.684 164.615,215.936 164.551,216.132 164.403 C 216.523 164.106,216.509 164.101,215.833 164.289 M210.237 166.023 C 209.891 166.123,209.643 166.239,209.686 166.282 C 209.780 166.377,211.148 166.013,211.148 165.893 C 211.148 165.782,210.999 165.804,210.237 166.023 M176.581 175.363 L 176.019 175.506 176.523 175.528 C 176.800 175.540,177.079 175.466,177.143 175.363 C 177.207 175.260,177.233 175.186,177.201 175.198 C 177.169 175.210,176.890 175.284,176.581 175.363 M170.398 176.862 C 170.162 176.963,170.127 177.023,170.304 177.023 C 170.459 177.023,170.754 176.950,170.960 176.862 C 171.196 176.760,171.231 176.701,171.054 176.701 C 170.899 176.701,170.604 176.773,170.398 176.862 M142.951 183.048 C 142.524 183.187,142.538 183.199,143.106 183.176 C 143.448 183.161,143.769 183.084,143.819 183.004 C 143.930 182.825,143.578 182.843,142.951 183.048 M141.171 183.437 C 140.903 183.546,140.999 183.573,141.505 183.530 C 141.895 183.497,142.256 183.427,142.309 183.374 C 142.463 183.220,141.580 183.269,141.171 183.437 M124.215 186.792 L 123.747 186.942 124.262 186.960 C 124.546 186.971,124.778 186.895,124.778 186.792 C 124.778 186.689,124.756 186.613,124.731 186.623 C 124.705 186.633,124.473 186.709,124.215 186.792 M122.460 187.127 C 122.409 187.209,122.657 187.242,123.011 187.200 C 123.364 187.159,123.653 187.092,123.653 187.052 C 123.653 186.911,122.550 186.980,122.460 187.127 M118.829 187.857 C 119.009 187.905,119.304 187.905,119.485 187.857 C 119.665 187.810,119.518 187.772,119.157 187.772 C 118.796 187.772,118.649 187.810,118.829 187.857 M114.192 188.665 L 113.630 188.808 114.134 188.830 C 114.411 188.842,114.690 188.768,114.754 188.665 C 114.818 188.562,114.844 188.488,114.812 188.500 C 114.780 188.512,114.501 188.586,114.192 188.665 M112.037 189.040 C 111.405 189.173,111.402 189.178,111.944 189.180 C 112.253 189.182,112.759 189.118,113.068 189.040 C 113.845 188.842,112.977 188.842,112.037 189.040 M99.110 191.291 C 98.912 191.420,99.023 191.439,99.485 191.355 C 100.293 191.206,100.445 191.100,99.844 191.104 C 99.595 191.105,99.265 191.189,99.110 191.291 M72.881 195.384 C 72.881 195.473,73.091 195.505,73.349 195.456 C 73.607 195.406,73.817 195.334,73.817 195.294 C 73.817 195.255,73.607 195.222,73.349 195.222 C 73.091 195.222,72.881 195.295,72.881 195.384 M71.382 195.597 C 71.005 195.718,70.987 195.748,71.288 195.753 C 71.494 195.756,71.831 195.686,72.037 195.597 C 72.515 195.392,72.022 195.392,71.382 195.597 M69.789 195.785 C 69.553 195.886,69.518 195.946,69.696 195.946 C 69.850 195.946,70.145 195.873,70.351 195.785 C 70.587 195.683,70.622 195.624,70.445 195.624 C 70.290 195.624,69.995 195.696,69.789 195.785 M67.073 196.159 C 66.696 196.280,66.678 196.310,66.979 196.315 C 67.185 196.318,67.522 196.248,67.728 196.159 C 68.206 195.954,67.713 195.954,67.073 196.159 M56.019 197.658 L 55.176 197.789 56.055 197.817 C 56.538 197.833,56.985 197.761,57.049 197.658 C 57.113 197.555,57.097 197.483,57.013 197.499 C 56.930 197.514,56.482 197.586,56.019 197.658 M28.852 201.030 C 28.220 201.164,28.217 201.169,28.759 201.171 C 29.068 201.172,29.574 201.109,29.883 201.030 C 30.660 200.833,29.792 200.833,28.852 201.030 M25.855 201.405 C 25.469 201.529,25.452 201.558,25.761 201.571 C 25.967 201.580,26.262 201.505,26.417 201.405 C 26.745 201.193,26.517 201.193,25.855 201.405 M14.848 202.658 C 15.028 202.706,15.323 202.706,15.504 202.658 C 15.684 202.611,15.536 202.573,15.176 202.573 C 14.815 202.573,14.667 202.611,14.848 202.658 M100.015 449.602 C 155.076 449.628,245.118 449.628,300.109 449.602 C 355.101 449.576,310.052 449.555,200.000 449.555 C 89.948 449.555,44.955 449.576,100.015 449.602 " stroke="none" fill="#f4f8fb" fill-rule="evenodd"></path></g></svg>