<svg xmlns="http://www.w3.org/2000/svg" width="1298.41" height="169.977" viewBox="0 0 1298.41 169.977">
    <defs>
        <style>
            .cls-1{opacity:.789}.cls-2{fill:#4dbade}.cls-3{opacity:.72}.cls-15,.cls-4,.cls-5{fill:none}.cls-4,.cls-5{stroke:#05a4bd;stroke-linejoin:round;stroke-width:4px}.cls-4{opacity:.879}.cls-5{opacity:.636}.cls-6{opacity:.571}.cls-7{opacity:.649}.cls-8{opacity:.532}.cls-9{opacity:.428}.cls-10{opacity:.388}.cls-11{opacity:.453}.cls-12{opacity:.613}.cls-13{opacity:.754}.cls-14{stroke:none}
        </style>
    </defs>
    <g id="Group_4866" data-name="Group 4866">
        <g id="Group_2697" class="cls-1" data-name="Group 2697" transform="rotate(12.04 33.89 4089.545)">
            <g id="Group_1856" data-name="Group 1856" transform="translate(5.063)">
                <g id="Group_1855" data-name="Group 1855">
                    <path id="Path_1279" d="M47.285 68.157c3.181-.013 6.866-.357 8.888-3.323.674-.989.679-2.139 1.019-3.29.85-2.961-.326-1.97 2.033-5.594 2.528-3.953 4.37-3.961 8.728-4.965 3.017-.834 5.7-.681 6.714-3.971.34-1.316-.323-2.792-.485-3.941-.984-4.924-2.138-9.027-1.614-14.122C73.438 21.225 76 9.879 66.3 5.812c-6.017-2.6-7.895 5.947-8.583 10.222-.858 4.932-.376 9.53.273 14.456.812 5.911-.376 9.695-4.749 14.313-1.681 1.65-3.7 2.808-4.877 4.949-.674.989-.682 2.8-1.188 3.784-2.529 4.118-1.835-1.635-1.653-5.086.369-8.052-.984-4.76 2.044-8.059 3.029-3.463 7.392-5.781 7.581-10.875.013-3.122-1.323-3.937-3.155-6.065-2.834-2.945-3.666-4.092-4.654-8.031A27.351 27.351 0 0 0 44.36 8.2c-2.992-5.076-5.98-11.307-11.365-4.877-2.189 2.8-2.867 4.941-1.877 8.222 2.477 8.04 10.488 14.249 6.262 23.467-1.69 3.621-4.876 4.785-5.062 9.221-.361 6.08 5.144 10.986 5.453 17.063.839-.332 1.51-.663 2.348-1-6.672-5.886-10.5-10.306-9.628-19.51.18-2.958 1.029-5.754.036-8.543a9.056 9.056 0 0 0-3.664-4.585c-3.339-2.286-5.176-3.428-6.664-7.858-.164-.821-.484-4.269-.648-5.09C18.07 8.807 2.739-8.379.171 4.939c-1.543 8.549 7.816 12.617 10.968 19.34 1.66 3.443 2.317 6.4 4.815 9.508 5.328 7.042 5.643 11.641 5.105 20.022-.178 2.465-.356 4.93 1.141 7.224A21.352 21.352 0 0 0 24.034 63a6.747 6.747 0 0 1 4.166 5.565c0 .164.167.164.166.328.827 1.307 1.323 2.787 3.164 3.107 1.506.322 4.529-1.99 5.362-1.008 1 1.31 2.849-.5 1.85-1.815-.5-.491-.832-1.147-1.332-1.637a1.312 1.312 0 0 0-1.338-.323c-3.687.837-5.518-1.784-7.347-4.734-1.663-2.622-4.833-5.4-5.32-8.849-.16-1.642.519-3.945.526-5.588a25.44 25.44 0 0 0-.971-7.882 21.4 21.4 0 0 0-2.987-6.23 90.548 90.548 0 0 1-6.48-11.8 11.79 11.79 0 0 0-2.827-4.588c-1-1.31-2.5-2.125-3.5-3.435S.679 3.459 6.032 4.75c6.189 1.45 9.993 12.28 11.313 17.039 1.321 4.43 2.659 4.753 6.331 7.366 7.679 5.389 1.786 12.971 4.1 20.519 1.651 5.415 6.156 9.174 10.495 12.606a1.416 1.416 0 0 0 2.348-1c.023-5.422-3.144-8.694-4.63-13.616-1.98-6.892 3.889-8.888 6.089-14.318 1.353-3.127.525-5.424-.8-8.375-1.493-3.279-3.657-6.228-4.815-9.508C34.971 11.2 33.006.859 39.845 6.909c4.336 4.091 4.14 10.661 6.462 15.744.331.82 1.67 1.143 2.169 1.8q7.26 5.391.958 10.839c-1.177 1.155-2.353 2.146-3.7 3.3-6.558 6.6-6.091 14.811.242 21.685a1.312 1.312 0 0 0 1.338.323c3.017-.834 2.353-1.981 2.865-4.448 1.19-4.276 2.035-6.087 5.4-8.894 1.848-1.486 3.7-2.808 4.877-4.949 2.025-3.623 1.539-7.4 1.052-11.176-.482-4.762-3.118-14.773.584-19.06 5.384-6.1 8.184 4.73 8.339 7.687.154 3.121-1.2 6.248-1.38 9.534-.358 5.423 1.8 9.193 2.284 14.119.8 9.032-8.394 5.292-13.436 9.585-4.369 3.633-2.568 13.154-10.941 13.517-1-.653-1.012 1.647.328 1.641z" class="cls-2" data-name="Path 1279"/>
                </g>
            </g>
            <g id="Group_1858" data-name="Group 1858" transform="translate(0 35.016)">
                <g id="Group_1857" data-name="Group 1857">
                    <path id="Path_1280" d="M23.824 7.96C21.169 2.385 14.652-.709 8.454.139 3.428.817-.44 4.611.04 9.867c.488 3.448 2.659 4.589 6.012 3.589 1.007-.333 1.848-1.156 2.853-1.491 2.181-.995 3.183-.342 5.02.636l3.675 1.792c2.675.975 3.338 2.615 4.668 4.745.333.491 1 .489 1.172 0 1.52-2.964-.982-5.417-3.655-6.72-1.169-.652-2.509-.647-3.845-1.462-.835-.489-1.5-1.308-2.336-1.8a5.315 5.315 0 0 0-3.513-.807c-1.843.336-3.024 2.313-4.867 2.649-4.357.84-2.49-5.082-.139-6.735 3.358-2.15 8.546-1.514 11.55.773 2 1.47 3.67 3.27 6.178 3.917.837 0 1.174-.5 1.009-.99z" class="cls-2" data-name="Path 1280"/>
                </g>
            </g>
        </g>
        <g id="Group_2706" class="cls-1" data-name="Group 2706" transform="rotate(-11 617.56 -2252.895)">
            <g id="Group_1856-2" data-name="Group 1856">
                <g id="Group_1855-2" data-name="Group 1855">
                    <path id="Path_1279-2" d="M26.036 73.7c-3.014-.012-6.5-.38-8.421-3.584a12.924 12.924 0 0 1-.966-3.555c-.806-3.2.309-2.13-1.927-6.045-2.4-4.271-4.141-4.278-8.269-5.359-2.859-.9-5.4-.731-6.362-4.286-.323-1.422.305-3.017.459-4.26.931-5.323 2.024-9.758 1.526-15.265C1.25 23-1.177 10.74 8.005 6.336c5.7-2.819 7.48 6.421 8.133 11.041.814 5.33.358 10.3-.256 15.625-.768 6.389.358 10.478 4.5 15.466 1.593 1.782 3.5 3.032 4.621 5.345.639 1.068.646 3.021 1.126 4.088 2.4 4.448 1.738-1.769 1.565-5.5-.351-8.7.931-5.146-1.938-8.708-2.87-3.74-7-6.242-7.184-11.747-.013-3.374 1.252-4.257 2.988-6.558 2.684-3.186 3.472-4.426 4.407-8.684a32.022 32.022 0 0 1 2.824-7.8c2.834-5.494 5.662-12.23 10.765-5.285 2.074 3.027 2.718 5.337 1.78 8.885-2.345 8.692-9.932 15.41-5.928 25.369 1.6 3.913 4.62 5.167 4.8 9.962.343 6.571-4.871 11.878-5.162 18.447-.795-.358-1.43-.716-2.225-1.074 6.32-6.368 9.949-11.148 9.117-21.1-.171-3.2-.976-6.219-.036-9.234a9.675 9.675 0 0 1 3.47-4.958c3.163-2.474 4.9-3.71 6.311-8.5.155-.887.458-4.615.613-5.5C53.7 9.531 68.22-9.058 70.656 5.335c1.464 9.239-7.4 13.644-10.387 20.913-1.572 3.723-2.193 6.917-4.56 10.281-5.046 7.616-5.344 12.587-4.832 21.645.169 2.664.338 5.328-1.08 7.809a22.206 22.206 0 0 1-1.736 2.124c-2.217 1.057-3.478 3.005-3.942 6.022 0 .178-.158.177-.157.355-.788 1.417-1.257 3.014-3 3.362-1.426.35-4.291-2.147-5.08-1.085-.946 1.417-2.7-.543-1.753-1.96.474-.531.788-1.24 1.262-1.771a1.14 1.14 0 0 1 1.268-.35c3.493.9 5.227-1.933 6.959-5.123 1.575-2.835 4.577-5.842 5.038-9.569.152-1.775-.493-4.264-.5-6.039a31.172 31.172 0 0 1 .918-8.52 24.687 24.687 0 0 1 2.826-6.737 102.867 102.867 0 0 0 6.14-12.761 13.155 13.155 0 0 1 2.677-4.962c.946-1.417 2.37-2.3 3.316-3.716S70.174 3.735 65.1 5.136c-5.859 1.575-9.461 13.281-10.71 18.425-1.25 4.789-2.518 5.14-6 7.967-7.27 5.832-1.69 14.022-3.874 22.182-1.563 5.854-5.83 9.921-9.939 13.634a1.323 1.323 0 0 1-2.225-1.074c-.023-5.86 2.977-9.4 4.383-14.721 1.874-7.451-3.686-9.6-5.771-15.471-1.282-3.379-.5-5.862.758-9.053 1.414-3.546 3.463-6.734 4.56-10.281C37.69 12.133 39.55.953 33.072 7.5c-4.107 4.423-3.92 11.527-6.119 17.023-.314.887-1.581 1.237-2.054 1.945q-6.877 5.833-.906 11.716c1.115 1.247 2.23 2.317 3.5 3.565 6.214 7.127 5.773 16-.225 23.438a1.14 1.14 0 0 1-1.268.35c-2.859-.9-2.229-2.139-2.715-4.8-1.129-4.621-1.929-6.577-5.114-9.608-1.751-1.6-3.5-3.032-4.621-5.345-1.919-3.914-1.459-8-1-12.078.456-5.148 2.951-15.97-.557-20.6-5.1-6.59-7.752 5.12-7.9 8.315-.145 3.373 1.137 6.752 1.309 10.3.34 5.861-1.706 9.937-2.161 15.262-.755 9.763 7.953 5.713 12.73 10.348 4.14 3.922 2.435 14.215 10.368 14.6.949-.707.959 1.779-.31 1.774z" class="cls-2" data-name="Path 1279"/>
                </g>
            </g>
            <g id="Group_1858-2" data-name="Group 1858" transform="translate(52.98 37.847)">
                <g id="Group_1857-2" data-name="Group 1857">
                    <path id="Path_1280-2" d="M.072 8.615A13.737 13.737 0 0 1 14.632.148 9.441 9.441 0 0 1 22.6 10.655c-.461 3.727-2.518 4.962-5.695 3.885-.953-.359-1.75-1.25-2.7-1.609-2.066-1.073-3.015-.367-4.756.692l-3.482 1.94c-2.532 1.055-3.16 2.829-4.42 5.137-.315.531-.95.529-1.11 0-1.44-3.2.929-5.856 3.461-7.267 1.108-.706 2.377-.7 3.642-1.584.791-.53 1.422-1.415 2.213-1.945a4.55 4.55 0 0 1 3.328-.875c1.746.362 2.865 2.5 4.611 2.859 4.128.9 2.358-5.5.13-7.28-3.181-2.321-8.1-1.629-10.941.846C4.983 7.036 3.4 8.983 1.028 9.684c-.793 0-1.112-.537-.956-1.069z" class="cls-2" data-name="Path 1280"/>
                </g>
            </g>
        </g>
        <g id="Group_2698" class="cls-1" data-name="Group 2698" transform="translate(690.842 47.56)">
            <g id="Group_1861" data-name="Group 1861" transform="translate(34.872 33.966)">
                <g id="Group_1860" data-name="Group 1860">
                    <path id="Path_1281" d="M196.682 17.236C181.158 33.61 209.1 58.4 217.459 70.8c.478.936 1.911.234 1.672-.7-1.433-7.017-7.165-12.4-12.18-17.543-4.06-4.21-8.6-8.187-10.508-13.8-2.866-7.953 0-13.566 1.194-21.051a.707.707 0 0 0-.955-.468z" class="cls-2" data-name="Path 1281" transform="translate(-192.068 -17.173)"/>
                </g>
            </g>
            <g id="Group_1863" data-name="Group 1863">
                <g id="Group_1862" data-name="Group 1862">
                    <path id="Path_1282" d="M217.19 38.084c3.582-5.614 0-4.444-1.433-9.824-.239-.936-1.194-1.17-2.149-.936-2.388 1.17-5.254 3.976-7.4 6.082-1.433 1.637-3.582 4.21-4.3 6.082-.478 1.17-.478 5.848-1.194 7.017.716 3.976 0 3.509-2.388-1.871a29.962 29.962 0 0 1 1.194-9.122c.716-3.509 2.388-6.783 3.343-10.292A113.466 113.466 0 0 0 206.2 7.677c.478-5.146-.478-6.082-5.015-3.976-3.1 1.4-5.97 3.976-6.926 7.017-.955 2.807-.239 7.251-.478 10.292a89.128 89.128 0 0 1-4.3 19.18 17.879 17.879 0 0 0 3.343-.936c-3.1-3.041-6.448-21.285-13.135-11.461-2.866 4.21-2.627 9.824-1.194 14.268 1.672 4.21 4.776 8.187 7.165 12.163 1.433 2.339 3.343 4.678 4.3 7.017 1.911 3.742 1.672 7.719 3.1 11.7 1.194 3.976 2.388 4.912 6.209 7.251 1.194.7 2.866 1.17 3.821 2.105 3.343 3.041 2.149 5.614 2.627 8.888.239.936-.478 2.105 0 3.041 1.433 4.21 5.254 3.275 8.836 4.21 8.6 1.871 15.046 8.888 23.643 7.953a.7.7 0 1 0 0-1.4c-12.419-.468-9.792-6.783-17.434-9.122-1.194-.234-2.388 0-3.582-.234-2.866 1.17-5.015 0-6.209-3.041-2.866-1.4-3.821-3.275-2.627-5.848-.716-1.637-.478-2.339-1.433-3.976-1.911-2.807-5.254-2.807-7.4-5.146-3.343-3.742-3.1-11.461-5.015-15.906-2.627-6.549-7.881-11.929-10.986-18.245-1.433-2.807-4.538-6.315-2.866-9.59 1.911-3.742 3.1-2.339 5.015 0 1.911 2.573 1.911 5.614 4.3 7.953a2.133 2.133 0 0 0 3.343-.936 69.442 69.442 0 0 0 2.866-12.163c.716-5.146-.478-11.227.716-15.906.955-4.444 5.493-7.251 6.209-3.041.239.936-.716 3.275-.955 4.678-2.149 12.865-11.7 29.94-2.627 42.1a2.032 2.032 0 0 0 3.343 0c5.254-6.549-2.149-23.39 10.747-24.794 1.911-.234-.478-1.4-.239-1.17 2.388 1.637 3.1 4.444 3.1 7.251 0 .468.478.468.717.234z" class="cls-2" data-name="Path 1282" transform="translate(-177.467 -2.652)"/>
                </g>
            </g>
            <g id="Group_1865" data-name="Group 1865" transform="translate(50.886 2.435)">
                <g id="Group_1864" data-name="Group 1864">
                    <path id="Path_1283" d="M219.852 104.523c0-13.333 6.209-19.414 14.568-28.3 2.866-3.275 5.732-6.549 6.209-10.994 1.433-9.59-3.821-14.268 3.821-24.326 4.06-5.38 8.359-8.888 11.224-14.97 1.672-3.742 6.926-13.566 1.433-16.841-2.866-1.637-8.6-.234-11.224.936-4.538 1.871-7.642 9.824-10.986 10.76-6.925 2.102-6.447-16.376-12.418-17.078-5.015-.468-9.553 8.654-10.03 12.631-.716 8.187 5.97 14.5-2.388 22.689-3.1 3.041-6.687 4.444-8.6 8.654-3.343 7.017-4.3 21.285 1.433 27.133a1.486 1.486 0 0 0 2.388-1.637c-2.627-5.848-3.343-15.2-1.194-21.285 2.627-7.485 7.881-8.421 12.657-13.566 7.165-7.953-1.433-13.8 0-22.455.955-4.912 4.776-10.994 8.6-4.444 1.911 3.509-1.433 7.485 0 10.526 1.911 3.742 5.493 5.146 9.553 3.275 3.343-1.637 4.06-4.912 6.448-7.251 3.821-3.742 12.18-9.356 13.374-.468.239 2.339-2.388 7.017-3.582 8.888-4.3 7.953-15.284 12.865-16.478 22.221-.478 3.742 1.194 7.017 1.672 10.526 1.433 12.163-5.493 14.736-12.18 22.221a26.424 26.424 0 0 0-6.448 23.39 1.127 1.127 0 0 0 2.149-.234z" class="cls-2" data-name="Path 1283" transform="translate(-198.774 -3.693)"/>
                </g>
            </g>
            <g id="Group_1867" data-name="Group 1867" transform="translate(66.634 34.476)">
                <g id="Group_1866" data-name="Group 1866">
                    <path id="Path_1284" d="M219.534 17.646c-2.627 7.017-10.269 11.929-11.463 19.648-.478 3.275.478 6.315.478 9.356 0 4.912-1.433 8.888-3.1 13.333-.478 1.4 1.433 1.871 2.149.936 4.776-6.082 4.06-11.7 4.538-18.712.478-8.187 6.209-15.906 8.12-24.326 0-.468-.716-.7-.716-.234z" class="cls-2" data-name="Path 1284" transform="translate(-205.368 -17.391)"/>
                </g>
            </g>
            <g id="Group_1869" data-name="Group 1869" transform="translate(28.067 61.791)">
                <g id="Group_1868" data-name="Group 1868">
                    <path id="Path_1285" d="M189.413 31.013c6.926 8.654 15.046 19.18 24.837 25.028a.522.522 0 0 0 .716-.7c-3.1-4.678-7.4-8.421-11.224-12.4-4.3-4.444-8.6-8.888-12.657-13.333-.955-1.4-2.388.234-1.672 1.4z" class="cls-2" data-name="Path 1285" transform="translate(-189.219 -29.069)"/>
                </g>
            </g>
            <g id="Group_1871" data-name="Group 1871" transform="translate(81.302 45.474)">
                <g id="Group_1870" data-name="Group 1870">
                    <path id="Path_1286" d="M213.874 59.534c9.553-5.38 22.688-3.742 23.4-16.607.239-3.742.239-7.719.478-11.461 0-1.17-.478-4.444.239-5.38.478-.936-1.911-4.678 1.672 1.637 2.149 3.976.478 2.105.955 5.38.716 5.614 7.165 12.631 5.493 18.011-2.388 8.187-12.418 6.549-16 13.1-2.388 4.444 2.627 8.888 5.97 4.678.239-.468-.239-.7-.716-.468.478-2.573 1.194-5.146 1.672-7.719 1.433-.7 2.866-1.17 4.3-1.871 1.194-.468 3.343-.7 4.3-1.4a8.185 8.185 0 0 0 2.149-1.871c1.911-3.041.716-8.888-.239-12.163-1.194-4.21-3.1-7.251-3.1-11.929 0-1.637.955-3.041.478-4.912-.478-2.105-2.149-4.444-4.538-4.444-7.4-.468-5.015 9.122-5.015 13.1 0 4.678.239 7.719-1.911 11.929-2.627 5.38-6.687 4.912-11.941 6.315a36 36 0 0 0-9.314 3.976c-1.672.468 0 3.041 1.672 2.105z" class="cls-2" data-name="Path 1286" transform="translate(-211.51 -22.093)"/>
                </g>
            </g>
            <g id="Group_1873" data-name="Group 1873" transform="translate(106.766 92.74)">
                <g id="Group_1872" data-name="Group 1872">
                    <path id="Path_1287" d="M222.238 42.768a2.42 2.42 0 0 1 0 3.041c0 .234 0 .234.239 0a3.683 3.683 0 0 0 .239-3.509c-.239 0-.716.234-.478.468z" class="cls-2" data-name="Path 1287" transform="translate(-222.173 -42.3)"/>
                </g>
            </g>
            <g id="Group_1875" data-name="Group 1875" transform="translate(78.098 95.8)">
                <g id="Group_1874" data-name="Group 1874">
                    <path id="Path_1288" d="M232.932 44.758c-4.3-1.4-10.747-2.105-14.329 1.4-2.149 1.871-2.627 4.21-5.015 5.848-1.672.936-2.866 1.637-3.343 3.509-.478 1.4 1.433 2.339 2.388 1.4 2.149-1.637 5.254-2.807 6.687-5.146s1.911-4.21 5.015-5.38a20.843 20.843 0 0 1 8.6-1.637z" class="cls-2" data-name="Path 1288" transform="translate(-210.168 -43.608)"/>
                </g>
            </g>
            <g id="Group_1877" data-name="Group 1877" transform="translate(94.833 90.668)">
                <g id="Group_1876" data-name="Group 1876">
                    <path id="Path_1289" d="M225.831 42.083a4.754 4.754 0 0 0 1.433 2.105c2.149 2.105-.716 3.275-2.627 2.807-2.388-.468-5.015-2.105-7.165-.234-.716.468 0 1.637.716 1.637 1.194 0 2.388-.468 3.582-.234a16.442 16.442 0 0 0 3.343.468 6.551 6.551 0 0 0 4.538-1.4c2.627-2.573-.239-6.783-3.582-5.614-.239.234-.478.234-.239.468z" class="cls-2" data-name="Path 1289" transform="translate(-217.176 -41.414)"/>
                </g>
            </g>
        </g>
        <g id="Group_2700" class="cls-1" data-name="Group 2700" transform="translate(534.582 91.322)">
            <g id="Group_1953" data-name="Group 1953" transform="translate(10.182 9.997)">
                <g id="Group_1952" data-name="Group 1952">
                    <path id="Path_1324" d="M33 76.86c-3.5 1.469-6.3 4.9-6 8.717a6.126 6.126 0 0 0 7.2 5.877c10-1.077 10.9-14.593 3.5-19.589C29 65.989 19 77.056 19.5 85.283A14.817 14.817 0 0 0 26 96.939c4.3 2.644 9.7 1.273 14.1-.686a83.588 83.588 0 0 0 10.6-5.583c1.5-.979 2.9-2.057 2.8-3.918-.1-5-6.8-4.212-9.9-3.036a.667.667 0 1 0 .4 1.274c2.1-.686 2.6-.979 4.8-.294 3.9 1.175 1 3.232-1.1 4.7a55.485 55.485 0 0 1-7.6 3.918c-3 1.371-7.1 3.036-10.5 2.155-4.1-1.175-6.5-5.681-6.9-9.5a10.994 10.994 0 0 1 3.9-9.99c3.6-2.938 8.8-3.036 11.7.686 3.1 3.918 3.1 10.97-2.6 12.733-3.9 1.175-8.1-2.449-6.7-6.17a6.955 6.955 0 0 1 4.9-4.309c1.3-.588.5-2.742-.9-2.057z" class="cls-2" data-name="Path 1324" transform="translate(-19.482 -70.214)"/>
                </g>
            </g>
            <g id="Group_1955" data-name="Group 1955" transform="translate(26.294)">
                <g id="Group_1954" data-name="Group 1954">
                    <path id="Path_1325" d="M42.9 70.284c1.8-1.273 2.3-4.016 1.8-6.072a5.509 5.509 0 0 0-4.6-4.112 3.452 3.452 0 0 0-4.3 2.449c-.7 2.449.5 5.289 1.9 7.346a.985.985 0 0 0 1.7-.979A19.823 19.823 0 0 1 37.6 65c-.3-1.567.5-4.407 2.7-3.134a4.96 4.96 0 0 1 2.3 2.84c.4 1.567-.5 2.742-1.2 4.114-.3.881.6 2.155 1.5 1.469z" class="cls-2" data-name="Path 1325" transform="translate(-35.594 -60.007)"/>
                </g>
            </g>
            <g id="Group_1957" data-name="Group 1957" transform="translate(7.203 .229)">
                <g id="Group_1956" data-name="Group 1956">
                    <path id="Path_1326" d="M28.8 67.644c1.2-1.959-1.4-4.9-2.9-6.17-2.4-2.057-4.8-1.273-7.1.392-2.5 1.763-3.1 3.624-1.1 6.17 1.3 1.665 3.8 3.82 6 3.428a.65.65 0 0 0 .3-1.077c-.9-.979-2.4-1.371-3.4-2.351a5.155 5.155 0 0 1-1.7-2.155c-.4-1.567.8-2.155 1.9-2.742 1.1-.686 2-1.175 3.4-.49a5.175 5.175 0 0 1 1.9 1.959c.7 1.175.6 2.351 1.7 3.134.2.49.8.294 1-.1z" class="cls-2" data-name="Path 1326" transform="translate(-16.503 -60.24)"/>
                </g>
            </g>
            <g id="Group_1959" data-name="Group 1959" transform="translate(0 15.751)">
                <g id="Group_1958" data-name="Group 1958">
                    <path id="Path_1327" d="M18.3 76.981c-1.3-1.665-4.1-.686-5.5.392-1.6 1.175-3.5 3.428-3.5 5.485a3.345 3.345 0 0 0 3.5 3.232 6.281 6.281 0 0 0 5-2.938.437.437 0 0 0-.6-.588c-1.2.49-2.2 1.665-3.5 1.763-1.8.1-2.4-1.273-1.5-2.742a7.708 7.708 0 0 1 2.8-2.84c1-.588 2-.392 3.1-.588.5-.1.5-.784.2-1.175z" class="cls-2" data-name="Path 1327" transform="translate(-9.3 -76.089)"/>
                </g>
            </g>
            <g id="Group_1961" data-name="Group 1961" transform="translate(3.413 31.919)">
                <g id="Group_1960" data-name="Group 1960">
                    <path id="Path_1328" d="M18.4 92.6c-4.5.294-7.7 5.681-4.2 9.207 3.3 3.232 8.4-1.175 7.9-4.9a.53.53 0 0 0-.9-.2c-1.3 1.175-2.4 5.583-5 3.918a3.118 3.118 0 0 1-1.1-3.225 3.7 3.7 0 0 1 3.3-2.84c1.2-.2 1.3-2.057 0-1.959z" class="cls-2" data-name="Path 1328" transform="translate(-12.713 -92.596)"/>
                </g>
            </g>
            <g id="Group_1963" data-name="Group 1963" transform="translate(27.229 37.292)">
                <g id="Group_1962" data-name="Group 1962">
                    <path id="Path_1329" d="M36.6 101.038c1 2.84 4.7 8.717 8.5 5.583 3.2-2.644-.2-8.913-4.1-8.521a.633.633 0 0 0-.4 1.077c.8.784 1.8 1.273 2.6 2.057.9.881 2.2 2.938.8 4.016-2.4 1.763-4.7-3.33-5.1-4.8-.5-1.371-2.8-.784-2.3.588z" class="cls-2" data-name="Path 1329" transform="translate(-36.529 -98.082)"/>
                </g>
            </g>
            <g id="Group_1965" data-name="Group 1965" transform="translate(35.984 8.089)">
                <g id="Group_1964" data-name="Group 1964">
                    <path id="Path_1330" d="M46.6 78.681c1.9 2.155 5.3-.294 7-1.665 2.1-1.763 3.1-3.722 2.2-6.366a3.232 3.232 0 0 0-4.9-1.861 13.317 13.317 0 0 0-3.3 2.938c-.9 1.077-2 2.057-2.3 3.428a.46.46 0 0 0 .7.49c1.4-.686 2.3-2.155 3.4-3.232 1.1-.979 3.8-3.918 4.7-1.175.7 2.155-.7 3.232-2.3 4.407a7.726 7.726 0 0 1-2.5 1.371c-.8.2-1.6.1-2.4.294-.6.392-.7.979-.3 1.371z" class="cls-2" data-name="Path 1330" transform="translate(-45.284 -68.265)"/>
                </g>
            </g>
        </g>
        <g id="Group_2701" class="cls-3" data-name="Group 2701" transform="translate(284.567 83.282)">
            <g id="Group_2157" data-name="Group 2157" transform="translate(0 21.838)">
                <g id="Group_2156" data-name="Group 2156">
                    <path id="Path_1420" d="M289.8 184.221c9.6 6.164 21.713 15.565 33.986 13.87 11.486-1.7 21.871-9.709 29.738-17.568l-2.36-1.387c-1.259 7.089-1.888 14.64-3.619 21.729-2.2 8.938-17.15 10.942-25.175 11.558s-17.15 0-24.231-4.161c-8.5-5.086-10.385-16.027-5.822-24.041 1.1-1.849-1.888-3.544-2.99-1.7a21.725 21.725 0 0 0 .157 22.654c5.35 8.168 15.734 10.325 25.018 10.787 10.385.462 23.916-1.541 32.413-8.014 2.832-2.158 3.462-4.623 4.091-8.014 1.416-6.627 2.045-13.561 2.832-20.342.157-1.233-1.731-1.849-2.518-1.079-7.552 7.4-19.039 16.335-30.21 16.643-10.385.308-21.4-8.322-29.738-13.715a1.6 1.6 0 0 0-1.573 2.774z" class="cls-2" data-name="Path 1420" transform="translate(-286.225 -178.18)"/>
                </g>
            </g>
            <g id="Group_2159" data-name="Group 2159" transform="translate(2.542 27.909)">
                <g id="Group_2158" data-name="Group 2158">
                    <path id="Path_1421" d="M287.934 183.477c2.045 4.315 4.878 13.1 9.283 15.565 1.416.771 1.731.616 3.462.616 3.462 0 3.619-.925 7.4.308s6.136 3.082 9.126 5.548a1.19 1.19 0 0 0 1.416.154c2.832-1.849 6.136-5.086 9.441-6.164 3.934-1.233 7.71 1.079 11.329 2.312a1.51 1.51 0 0 0 1.573-.616 69.268 69.268 0 0 1 6.923-8.014 1.432 1.432 0 1 0-2.045-2c-1.731 1.541-3.776 5.24-5.664 6.472-3.3 2.158-6.451-1.541-9.755-1.541-4.72.154-7.4 6.164-11.8 6.164-2.518 0-4.72-2.62-7.08-3.7a17.478 17.478 0 0 0-6.294-1.849c-3.462-.462-5.507.308-8.5-2.774-2.832-2.928-4.563-7.859-6.923-11.25-.944-1.233-2.36-.308-1.888.77z" class="cls-2" data-name="Path 1421" transform="translate(-287.84 -182.118)"/>
                </g>
            </g>
            <g id="Group_2161" data-name="Group 2161" transform="translate(28.43 4.995)">
                <g id="Group_2160" data-name="Group 2160">
                    <path id="Path_1422" d="M305.4 167.481A55.572 55.572 0 0 0 309.5 202c.472.925 1.888.308 1.731-.771a221.466 221.466 0 0 1-5.192-33.749c0-.308-.472-.308-.629 0z" class="cls-2" data-name="Path 1422" transform="translate(-304.294 -167.25)"/>
                </g>
            </g>
            <g id="Group_2163" data-name="Group 2163" transform="translate(28.356)">
                <g id="Group_2162" data-name="Group 2162">
                    <path id="Path_1423" d="M304.331 165.074c4.563 7.551 14.161 14.486 22.185 17.876v-2.312c-7.081 4.777-13.217 10.017-18.095 16.952-.629.771.787 1.849 1.416 1.079a64.748 64.748 0 0 1 18.095-15.719 1.354 1.354 0 0 0 0-2.312c-4.248-2.774-8.654-5.086-12.587-8.168-3.462-2.62-6.451-5.7-10.07-8.322-.629-.462-1.259.308-.944.925z" class="cls-2" data-name="Path 1423" transform="translate(-304.247 -164.008)"/>
                </g>
            </g>
        </g>
        <g id="Group_2702" class="cls-1" data-name="Group 2702" transform="translate(380.976 86.416)">
            <g id="Group_2197" data-name="Group 2197" transform="translate(0 15.722)">
                <g id="Group_2196" data-name="Group 2196">
                    <path id="Path_1438" d="M255.6 227.882c-2.8 3.232-5.6 5.387-10.1 5.289-3.5-.1-6.9-.392-10.4-.588a1.078 1.078 0 0 0-1.1 1.371c1.1 4.407 6.5 4.016 5.3 9.7-.9 4.407-3.3 8.815-4.7 13.026-.3.979 1 1.567 1.7.979 3.4-2.938 7.6-6.856 12.3-3.526 2.8 1.959 4.7 5.387 6.4 8.227a1.09 1.09 0 0 0 2-.49c.1-3.036.2-6.072.5-9.109l.3-2.351c1.8-1.371 3.5-2.644 5.3-4.016 1.5-.294 4.1.686 5.6 1.175 1 .294 1.9-1.077 1-1.763a26.134 26.134 0 0 1-10.4-17.728c-.2-1.371-2.4-1.371-2.2 0a27.835 27.835 0 0 0 11.4 19.393c.3-.588.5-1.273.8-1.861-3.9-1.077-9.2-2.253-12.1 1.469-2.8 3.624-1.8 10.578-2.3 14.789a14.874 14.874 0 0 1 2-.49c-1.9-3.722-5.7-9.5-10.1-10.676-4.3-1.175-8.8 3.33-11.9 5.681.6.294 1.1.686 1.7.979 1.9-4.6 4.7-9.7 5.1-14.691a7.551 7.551 0 0 0-.7-4.212c-1.1-1.959-4.2-2.644-4.7-5a16.8 16.8 0 0 1-1.1 1.371c4.3.2 9 .686 13.3.1 3.8-.49 6.3-2.84 8.8-5.583.9-.881-.8-2.546-1.7-1.469z" class="cls-2" data-name="Path 1438" transform="translate(-233.956 -227.05)"/>
                </g>
            </g>
            <g id="Group_2199" data-name="Group 2199" transform="translate(16.483 25.488)">
                <g id="Group_2198" data-name="Group 2198">
                    <path id="Path_1439" d="M254.7 237.49a3.143 3.143 0 0 0-.6 2.449c.2 1.567 1.1 2.84-.1 4.212-.9 1.077-2.1 1.371-2.8 2.644a3.726 3.726 0 0 0-.6 3.232.732.732 0 0 0 1.2.294c.9-.881.7-2.057 1.5-3.134.7-1.077 2.2-1.371 2.8-2.547.9-1.763-1-4.505.3-5.975.9-1.077-.8-2.351-1.7-1.175z" class="cls-2" data-name="Path 1439" transform="translate(-250.439 -237.021)"/>
                </g>
            </g>
            <g id="Group_2201" data-name="Group 2201" transform="translate(14.031 9.724)">
                <g id="Group_2200" data-name="Group 2200">
                    <path id="Path_1440" d="M264 234.808a10.343 10.343 0 0 0 1.7-7.835c-.5-2.155-2.7-4.407-4.7-5.387-5-2.253-12.2 1.567-13 6.856-.2 1.273 1.9 1.861 2.1.588.7-5 7.9-7.542 11.7-4.212 1.9 1.665 2.2 3.036 1.8 5.387-.3 1.665-.7 2.84-.2 4.407 0 .294.4.392.6.2z" class="cls-2" data-name="Path 1440" transform="translate(-247.987 -220.926)"/>
                </g>
            </g>
            <g id="Group_2203" data-name="Group 2203" transform="translate(15.028 2.337)">
                <g id="Group_2202" data-name="Group 2202">
                    <path id="Path_1441" d="M249 214.477a27.3 27.3 0 0 0 1.5 5.779.863.863 0 0 0 1.6-.392c0-1.959-.8-4.016-1.3-5.877-.3-1.077-2-.588-1.8.49z" class="cls-2" data-name="Path 1441" transform="translate(-248.984 -213.384)"/>
                </g>
            </g>
            <g id="Group_2205" data-name="Group 2205" transform="translate(25.631)">
                <g id="Group_2204" data-name="Group 2204">
                    <path id="Path_1442" d="M263.3 211c-1.5.2-1.9 2.253-2.4 3.526-.6 1.469-1.8 3.526-1.1 5.093a.638.638 0 0 0 .9.2c.8-.49.9-1.077 1.3-1.959a33.1 33.1 0 0 1 1.3-3.33c0-.294 1.6-3.624 0-3.526z" class="cls-2" data-name="Path 1442" transform="translate(-259.587 -210.998)"/>
                </g>
            </g>
            <g id="Group_2207" data-name="Group 2207" transform="translate(32.944 12.191)">
                <g id="Group_2206" data-name="Group 2206">
                    <path id="Path_1443" d="M267 226.045c0 .1.1.1.1.2a1.2 1.2 0 0 0 .9.49c1.3 0 2.6-.294 3.9-.392a14.5 14.5 0 0 0 3.6-.49 1.181 1.181 0 0 0 0-2.253c-2.3-.49-5.7.294-7.8 1.077a1.168 1.168 0 0 0-.8.979.728.728 0 0 0 .1.392z" class="cls-2" data-name="Path 1443" transform="translate(-266.9 -223.445)"/>
                </g>
            </g>
            <g id="Group_2209" data-name="Group 2209" transform="translate(7.829 31.927)">
                <g id="Group_2208" data-name="Group 2208">
                    <path id="Path_1444" d="M243.7 244.188c-.4.588-.8 1.273-1.2 1.861a3.034 3.034 0 0 0-.7 2.057.865.865 0 0 0 1.1.588 4.015 4.015 0 0 0 1.7-1.469 12.468 12.468 0 0 0 1.3-1.861c.8-1.273-1.4-2.547-2.2-1.175z" class="cls-2" data-name="Path 1444" transform="translate(-241.784 -243.596)"/>
                </g>
            </g>
        </g>
        <g id="Group_2705" class="cls-1" data-name="Group 2705" transform="rotate(-57 353.691 -471.05)">
            <g id="Group_2386" data-name="Group 2386" transform="translate(27.677)">
                <g id="Group_2385" data-name="Group 2385">
                    <path id="Path_1525" d="M65.132.1a64.623 64.623 0 0 0-10.9 4.09c-2.179 1.083-6.95 5.673-9.356 5.87-4.374.4-6.836-5.363-11.234-7.612C20.886-3.633 10.277 8.627.928 15.159c-1.741 1.087-.842 3.524 1.13 3.763 23.665 2.874 9.456 27.9 7.614 41.348-.614 4.63-2.307 10.794 1.45 14.583a1.052 1.052 0 0 0 1.532.015c4.774-4.369 13.94-7.151 19.6-10.408 2.612-1.52 7.819-6.327 10.882-6.518 7.876-.366 10.609 10.917 12.627 16.013a1.051 1.051 0 0 0 1.755.458c8.449-9.19 11.832-21.739 10.4-34.334-.465-2.874-2.03-6.42-2.058-9.29-.038-3.973 2.56-7.039 3.619-10.781A24.706 24.706 0 0 0 67.561 2.33c-.894-2-4.165-.7-3.488 1.512.9 2.878 2.026 5.979 2.056 9.069.048 5.077-2.985 8.359-4.036 12.984-.632 2.643-.857 1.978-.613 4.629 1.2 10.827 5.656 19.478 2.479 30.7-.848 2.861-3.4 10.562-6.481 8.988-1.978-.9-2.456-5.1-3.129-6.872-.9-2.216-1.816-6.86-3.584-8.642-3.534-3.345-6.792-.727-10.492 1.445-4.136 2.389-8.049 5.221-12.183 7.83-3.7 2.172-10.44 6.964-14.6 6.7-.438 0-1.08 1.535-1.3 1.533-2.2-1.125-.511-7.73-.086-9.051a155.564 155.564 0 0 1 4.653-17.385C21.43 30.806 19.787 19.091 2.9 15.178c.231 1.327.242 2.43.473 3.757 4.349-3.049 8.247-7.426 12.816-10.252 3.265-1.955 7.4-4.123 11.34-4.306C33.871 4 38.97 10.887 41.86 15.55a1.844 1.844 0 0 0 2.633.687c6.954-5.231 13.7-8.919 22.439-11.043 2.616-1.079 1.257-5.948-1.8-5.094z" class="cls-2" data-name="Path 1525"/>
                </g>
            </g>
            <g id="Group_2388" data-name="Group 2388" transform="translate(28.171 40.075)">
                <g id="Group_2387" data-name="Group 2387">
                    <path id="Path_1526" d="M15.368 3.7C11.824-.748 4.595-1.479 1.137 3.123a5.282 5.282 0 0 0 .726 7.291c2.208 2.008 6.15 2.266 9 2.293a1.576 1.576 0 0 0 .409-3.086A47.981 47.981 0 0 1 6 8.025c-1.538-.677-2.422-1.568-.9-3.1 2.383-2.626 5.687-.387 8.107.96 1.32.675 3.275-.852 2.168-2.187z" class="cls-2" data-name="Path 1526"/>
                </g>
            </g>
            <g id="Group_2390" data-name="Group 2390" transform="translate(51.148 61.336)">
                <g id="Group_2389" data-name="Group 2389">
                    <path id="Path_1527" d="M5.725 3.757c1.111 1.776 2.656 3.115 3.767 4.891S11.3 14.4 8.014 14.373c-3.721-.035-3.565-6.656-6.644-8.23a.785.785 0 0 0-1.09.431c-1.069 2.638 1.159 6.854 2.71 8.855 1.774 2.445 4.849 3.578 7.461 2.058C17.2 13.8 13.824 3.834 8.756.254 6.995-.867 4.614 1.98 5.725 3.757z" class="cls-2" data-name="Path 1527"/>
                </g>
            </g>
            <g id="Group_2392" data-name="Group 2392" transform="translate(62.247 19.224)">
                <g id="Group_2391" data-name="Group 2391">
                    <path id="Path_1528" d="M.759.016C.54.014.54.014.323.232a.628.628 0 0 0 .01 1.1c.219 0 .219 0 .44.225C1.87 1.792 1.851-.195.759.016z" class="cls-2" data-name="Path 1528"/>
                </g>
            </g>
            <g id="Group_2394" data-name="Group 2394" transform="translate(50.24 17.518)">
                <g id="Group_2393" data-name="Group 2393">
                    <path id="Path_1529" d="M11.658.387c-7.832 5-16.844 24.119-8.013 32.15C13.8 41.9 27.879 26.146 31.519 17.572c.857-1.978-2.222-3.553-3.521-2.02-1.945 2.63-3.669 5.483-5.616 7.893a21.285 21.285 0 0 1-4.555 4.371 13.576 13.576 0 0 1-3.919 2.17c-3.048 1.737-5.026.835-6.152-2.487-2.658-3.336-2.439-3.334-1.6-6.858a47.55 47.55 0 0 1 1.482-5.283 44.9 44.9 0 0 1 6.9-11.191c1.513-1.972-.488-5.3-2.881-3.78z" class="cls-2" data-name="Path 1529"/>
                </g>
            </g>
            <g id="Group_2396" data-name="Group 2396" transform="translate(14.29 40.834)">
                <g id="Group_2395" data-name="Group 2395">
                    <path id="Path_1530" d="M3.835.271c-7.617 4.563-2.685 16.97 4.342 19.465a1.281 1.281 0 0 0 1.523-1.53c-1.12-2.659-3.544-4.448-4.88-6.889-1.566-3.105-1.158-6.192 1.448-8.374C7.569 1.631 5.576-.816 3.835.271z" class="cls-2" data-name="Path 1530"/>
                </g>
            </g>
            <g id="Group_2398" data-name="Group 2398" transform="translate(58.237 83.062)">
                <g id="Group_2397" data-name="Group 2397">
                    <path id="Path_1531" d="M17.85.313c-.219 0-.219 0-.44-.225a2.424 2.424 0 0 0-2.4.639C11.115 5.547 6.727 4.4 1.25 3.908A1.281 1.281 0 0 0 .175 5.884c3.573 7.539 15.351 3.237 18.585-2.03a2.708 2.708 0 0 0-.468-3.095L17.85.313z" class="cls-2" data-name="Path 1531"/>
                </g>
            </g>
            <g id="Group_2400" data-name="Group 2400" transform="translate(0 48.427)">
                <g id="Group_2399" data-name="Group 2399">
                    <path id="Path_1532" d="M1.127.462C-.39 1.992-.146 4.643.527 6.416a8.523 8.523 0 0 0 3.55 5.111c.882.671 1.964-.643 1.518-1.531A26.963 26.963 0 0 1 3.8 5.564c-.233-1.547-.029-3.09-.48-4.419C2.874.037 1.776-.415 1.127.462z" class="cls-2" data-name="Path 1532"/>
                </g>
            </g>
            <g id="Group_2402" data-name="Group 2402" transform="translate(8.849 73.408)">
                <g id="Group_2401" data-name="Group 2401">
                    <path id="Path_1533" d="M28.628.549C24.778 10 11.022 13.4 9.369 23.762c-1.038 5.95 3.809 9.307-2.7 15.646-1.737 1.528-4.14 1.947-5.435 3.921-3.888 5.481 2.95 11.064-.5 16.77a.986.986 0 0 0 1.326 1.337c4.788-2.824 2.77-7.92 3.817-12.987 1.249-6.831 3.458-4.6 6.7-8.765a7.5 7.5 0 0 0 1.707-4.619c.823-5.51-1.632-10.61 2.039-15.873 1.945-2.63 5.43-4.363 8.038-6.324 3.911-3.053 7.163-6.333 7.115-11.41-.45-1.329-2.427-2.01-2.854-.91z" class="cls-2" data-name="Path 1533"/>
                </g>
            </g>
        </g>
        <g id="Group_2707" class="cls-1" data-name="Group 2707" transform="translate(941.852 102.305)">
            <g id="Group_1900" data-name="Group 1900" transform="translate(5.055 15.906)">
                <g id="Group_1899" data-name="Group 1899">
                    <path id="Path_1299" d="M352.4 58.416c2.029-9.276 3.653-21.482 8.659-29.294 4.871-7.649 13.8-6.672 19.888-12.206.271-.163.541.163.406.488-3.382 6.835-8.524 7.649-13.665 11.718-7.441 5.7-11.094 20.18-13.529 29.945-.406 1.139-2.029.651-1.759-.651z" class="cls-2" data-name="Path 1299" transform="translate(-352.373 -16.873)"/>
                </g>
            </g>
            <g id="Group_1904" data-name="Group 1904" transform="translate(35.695 14.412)">
                <g id="Group_1903" data-name="Group 1903">
                    <path id="Path_1301" d="M351.126 16.028c-.135 0-.135-.163 0 0 .135-.163.135 0 0 0z" class="cls-2" data-name="Path 1301" transform="translate(-351.025 -15.956)"/>
                </g>
            </g>
            <g id="Group_1906" data-name="Group 1906" transform="translate(36.435 11.976)">
                <g id="Group_1905" data-name="Group 1905">
                    <path id="Path_1302" d="M350.1 15.177l.541-.651c.135-.163.271 0 .135.163l-.541.651c0 .325-.271 0-.135-.163z" class="cls-2" data-name="Path 1302" transform="translate(-350.059 -14.459)"/>
                </g>
            </g>
            <g id="Group_1908" data-name="Group 1908" transform="translate(36.312 9.58)">
                <g id="Group_1907" data-name="Group 1907">
                    <path id="Path_1303" d="M351.41 14.31c-.271 1.139-.812 2.6-1.894 2.929-.541.163-.947-.488-.812-.976.271-.976.812-1.627.947-2.441.406-1.465 2.029-.814 1.759.488z" class="cls-2" data-name="Path 1303" transform="translate(-348.678 -12.986)"/>
                </g>
            </g>
            <g id="Group_1910" data-name="Group 1910" transform="translate(6.999)">
                <g id="Group_1909" data-name="Group 1909">
                    <path id="Path_1304" d="M376.989 7.263c2.165 2.116 5.547 4.231 5.412 7.974 0 1.3-.541 1.953-.947 3.092-1.624 6.184-6.494-11.067-.947 12.531a14.018 14.018 0 0 1 .947 2.6c1.488 6.184 1.488 18.39-6.765 16.925-.541-.163-3.112-2.116-3.382-2.116-3.382.814-.271 4.72-.271 6.835s-.947 3.418-2.571 3.906c-1.353.325-2.571-1.139-3.924-1.139-1.218 0-2.165 1.139-3.247 1.465-5.412 1.465-10.824-1.465-16.506.976-.676.325-1.082-.976-.541-1.465 2.977-2.441 7.171-2.767 10.688-2.441 2.435.325 3.112.976 5.953-.163.541-.163.812-1.139 1.488-1.139a5.43 5.43 0 0 0 1.624 0 5.971 5.971 0 0 1 2.3.976c1.624-1.953 1.759-3.906.406-5.7-.135-2.116-1.218-3.418.406-5.208s2.571-.163 4.329-.163c2.3 2.278 4.871 1.953 7.847-.814a16.553 16.553 0 0 0-.135-9.927c-.676-2.441-1.894-4.72-2.435-7.161-.676-3.58.406-4.72 1.218-7.812 2.029-1.79 2.3-3.906.947-6.51a18.409 18.409 0 0 1-2.165-2.6 4.558 4.558 0 0 1-.406-2.441c-.271-.651.406-.814.677-.488z" class="cls-2" data-name="Path 1304" transform="translate(-343.997 -7.1)"/>
                </g>
            </g>
            <g id="Group_1912" data-name="Group 1912" transform="translate(0 1.444)">
                <g id="Group_1911" data-name="Group 1911">
                    <path id="Path_1305" d="M356.2 58.133c-3.653-5.045-7.441-10.9-6.765-18.065a11.588 11.588 0 0 1 1.624-5.371c2.435-4.231 3.924-3.255 5.276-10.253.271-1.465 0-3.092.271-4.72 1.082-4.72 4.059-6.51 7.847-7.486 2.706-.814 5.547-.651 8.118-1.79 1.353-.488 2.571-1.465 3.924-1.953 3.247-1.139 5.818.163 9.065-.488 1.894-.325 2.841 3.255.812 3.58-4.329.814-8.253.814-12.718 2.441-5.682 2.116-13.259-.325-14.612 9.114-.541 3.58-.135 5.7-2.029 8.625-2.3 3.58-5.547 7.323-5.276 12.694.271 4.231 4.059 8.625 6.088 11.555.947 1.465-.676 3.418-1.624 2.116z" class="cls-2" data-name="Path 1305" transform="translate(-349.36 -7.987)"/>
                </g>
            </g>
            <g id="Group_1914" data-name="Group 1914" transform="translate(19.108 10.904)">
                <g id="Group_1913" data-name="Group 1913">
                    <path id="Path_1306" d="M363.874 14.776a17.823 17.823 0 0 1-.676 7.974c-.135.325-.406.163-.541 0a15.785 15.785 0 0 1-.812-7.974 1.015 1.015 0 0 1 2.029 0z" class="cls-2" data-name="Path 1306" transform="translate(-361.662 -13.8)"/>
                </g>
            </g>
            <g id="Group_1916" data-name="Group 1916" transform="translate(27.802 25.949)">
                <g id="Group_1915" data-name="Group 1915">
                    <path id="Path_1307" d="M350.267 23.786c1.353-1.627 3.653-.163 5.141.488 1.624.814 3.653 2.116 4.059 4.394.135.814-.406 1.3-.947 1.139-1.624-.325-2.841-1.79-4.329-2.6-1.353-.651-3.247-.651-4.059-2.278a.916.916 0 0 1 .135-1.139z" class="cls-2" data-name="Path 1307" transform="translate(-349.984 -23.044)"/>
                </g>
            </g>
            <g id="Group_1918" data-name="Group 1918" transform="translate(17.9 35.427)">
                <g id="Group_1917" data-name="Group 1917">
                    <path id="Path_1308" d="M359.549 28.92c2.841-.488 6.765 2.6 6.765 6.347a.85.85 0 0 1-1.218.814c-.947-.651-1.759-1.79-2.706-2.441-.947-.814-2.165-1.3-3.112-2.116-.812-.488-.812-2.278.271-2.6z" class="cls-2" data-name="Path 1308" transform="translate(-358.7 -28.869)"/>
                </g>
            </g>
            <g id="Group_1920" data-name="Group 1920" transform="translate(7.332 30.5)">
                <g id="Group_1919" data-name="Group 1919">
                    <path id="Path_1309" d="M371.748 29.029a24.5 24.5 0 0 1-2.571-1.79c-.271-.325-.271-.976.135-1.139 1.218-.651 2.706 0 3.653 1.139.812.814-.271 2.441-1.218 1.79z" class="cls-2" data-name="Path 1309" transform="translate(-368.989 -25.841)"/>
                </g>
            </g>
        </g>
        <g id="Group_2708" data-name="Group 2708" transform="translate(528.233 11.041)">
            <g id="Ellipse_464" class="cls-4" data-name="Ellipse 464" transform="translate(5 32.321)">
                <ellipse cx="11.5" cy="11.263" class="cls-14" rx="11.5" ry="11.263"/>
                <ellipse cx="11.5" cy="11.263" class="cls-15" rx="9.5" ry="9.263"/>
            </g>
            <g id="Ellipse_465" class="cls-4" data-name="Ellipse 465" transform="translate(19 12.733)">
                <ellipse cx="6.5" cy="6.366" class="cls-14" rx="6.5" ry="6.366"/>
                <ellipse cx="6.5" cy="6.366" class="cls-15" rx="4.5" ry="4.366"/>
            </g>
            <g id="Ellipse_466" class="cls-4" data-name="Ellipse 466">
                <ellipse cx="6.5" cy="6.366" class="cls-14" rx="6.5" ry="6.366"/>
                <ellipse cx="6.5" cy="6.366" class="cls-15" rx="4.5" ry="4.366"/>
            </g>
        </g>
        <g id="Group_2709" data-name="Group 2709" transform="translate(819.714 38.465)">
            <g id="Ellipse_464-2" class="cls-5" data-name="Ellipse 464" transform="translate(0 35.259)">
                <ellipse cx="11.5" cy="11.263" class="cls-14" rx="11.5" ry="11.263"/>
                <ellipse cx="11.5" cy="11.263" class="cls-15" rx="9.5" ry="9.263"/>
            </g>
            <g id="Ellipse_465-2" class="cls-5" data-name="Ellipse 465" transform="translate(5 16.65)">
                <ellipse cx="6.5" cy="6.366" class="cls-14" rx="6.5" ry="6.366"/>
                <ellipse cx="6.5" cy="6.366" class="cls-15" rx="4.5" ry="4.366"/>
            </g>
            <g id="Ellipse_466-2" class="cls-5" data-name="Ellipse 466" transform="translate(14)">
                <ellipse cx="6.5" cy="6.366" class="cls-14" rx="6.5" ry="6.366"/>
                <ellipse cx="6.5" cy="6.366" class="cls-15" rx="4.5" ry="4.366"/>
            </g>
        </g>
        <g id="Group_2710" class="cls-6" data-name="Group 2710" transform="translate(0 96.626)">
            <g id="Group_1796" data-name="Group 1796" transform="translate(0 19.824)">
                <g id="Group_1795" data-name="Group 1795">
                    <path id="Path_1250" d="M16.386 29.318c2.564 6.781 7.522 13.144 14.873 15.07a8.141 8.141 0 0 1 1.368.335c1.453.084 1.71.084.684.167-.94.084-1.881.251-2.821.419a22.4 22.4 0 0 1-7.437-.921c-2.564-.753-5.3-1.507-7.266-3.265a9 9 0 0 1-2.821-4.27c-.171-.67-.256-1.34-.427-2.009-.342-2.344 1.026-4.1 3.932-5.191.769.335 1.453-.753.684-1.172-2.479-1.423-4.958-.251-6.069 2.26-1.368 3.181-.513 7.284 1.453 10.047 4.616 6.7 16.327 8.456 22.909 3.935a.4.4 0 0 0-.256-.753c-9.4-.586-14.361-6.949-17.523-14.986-.342-.753-1.539-.419-1.282.335z" class="cls-2" data-name="Path 1250" transform="translate(-10.418 -27.866)"/>
                </g>
            </g>
            <g id="Group_1798" data-name="Group 1798" transform="translate(8.421 5.704)">
                <g id="Group_1797" data-name="Group 1797">
                    <path id="Path_1251" d="M37.477 37.707a21.036 21.036 0 0 1-6.411-9.8c-1.026-3.181-1.026-6.53-1.966-9.8-.94-3.181-4.018-6.865-7.608-7.116a.916.916 0 0 0-.855.67C19.1 15.6 22.775 22.219 24.655 25.484c2.906 5.274 7.18 10.381 12.48 13.479.427.251 1.026-.419.6-.753-4.872-3.851-9.146-7.786-12.053-13.312a36.3 36.3 0 0 1-2.992-8.372c-.171-.586-.94-2.763-.513-3.349-.6-.251-.513-.167.171.419.171.084.256.167.427.251 6.325 2.847 5.043 8.874 6.753 14.484a18.817 18.817 0 0 0 7.351 10.3c.427.419 1.111-.5.6-.921z" class="cls-2" data-name="Path 1251" transform="translate(-20.27 -11)"/>
                </g>
            </g>
            <g id="Group_1800" data-name="Group 1800" transform="translate(19.547 10.676)">
                <g id="Group_1799" data-name="Group 1799">
                    <path id="Path_1252" d="M37.4 18.079c2.65 2.26 2.564 4.856 3.761 7.7.6 1.34 5.043 6.028 4.958 7.2-.513 5.023-3.334 1.674-4.53.67-1.2-1.088-2.479-2.177-3.59-3.349a10.908 10.908 0 0 1-2.735-4.94 8.422 8.422 0 0 1 .256-4.6 3.956 3.956 0 0 1 1.539-2.512.42.42 0 1 0 .6-.586c-2.821-3.181-4.53 5.107-4.359 6.781.427 5.442 6.5 10.884 11.369 12.893 4.018 1.674 3.163-3.1 1.881-5.358a29.529 29.529 0 0 0-2.308-3.1 15.83 15.83 0 0 1-3.163-6.614c-.513-2.177-1.2-3.851-3.334-4.688-.256-.167-.6.335-.342.5z" class="cls-2" data-name="Path 1252" transform="translate(-33.286 -16.94)"/>
                </g>
            </g>
            <g id="Group_1802" data-name="Group 1802" transform="translate(22.528)">
                <g id="Group_1801" data-name="Group 1801">
                    <path id="Path_1253" d="M36.882 5.2c-.171 2.009-.427 6.2 1.8 7.284a.617.617 0 0 0 .855-.251c.513-1 .171-1.926 0-3.014a21.549 21.549 0 0 1-.427-4.1c0-1.256-2.137-1.256-2.222.084z" class="cls-2" data-name="Path 1253" transform="translate(-36.774 -4.187)"/>
                </g>
            </g>
            <g id="Group_1804" data-name="Group 1804" transform="translate(30.281 1.882)">
                <g id="Group_1803" data-name="Group 1803">
                    <path id="Path_1254" d="M49.567 6.992a44.041 44.041 0 0 0-2.735 5.274c-.6 1.423-1.282 2.93-.855 4.437.085.251.513.5.769.335a6.972 6.972 0 0 0 2.222-3.516c.769-1.842 1.71-3.6 2.479-5.442a1.086 1.086 0 0 0-1.881-1.088z" class="cls-2" data-name="Path 1254" transform="translate(-45.844 -6.435)"/>
                </g>
            </g>
            <g id="Group_1806" data-name="Group 1806" transform="translate(32.552 9.525)">
                <g id="Group_1805" data-name="Group 1805">
                    <path id="Path_1255" d="M48.5 22.125c1.8 0 3.077-1.423 4.359-2.344a36.391 36.391 0 0 0 4.616-3.433.445.445 0 0 0-.427-.753 15.873 15.873 0 0 0-5.556 2.847c-1.282 1-2.821 1.926-2.992 3.684z" class="cls-2" data-name="Path 1255" transform="translate(-48.5 -15.565)"/>
                </g>
            </g>
        </g>
        <g id="Group_2712" class="cls-7" data-name="Group 2712" transform="translate(218.78 94.709)">
            <g id="Group_1968" data-name="Group 1968" transform="translate(.564 .675)">
                <g id="Group_1967" data-name="Group 1967">
                    <path id="Path_1331" d="M29.829 130.357c1.111-3.935-3.59-12.977-7.095-6.447-.684 1.256-.94 3.349-3.419 2.763-2.393-.5-2.222-3.516-1.71-5.107a8.372 8.372 0 0 1 5.3-5.609c6.069-1.591 8.462 4.521 9.232 9.042.085.335.684.251.684-.084-.427-3.935-1.111-8.54-5.556-9.879-4.188-1.34-8.633 1.591-10.514 5.107-1.539 2.93-1.368 7.954 2.992 8.372 2.052.167 2.65-1 3.676-2.344 1.111-1.34-.6-.5 1.966-1.842 1.111-1.256 1.71-1.172 1.966.084a16.069 16.069 0 0 1 .684 1.842 32.25 32.25 0 0 0 1.111 4.1.348.348 0 0 0 .684 0z" class="cls-2" data-name="Path 1331" transform="translate(-15.869 -114.705)"/>
                </g>
            </g>
            <g id="Group_1970" data-name="Group 1970" transform="translate(15.612)">
                <g id="Group_1969" data-name="Group 1969">
                    <path id="Path_1332" d="M36.83 144.877c-.94-5.944-2.479-11.972-1.2-17.916.427-2.009 1.026-4.019 1.539-6.028.256-1.088.94-5.023 2.222-5.358 1.539-.5 1.282 1.34 1.453 2.093.769 4.688-1.881 8.874-2.992 13.228-.769 3.014-1.881 7.116-.427 9.963.256.5.94.167.855-.335-1.539-6.614 3.5-13.144 3.932-19.758.085-2.009.769-6.949-2.137-6.865-1.453.084-3.248 1.842-3.847 3.014a17.415 17.415 0 0 0-.684 3.851c-.342 1.758-.855 3.349-1.282 5.107-1.71 6.363-.342 13.144 1.2 19.423.256.837 1.539.419 1.368-.419z" class="cls-2" data-name="Path 1332" transform="translate(-33.474 -113.899)"/>
                </g>
            </g>
            <g id="Group_1972" data-name="Group 1972" transform="translate(3.446 6.69)">
                <g id="Group_1971" data-name="Group 1971">
                    <path id="Path_1333" d="M39.892 127.089c.855-1.423 4.7-5.358 6.582-2.093s-2.308 3.433-3.676 3.935a5.721 5.721 0 0 0-2.65 2.009 8.258 8.258 0 0 0-1.2 4.27c-.085 1.926.427 3.684 0 5.609a28.327 28.327 0 0 1-1.368 3.767c-.085.419-.256.753-.342 1.172-.256 2.344-2.052 2.846-5.385 1.34-.513-.67-.427-2.26-.6-3.014a7.029 7.029 0 0 0-2.308-3.684 53.272 53.272 0 0 0-4.616-2.93c-1.282-.921-5.214-3.014-1.453-5.107 2.393-1.34 5.129 1.256 5.727 3.349.256.837 1.624.5 1.368-.335-.855-3.1-2.992-4.94-6.411-4.437-2.308.335-4.958 1.591-4.188 4.27 1.2 4.1 7.437 4.521 9.488 7.87 1.453 2.344 1.111 8.372 5.471 8.121 3.847-.251 4.359-6.112 5.3-8.791.855-2.763-.171-8.2 1.539-10.214 1.624-1.842 4.53-1.674 6.069-3.433a4.64 4.64 0 0 0-.513-6.112c-2.906-2.344-7.18 1.256-8.462 3.6-.342 1 1.111 1.842 1.624.837z" class="cls-2" data-name="Path 1333" transform="translate(-19.241 -121.89)"/>
                </g>
            </g>
            <g id="Group_1974" data-name="Group 1974" transform="translate(17.339 37.242)">
                <g id="Group_1973" data-name="Group 1973">
                    <path id="Path_1334" d="M35.5 159.234a9.235 9.235 0 0 0 1.026 2.93c.342.837.342 1.926 1.026 2.512.171.167.342.084.513-.084.6-.753.256-2.009.171-2.93a5.072 5.072 0 0 0-1.282-3.1c-.6-.419-1.539-.084-1.453.67z" class="cls-2" data-name="Path 1334" transform="translate(-35.494 -158.382)"/>
                </g>
            </g>
            <g id="Group_1976" data-name="Group 1976" transform="translate(3.917 33.3)">
                <g id="Group_1975" data-name="Group 1975">
                    <path id="Path_1335" d="M27.578 153.7a19.014 19.014 0 0 0-7.693 6.2c-.342.5.342 1.172.855.837a30.034 30.034 0 0 0 7.095-6.781c.171-.167-.085-.335-.256-.251z" class="cls-2" data-name="Path 1335" transform="translate(-19.792 -153.673)"/>
                </g>
            </g>
            <g id="Group_1978" data-name="Group 1978" transform="translate(0 27.702)">
                <g id="Group_1977" data-name="Group 1977">
                    <path id="Path_1336" d="M22.467 147a12.05 12.05 0 0 0-3.932 2.177 10.763 10.763 0 0 0-3.248 2.6.512.512 0 0 0 .6.754 13.82 13.82 0 0 0 3.932-2.177 11.919 11.919 0 0 0 3.248-2.6c.342-.419-.171-.837-.6-.753z" class="cls-2" data-name="Path 1336" transform="translate(-15.209 -146.987)"/>
                </g>
            </g>
            <g id="Group_1980" data-name="Group 1980" transform="translate(26.7 25.683)">
                <g id="Group_1979" data-name="Group 1979">
                    <path id="Path_1337" d="M46.748 145.6c1.539.837 3.163 1.34 4.7 2.177 1.453.837 2.821 2.009 4.274 2.93.256.167.6-.167.427-.419A14.327 14.327 0 0 0 47 144.6c-.6-.167-.769.753-.256 1z" class="cls-2" data-name="Path 1337" transform="translate(-46.445 -144.576)"/>
                </g>
            </g>
            <g id="Group_1982" data-name="Group 1982" transform="translate(24.322 32.523)">
                <g id="Group_1981" data-name="Group 1981">
                    <path id="Path_1338" d="M43.866 153.963c1.111.921 2.393 1.674 3.59 2.6 1.026.837 2.137 1.507 3.163 2.344.085.084.256-.084.171-.167a48.956 48.956 0 0 0-5.984-5.86c-.684-.5-1.539.586-.94 1.088z" class="cls-2" data-name="Path 1338" transform="translate(-43.663 -152.746)"/>
                </g>
            </g>
            <g id="Group_1984" data-name="Group 1984" transform="translate(6.785 2.513)">
                <g id="Group_1983" data-name="Group 1983">
                    <path id="Path_1339" d="M23.791 116.984c-.94.586-.6 2.177-.513 3.014.171 1.172.342 3.014 1.453 3.6a.415.415 0 0 0 .513-.167c.342-1.088-.342-2.428-.6-3.6-.171-.921.085-2.344-.769-2.93l-.085.084z" class="cls-2" data-name="Path 1339" transform="translate(-23.147 -116.9)"/>
                </g>
            </g>
            <g id="Group_1986" data-name="Group 1986" transform="translate(11.788 5.514)">
                <g id="Group_1985" data-name="Group 1985">
                    <path id="Path_1340" d="M31.735 120.5c-.342.084-.684.084-.94.419l-.769.753A3.082 3.082 0 0 0 29 123.511a.668.668 0 0 0 .855.586 3.7 3.7 0 0 0 1.453-1.34c.171-.251.427-.5.6-.753a2.033 2.033 0 0 0 .342-.921c.171-.335-.085-.67-.513-.586z" class="cls-2" data-name="Path 1340" transform="translate(-29 -120.484)"/>
                </g>
            </g>
            <g id="Group_1988" data-name="Group 1988" transform="translate(19.439 23.687)">
                <g id="Group_1987" data-name="Group 1987">
                    <path id="Path_1341" d="M38.078 143.2c.427.419 1.026.335 1.624.335.513 0 1.282.084 1.624-.335a.5.5 0 0 0 0-.67c-.342-.419-1.111-.335-1.624-.335s-1.2-.084-1.624.335a.5.5 0 0 0 0 .67z" class="cls-2" data-name="Path 1341" transform="translate(-37.95 -142.192)"/>
                </g>
            </g>
            <g id="Group_1990" data-name="Group 1990" transform="translate(21.075 16.139)">
                <g id="Group_1989" data-name="Group 1989">
                    <path id="Path_1342" d="M39.895 133.95c.171.586.684.67 1.111.921a2.146 2.146 0 0 0 1.453.167c.171-.084.427-.335.342-.5a1.982 1.982 0 0 0-1.026-1 1.725 1.725 0 0 0-1.539-.251.5.5 0 0 0-.342.67z" class="cls-2" data-name="Path 1342" transform="translate(-39.864 -133.176)"/>
                </g>
            </g>
            <g id="Group_1992" data-name="Group 1992" transform="translate(25.197 10.025)">
                <g id="Group_1991" data-name="Group 1991">
                    <path id="Path_1343" d="M44.7 126.482a3.31 3.31 0 0 0 .684 1.926 2.377 2.377 0 0 0 1.453 1.256c.256.084.6-.084.513-.419a2.7 2.7 0 0 0-.684-1.591 6.352 6.352 0 0 0-1.026-1.591.538.538 0 0 0-.94.419z" class="cls-2" data-name="Path 1343" transform="translate(-44.687 -125.874)"/>
                </g>
            </g>
            <g id="Group_1994" data-name="Group 1994" transform="translate(9.378 19.003)">
                <g id="Group_1993" data-name="Group 1993">
                    <path id="Path_1344" d="M28.847 136.683a11.654 11.654 0 0 0-1.539 1.34 4.905 4.905 0 0 0-1.111 1.591c-.085.251.171.586.427.419a5.971 5.971 0 0 0 1.624-1.256c.513-.5.855-1.088 1.282-1.591a.443.443 0 0 0-.684-.5z" class="cls-2" data-name="Path 1344" transform="translate(-26.18 -136.597)"/>
                </g>
            </g>
            <g id="Group_1996" data-name="Group 1996" transform="translate(17.012 13.313)">
                <g id="Group_1995" data-name="Group 1995">
                    <path id="Path_1345" d="M35.358 130.553a10.785 10.785 0 0 0 3.932.921.4.4 0 0 0 .171-.753 9.406 9.406 0 0 0-4.018-.921c-.427 0-.427.586-.085.753z" class="cls-2" data-name="Path 1345" transform="translate(-35.111 -129.8)"/>
                </g>
            </g>
            <g id="Group_1998" data-name="Group 1998" transform="translate(19.319 5)">
                <g id="Group_1997" data-name="Group 1997">
                    <path id="Path_1346" d="M38.058 120.565c.769.084 1.624.251 2.479.335a.126.126 0 1 0 0-.251c-.769-.335-1.539-.5-2.308-.753-.427-.167-.6.586-.171.67z" class="cls-2" data-name="Path 1346" transform="translate(-37.81 -119.871)"/>
                </g>
            </g>
            <g id="Group_2000" data-name="Group 2000" transform="translate(27.562 2.5)">
                <g id="Group_1999" data-name="Group 1999">
                    <path id="Path_1347" d="M48.177 118.321h.171c.769 0 1.026-1.256.171-1.423h-.171a.722.722 0 1 0-.171 1.423z" class="cls-2" data-name="Path 1347" transform="translate(-47.453 -116.885)"/>
                </g>
            </g>
            <g id="Group_2002" data-name="Group 2002" transform="translate(32.709 4.606)">
                <g id="Group_2001" data-name="Group 2001">
                    <path id="Path_1348" d="M54.693 121.912a1.256 1.256 0 0 0 0-2.512 1.256 1.256 0 0 0 0 2.512z" class="cls-2" data-name="Path 1348" transform="translate(-53.475 -119.4)"/>
                </g>
            </g>
            <g id="Group_2004" data-name="Group 2004" transform="translate(32.381 13.229)">
                <g id="Group_2003" data-name="Group 2003">
                    <path id="Path_1349" d="M54.466 132.379a1.34 1.34 0 1 0-1.368-1.34 1.334 1.334 0 0 0 1.368 1.34z" class="cls-2" data-name="Path 1349" transform="translate(-53.092 -129.7)"/>
                </g>
            </g>
        </g>
        <g id="Group_2713" class="cls-8" data-name="Group 2713" transform="translate(138.434 101.539)">
            <g id="Group_2109" data-name="Group 2109" transform="translate(12.985)">
                <g id="Group_2108" data-name="Group 2108">
                    <path id="Path_1398" d="M31.667 187.93c3.419-5.944-2.906-13.228-6.582-17.581a.752.752 0 0 0-1.2.335c-1.453 8.958-4.359 18.167-.513 27.042 1.368 3.1 3.334 6.2 6.753 7.2 3.5 1 7.864 1.172 11.283-.335 3.163-1.423 5.214-4.1 7.18-6.781 2.052-2.846 5.9-7.284 6.325-10.8.256-2.093-1.026-2.763-2.906-2.93-3.932-.251-7.693 3.014-10.429 5.274.427.335.94.67 1.368 1a28.58 28.58 0 0 0 1.453-20.6.986.986 0 0 0-1.368-.586c-5.727 3.851-8.8 9.544-11.711 15.572-.513 1 1.026 1.926 1.624.921 2.821-5.609 5.727-11.3 11.112-14.819a9.6 9.6 0 0 1-1.368-.586 27.209 27.209 0 0 1-1.026 19.256.86.86 0 0 0 1.368 1c1.881-1.507 6.924-6.2 9.061-3.767 1.368 1.507.6 1.842-.256 3.433-.684 1.256-1.368 2.428-2.052 3.684-3.419 5.86-6.924 10.13-14.446 9.963-15.637-.325-12.646-23.011-9.737-32.807-.427.084-.855.084-1.282.167 3.419 5.191 9.232 9.628 7.009 16.409-.427.5.171.753.342.335z" class="cls-2" data-name="Path 1398" transform="translate(-21.463 -169.056)"/>
                </g>
            </g>
            <g id="Group_2111" data-name="Group 2111" transform="translate(17.406 12.248)">
                <g id="Group_2110" data-name="Group 2110">
                    <path id="Path_1399" d="M27.032 183.865a26.074 26.074 0 0 0 .6 11.47c.684 2.679 1.539 5.693 4.274 6.949 5.214 2.428 12.651-3.6 15.557-7.284.256-.335-.171-1-.6-.753-2.052.837-3.59 2.26-5.385 3.516-2.735 2.009-5.214 3.935-8.633 2.177-2.052-1.088-2.308-1.674-2.992-3.684a35.463 35.463 0 0 1-.94-4.1c-.513-2.763-.855-5.442-1.368-8.2-.085-.335-.513-.335-.513-.084z" class="cls-2" data-name="Path 1399" transform="translate(-26.635 -183.686)"/>
                </g>
            </g>
            <g id="Group_2113" data-name="Group 2113" transform="translate(22.932 9.43)">
                <g id="Group_2112" data-name="Group 2112">
                    <path id="Path_1400" d="M33.784 200.647c2.479-1.591 4.274-4.688 5.385-7.367a26.6 26.6 0 0 0 1.368-5.274 24.824 24.824 0 0 1 2.821-6.949c.171-.419-.256-.921-.684-.67-2.992 1.674-3.419 5.358-4.1 8.372a20.459 20.459 0 0 1-2.564 6.53c-1.026 1.674-2.308 3.014-2.906 4.856 0 .419.427.753.684.5z" class="cls-2" data-name="Path 1400" transform="translate(-33.1 -180.32)"/>
                </g>
            </g>
            <g id="Group_2115" data-name="Group 2115" transform="translate(.017 2.375)">
                <g id="Group_2114" data-name="Group 2114">
                    <path id="Path_1401" d="M15.1 178.262c.94-1.507-1.368-4.186-2.479-5.107-1.453-1.172-3.932-1.842-5.556-.586s-.427 2.93 1.111 3.6c1.026.419 2.137.586 3.163.921 1.368.419 2.137 1.423 3.248 2.177a.432.432 0 0 0 .6-.5c-.94-2.93-4.7-2.6-6.838-3.851-.342-.167-.855-.67-.6-1.088.256-.586 1.71-.419 2.137-.335a6.392 6.392 0 0 1 2.308 1.34 9.089 9.089 0 0 1 1.624 2.763 1.4 1.4 0 0 0 .855.837.315.315 0 0 0 .427-.167z" class="cls-2" data-name="Path 1401" transform="translate(-6.292 -171.893)"/>
                </g>
            </g>
            <g id="Group_2117" data-name="Group 2117" transform="translate(0 14.01)">
                <g id="Group_2116" data-name="Group 2116">
                    <path id="Path_1402" d="M14.331 186.8c-2.992-2.6-8.462.167-8.035 4.1a2.047 2.047 0 0 0 2.904 1.847 7.226 7.226 0 0 0 2.479-2.009 10.878 10.878 0 0 1 1.368-1.423 15.784 15.784 0 0 1 2.052-1.088.322.322 0 0 0-.085-.586c-2.479-.67-3.761 2.679-5.471 3.684a1.081 1.081 0 0 1-1.026.251c-.513.251-.769.084-.769-.419a1.6 1.6 0 0 1-.085-1.088 3.505 3.505 0 0 1 1.624-2.177c1.453-.921 2.992-.67 4.616-.251.342.084.769-.5.427-.837z" class="cls-2" data-name="Path 1402" transform="translate(-6.272 -185.79)"/>
                </g>
            </g>
            <g id="Group_2119" data-name="Group 2119" transform="translate(39.131 4.513)">
                <g id="Group_2118" data-name="Group 2118">
                    <path id="Path_1403" d="M53.46 178.175a24.2 24.2 0 0 1 2.222-1.926 4.248 4.248 0 0 1 2.052-.67c1.026.084 1.71.921.94 1.591-.769.753-2.479.419-3.59.419a5.737 5.737 0 0 0-2.906.419.31.31 0 0 0 0 .5 8.007 8.007 0 0 0 3.163.335 14.106 14.106 0 0 0 3.248-.167 1.9 1.9 0 0 0 1.453-2.512c-1.026-3.433-6.838-1.088-7.351 1.507a.53.53 0 0 0 .769.5z" class="cls-2" data-name="Path 1403" transform="translate(-52.05 -174.447)"/>
                </g>
            </g>
        </g>
        <g id="Group_2714" class="cls-9" data-name="Group 2714" transform="translate(72.298 91.322)">
            <g id="Group_2274" data-name="Group 2274">
                <g id="Group_2273" data-name="Group 2273">
                    <path id="Path_1474" d="M15.917 220.827c0 3.684 1.71 7.2 3.5 10.3 1.539 2.6 4.018 6.865 6.838 8.288a2.788 2.788 0 0 0 2.308.251c1.8-.5 1.111-1.34 3.5-1 2.821.335 5.043 3.265 7.18 5.023 2.308 1.926 4.53 3.851 6.924 5.693.171-.5.256-1 .427-1.507a20.314 20.314 0 0 0-11.872 10.375c.342-.084.769-.084 1.111-.167-3.077-2.93-18.805-9.879-11.283-15.321a.785.785 0 0 0 .171-1.256 43.8 43.8 0 0 1-8.8-9.293 26.876 26.876 0 0 1-2.821-5.358 19.919 19.919 0 0 1-.855-3.014 6.251 6.251 0 0 1-.256-1.758c-.513-1.842.513-2.93 3.334-3.181a.6.6 0 0 0 .855-.837 3.491 3.491 0 0 0-4.616-.586c-1.881 1.34-1.453 4.27-1.2 6.2 1.282 7.953 7.009 13.981 13.164 19 .085-.419.085-.837.171-1.256a6.169 6.169 0 0 0-1.881 8.037c2.479 5.107 9.4 5.693 13.078 9.712A.69.69 0 0 0 36 259a18.944 18.944 0 0 1 11.112-9.293.922.922 0 0 0 .427-1.507c-3.248-2.93-6.753-5.777-10.172-8.54-2.052-1.591-4.188-4.019-7.009-2.93-1.368.5-1.966 1.674-3.676.837-1.8-.921-3.59-3.935-4.7-5.358-2.564-3.516-3.59-7.535-5.556-11.3-.171-.419-.513-.335-.513-.084z" class="cls-2" data-name="Path 1474" transform="translate(-10.13 -216.853)"/>
                </g>
            </g>
            <g id="Group_2276" data-name="Group 2276" transform="translate(18.956 27.091)">
                <g id="Group_2275" data-name="Group 2275">
                    <path id="Path_1475" d="M32.643 257.574c2.479.586 5.471.419 7.522-1.256a6.544 6.544 0 0 0 1.8-6.7.643.643 0 0 0-1.2 0c-.513 2.009.513 4.019-1.282 5.693-1.881 1.758-4.359 1.423-6.667 1.172-.6-.084-.684.921-.171 1.088z" class="cls-2" data-name="Path 1475" transform="translate(-32.306 -249.212)"/>
                </g>
            </g>
        </g>
        <g id="Group_2716" class="cls-10" data-name="Group 2716" transform="translate(1248.54 93.846)">
            <g id="Group_2175" data-name="Group 2175" transform="translate(22.305)">
                <g id="Group_2174" data-name="Group 2174">
                    <path id="Path_1428" d="M378.6 222.146a15.04 15.04 0 0 0-9.6 6.562 26.1 26.1 0 0 0-2.7 5.877l-1.2 3.82a10.6 10.6 0 0 1-1.9 3.82c-.6 1.567-1.9 1.959-3.8 1.077-.1-.294 2.9-4.016 3.1-4.7a11.729 11.729 0 0 0 .5-5.877c-.4-4.7-1.7-9.4 4.5-11.068 4.2-1.175 7.4 1.175 11.3 2.057 1.1.2 1.6-1.371.5-1.665-5.8-1.469-13.1-5.289-17.5 1.175-1.6 2.351-1.5 4.9-1.1 7.542.5 3.33.9 5.779-.8 8.913-.6 1.175-2.3 2.449-2.5 3.722-.6 3.82 4.5 2.938 6.3 1.175 2.5-2.449 3.1-6.464 4.3-9.6 2.2-5.779 5.5-9.109 11.1-11.655.8-.2.3-1.273-.5-1.175z" class="cls-2" data-name="Path 1428" transform="translate(-357.351 -219.584)"/>
                </g>
            </g>
            <g id="Group_2177" data-name="Group 2177" transform="translate(14.554 4.114)">
                <g id="Group_2176" data-name="Group 2176">
                    <path id="Path_1429" d="M353.8 223.9a3.363 3.363 0 0 0-2.9.49 3.5 3.5 0 0 0-1.3 2.84c0 2.351 2.3 4.6 4.6 4.9 5 .686 4.2-8.717-.3-7.835a.65.65 0 0 0-.3 1.077 11.268 11.268 0 0 1 1.9 1.861c.5.979.5 2.644-.8 2.938-1.2.294-2.6-1.077-3-2.155s.4-3.526 2-3.232c.4 0 .6-.881.1-.881z" class="cls-2" data-name="Path 1429" transform="translate(-349.6 -223.785)"/>
                </g>
            </g>
            <g id="Group_2179" data-name="Group 2179" transform="translate(1.3 11.012)">
                <g id="Group_2178" data-name="Group 2178">
                    <path id="Path_1430" d="M364.3 247.647c-3.6.392-7.6.784-8.9-3.526-.6-2.155-.7-4.309-1.5-6.366a11.489 11.489 0 0 0-6.1-6.464c-3.4-1.469-14.2.588-10.8 5.779.7.979 2.7 2.155 3.9 3.036 3 2.155 4.8 3.918 6 7.444 1.1 3.134 1.5 5.975 4.7 7.835 2.6 1.469 6.5 2.155 9.3.686 3-1.469 3-4.407 3.8-7.248.2-.784-.7-1.175-1.3-.784-3.5 2.84-.8 8.227-8.2 6.758-5.8-1.175-5.3-5.387-6.9-9.6a10.131 10.131 0 0 0-3.6-4.8c-1.1-.881-2.4-1.469-3.6-2.253a17.2 17.2 0 0 0-2.3-1.273c-.4-2.84.6-4.212 2.9-4.309 5.7-2.253 9.5 4.016 10.7 8.423.7 2.547.7 5.387 2.6 7.444 2.4 2.644 7.2 3.036 9.5.2.4-.392.3-.979-.2-.979z" class="cls-2" data-name="Path 1430" transform="translate(-336.346 -230.828)"/>
                </g>
            </g>
            <g id="Group_2181" data-name="Group 2181" transform="translate(33.415 13.601)">
                <g id="Group_2180" data-name="Group 2180">
                    <path id="Path_1431" d="M383.7 233.5c-11.4 2.449-7.6 19.784-15.2 26.053-.1.1 0 .294.2.2 9.3-6.17 5-19.882 15.5-25.171.5-.392.1-1.273-.5-1.077z" class="cls-2" data-name="Path 1431" transform="translate(-368.461 -233.471)"/>
                </g>
            </g>
            <g id="Group_2183" data-name="Group 2183" transform="translate(0 12.53)">
                <g id="Group_2182" data-name="Group 2182">
                    <path id="Path_1432" d="M365 259.628c-6.6 2.057-16.9-5.387-22 1.567-1.5 2.057 0 5.289-1.3 6.954-2.9 3.624-5.1-4.505-4-6.758 2-3.918 7.5-3.918 11.2-3.428 6.1.686 13.5 2.742 17.9-2.938 2.2-2.84 2.5-6.464 3.2-9.794 1.5-6.366 6.3-12.928 13.8-10.48 1.1.392 1.6-1.371.5-1.763a11.681 11.681 0 0 0-11.7 2.547c-3.9 3.428-4.6 8.423-5.7 13.222-3.8 17.63-21.4.49-30.1 10.578-2.3 2.547-2.2 5.877-.5 8.717 1 1.763 3.4 4.212 5.6 2.742 4.6-3.232-1.5-9.99 7.6-10.872 5.7-.686 10.1 2.742 15.5-.294z" class="cls-2" data-name="Path 1432" transform="translate(-335.046 -232.377)"/>
                </g>
            </g>
        </g>
        <g id="Group_2718" class="cls-11" data-name="Group 2718" transform="translate(1175.151 91.397)">
            <g id="Group_2341" data-name="Group 2341" transform="translate(0 1.383)">
                <g id="Group_2340" data-name="Group 2340">
                    <path id="Path_1504" d="M343.5 275.005a40.863 40.863 0 0 0-.5 13.516c.6 4.407 2.9 8.619 2.7 13.026-.1 2.938-.2 5.387 2.7 7.052a4.273 4.273 0 0 0 5.1-.1c1.7-1.469 2.2-4.114 2.2-6.268 0-5-1.5-9.794-1.4-14.887.1-2.938 2.6-18.805-4.3-16.65a.749.749 0 0 0 .2 1.469c1.3.1 2 4.7 2.1 5.779.1 1.469 0 3.134 0 4.7 0 2.84-.2 5.583 0 8.423.2 3.232 3.8 12.928.8 15.083-1.5 0-2.9.1-4.4.1l-1.2-4.114c-.1-.881.2-1.861.1-2.742-.2-1.861-1.2-3.624-1.8-5.485a41.371 41.371 0 0 1-.8-18.507c.3-.979-1.3-1.469-1.5-.392z" class="cls-2" data-name="Path 1504" transform="translate(-342.657 -270.495)"/>
                </g>
            </g>
            <g id="Group_2343" data-name="Group 2343" transform="translate(14.019)">
                <g id="Group_2342" data-name="Group 2342">
                    <path id="Path_1505" d="M360.6 272.528c-2.8-.882-3.7 1.273-3.9 3.722-.2 2.84.9 5.681 1.3 8.423.5 3.232 0 6.464.4 9.7.3 2.547 3 19.2 8.6 14.1 3-2.742 2.4-10.284 2.3-13.81-.2-5.877-.2-12.145-1-18.021-.4-3.134-1.9-7.248-5.7-7.542a3.923 3.923 0 0 0-4.5 3.82.546.546 0 0 0 1 .294c1.7-3.526 6.3 1.077 6.9 3.82a19.915 19.915 0 0 1 .3 4.212c.2 2.546.3 5.093.5 7.639.2 2.84.4 5.583.5 8.423.1 1.861-.5 11.949-3.8 7.933-1.1-1.371-1.6-5.093-2.1-6.758a25.25 25.25 0 0 1-1.2-8.227 31 31 0 0 0-.4-6.072c-.5-2.938-3.6-9.794.7-11.459.2.1.2-.1.1-.2z" class="cls-2" data-name="Path 1505" transform="translate(-356.676 -269.083)"/>
                </g>
            </g>
            <g id="Group_2345" data-name="Group 2345" transform="translate(28.371 8.393)">
                <g id="Group_2344" data-name="Group 2344">
                    <path id="Path_1506" d="M372.2 278.678c-2.4 3.722-.5 7.444.3 11.459 1.1 6.268-.1 12.537.5 18.805.2 2.449 1.7 12.341 6.1 9.3 2-1.371 3.6-5.289 4.3-7.542 1.4-5 .6-11.459.2-16.552-.4-5.583-2.2-19.882-11.4-15.769a.976.976 0 0 0 .8 1.763c9.1-3.036 8.6 17.826 8.6 22.429 0 3.232.1 6.268-1 9.3-.8 2.253-2.5 5.779-4.5 2.547-.8-1.273-.8-3.624-1-5.093a65.491 65.491 0 0 1-.5-10.872 49.655 49.655 0 0 0-.2-8.619c-.5-3.33-2.3-6.954-.3-10.088.7-1.175-1.2-2.253-1.9-1.077z" class="cls-2" data-name="Path 1506" transform="translate(-371.028 -277.652)"/>
                </g>
            </g>
            <g id="Group_2347" data-name="Group 2347" transform="translate(30.661 25.188)">
                <g id="Group_2346" data-name="Group 2346">
                    <path id="Path_1507" d="M374 296.661c2.4.686 6.5 1.469 8.6 0a.679.679 0 0 0 0-1.175 9.566 9.566 0 0 0-3.7-.392c-1.6 0-3.1-.2-4.6-.294a.95.95 0 0 0-.3 1.861z" class="cls-2" data-name="Path 1507" transform="translate(-373.318 -294.8)"/>
                </g>
            </g>
            <g id="Group_2349" data-name="Group 2349" transform="translate(1.17 18.788)">
                <g id="Group_2348" data-name="Group 2348">
                    <path id="Path_1508" d="M344.8 291.042c2.8-.294 6.1-.294 8.8-1.371a.524.524 0 0 0 0-.979c-2.8-.881-6.2-.2-9 .294-1.2.2-.9 2.155.2 2.057z" class="cls-2" data-name="Path 1508" transform="translate(-343.827 -288.266)"/>
                </g>
            </g>
            <g id="Group_2351" data-name="Group 2351" transform="translate(2.245 40.884)">
                <g id="Group_2350" data-name="Group 2350">
                    <path id="Path_1509" d="M350.3 313.935c-1.3-3.526-4.9.784-5.3 2.644-.5 2.057 1 3.33 2.5 4.505 1.4 1.077 3.2 3.036 5.2 2.742 4.2-.49 3.9-5.877 3.2-8.815-.4-1.469-1.2-3.428-2.8-4.016-1.3-.49-2.7.1-2.7 1.469a.639.639 0 0 0 .6.588c1.8-.2 2.5-.2 3.5 1.763 1 2.057 1.5 4.9-.4 6.66-2 1.861-4-.686-5.4-1.959-.8-.881-1.6-1.763-1.5-3.036 0-.49 2.3-4.016 2.8-2.449.1.2.4.1.3-.1z" class="cls-2" data-name="Path 1509" transform="translate(-344.902 -310.826)"/>
                </g>
            </g>
        </g>
        <g id="Group_2719" class="cls-12" data-name="Group 2719" transform="translate(1093.674 94.597)">
            <g id="Group_2630" data-name="Group 2630" transform="translate(14.114 21.949)">
                <g id="Group_2629" data-name="Group 2629">
                    <path id="Path_1641" d="M361.2 349.387c-5.8-2.742-11.1 4.114-10.9 9.207.2 5.191 5 13.124 11.2 9.7 4.6-2.547 5.7-11.557.4-13.908-4.8-2.155-10.2 3.82-6.2 7.737a.968.968 0 0 0 1.6-.979 16.759 16.759 0 0 1-.5-2.155c.9-.881 1.7-1.763 2.6-2.644 2.5-.784 3.4 3.33 3.4 4.8a5.463 5.463 0 0 1-2.6 5.191c-3 1.567-5.3-.784-6.6-3.134-1.6-2.938-1.9-6.66.1-9.5 1.9-2.547 4.2-2.84 7.2-3.232a.571.571 0 0 0 .3-1.077z" class="cls-2" data-name="Path 1641" transform="translate(-350.295 -348.761)"/>
                </g>
            </g>
            <g id="Group_2632" data-name="Group 2632" transform="translate(5.629)">
                <g id="Group_2631" data-name="Group 2631">
                    <path id="Path_1642" d="M349.6 345.5c7.8-1.959 15.9 1.469 17.9 9.6 1 4.212-2.6 11.361.5 14.985 1.6 1.861 3.3 1.175 5-.392a15.922 15.922 0 0 0 3.1-5.093c.6-1.371.6-4.114 1.6-5.191.9-.979 4.5-1.665 5.8-2.351a16.18 16.18 0 0 0 4.9-4.016c2.1-2.547 3.3-5.975 1.7-9.011-4.5-8.325-14.8-2.155-19.7 1.959.5.392 1 .784 1.6 1.175 2.7-6.17 6.1-16.356-2.4-20.078-8.3-3.624-12.2 7.052-13.2 12.831.6-.2 1.2-.294 1.9-.49-3.6-4.211-7.4-11.851-14-6.072-4.8 4.212-2 10.676 2.8 13.418a1.04 1.04 0 0 0 1.1-1.763c-2.6-1.469-5.1-4.309-4.1-7.639a4.665 4.665 0 0 1 7.7-2.253c2 1.763 3.2 4.016 5 5.974.7.784 1.8.1 1.9-.784.4-3.036.7-7.835 3.5-9.794 3.5-2.449 7.7-1.959 9.7 1.763 2.5 4.505.2 9.99-1.7 14.3-.4.979 1 1.469 1.7.979a24.168 24.168 0 0 1 7.5-4.505c3.2-.881 8.4-.2 8.6 4.309.2 5.289-8.1 9.109-12.3 10.284a1.269 1.269 0 0 0-.9 1.175c.1 2.742 0 6.758-2.2 8.815-3.2 3.036-3.7-2.547-3.3-4.8.2-1.077.6-2.253.7-3.33a14.981 14.981 0 0 0-2.5-9.6 15.633 15.633 0 0 0-18.4-5.877c-1 .2-.6 1.665.5 1.469z" class="cls-2" data-name="Path 1642" transform="translate(-341.809 -326.351)"/>
                </g>
            </g>
            <g id="Group_2634" data-name="Group 2634" transform="translate(2.693 29.076)">
                <g id="Group_2633" data-name="Group 2633">
                    <path id="Path_1643" d="M346.2 357.078a6.671 6.671 0 0 0-7-.1.693.693 0 0 0 .3 1.273 33.837 33.837 0 0 0 6.3 0c.7-.2.9-.784.4-1.175z" class="cls-2" data-name="Path 1643" transform="translate(-338.873 -356.037)"/>
                </g>
            </g>
            <g id="Group_2636" data-name="Group 2636" transform="translate(0 42.452)">
                <g id="Group_2635" data-name="Group 2635">
                    <path id="Path_1644" d="M344.4 369.8c-1.5.588-2.8 2.057-4.1 3.134a27.651 27.651 0 0 0-4 3.624c-.3.392 0 1.077.5.881a14.059 14.059 0 0 0 4.8-2.547c1.4-.979 3.2-2.253 4-3.82.6-.882-.3-1.665-1.2-1.273z" class="cls-2" data-name="Path 1644" transform="translate(-336.18 -369.694)"/>
                </g>
            </g>
        </g>
        <g id="Group_2720" class="cls-13" data-name="Group 2720" transform="translate(1013.851 91.276)">
            <g id="Group_2662" data-name="Group 2662" transform="translate(20.197 22.27)">
                <g id="Group_2661" data-name="Group 2661">
                    <path id="Path_1656" d="M364.7 406.649c.9-1.665 1.7-3.428 2.7-5a12.349 12.349 0 0 1 3.6-3.918c2.9-2.253 4.7-.979 5.5 3.722-1.4 2.155-3.3 1.665-4.1 4.6-.7 3.036 1.1 6.954 1.1 9.99a11.7 11.7 0 0 1-3 8.717c-3 3.134-7.1 2.253-10.9 1.469-.6-.1-.9.588-.4.882a9.954 9.954 0 0 0 14-3.624 17.564 17.564 0 0 0 1.9-9.3c-.1-1.763-.9-3.722-.9-5.387 0-6.66 1.8-4.114 4.5-7.052 3.3-3.526.2-7.15-4.1-7.052-6 .2-9.6 6.366-10.6 11.459-.2.588.5.882.7.49z" class="cls-2" data-name="Path 1656" transform="translate(-358.948 -394.698)"/>
                </g>
            </g>
            <g id="Group_2664" data-name="Group 2664" transform="translate(13.549 19.334)">
                <g id="Group_2663" data-name="Group 2663">
                    <path id="Path_1657" d="M352.3 392.092c.1 2.938 2.5 5.975 4.1 8.325 1.7 2.547 3.5 5.387 6.1 7.052.3.2.6-.2.4-.392-1.4-2.84-3.7-5.289-5.4-7.933-1.5-2.351-2.5-5.583-4.5-7.346a.426.426 0 0 0-.7.294z" class="cls-2" data-name="Path 1657" transform="translate(-352.3 -391.7)"/>
                </g>
            </g>
            <g id="Group_2666" data-name="Group 2666" transform="translate(10.162 20.178)">
                <g id="Group_2665" data-name="Group 2665">
                    <path id="Path_1658" d="M351.7 392.6c-3.6-.49-3 4.016-2.1 5.975 1.5 3.526 4.1 7.542 7.4 9.6.3.2.7-.2.5-.49-2.2-3.232-10.4-10.872-5.6-14.789.1 0-.1-.2-.2-.294z" class="cls-2" data-name="Path 1658" transform="translate(-348.913 -392.562)"/>
                </g>
            </g>
            <g id="Group_2668" data-name="Group 2668" transform="translate(6.22 16.85)">
                <g id="Group_2667" data-name="Group 2667">
                    <path id="Path_1659" d="M345 389.787a31.734 31.734 0 0 0 4.6 10.48.334.334 0 0 0 .6-.294c-1.5-3.428-2.8-6.954-4.2-10.382-.3-.686-1.2-.49-1 .2z" class="cls-2" data-name="Path 1659" transform="translate(-344.971 -389.164)"/>
                </g>
            </g>
            <g id="Group_2670" data-name="Group 2670" transform="translate(.852 16.851)">
                <g id="Group_2669" data-name="Group 2669">
                    <path id="Path_1660" d="M343.4 389.4c-3.6-1.273-4.3 3.036-3.5 5.485a34.712 34.712 0 0 0 10.4 14.887c.3.2.8-.1.5-.392-1.9-2.547-3.8-4.9-5.5-7.64-.7-1.175-1.4-2.351-2.1-3.428-.5-.784-.9-1.567-1.4-2.351-1.5-1.861-1-3.82 1.4-5.877a.362.362 0 0 0 .2-.686z" class="cls-2" data-name="Path 1660" transform="translate(-339.603 -389.165)"/>
                </g>
            </g>
            <g id="Group_2672" data-name="Group 2672" transform="translate(0 26.815)">
                <g id="Group_2671" data-name="Group 2671">
                    <path id="Path_1661" d="M341.8 399.5c-3.3-1.077-3.4 3.624-2.7 5.583a22.892 22.892 0 0 0 9.9 11.068c.4.2.8-.294.5-.588-3-3.526-12.9-10.382-7.5-15.475.2-.2.1-.49-.2-.588z" class="cls-2" data-name="Path 1661" transform="translate(-338.751 -399.338)"/>
                </g>
            </g>
            <g id="Group_2674" data-name="Group 2674" transform="translate(.544 37.943)">
                <g id="Group_2673" data-name="Group 2673">
                    <path id="Path_1662" d="M342.1 410.7c-5.6 1.077-1.5 6.758 1 8.619a40.522 40.522 0 0 1 7.3 6.954c1.5 1.763 2.9 2.84 5.2 2.351.3-.1.3-.588 0-.588-3.9-.686-6-5-9-7.346a49.6 49.6 0 0 1-3.4-3.036c-.6-.588-1.6-1.273-1.9-2.057-.7-1.567.4-3.036 1.1-4.309.3-.294 0-.588-.3-.588z" class="cls-2" data-name="Path 1662" transform="translate(-339.295 -410.7)"/>
                </g>
            </g>
            <g id="Group_2676" data-name="Group 2676" transform="translate(24.549 17.384)">
                <g id="Group_2675" data-name="Group 2675">
                    <path id="Path_1663" d="M363.6 396.85a15.619 15.619 0 0 1 7.4-4.8c3-.882 5.3.1 8.2.1.5 0 .8-.686.4-.979-2.2-2.057-6.4-1.567-9.1-.784a10.578 10.578 0 0 0-7.2 6.366s.2.294.3.1z" class="cls-2" data-name="Path 1663" transform="translate(-363.3 -389.71)"/>
                </g>
            </g>
            <g id="Group_2678" data-name="Group 2678" transform="translate(25.174)">
                <g id="Group_2677" data-name="Group 2677">
                    <path id="Path_1664" d="M365.1 389.531c2.8-1.371 5.4-2.547 8.7-2.547 2.7.1 4.9 1.077 7.5 1.469a8.955 8.955 0 0 0 7-1.567 8.381 8.381 0 0 0-.3-13.712c-3.1-2.057-10.8-1.665-12.3 2.449-1.6 4.309 5.2 8.423 8.9 7.64a.9.9 0 0 0-.2-1.763c-3.2.1-9.2-4.016-4.1-6.954 2.7-1.567 5.7-.294 7.4 1.861 2.6 3.33 1.8 8.227-2.8 9.7-2.3.686-4.8-.392-7-.882-4.8-.979-9.7-.294-13.6 2.84-.9.882 0 1.861.8 1.469z" class="cls-2" data-name="Path 1664" transform="translate(-363.925 -371.96)"/>
                </g>
            </g>
            <g id="Group_2680" data-name="Group 2680" transform="translate(20.896 37.708)">
                <g id="Group_2679" data-name="Group 2679">
                    <path id="Path_1665" d="M368.7 410.6c-1.7 1.763-.7 5.191-1.3 7.542-.9 3.526-3.6 5.191-7.1 3.82-.4-.2-.8.392-.6.686 1.8 2.84 6 1.567 7.8-.588a9.723 9.723 0 0 0 2-4.8c.3-1.861.9-4.9-.2-6.562-.2-.294-.5-.294-.6-.1z" class="cls-2" data-name="Path 1665" transform="translate(-359.647 -410.461)"/>
                </g>
            </g>
        </g>
    </g>
</svg>
