<svg xmlns="http://www.w3.org/2000/svg" width="1443" height="258.273" viewBox="0 0 1443 258.273">
    <defs>
        <style>
            .cls-1{fill:#055589}.cls-2{opacity:.789}.cls-3{fill:#4dbade}.cls-4{opacity:.72}.cls-18,.cls-5,.cls-6{fill:none}.cls-5,.cls-6{stroke:#05a4bd;stroke-width:4px}.cls-5{opacity:.879}.cls-6{opacity:.636}.cls-7{opacity:.571}.cls-8{opacity:.649}.cls-9{opacity:.532}.cls-10{opacity:.428}.cls-11{opacity:.388}.cls-12{opacity:.453}.cls-13{opacity:.613}.cls-14{opacity:.754}.cls-15{fill:#fff}.cls-16{fill:#e9f0f4}.cls-17{stroke:none}
        </style>
    </defs>
    <g id="Aset_ilustrasi_background_biru" data-name="Aset ilustrasi background biru" transform="translate(1 -4844)">
        <path id="Rectangle_3697" d="M0 0h1440v258H0z" class="cls-1" data-name="Rectangle 3697" transform="translate(0 4844)"/>
        <g id="Aset_ilustrasi" data-name="Aset ilustrasi" transform="translate(-1 .14)">
            <g id="Aset_pattern" data-name="Aset pattern" transform="translate(0 334)">
                <g id="Group_2697" class="cls-2" data-name="Group 2697" transform="rotate(12.04 -21341.77 6163.077)">
                    <g id="Group_1856" data-name="Group 1856" transform="translate(126.283 6.704)">
                        <g id="Group_1855" data-name="Group 1855">
                            <path id="Path_1279" d="M171.893 76.414c3.184 0 6.871-.335 8.882-3.352.67-1.006.67-2.179 1.006-3.352.838-3.017-.335-2.011 2.011-5.7 2.514-4.022 4.357-4.022 8.715-5.028 3.017-.838 5.7-.67 6.7-4.022.335-1.341-.335-2.849-.5-4.022-1.006-5.028-2.179-9.217-1.676-14.413.838-7.877 3.352-19.44-6.368-23.63-6.033-2.681-7.877 6.033-8.547 10.39-.838 5.028-.335 9.72.335 14.748.838 6.033-.335 9.888-4.692 14.58-1.676 1.676-3.687 2.849-4.86 5.028-.67 1.006-.67 2.849-1.173 3.855-2.514 4.19-1.843-1.676-1.676-5.2.335-8.212-1.006-4.86 2.011-8.212 3.017-3.519 7.374-5.866 7.541-11.061 0-3.184-1.341-4.022-3.184-6.2-2.849-3.017-3.687-4.19-4.692-8.212a28.449 28.449 0 0 0-3.017-7.374c-3.017-5.2-6.033-11.564-11.4-5.028-2.179 2.849-2.849 5.028-1.843 8.379 2.514 8.212 10.558 14.58 6.368 23.965-1.676 3.687-4.86 4.86-5.028 9.385-.335 6.2 5.2 11.228 5.53 17.429.838-.335 1.508-.67 2.346-1.006-6.7-6.033-10.558-10.558-9.72-19.943.168-3.017 1.006-5.866 0-8.715a9.318 9.318 0 0 0-3.687-4.692c-3.352-2.346-5.2-3.519-6.7-8.044-.168-.838-.5-4.357-.67-5.2-1.508-6.033-16.926-23.63-19.44-10.055-1.508 8.715 7.877 12.9 11.061 19.775 1.676 3.519 2.346 6.536 4.86 9.72 5.363 7.206 5.7 11.9 5.2 20.446-.168 2.514-.335 5.028 1.173 7.374a21.9 21.9 0 0 0 1.843 2.011 6.943 6.943 0 0 1 4.19 5.7c0 .168.168.168.168.335.838 1.341 1.341 2.849 3.184 3.184 1.508.335 4.525-2.011 5.363-1.006 1.006 1.341 2.849-.5 1.843-1.843-.5-.5-.838-1.173-1.341-1.676a1.3 1.3 0 0 0-1.341-.335c-3.687.838-5.53-1.843-7.374-4.86-1.676-2.681-4.86-5.53-5.363-9.05-.168-1.676.5-4.022.5-5.7a26.5 26.5 0 0 0-1.006-8.044 22.229 22.229 0 0 0-3.017-6.368 93.909 93.909 0 0 1-6.536-12.066 12.2 12.2 0 0 0-2.849-4.692c-1.006-1.341-2.514-2.179-3.519-3.519s-6.536-10.893-1.173-9.553c6.2 1.508 10.055 12.569 11.4 17.429 1.341 4.525 2.681 4.86 6.368 7.541 7.709 5.53 1.843 13.239 4.19 20.949 1.676 5.53 6.2 9.385 10.558 12.9a1.405 1.405 0 0 0 2.346-1.006c0-5.53-3.184-8.882-4.692-13.91-2.011-7.039 3.855-9.05 6.033-14.58 1.341-3.184.5-5.53-.838-8.547-1.508-3.352-3.687-6.368-4.86-9.72-1.508-4.357-3.519-14.915 3.352-8.715 4.357 4.19 4.19 10.893 6.536 16.089.335.838 1.676 1.173 2.179 1.843q7.29 5.53 1.006 11.061c-1.173 1.173-2.346 2.179-3.687 3.352-6.536 6.7-6.033 15.083.335 22.122a1.3 1.3 0 0 0 1.341.335c3.017-.838 2.346-2.011 2.849-4.525 1.173-4.357 2.011-6.2 5.363-9.05 1.843-1.508 3.687-2.849 4.86-5.028 2.011-3.687 1.508-7.541 1.006-11.4-.5-4.86-3.184-15.083.5-19.44 5.363-6.2 8.212 4.86 8.379 7.877.168 3.184-1.173 6.368-1.341 9.72-.335 5.53 1.843 9.385 2.346 14.413.838 9.217-8.379 5.363-13.407 9.72-4.357 3.687-2.514 13.407-10.893 13.742-1.006-.67-1.006 1.676.335 1.676z" class="cls-3" data-name="Path 1279" transform="translate(-124.303 -6.704)"/>
                        </g>
                    </g>
                    <g id="Group_1858" data-name="Group 1858" transform="translate(121.374 42.428)">
                        <g id="Group_1857" data-name="Group 1857">
                            <path id="Path_1280" d="M145.215 36.2c-2.681-5.7-9.217-8.882-15.418-8.044-5.028.67-8.882 4.525-8.379 9.888.5 3.519 2.681 4.692 6.033 3.687 1.006-.335 1.843-1.173 2.849-1.508 2.179-1.006 3.184-.335 5.028.67l3.687 1.843c2.681 1.006 3.352 2.681 4.692 4.86.335.5 1.006.5 1.173 0 1.508-3.017-1.006-5.53-3.687-6.871-1.173-.67-2.514-.67-3.855-1.508-.838-.5-1.508-1.341-2.346-1.843a5.269 5.269 0 0 0-3.519-.838c-1.843.335-3.017 2.346-4.86 2.681-4.357.838-2.514-5.2-.168-6.871 3.352-2.179 8.547-1.508 11.564.838 2.011 1.508 3.687 3.352 6.2 4.022.838 0 1.173-.5 1.006-1.006z" class="cls-3" data-name="Path 1280" transform="translate(-121.374 -28.021)"/>
                        </g>
                    </g>
                </g>
                <g id="Group_2706" class="cls-2" data-name="Group 2706" transform="rotate(-11 24169.908 233.942)">
                    <g id="Group_1856-2" data-name="Group 1856" transform="translate(121.374 6.704)">
                        <g id="Group_1855-2" data-name="Group 1855">
                            <path id="Path_1279-2" d="M150.265 82.059c-3.016 0-6.508-.362-8.413-3.623a13.311 13.311 0 0 1-.952-3.623c-.794-3.261.317-2.174-1.9-6.159-2.381-4.348-4.127-4.348-8.255-5.435-2.857-.906-5.4-.725-6.35-4.348-.317-1.449.317-3.08.476-4.348.952-5.435 2.064-9.964 1.587-15.58-.794-8.515-3.175-21.015 6.032-25.544 5.715-2.9 7.461 6.522 8.1 11.232.794 5.435.317 10.507-.317 15.942-.794 6.522.317 10.688 4.445 15.761 1.587 1.812 3.492 3.08 4.6 5.435.635 1.087.635 3.08 1.111 4.167 2.381 4.529 1.746-1.812 1.587-5.616-.317-8.877.952-5.254-1.9-8.877-2.857-3.8-6.985-6.341-7.143-11.957 0-3.442 1.27-4.348 3.016-6.7 2.7-3.261 3.492-4.529 4.445-8.877a33.326 33.326 0 0 1 2.857-7.971c2.857-5.616 5.715-12.5 10.794-5.435 2.064 3.08 2.7 5.435 1.746 9.058-2.381 8.877-10 15.761-6.032 25.906 1.587 3.986 4.6 5.254 4.762 10.145.317 6.7-4.921 12.138-5.238 18.841-.794-.362-1.429-.725-2.222-1.087 6.35-6.522 10-11.413 9.207-21.558-.159-3.261-.952-6.341 0-9.42a9.976 9.976 0 0 1 3.492-5.072c3.175-2.536 4.921-3.8 6.35-8.7.159-.906.476-4.71.635-5.616 1.429-6.522 16.033-25.544 18.414-10.87 1.429 9.42-7.461 13.949-10.477 21.377-1.587 3.8-2.222 7.065-4.6 10.507-5.08 7.79-5.4 12.862-4.921 22.1.159 2.717.317 5.435-1.111 7.971a22.83 22.83 0 0 1-1.746 2.174c-2.222 1.087-3.492 3.08-3.969 6.159 0 .181-.159.181-.159.362-.794 1.449-1.27 3.08-3.016 3.442-1.429.362-4.286-2.174-5.08-1.087-.952 1.449-2.7-.543-1.746-1.993.476-.543.794-1.268 1.27-1.812a1.133 1.133 0 0 1 1.27-.362c3.492.906 5.238-1.993 6.985-5.254 1.587-2.9 4.6-5.978 5.08-9.783.159-1.812-.476-4.348-.476-6.159a32.476 32.476 0 0 1 .952-8.7A25.664 25.664 0 0 1 176.3 44.2a106.8 106.8 0 0 0 6.191-13.044 13.633 13.633 0 0 1 2.7-5.072c.952-1.449 2.381-2.355 3.334-3.8s6.191-11.775 1.111-10.326c-5.873 1.63-9.524 13.587-10.794 18.841-1.27 4.891-2.54 5.254-6.032 8.152-7.3 5.978-1.746 14.312-3.969 22.645-1.587 5.978-5.873 10.145-10 13.949a1.316 1.316 0 0 1-2.222-1.087c0-5.978 3.016-9.6 4.445-15.036 1.9-7.609-3.651-9.783-5.715-15.761-1.27-3.442-.476-5.978.794-9.239 1.429-3.623 3.492-6.884 4.6-10.507 1.429-4.71 3.334-16.123-3.175-9.42-4.127 4.529-3.969 11.775-6.191 17.391-.317.906-1.587 1.268-2.064 1.993q-6.905 5.978-.952 11.957c1.111 1.268 2.222 2.355 3.492 3.623 6.191 7.246 5.715 16.3-.317 23.913a1.133 1.133 0 0 1-1.27.362c-2.857-.906-2.222-2.174-2.7-4.891-1.111-4.71-1.9-6.7-5.08-9.783-1.746-1.63-3.492-3.08-4.6-5.435-1.9-3.986-1.429-8.152-.952-12.319.476-5.254 3.016-16.3-.476-21.015-5.08-6.7-7.778 5.254-7.937 8.515-.159 3.442 1.111 6.884 1.27 10.507.317 5.978-1.746 10.145-2.222 15.58-.794 9.964 7.937 5.8 12.7 10.507 4.127 3.986 2.381 14.493 10.318 14.855.952-.725.952 1.812-.317 1.812z" class="cls-3" data-name="Path 1279" transform="translate(-124.303 -6.704)"/>
                        </g>
                    </g>
                    <g id="Group_1858-2" data-name="Group 1858" transform="translate(174.368 45.321)">
                        <g id="Group_1857-2" data-name="Group 1857">
                            <path id="Path_1280-2" d="M121.486 36.86a13.831 13.831 0 0 1 14.6-8.7c4.762.725 8.413 4.891 7.937 10.688-.476 3.8-2.54 5.073-5.715 3.986-.952-.362-1.746-1.268-2.7-1.63-2.064-1.087-3.016-.362-4.762.725l-3.492 1.993c-2.54 1.087-3.175 2.9-4.445 5.254-.317.543-.952.543-1.111 0-1.429-3.261.952-5.978 3.492-7.428 1.111-.725 2.381-.725 3.651-1.63.794-.543 1.429-1.449 2.222-1.993a4.514 4.514 0 0 1 3.334-.906c1.746.362 2.857 2.536 4.6 2.9 4.127.906 2.381-5.616.159-7.428-3.175-2.355-8.1-1.63-10.953.906-1.9 1.63-3.492 3.623-5.873 4.348-.794 0-1.111-.543-.952-1.087z" class="cls-3" data-name="Path 1280" transform="translate(-121.374 -28.021)"/>
                        </g>
                    </g>
                </g>
                <g id="Group_2698" class="cls-2" data-name="Group 2698" transform="translate(591.786 4567.634)">
                    <g id="Group_1861" data-name="Group 1861" transform="translate(212.338 37.331)">
                        <g id="Group_1860" data-name="Group 1860">
                            <path id="Path_1281" d="M196.682 17.238C181.158 33.955 209.1 59.27 217.459 71.927c.478.955 1.911.239 1.672-.716-1.433-7.165-7.165-12.657-12.18-17.911-4.06-4.3-8.6-8.359-10.508-14.09-2.866-8.12 0-13.851 1.194-21.494a.7.7 0 0 0-.955-.478z" class="cls-3" data-name="Path 1281" transform="translate(-192.068 -17.173)"/>
                        </g>
                    </g>
                    <g id="Group_1863" data-name="Group 1863" transform="translate(177.467 2.652)">
                        <g id="Group_1862" data-name="Group 1862">
                            <path id="Path_1282" d="M217.19 38.829c3.582-5.732 0-4.538-1.433-10.03-.239-.955-1.194-1.194-2.149-.955-2.388 1.194-5.254 4.06-7.4 6.209-1.433 1.672-3.582 4.3-4.3 6.209-.478 1.194-.478 5.97-1.194 7.165.716 4.06 0 3.582-2.388-1.911a31.2 31.2 0 0 1 1.194-9.314c.716-3.582 2.388-6.926 3.343-10.508A118.023 118.023 0 0 0 206.2 7.782c.478-5.254-.478-6.209-5.015-4.06-3.1 1.433-5.97 4.06-6.926 7.165-.955 2.866-.239 7.4-.478 10.508a92.63 92.63 0 0 1-4.3 19.583 17.593 17.593 0 0 0 3.343-.955c-3.1-3.1-6.448-21.732-13.135-11.7-2.866 4.3-2.627 10.03-1.194 14.568 1.672 4.3 4.776 8.359 7.165 12.419 1.433 2.388 3.343 4.776 4.3 7.165 1.911 3.821 1.672 7.881 3.1 11.941 1.194 4.06 2.388 5.015 6.209 7.4 1.194.716 2.866 1.194 3.821 2.149 3.343 3.1 2.149 5.732 2.627 9.075.239.955-.478 2.149 0 3.1 1.433 4.3 5.254 3.343 8.836 4.3 8.6 1.911 15.046 9.075 23.643 8.12a.716.716 0 0 0 0-1.433c-12.419-.478-9.792-6.926-17.434-9.314-1.194-.239-2.388 0-3.582-.239-2.866 1.194-5.015 0-6.209-3.1-2.866-1.433-3.821-3.343-2.627-5.97-.716-1.672-.478-2.388-1.433-4.06-1.911-2.866-5.254-2.866-7.4-5.254-3.343-3.821-3.1-11.7-5.015-16.24-2.627-6.687-7.881-12.18-10.986-18.628-1.433-2.866-4.538-6.448-2.866-9.792 1.911-3.821 3.1-2.388 5.015 0 1.911 2.627 1.911 5.732 4.3 8.12a2.114 2.114 0 0 0 3.343-.955 72.152 72.152 0 0 0 2.866-12.419c.716-5.254-.478-11.463.716-16.24.955-4.538 5.493-7.4 6.209-3.1.239.955-.716 3.343-.955 4.776-2.138 13.131-11.695 30.565-2.62 42.988a2.008 2.008 0 0 0 3.343 0c5.254-6.687-2.149-23.882 10.747-25.315 1.911-.239-.478-1.433-.239-1.194 2.388 1.672 3.1 4.538 3.1 7.4 0 .478.478.478.717.239z" class="cls-3" data-name="Path 1282" transform="translate(-177.467 -2.652)"/>
                        </g>
                    </g>
                    <g id="Group_1865" data-name="Group 1865" transform="translate(228.353 5.138)">
                        <g id="Group_1864" data-name="Group 1864">
                            <path id="Path_1283" d="M219.852 106.641c0-13.613 6.209-19.822 14.568-28.9 2.866-3.343 5.732-6.687 6.209-11.224 1.433-9.792-3.821-14.568 3.821-24.837 4.06-5.493 8.359-9.075 11.224-15.284 1.672-3.821 6.926-13.851 1.433-17.195-2.866-1.672-8.6-.239-11.224.955-4.538 1.911-7.642 10.03-10.986 10.986-6.926 2.149-6.448-16.717-12.419-17.434-5.015-.478-9.553 8.836-10.03 12.9-.716 8.359 5.97 14.807-2.388 23.165-3.1 3.1-6.687 4.538-8.6 8.836-3.343 7.165-4.3 21.732 1.433 27.7 1.194 1.194 2.866-.239 2.388-1.672-2.627-5.97-3.343-15.523-1.194-21.732 2.627-7.642 7.881-8.6 12.657-13.851 7.165-8.12-1.433-14.09 0-22.927.955-5.015 4.776-11.224 8.6-4.538 1.911 3.582-1.433 7.642 0 10.747 1.911 3.821 5.493 5.254 9.553 3.343 3.343-1.672 4.06-5.015 6.448-7.4 3.821-3.821 12.18-9.553 13.374-.478.239 2.388-2.388 7.165-3.582 9.075-4.3 8.12-15.284 13.135-16.478 22.688-.478 3.821 1.194 7.165 1.672 10.747 1.433 12.419-5.493 15.046-12.18 22.688a27.374 27.374 0 0 0-6.451 23.881 1.121 1.121 0 0 0 2.149-.239z" class="cls-3" data-name="Path 1283" transform="translate(-198.774 -3.693)"/>
                        </g>
                    </g>
                    <g id="Group_1867" data-name="Group 1867" transform="translate(244.101 37.852)">
                        <g id="Group_1866" data-name="Group 1866">
                            <path id="Path_1284" d="M219.534 17.651c-2.627 7.165-10.269 12.18-11.463 20.061-.478 3.343.478 6.448.478 9.553 0 5.015-1.433 9.075-3.1 13.613-.478 1.433 1.433 1.911 2.149.955 4.776-6.209 4.06-11.941 4.538-19.105.478-8.359 6.209-16.24 8.12-24.837 0-.478-.716-.716-.716-.239z" class="cls-3" data-name="Path 1284" transform="translate(-205.368 -17.391)"/>
                        </g>
                    </g>
                    <g id="Group_1869" data-name="Group 1869" transform="translate(205.533 65.74)">
                        <g id="Group_1868" data-name="Group 1868">
                            <path id="Path_1285" d="M189.413 31.054c6.926 8.836 15.046 19.583 24.837 25.554a.528.528 0 0 0 .716-.716c-3.1-4.776-7.4-8.6-11.224-12.657-4.3-4.538-8.6-9.075-12.657-13.613-.955-1.433-2.388.239-1.672 1.433z" class="cls-3" data-name="Path 1285" transform="translate(-189.219 -29.069)"/>
                        </g>
                    </g>
                    <g id="Group_1871" data-name="Group 1871" transform="translate(258.769 49.081)">
                        <g id="Group_1870" data-name="Group 1870">
                            <path id="Path_1286" d="M213.874 60.321c9.553-5.493 22.688-3.821 23.4-16.956.239-3.821.239-7.881.478-11.7 0-1.194-.478-4.538.239-5.493.478-.955-1.911-4.776 1.672 1.672 2.149 4.06.478 2.149.955 5.493.716 5.732 7.165 12.9 5.493 18.389-2.388 8.359-12.418 6.687-16 13.374-2.388 4.538 2.627 9.075 5.97 4.776.239-.478-.239-.716-.716-.478.478-2.627 1.194-5.254 1.672-7.881 1.433-.716 2.866-1.194 4.3-1.911 1.194-.478 3.343-.716 4.3-1.433a8.238 8.238 0 0 0 2.149-1.911c1.911-3.1.716-9.075-.239-12.419-1.194-4.3-3.1-7.4-3.1-12.18 0-1.672.955-3.1.478-5.015-.478-2.149-2.149-4.538-4.538-4.538-7.4-.478-5.015 9.314-5.015 13.374 0 4.776.239 7.881-1.911 12.18-2.627 5.493-6.687 5.015-11.941 6.448a35.611 35.611 0 0 0-9.314 4.06c-1.672.478 0 3.1 1.672 2.149z" class="cls-3" data-name="Path 1286" transform="translate(-211.51 -22.093)"/>
                        </g>
                    </g>
                    <g id="Group_1873" data-name="Group 1873" transform="translate(284.233 97.339)">
                        <g id="Group_1872" data-name="Group 1872">
                            <path id="Path_1287" d="M222.238 42.778a2.511 2.511 0 0 1 0 3.1c0 .239 0 .239.239 0a3.829 3.829 0 0 0 .239-3.582c-.239 0-.716.239-.478.478z" class="cls-3" data-name="Path 1287" transform="translate(-222.173 -42.3)"/>
                        </g>
                    </g>
                    <g id="Group_1875" data-name="Group 1875" transform="translate(255.565 100.464)">
                        <g id="Group_1874" data-name="Group 1874">
                            <path id="Path_1288" d="M232.932 44.782c-4.3-1.433-10.747-2.149-14.329 1.433-2.149 1.911-2.627 4.3-5.015 5.97-1.672.955-2.866 1.672-3.343 3.582a1.451 1.451 0 0 0 2.388 1.433c2.149-1.672 5.254-2.866 6.687-5.254s1.911-4.3 5.015-5.493a20.469 20.469 0 0 1 8.6-1.672z" class="cls-3" data-name="Path 1288" transform="translate(-210.168 -43.608)"/>
                        </g>
                    </g>
                    <g id="Group_1877" data-name="Group 1877" transform="translate(272.299 95.224)">
                        <g id="Group_1876" data-name="Group 1876">
                            <path id="Path_1289" d="M225.831 42.1a4.857 4.857 0 0 0 1.433 2.149c2.149 2.149-.716 3.343-2.627 2.866-2.388-.478-5.015-2.149-7.165-.239-.716.478 0 1.672.716 1.672 1.194 0 2.388-.478 3.582-.239a16.126 16.126 0 0 0 3.343.478 6.459 6.459 0 0 0 4.538-1.433 3.477 3.477 0 0 0-3.582-5.732c-.239.239-.478.239-.239.478z" class="cls-3" data-name="Path 1289" transform="translate(-217.176 -41.414)"/>
                        </g>
                    </g>
                </g>
                <g id="Group_2700" class="cls-2" data-name="Group 2700" transform="translate(604.028 4554.96)">
                    <g id="Group_1953" data-name="Group 1953">
                        <g id="Group_1952" data-name="Group 1952">
                            <path id="Path_1324" d="M33 77c-3.5 1.5-6.3 5-6 8.9a6.162 6.162 0 0 0 7.2 6c10-1.1 10.9-14.9 3.5-20-8.7-6-18.7 5.3-18.2 13.7A15.2 15.2 0 0 0 26 97.5c4.3 2.7 9.7 1.3 14.1-.7a83.006 83.006 0 0 0 10.6-5.7c1.5-1 2.9-2.1 2.8-4-.1-5.1-6.8-4.3-9.9-3.1-.8.3-.5 1.6.4 1.3 2.1-.7 2.6-1 4.8-.3 3.9 1.2 1 3.3-1.1 4.8a55.073 55.073 0 0 1-7.6 4c-3 1.4-7.1 3.1-10.5 2.2-4.1-1.2-6.5-5.8-6.9-9.7a11.347 11.347 0 0 1 3.9-10.2c3.6-3 8.8-3.1 11.7.7 3.1 4 3.1 11.2-2.6 13-3.9 1.2-8.1-2.5-6.7-6.3a7 7 0 0 1 4.9-4.4c1.3-.6.5-2.8-.9-2.1z" class="cls-3" data-name="Path 1324"/>
                        </g>
                    </g>
                    <g id="Group_1955" data-name="Group 1955">
                        <g id="Group_1954" data-name="Group 1954">
                            <path id="Path_1325" d="M42.9 70.5c1.8-1.3 2.3-4.1 1.8-6.2a5.551 5.551 0 0 0-4.6-4.2 3.445 3.445 0 0 0-4.3 2.5c-.7 2.5.5 5.4 1.9 7.5a.99.99 0 0 0 1.7-1 20.443 20.443 0 0 1-1.8-4c-.3-1.6.5-4.5 2.7-3.2a5.045 5.045 0 0 1 2.3 2.9c.4 1.6-.5 2.8-1.2 4.2-.3.9.6 2.2 1.5 1.5z" class="cls-3" data-name="Path 1325"/>
                        </g>
                    </g>
                    <g id="Group_1957" data-name="Group 1957">
                        <g id="Group_1956" data-name="Group 1956">
                            <path id="Path_1326" d="M28.8 67.8c1.2-2-1.4-5-2.9-6.3-2.4-2.1-4.8-1.3-7.1.4-2.5 1.8-3.1 3.7-1.1 6.3 1.3 1.7 3.8 3.9 6 3.5a.668.668 0 0 0 .3-1.1c-.9-1-2.4-1.4-3.4-2.4a5.248 5.248 0 0 1-1.7-2.2c-.4-1.6.8-2.2 1.9-2.8 1.1-.7 2-1.2 3.4-.5a5.235 5.235 0 0 1 1.9 2c.7 1.2.6 2.4 1.7 3.2.2.5.8.3 1-.1z" class="cls-3" data-name="Path 1326"/>
                        </g>
                    </g>
                    <g id="Group_1959" data-name="Group 1959">
                        <g id="Group_1958" data-name="Group 1958">
                            <path id="Path_1327" d="M18.3 77c-1.3-1.7-4.1-.7-5.5.4-1.6 1.2-3.5 3.5-3.5 5.6a3.375 3.375 0 0 0 3.5 3.3 6.26 6.26 0 0 0 5-3 .442.442 0 0 0-.6-.6c-1.2.5-2.2 1.7-3.5 1.8-1.8.1-2.4-1.3-1.5-2.8a7.794 7.794 0 0 1 2.8-2.9c1-.6 2-.4 3.1-.6.5-.1.5-.8.2-1.2z" class="cls-3" data-name="Path 1327"/>
                        </g>
                    </g>
                    <g id="Group_1961" data-name="Group 1961">
                        <g id="Group_1960" data-name="Group 1960">
                            <path id="Path_1328" d="M18.4 92.6c-4.5.3-7.7 5.8-4.2 9.4 3.3 3.3 8.4-1.2 7.9-5a.526.526 0 0 0-.9-.2c-1.3 1.2-2.4 5.7-5 4a3.221 3.221 0 0 1-1.1-3.3 3.727 3.727 0 0 1 3.3-2.9c1.2-.2 1.3-2.1 0-2z" class="cls-3" data-name="Path 1328"/>
                        </g>
                    </g>
                    <g id="Group_1963" data-name="Group 1963">
                        <g id="Group_1962" data-name="Group 1962">
                            <path id="Path_1329" d="M36.6 101.1c1 2.9 4.7 8.9 8.5 5.7 3.2-2.7-.2-9.1-4.1-8.7a.649.649 0 0 0-.4 1.1c.8.8 1.8 1.3 2.6 2.1.9.9 2.2 3 .8 4.1-2.4 1.8-4.7-3.4-5.1-4.9-.5-1.4-2.8-.8-2.3.6z" class="cls-3" data-name="Path 1329"/>
                        </g>
                    </g>
                    <g id="Group_1965" data-name="Group 1965">
                        <g id="Group_1964" data-name="Group 1964">
                            <path id="Path_1330" d="M46.6 78.9c1.9 2.2 5.3-.3 7-1.7 2.1-1.8 3.1-3.8 2.2-6.5-.8-2.2-2.8-3.1-4.9-1.9a13.412 13.412 0 0 0-3.3 3c-.9 1.1-2 2.1-2.3 3.5a.462.462 0 0 0 .7.5c1.4-.7 2.3-2.2 3.4-3.3 1.1-1 3.8-4 4.7-1.2.7 2.2-.7 3.3-2.3 4.5a7.68 7.68 0 0 1-2.5 1.4c-.8.2-1.6.1-2.4.3-.6.4-.7 1-.3 1.4z" class="cls-3" data-name="Path 1330"/>
                        </g>
                    </g>
                </g>
                <g id="Group_2701" class="cls-4" data-name="Group 2701" transform="translate(77.502 4442.749)">
                    <g id="Group_2157" data-name="Group 2157" transform="translate(286.225 186.306)">
                        <g id="Group_2156" data-name="Group 2156">
                            <path id="Path_1420" d="M289.8 184.348c9.6 6.294 21.713 15.892 33.986 14.161 11.486-1.731 21.871-9.913 29.738-17.937l-2.36-1.416c-1.259 7.238-1.888 14.948-3.619 22.185-2.2 9.126-17.15 11.171-25.175 11.8s-17.15 0-24.231-4.248c-8.5-5.192-10.385-16.364-5.822-24.546 1.1-1.888-1.888-3.619-2.99-1.731a22.58 22.58 0 0 0 .157 23.129c5.35 8.339 15.734 10.542 25.018 11.014 10.385.472 23.916-1.573 32.413-8.182 2.832-2.2 3.462-4.72 4.091-8.182 1.416-6.766 2.045-13.846 2.832-20.769.157-1.259-1.731-1.888-2.518-1.1-7.552 7.552-19.039 16.678-30.21 16.993-10.385.315-21.4-8.5-29.738-14-1.731-.944-3.3 1.731-1.573 2.832z" class="cls-3" data-name="Path 1420" transform="translate(-286.225 -178.179)"/>
                        </g>
                    </g>
                    <g id="Group_2159" data-name="Group 2159" transform="translate(288.767 192.503)">
                        <g id="Group_2158" data-name="Group 2158">
                            <path id="Path_1421" d="M287.934 183.506c2.045 4.406 4.878 13.374 9.283 15.892 1.416.787 1.731.629 3.462.629 3.462 0 3.619-.944 7.4.315s6.136 3.147 9.126 5.664a1.171 1.171 0 0 0 1.416.157c2.832-1.888 6.136-5.192 9.441-6.294 3.934-1.259 7.71 1.1 11.329 2.36a1.5 1.5 0 0 0 1.573-.629 70.331 70.331 0 0 1 6.923-8.182c1.416-1.416-.787-3.462-2.045-2.045-1.731 1.573-3.776 5.35-5.664 6.608-3.3 2.2-6.451-1.573-9.755-1.573-4.72.157-7.4 6.294-11.8 6.294-2.518 0-4.72-2.675-7.08-3.776a17.21 17.21 0 0 0-6.294-1.888c-3.462-.472-5.507.315-8.5-2.832-2.832-2.99-4.563-8.025-6.923-11.486-.944-1.259-2.36-.315-1.888.787z" class="cls-3" data-name="Path 1421" transform="translate(-287.84 -182.118)"/>
                        </g>
                    </g>
                    <g id="Group_2161" data-name="Group 2161" transform="translate(314.655 169.109)">
                        <g id="Group_2160" data-name="Group 2160">
                            <path id="Path_1422" d="M305.4 167.486a57.825 57.825 0 0 0 4.091 35.245c.472.944 1.888.315 1.731-.787a230.528 230.528 0 0 1-5.192-34.458c0-.315-.472-.315-.629 0z" class="cls-3" data-name="Path 1422" transform="translate(-304.294 -167.25)"/>
                        </g>
                    </g>
                    <g id="Group_2163" data-name="Group 2163" transform="translate(314.581 164.008)">
                        <g id="Group_2162" data-name="Group 2162">
                            <path id="Path_1423" d="M304.331 165.1c4.563 7.71 14.161 14.79 22.185 18.252v-2.36c-7.081 4.878-13.217 10.227-18.095 17.308-.629.787.787 1.888 1.416 1.1a65.163 65.163 0 0 1 18.095-16.049 1.4 1.4 0 0 0 0-2.36c-4.248-2.832-8.654-5.192-12.587-8.339-3.462-2.675-6.451-5.822-10.07-8.5-.629-.472-1.259.315-.944.944z" class="cls-3" data-name="Path 1423" transform="translate(-304.247 -164.008)"/>
                        </g>
                    </g>
                </g>
                <g id="Group_2702" class="cls-2" data-name="Group 2702" transform="translate(226.028 4398.96)">
                    <g id="Group_2197" data-name="Group 2197">
                        <g id="Group_2196" data-name="Group 2196">
                            <path id="Path_1438" d="M255.6 227.9c-2.8 3.3-5.6 5.5-10.1 5.4-3.5-.1-6.9-.4-10.4-.6a1.1 1.1 0 0 0-1.1 1.4c1.1 4.5 6.5 4.1 5.3 9.9-.9 4.5-3.3 9-4.7 13.3-.3 1 1 1.6 1.7 1 3.4-3 7.6-7 12.3-3.6 2.8 2 4.7 5.5 6.4 8.4a1.085 1.085 0 0 0 2-.5c.1-3.1.2-6.2.5-9.3l.3-2.4c1.8-1.4 3.5-2.7 5.3-4.1 1.5-.3 4.1.7 5.6 1.2 1 .3 1.9-1.1 1-1.8a26.8 26.8 0 0 1-10.4-18.1c-.2-1.4-2.4-1.4-2.2 0a28.538 28.538 0 0 0 11.4 19.8c.3-.6.5-1.3.8-1.9-3.9-1.1-9.2-2.3-12.1 1.5-2.8 3.7-1.8 10.8-2.3 15.1a14.618 14.618 0 0 1 2-.5c-1.9-3.8-5.7-9.7-10.1-10.9-4.3-1.2-8.8 3.4-11.9 5.8.6.3 1.1.7 1.7 1 1.9-4.7 4.7-9.9 5.1-15a7.852 7.852 0 0 0-.7-4.3c-1.1-2-4.2-2.7-4.7-5.1a17.091 17.091 0 0 1-1.1 1.4c4.3.2 9 .7 13.3.1 3.8-.5 6.3-2.9 8.8-5.7.9-.9-.8-2.6-1.7-1.5z" class="cls-3" data-name="Path 1438"/>
                        </g>
                    </g>
                    <g id="Group_2199" data-name="Group 2199">
                        <g id="Group_2198" data-name="Group 2198">
                            <path id="Path_1439" d="M254.7 237.5a3.261 3.261 0 0 0-.6 2.5c.2 1.6 1.1 2.9-.1 4.3-.9 1.1-2.1 1.4-2.8 2.7a3.869 3.869 0 0 0-.6 3.3.726.726 0 0 0 1.2.3c.9-.9.7-2.1 1.5-3.2.7-1.1 2.2-1.4 2.8-2.6.9-1.8-1-4.6.3-6.1a1.042 1.042 0 1 0-1.7-1.2z" class="cls-3" data-name="Path 1439"/>
                        </g>
                    </g>
                    <g id="Group_2201" data-name="Group 2201">
                        <g id="Group_2200" data-name="Group 2200">
                            <path id="Path_1440" d="M264 235.1a10.736 10.736 0 0 0 1.7-8 9.447 9.447 0 0 0-4.7-5.5c-5-2.3-12.2 1.6-13 7-.2 1.3 1.9 1.9 2.1.6.7-5.1 7.9-7.7 11.7-4.3 1.9 1.7 2.2 3.1 1.8 5.5-.3 1.7-.7 2.9-.2 4.5a.349.349 0 0 0 .6.2z" class="cls-3" data-name="Path 1440"/>
                        </g>
                    </g>
                    <g id="Group_2203" data-name="Group 2203">
                        <g id="Group_2202" data-name="Group 2202">
                            <path id="Path_1441" d="M249 214.5a28.349 28.349 0 0 0 1.5 5.9.859.859 0 0 0 1.6-.4c0-2-.8-4.1-1.3-6-.3-1.1-2-.6-1.8.5z" class="cls-3" data-name="Path 1441"/>
                        </g>
                    </g>
                    <g id="Group_2205" data-name="Group 2205">
                        <g id="Group_2204" data-name="Group 2204">
                            <path id="Path_1442" d="M263.3 211c-1.5.2-1.9 2.3-2.4 3.6-.6 1.5-1.8 3.6-1.1 5.2a.631.631 0 0 0 .9.2c.8-.5.9-1.1 1.3-2a34.223 34.223 0 0 1 1.3-3.4c0-.3 1.6-3.7 0-3.6z" class="cls-3" data-name="Path 1442"/>
                        </g>
                    </g>
                    <g id="Group_2207" data-name="Group 2207">
                        <g id="Group_2206" data-name="Group 2206">
                            <path id="Path_1443" d="M267 226.1c0 .1.1.1.1.2a1.193 1.193 0 0 0 .9.5c1.3 0 2.6-.3 3.9-.4a14.22 14.22 0 0 0 3.6-.5c1-.4 1.2-2 0-2.3-2.3-.5-5.7.3-7.8 1.1a1.187 1.187 0 0 0-.8 1 .755.755 0 0 0 .1.4z" class="cls-3" data-name="Path 1443"/>
                        </g>
                    </g>
                    <g id="Group_2209" data-name="Group 2209">
                        <g id="Group_2208" data-name="Group 2208">
                            <path id="Path_1444" d="M243.7 244.2c-.4.6-.8 1.3-1.2 1.9a3.139 3.139 0 0 0-.7 2.1.863.863 0 0 0 1.1.6 4.039 4.039 0 0 0 1.7-1.5 12.736 12.736 0 0 0 1.3-1.9c.8-1.3-1.4-2.6-2.2-1.2z" class="cls-3" data-name="Path 1444"/>
                        </g>
                    </g>
                </g>
                <g id="Group_2705" class="cls-2" data-name="Group 2705" transform="rotate(-57 4664.288 2055.027)">
                    <g id="Group_2386" data-name="Group 2386" transform="translate(360.096 63.152)">
                        <g id="Group_2385" data-name="Group 2385">
                            <path id="Path_1525" d="M410.724 63.259a67.172 67.172 0 0 0-11.105 4.22c-2.221 1.111-7.107 5.775-9.55 6-4.442.444-6.885-5.33-11.327-7.551-12.882-6-23.765 6.441-33.315 13.1-1.777 1.111-.888 3.554 1.111 3.776 23.987 2.665 9.328 27.985 7.329 41.533C353.2 129 351.423 135.22 355.2 139a1.074 1.074 0 0 0 1.555 0c4.886-4.442 14.214-7.329 19.989-10.661 2.665-1.555 8-6.441 11.105-6.663 8-.444 10.661 10.883 12.66 15.991a1.06 1.06 0 0 0 1.777.444c8.662-9.328 12.216-21.988 10.883-34.648-.444-2.887-2-6.441-2-9.328 0-4 2.665-7.107 3.776-10.883a24.531 24.531 0 0 0-1.777-17.768c-.888-2-4.22-.666-3.554 1.555.888 2.887 2 6 2 9.106 0 5.108-3.109 8.44-4.22 13.1-.666 2.665-.888 2-.666 4.664 1.11 10.883 5.553 19.545 2.221 30.872-.888 2.887-3.554 10.661-6.663 9.106-2-.888-2.443-5.108-3.109-6.885-.888-2.221-1.777-6.885-3.554-8.662-3.554-3.332-6.885-.666-10.661 1.555-4.22 2.443-8.218 5.33-12.438 8-3.776 2.221-10.661 7.107-14.881 6.885-.444 0-1.111 1.555-1.333 1.555-2.221-1.111-.444-7.774 0-9.106a157.749 157.749 0 0 1 4.886-17.546c4.886-15.1 3.331-26.874-13.77-30.65.222 1.333.222 2.443.444 3.776 4.442-3.109 8.44-7.551 13.1-10.439 3.332-2 7.551-4.22 11.549-4.442 6.441-.444 11.549 6.441 14.437 11.105a1.86 1.86 0 0 0 2.665.666c7.107-5.33 13.992-9.106 22.876-11.327 2.665-1.11 1.333-6-1.777-5.108z" class="cls-3" data-name="Path 1525" transform="translate(-344.469 -63.152)"/>
                        </g>
                    </g>
                    <g id="Group_2388" data-name="Group 2388" transform="translate(360.312 104.03)">
                        <g id="Group_2387" data-name="Group 2387">
                            <path id="Path_1526" d="M360.188 85.206c-3.554-4.442-10.883-5.108-14.437-.444a5.262 5.262 0 0 0 .666 7.329c2.221 2 6.219 2.221 9.106 2.221a1.59 1.59 0 0 0 .444-3.109 48.244 48.244 0 0 1-5.33-1.555c-1.555-.666-2.443-1.555-.888-3.109 2.443-2.665 5.775-.444 8.218.888 1.333.666 3.331-.888 2.221-2.221z" class="cls-3" data-name="Path 1526" transform="translate(-344.567 -81.557)"/>
                        </g>
                    </g>
                    <g id="Group_2390" data-name="Group 2390" transform="translate(383.407 125.2)">
                        <g id="Group_2389" data-name="Group 2389">
                            <path id="Path_1527" d="M360.817 94.89c1.111 1.777 2.665 3.109 3.776 4.886s1.777 5.775-1.555 5.775c-3.776 0-3.554-6.663-6.663-8.218a.811.811 0 0 0-1.111.444c-1.111 2.665 1.111 6.885 2.665 8.884 1.777 2.443 4.886 3.554 7.551 2 6.885-3.776 3.554-13.77-1.555-17.324-1.777-1.111-4.22 1.777-3.109 3.554z" class="cls-3" data-name="Path 1527" transform="translate(-354.965 -91.089)"/>
                        </g>
                    </g>
                    <g id="Group_2392" data-name="Group 2392" transform="translate(395.145 82.787)">
                        <g id="Group_2391" data-name="Group 2391">
                            <path id="Path_1528" d="M361.027 72.01c-.222 0-.222 0-.444.222a.629.629 0 0 0 0 1.111c.222 0 .222 0 .444.222 1.11.222 1.11-1.777 0-1.555z" class="cls-3" data-name="Path 1528" transform="translate(-360.25 -71.992)"/>
                        </g>
                    </g>
                    <g id="Group_2394" data-name="Group 2394" transform="translate(382.761 81.07)">
                        <g id="Group_2393" data-name="Group 2393">
                            <path id="Path_1529" d="M366.725 71.62c-8 5.108-17.324 24.431-8.44 32.427 10.217 9.328 24.653-6.663 28.429-15.325.888-2-2.221-3.554-3.554-2-2 2.665-3.776 5.553-5.775 8a22.135 22.135 0 0 1-4.664 4.442 14.144 14.144 0 0 1-4 2.221c-3.109 1.777-5.108.888-6.219-2.443-2.665-3.332-2.443-3.332-1.555-6.885a48.249 48.249 0 0 1 1.555-5.33 46.278 46.278 0 0 1 7.11-11.327c1.555-2-.444-5.33-2.887-3.776z" class="cls-3" data-name="Path 1529" transform="translate(-354.674 -71.219)"/>
                        </g>
                    </g>
                    <g id="Group_2396" data-name="Group 2396" transform="translate(346.209 104.955)">
                        <g id="Group_2395" data-name="Group 2395">
                            <path id="Path_1530" d="M342.177 82.255c-7.774 4.664-2.887 17.1 4.22 19.545a1.321 1.321 0 0 0 1.555-1.555c-1.111-2.665-3.554-4.442-4.886-6.885-1.555-3.109-1.111-6.219 1.555-8.44 1.333-1.333-.666-3.776-2.443-2.665z" class="cls-3" data-name="Path 1530" transform="translate(-338.217 -81.973)"/>
                        </g>
                    </g>
                    <g id="Group_2398" data-name="Group 2398" transform="translate(390.422 146.908)">
                        <g id="Group_2397" data-name="Group 2397">
                            <path id="Path_1531" d="M376.284 101.168c-.222 0-.222 0-.444-.222a2.506 2.506 0 0 0-2.443.666c-4 4.886-8.44 3.776-13.992 3.332a1.309 1.309 0 0 0-1.111 2c3.554 7.551 15.547 3.109 18.879-2.221a2.688 2.688 0 0 0-.444-3.109l-.444-.444z" class="cls-3" data-name="Path 1531" transform="translate(-358.123 -100.863)"/>
                        </g>
                    </g>
                    <g id="Group_2400" data-name="Group 2400" transform="translate(331.671 112.759)">
                        <g id="Group_2399" data-name="Group 2399">
                            <path id="Path_1532" d="M332.846 85.96c-1.555 1.555-1.333 4.22-.666 6a8.361 8.361 0 0 0 3.554 5.108c.888.666 2-.666 1.555-1.555a26.471 26.471 0 0 1-1.777-4.442c-.222-1.555 0-3.109-.444-4.442-.444-1.111-1.555-1.555-2.221-.666z" class="cls-3" data-name="Path 1532" transform="translate(-331.671 -85.487)"/>
                        </g>
                    </g>
                    <g id="Group_2402" data-name="Group 2402" transform="translate(339.993 137.547)">
                        <g id="Group_2401" data-name="Group 2401">
                            <path id="Path_1533" d="M364.918 97.208c-4 9.55-17.99 13.1-19.767 23.543-1.11 6 3.776 9.328-2.887 15.769-1.777 1.555-4.22 2-5.553 4-4 5.553 2.887 11.105-.666 16.88a.982.982 0 0 0 1.333 1.333c4.886-2.887 2.887-8 4-13.1 1.333-6.885 3.554-4.664 6.885-8.884a7.639 7.639 0 0 0 1.777-4.664c.888-5.553-1.555-10.661 2.221-15.991 2-2.665 5.553-4.442 8.218-6.441 4-3.109 7.329-6.441 7.329-11.549-.444-1.333-2.443-2-2.887-.888z" class="cls-3" data-name="Path 1533" transform="translate(-335.418 -96.648)"/>
                        </g>
                    </g>
                </g>
                <g id="Group_2707" class="cls-2" data-name="Group 2707" transform="translate(675.915 4619.08)">
                    <g id="Group_1900" data-name="Group 1900" transform="translate(349.052 23.34)">
                        <g id="Group_1899" data-name="Group 1899">
                            <path id="Path_1299" d="M352.4 59.289c2.029-9.471 3.653-21.933 8.659-29.909 4.871-7.81 13.8-6.813 19.888-12.462.271-.166.541.166.406.5-3.382 6.979-8.524 7.81-13.665 11.964-7.441 5.816-11.094 20.6-13.529 30.574-.406 1.163-2.029.665-1.759-.665z" class="cls-3" data-name="Path 1299" transform="translate(-352.373 -16.873)"/>
                        </g>
                    </g>
                    <g id="Group_1904" data-name="Group 1904" transform="translate(379.692 21.815)">
                        <g id="Group_1903" data-name="Group 1903">
                            <path id="Path_1301" d="M351.126 16.029c-.135 0-.135-.166 0 0 .135-.166.135 0 0 0z" class="cls-3" data-name="Path 1301" transform="translate(-351.025 -15.956)"/>
                        </g>
                    </g>
                    <g id="Group_1906" data-name="Group 1906" transform="translate(380.432 19.327)">
                        <g id="Group_1905" data-name="Group 1905">
                            <path id="Path_1302" d="M350.1 15.192l.541-.665c.135-.166.271 0 .135.166l-.541.665c0 .332-.271 0-.135-.166z" class="cls-3" data-name="Path 1302" transform="translate(-350.059 -14.459)"/>
                        </g>
                    </g>
                    <g id="Group_1908" data-name="Group 1908" transform="translate(380.309 16.881)">
                        <g id="Group_1907" data-name="Group 1907">
                            <path id="Path_1303" d="M351.41 14.338c-.271 1.163-.812 2.659-1.894 2.991-.541.166-.947-.5-.812-1 .271-1 .812-1.662.947-2.492.406-1.5 2.029-.831 1.759.5z" class="cls-3" data-name="Path 1303" transform="translate(-348.678 -12.986)"/>
                        </g>
                    </g>
                    <g id="Group_1910" data-name="Group 1910" transform="translate(350.996 7.1)">
                        <g id="Group_1909" data-name="Group 1909">
                            <path id="Path_1304" d="M376.989 7.266c2.165 2.16 5.547 4.32 5.412 8.142 0 1.329-.541 1.994-.947 3.157-1.624 6.314-6.494-11.3-.947 12.794a14.507 14.507 0 0 1 .947 2.659c1.488 6.314 1.488 18.776-6.765 17.281-.541-.166-3.112-2.16-3.382-2.16-3.382.831-.271 4.819-.271 6.979s-.947 3.489-2.571 3.988c-1.353.332-2.571-1.163-3.924-1.163-1.218 0-2.165 1.163-3.247 1.5-5.412 1.5-10.824-1.5-16.506 1-.676.332-1.082-1-.541-1.5 2.977-2.492 7.171-2.825 10.688-2.492 2.435.332 3.112 1 5.953-.166.541-.166.812-1.163 1.488-1.163a5.319 5.319 0 0 0 1.624 0 5.907 5.907 0 0 1 2.3 1c1.624-1.994 1.759-3.988.406-5.816-.135-2.16-1.218-3.489.406-5.317s2.571-.166 4.329-.166c2.3 2.326 4.871 1.994 7.847-.831a17.24 17.24 0 0 0-.135-10.136c-.676-2.492-1.894-4.819-2.435-7.311-.676-3.656.406-4.819 1.218-7.976 2.029-1.828 2.3-3.988.947-6.646a18.713 18.713 0 0 1-2.165-2.659 4.74 4.74 0 0 1-.406-2.492c-.271-.665.406-.831.677-.5z" class="cls-3" data-name="Path 1304" transform="translate(-343.997 -7.1)"/>
                        </g>
                    </g>
                    <g id="Group_1912" data-name="Group 1912" transform="translate(343.997 8.574)">
                        <g id="Group_1911" data-name="Group 1911">
                            <path id="Path_1305" d="M356.2 59.186c-3.653-5.151-7.441-11.133-6.765-18.444a12.011 12.011 0 0 1 1.624-5.483c2.435-4.32 3.924-3.323 5.276-10.468.271-1.5 0-3.157.271-4.819 1.082-4.819 4.059-6.646 7.847-7.643 2.706-.831 5.547-.665 8.118-1.828 1.353-.5 2.571-1.5 3.924-1.994 3.247-1.163 5.818.166 9.065-.5 1.894-.332 2.841 3.323.812 3.656-4.329.831-8.253.831-12.718 2.492-5.682 2.16-13.259-.332-14.612 9.305-.541 3.656-.135 5.816-2.029 8.807-2.3 3.656-5.547 7.477-5.276 12.961.271 4.32 4.059 8.807 6.088 11.8.947 1.5-.676 3.489-1.624 2.16z" class="cls-3" data-name="Path 1305" transform="translate(-349.36 -7.987)"/>
                        </g>
                    </g>
                    <g id="Group_1914" data-name="Group 1914" transform="translate(363.105 18.233)">
                        <g id="Group_1913" data-name="Group 1913">
                            <path id="Path_1306" d="M363.874 14.8a18.562 18.562 0 0 1-.676 8.142c-.135.332-.406.166-.541 0a16.434 16.434 0 0 1-.812-8.142 1.015 1.015 0 0 1 2.029 0z" class="cls-3" data-name="Path 1306" transform="translate(-361.662 -13.8)"/>
                        </g>
                    </g>
                    <g id="Group_1916" data-name="Group 1916" transform="translate(371.799 33.594)">
                        <g id="Group_1915" data-name="Group 1915">
                            <path id="Path_1307" d="M350.267 23.8c1.353-1.662 3.653-.166 5.141.5 1.624.831 3.653 2.16 4.059 4.486.135.831-.406 1.329-.947 1.163-1.624-.332-2.841-1.828-4.329-2.659-1.353-.665-3.247-.665-4.059-2.326a.95.95 0 0 1 .135-1.163z" class="cls-3" data-name="Path 1307" transform="translate(-349.984 -23.044)"/>
                        </g>
                    </g>
                    <g id="Group_1918" data-name="Group 1918" transform="translate(361.898 43.271)">
                        <g id="Group_1917" data-name="Group 1917">
                            <path id="Path_1308" d="M359.549 28.921c2.841-.5 6.765 2.659 6.765 6.48a.852.852 0 0 1-1.218.831c-.947-.665-1.759-1.828-2.706-2.492-.947-.831-2.165-1.329-3.112-2.16-.812-.5-.812-2.326.271-2.659z" class="cls-3" data-name="Path 1308" transform="translate(-358.7 -28.869)"/>
                        </g>
                    </g>
                    <g id="Group_1920" data-name="Group 1920" transform="translate(351.329 38.241)">
                        <g id="Group_1919" data-name="Group 1919">
                            <path id="Path_1309" d="M371.748 29.1a24.5 24.5 0 0 1-2.571-1.828c-.271-.332-.271-1 .135-1.163 1.218-.665 2.706 0 3.653 1.163.812.831-.271 2.492-1.218 1.828z" class="cls-3" data-name="Path 1309" transform="translate(-368.989 -25.841)"/>
                        </g>
                    </g>
                </g>
                <g id="Group_2708" data-name="Group 2708">
                    <g id="Ellipse_464" class="cls-5" data-name="Ellipse 464" transform="translate(612 4566)">
                        <circle cx="11.5" cy="11.5" r="11.5" class="cls-17"/>
                        <circle cx="11.5" cy="11.5" r="9.5" class="cls-18"/>
                    </g>
                    <g id="Ellipse_465" class="cls-5" data-name="Ellipse 465" transform="translate(626 4546)">
                        <circle cx="6.5" cy="6.5" r="6.5" class="cls-17"/>
                        <circle cx="6.5" cy="6.5" r="4.5" class="cls-18"/>
                    </g>
                    <g id="Ellipse_466" class="cls-5" data-name="Ellipse 466" transform="translate(607 4533)">
                        <circle cx="6.5" cy="6.5" r="6.5" class="cls-17"/>
                        <circle cx="6.5" cy="6.5" r="4.5" class="cls-18"/>
                    </g>
                </g>
                <g id="Group_2709" data-name="Group 2709" transform="translate(286 31)">
                    <g id="Ellipse_464-2" class="cls-6" data-name="Ellipse 464" transform="translate(612 4566)">
                        <circle cx="11.5" cy="11.5" r="11.5" class="cls-17"/>
                        <circle cx="11.5" cy="11.5" r="9.5" class="cls-18"/>
                    </g>
                    <g id="Ellipse_465-2" class="cls-6" data-name="Ellipse 465" transform="translate(617 4547)">
                        <circle cx="6.5" cy="6.5" r="6.5" class="cls-17"/>
                        <circle cx="6.5" cy="6.5" r="4.5" class="cls-18"/>
                    </g>
                    <g id="Ellipse_466-2" class="cls-6" data-name="Ellipse 466" transform="translate(626 4530)">
                        <circle cx="6.5" cy="6.5" r="6.5" class="cls-17"/>
                        <circle cx="6.5" cy="6.5" r="4.5" class="cls-18"/>
                    </g>
                </g>
                <g id="Group_2710" class="cls-7" data-name="Group 2710" transform="translate(79.649 4620.382)">
                    <g id="Group_1796" data-name="Group 1796" transform="translate(0 20.241)">
                        <g id="Group_1795" data-name="Group 1795">
                            <path id="Path_1250" d="M16.386 29.348c2.564 6.924 7.522 13.42 14.873 15.386a8 8 0 0 1 1.368.342c1.453.085 1.71.085.684.171-.94.085-1.881.256-2.821.427a21.971 21.971 0 0 1-7.437-.94c-2.564-.769-5.3-1.539-7.266-3.334a9.207 9.207 0 0 1-2.821-4.359c-.171-.684-.256-1.368-.427-2.052-.342-2.393 1.026-4.188 3.932-5.3.769.342 1.453-.769.684-1.2-2.479-1.453-4.958-.256-6.069 2.308-1.368 3.248-.513 7.437 1.453 10.258 4.616 6.838 16.327 8.633 22.909 4.018a.413.413 0 0 0-.256-.769c-9.4-.6-14.361-7.095-17.523-15.3-.342-.769-1.539-.427-1.282.342z" class="cls-3" data-name="Path 1250" transform="translate(-10.418 -27.866)"/>
                        </g>
                    </g>
                    <g id="Group_1798" data-name="Group 1798" transform="translate(8.421 5.824)">
                        <g id="Group_1797" data-name="Group 1797">
                            <path id="Path_1251" d="M37.477 38.268a21.522 21.522 0 0 1-6.411-10c-1.026-3.248-1.026-6.667-1.966-10-.94-3.248-4.018-7.009-7.608-7.266a.92.92 0 0 0-.855.684c-1.539 4.018 2.137 10.77 4.018 14.1 2.906 5.385 7.18 10.6 12.48 13.762.427.256 1.026-.427.6-.769-4.872-3.932-9.146-7.95-12.053-13.591a37.58 37.58 0 0 1-2.992-8.548c-.171-.6-.94-2.821-.513-3.419-.6-.256-.513-.171.171.427.171.085.256.171.427.256 6.325 2.906 5.043 9.061 6.753 14.788a19.2 19.2 0 0 0 7.351 10.514c.427.427 1.111-.513.6-.94z" class="cls-3" data-name="Path 1251" transform="translate(-20.27 -11)"/>
                        </g>
                    </g>
                    <g id="Group_1800" data-name="Group 1800" transform="translate(19.547 10.901)">
                        <g id="Group_1799" data-name="Group 1799">
                            <path id="Path_1252" d="M37.4 18.1c2.65 2.308 2.564 4.958 3.761 7.864.6 1.368 5.043 6.155 4.958 7.351-.513 5.129-3.334 1.71-4.53.684-1.2-1.111-2.479-2.222-3.59-3.419a11.2 11.2 0 0 1-2.735-5.043 8.771 8.771 0 0 1 .256-4.7 4.053 4.053 0 0 1 1.539-2.564.424.424 0 1 0 .6-.6c-2.821-3.248-4.53 5.214-4.359 6.924.427 5.556 6.5 11.112 11.369 13.164 4.018 1.71 3.163-3.163 1.881-5.471a30.112 30.112 0 0 0-2.308-3.163 16.31 16.31 0 0 1-3.163-6.753c-.513-2.222-1.2-3.932-3.334-4.787-.256-.171-.6.342-.342.513z" class="cls-3" data-name="Path 1252" transform="translate(-33.286 -16.94)"/>
                        </g>
                    </g>
                    <g id="Group_1802" data-name="Group 1802" transform="translate(22.528)">
                        <g id="Group_1801" data-name="Group 1801">
                            <path id="Path_1253" d="M36.882 5.224c-.171 2.052-.427 6.325 1.8 7.437a.61.61 0 0 0 .855-.256c.513-1.026.171-1.966 0-3.077a22.446 22.446 0 0 1-.437-4.19c0-1.282-2.137-1.282-2.222.085z" class="cls-3" data-name="Path 1253" transform="translate(-36.774 -4.187)"/>
                        </g>
                    </g>
                    <g id="Group_1804" data-name="Group 1804" transform="translate(30.281 1.921)">
                        <g id="Group_1803" data-name="Group 1803">
                            <path id="Path_1254" d="M49.567 7a45.316 45.316 0 0 0-2.735 5.385c-.6 1.453-1.282 2.992-.855 4.53.085.256.513.513.769.342a7.138 7.138 0 0 0 2.222-3.59c.769-1.881 1.71-3.676 2.479-5.556A1.092 1.092 0 0 0 49.567 7z" class="cls-3" data-name="Path 1254" transform="translate(-45.844 -6.435)"/>
                        </g>
                    </g>
                    <g id="Group_1806" data-name="Group 1806" transform="translate(32.552 9.726)">
                        <g id="Group_1805" data-name="Group 1805">
                            <path id="Path_1255" d="M48.5 22.262c1.8 0 3.077-1.453 4.359-2.393a36.454 36.454 0 0 0 4.616-3.5c.342-.342 0-.94-.427-.769a15.756 15.756 0 0 0-5.556 2.9c-1.282 1.026-2.821 1.966-2.992 3.761z" class="cls-3" data-name="Path 1255" transform="translate(-48.5 -15.565)"/>
                        </g>
                    </g>
                </g>
                <g id="Group_2712" class="cls-8" data-name="Group 2712" transform="translate(298.43 4618.425)">
                    <g id="Group_1968" data-name="Group 1968" transform="translate(.564 .689)">
                        <g id="Group_1967" data-name="Group 1967">
                            <path id="Path_1331" d="M29.829 130.685c1.111-4.018-3.59-13.249-7.095-6.582-.684 1.282-.94 3.419-3.419 2.821-2.393-.513-2.222-3.59-1.71-5.214a8.476 8.476 0 0 1 5.3-5.727c6.069-1.624 8.462 4.616 9.232 9.232.085.342.684.256.684-.085-.427-4.018-1.111-8.719-5.556-10.087-4.188-1.368-8.633 1.624-10.514 5.214-1.539 2.992-1.368 8.121 2.992 8.548 2.052.171 2.65-1.026 3.676-2.393 1.111-1.368-.6-.513 1.966-1.881 1.111-1.282 1.71-1.2 1.966.085a16.627 16.627 0 0 1 .684 1.881 33.477 33.477 0 0 0 1.111 4.188.347.347 0 0 0 .684 0z" class="cls-3" data-name="Path 1331" transform="translate(-15.869 -114.705)"/>
                        </g>
                    </g>
                    <g id="Group_1970" data-name="Group 1970" transform="translate(15.612)">
                        <g id="Group_1969" data-name="Group 1969">
                            <path id="Path_1332" d="M36.83 145.527c-.94-6.069-2.479-12.224-1.2-18.293.427-2.052 1.026-4.1 1.539-6.155.256-1.111.94-5.129 2.222-5.471 1.539-.513 1.282 1.368 1.453 2.137.769 4.787-1.881 9.061-2.992 13.506-.769 3.077-1.881 7.266-.427 10.172.256.513.94.171.855-.342-1.539-6.753 3.5-13.42 3.932-20.173.085-2.052.769-7.095-2.137-7.009-1.453.085-3.248 1.881-3.847 3.077a18.119 18.119 0 0 0-.684 3.932c-.342 1.8-.855 3.419-1.282 5.214-1.71 6.5-.342 13.42 1.2 19.831.256.855 1.539.427 1.368-.427z" class="cls-3" data-name="Path 1332" transform="translate(-33.474 -113.899)"/>
                        </g>
                    </g>
                    <g id="Group_1972" data-name="Group 1972" transform="translate(3.446 6.831)">
                        <g id="Group_1971" data-name="Group 1971">
                            <path id="Path_1333" d="M39.892 127.2c.855-1.453 4.7-5.471 6.582-2.137s-2.308 3.5-3.676 4.018a5.736 5.736 0 0 0-2.65 2.051 8.564 8.564 0 0 0-1.2 4.359c-.085 1.966.427 3.761 0 5.727a29.318 29.318 0 0 1-1.368 3.847c-.085.427-.256.769-.342 1.2-.256 2.393-2.052 2.906-5.385 1.368-.513-.684-.427-2.308-.6-3.077a7.2 7.2 0 0 0-2.308-3.761 53.131 53.131 0 0 0-4.616-2.992c-1.282-.94-5.214-3.077-1.453-5.214 2.393-1.368 5.129 1.282 5.727 3.419.256.855 1.624.513 1.368-.342-.855-3.163-2.992-5.043-6.411-4.53-2.308.342-4.958 1.624-4.188 4.359 1.2 4.188 7.437 4.616 9.488 8.035 1.453 2.393 1.111 8.548 5.471 8.292 3.847-.256 4.359-6.24 5.3-8.975.855-2.821-.171-8.377 1.539-10.428 1.624-1.881 4.53-1.71 6.069-3.5a4.811 4.811 0 0 0-.513-6.24c-2.906-2.393-7.18 1.282-8.462 3.676-.342 1.026 1.111 1.881 1.624.855z" class="cls-3" data-name="Path 1333" transform="translate(-19.241 -121.89)"/>
                        </g>
                    </g>
                    <g id="Group_1974" data-name="Group 1974" transform="translate(17.339 38.024)">
                        <g id="Group_1973" data-name="Group 1973">
                            <path id="Path_1334" d="M35.5 159.252a9.561 9.561 0 0 0 1.026 2.992c.342.855.342 1.966 1.026 2.564.171.171.342.085.513-.085.6-.769.256-2.051.171-2.992a5.236 5.236 0 0 0-1.282-3.163c-.6-.427-1.539-.085-1.453.684z" class="cls-3" data-name="Path 1334" transform="translate(-35.494 -158.382)"/>
                        </g>
                    </g>
                    <g id="Group_1976" data-name="Group 1976" transform="translate(3.917 33.999)">
                        <g id="Group_1975" data-name="Group 1975">
                            <path id="Path_1335" d="M27.578 153.7a19.094 19.094 0 0 0-7.693 6.325.63.63 0 0 0 .855.855 30.316 30.316 0 0 0 7.095-6.924c.171-.171-.085-.342-.256-.256z" class="cls-3" data-name="Path 1335" transform="translate(-19.792 -153.673)"/>
                        </g>
                    </g>
                    <g id="Group_1978" data-name="Group 1978" transform="translate(0 28.284)">
                        <g id="Group_1977" data-name="Group 1977">
                            <path id="Path_1336" d="M22.467 147a11.981 11.981 0 0 0-3.932 2.222 10.8 10.8 0 0 0-3.248 2.65.519.519 0 0 0 .6.769 13.741 13.741 0 0 0 3.932-2.222 11.965 11.965 0 0 0 3.248-2.65c.342-.427-.171-.855-.6-.769z" class="cls-3" data-name="Path 1336" transform="translate(-15.209 -146.987)"/>
                        </g>
                    </g>
                    <g id="Group_1980" data-name="Group 1980" transform="translate(26.7 26.223)">
                        <g id="Group_1979" data-name="Group 1979">
                            <path id="Path_1337" d="M46.748 145.622c1.539.855 3.163 1.368 4.7 2.222 1.453.855 2.821 2.051 4.274 2.992a.315.315 0 0 0 .427-.427A14.292 14.292 0 0 0 47 144.6c-.6-.171-.769.769-.256 1.026z" class="cls-3" data-name="Path 1337" transform="translate(-46.445 -144.576)"/>
                        </g>
                    </g>
                    <g id="Group_1982" data-name="Group 1982" transform="translate(24.322 33.206)">
                        <g id="Group_1981" data-name="Group 1981">
                            <path id="Path_1338" d="M43.866 153.989c1.111.94 2.393 1.71 3.59 2.65 1.026.855 2.137 1.539 3.163 2.393.085.085.256-.085.171-.171a49.453 49.453 0 0 0-5.984-5.984c-.684-.513-1.539.6-.94 1.111z" class="cls-3" data-name="Path 1338" transform="translate(-43.663 -152.746)"/>
                        </g>
                    </g>
                    <g id="Group_1984" data-name="Group 1984" transform="translate(6.785 2.565)">
                        <g id="Group_1983" data-name="Group 1983">
                            <path id="Path_1339" d="M23.791 116.985c-.94.6-.6 2.222-.513 3.077.171 1.2.342 3.077 1.453 3.676a.411.411 0 0 0 .513-.171c.342-1.111-.342-2.479-.6-3.676-.171-.94.085-2.393-.769-2.992l-.085.085z" class="cls-3" data-name="Path 1339" transform="translate(-23.147 -116.9)"/>
                        </g>
                    </g>
                    <g id="Group_1986" data-name="Group 1986" transform="translate(11.788 5.629)">
                        <g id="Group_1985" data-name="Group 1985">
                            <path id="Path_1340" d="M31.735 120.5c-.342.085-.684.085-.94.427l-.769.769A3.165 3.165 0 0 0 29 123.575a.67.67 0 0 0 .855.6 3.73 3.73 0 0 0 1.453-1.368c.171-.256.427-.513.6-.769a2.1 2.1 0 0 0 .342-.94c.171-.342-.085-.684-.513-.6z" class="cls-3" data-name="Path 1340" transform="translate(-29 -120.484)"/>
                        </g>
                    </g>
                    <g id="Group_1988" data-name="Group 1988" transform="translate(19.439 24.185)">
                        <g id="Group_1987" data-name="Group 1987">
                            <path id="Path_1341" d="M38.078 143.225c.427.427 1.026.342 1.624.342.513 0 1.282.085 1.624-.342a.52.52 0 0 0 0-.684c-.342-.427-1.111-.342-1.624-.342s-1.2-.085-1.624.342a.517.517 0 0 0 0 .684z" class="cls-3" data-name="Path 1341" transform="translate(-37.95 -142.192)"/>
                        </g>
                    </g>
                    <g id="Group_1990" data-name="Group 1990" transform="translate(21.075 16.478)">
                        <g id="Group_1989" data-name="Group 1989">
                            <path id="Path_1342" d="M39.895 133.966c.171.6.684.684 1.111.94a2.106 2.106 0 0 0 1.453.171c.171-.085.427-.342.342-.513a2 2 0 0 0-1.026-1.026 1.7 1.7 0 0 0-1.539-.256.51.51 0 0 0-.342.684z" class="cls-3" data-name="Path 1342" transform="translate(-39.864 -133.176)"/>
                        </g>
                    </g>
                    <g id="Group_1992" data-name="Group 1992" transform="translate(25.197 10.236)">
                        <g id="Group_1991" data-name="Group 1991">
                            <path id="Path_1343" d="M44.7 126.495a3.425 3.425 0 0 0 .684 1.966 2.392 2.392 0 0 0 1.453 1.282.374.374 0 0 0 .513-.427 2.785 2.785 0 0 0-.684-1.624 6.5 6.5 0 0 0-1.026-1.624c-.427-.427-.94-.085-.94.427z" class="cls-3" data-name="Path 1343" transform="translate(-44.687 -125.874)"/>
                        </g>
                    </g>
                    <g id="Group_1994" data-name="Group 1994" transform="translate(9.378 19.402)">
                        <g id="Group_1993" data-name="Group 1993">
                            <path id="Path_1344" d="M28.847 136.685a11.728 11.728 0 0 0-1.539 1.368 5.011 5.011 0 0 0-1.111 1.624c-.085.256.171.6.427.427a5.988 5.988 0 0 0 1.624-1.282c.513-.513.855-1.111 1.282-1.624a.445.445 0 0 0-.684-.513z" class="cls-3" data-name="Path 1344" transform="translate(-26.18 -136.597)"/>
                        </g>
                    </g>
                    <g id="Group_1996" data-name="Group 1996" transform="translate(17.012 13.592)">
                        <g id="Group_1995" data-name="Group 1995">
                            <path id="Path_1345" d="M35.358 130.569a10.6 10.6 0 0 0 3.932.94.407.407 0 0 0 .171-.769 9.246 9.246 0 0 0-4.018-.94c-.427 0-.427.6-.085.769z" class="cls-3" data-name="Path 1345" transform="translate(-35.111 -129.8)"/>
                        </g>
                    </g>
                    <g id="Group_1998" data-name="Group 1998" transform="translate(19.319 5.105)">
                        <g id="Group_1997" data-name="Group 1997">
                            <path id="Path_1346" d="M38.058 120.58c.769.085 1.624.256 2.479.342a.128.128 0 1 0 0-.256c-.769-.342-1.539-.513-2.308-.769-.427-.171-.6.6-.171.684z" class="cls-3" data-name="Path 1346" transform="translate(-37.81 -119.871)"/>
                        </g>
                    </g>
                    <g id="Group_2000" data-name="Group 2000" transform="translate(27.562 2.552)">
                        <g id="Group_1999" data-name="Group 1999">
                            <path id="Path_1347" d="M48.177 118.351h.171c.769 0 1.026-1.282.171-1.453h-.171a.735.735 0 1 0-.171 1.453z" class="cls-3" data-name="Path 1347" transform="translate(-47.453 -116.885)"/>
                        </g>
                    </g>
                    <g id="Group_2002" data-name="Group 2002" transform="translate(32.709 4.702)">
                        <g id="Group_2001" data-name="Group 2001">
                            <path id="Path_1348" d="M54.693 121.964a1.284 1.284 0 0 0 0-2.564 1.284 1.284 0 0 0 0 2.564z" class="cls-3" data-name="Path 1348" transform="translate(-53.475 -119.4)"/>
                        </g>
                    </g>
                    <g id="Group_2004" data-name="Group 2004" transform="translate(32.381 13.507)">
                        <g id="Group_2003" data-name="Group 2003">
                            <path id="Path_1349" d="M54.466 132.435a1.368 1.368 0 1 0-1.368-1.368 1.348 1.348 0 0 0 1.368 1.368z" class="cls-3" data-name="Path 1349" transform="translate(-53.092 -129.7)"/>
                        </g>
                    </g>
                </g>
                <g id="Group_2713" class="cls-9" data-name="Group 2713" transform="translate(218.083 4625.398)">
                    <g id="Group_2109" data-name="Group 2109" transform="translate(12.985)">
                        <g id="Group_2108" data-name="Group 2108">
                            <path id="Path_1398" d="M31.667 188.327c3.419-6.069-2.906-13.506-6.582-17.951a.746.746 0 0 0-1.2.342c-1.453 9.146-4.359 18.549-.513 27.61 1.368 3.163 3.334 6.325 6.753 7.351 3.5 1.026 7.864 1.2 11.283-.342 3.163-1.453 5.214-4.189 7.18-6.924 2.052-2.906 5.9-7.437 6.325-11.027.256-2.137-1.026-2.821-2.906-2.992-3.932-.256-7.693 3.077-10.429 5.385.427.342.94.684 1.368 1.026a29.743 29.743 0 0 0 1.454-21.028.98.98 0 0 0-1.368-.6c-5.727 3.932-8.8 9.745-11.711 15.9-.513 1.026 1.026 1.966 1.624.94 2.821-5.727 5.727-11.54 11.112-15.13a9.494 9.494 0 0 1-1.368-.6 28.322 28.322 0 0 1-1.026 19.66.865.865 0 0 0 1.368 1.026c1.881-1.539 6.924-6.325 9.061-3.847 1.368 1.539.6 1.881-.256 3.5-.684 1.282-1.368 2.479-2.052 3.761-3.419 5.984-6.924 10.343-14.446 10.172-15.638-.333-12.647-23.498-9.738-33.499-.427.085-.855.085-1.282.171 3.419 5.3 9.232 9.83 7.009 16.754-.427.513.171.769.342.342z" class="cls-3" data-name="Path 1398" transform="translate(-21.463 -169.056)"/>
                        </g>
                    </g>
                    <g id="Group_2111" data-name="Group 2111" transform="translate(17.406 12.506)">
                        <g id="Group_2110" data-name="Group 2110">
                            <path id="Path_1399" d="M27.032 183.869a27.163 27.163 0 0 0 .6 11.711c.684 2.735 1.539 5.813 4.274 7.095 5.214 2.479 12.651-3.676 15.557-7.437.256-.342-.171-1.026-.6-.769-2.052.855-3.59 2.308-5.385 3.59-2.735 2.052-5.214 4.018-8.633 2.222-2.052-1.111-2.308-1.71-2.992-3.761a36.854 36.854 0 0 1-.94-4.188c-.513-2.821-.855-5.556-1.368-8.377-.085-.342-.513-.342-.513-.085z" class="cls-3" data-name="Path 1399" transform="translate(-26.635 -183.686)"/>
                        </g>
                    </g>
                    <g id="Group_2113" data-name="Group 2113" transform="translate(22.932 9.628)">
                        <g id="Group_2112" data-name="Group 2112">
                            <path id="Path_1400" d="M33.784 201.074c2.479-1.624 4.274-4.787 5.385-7.522a27.619 27.619 0 0 0 1.368-5.385 25.649 25.649 0 0 1 2.821-7.095c.171-.427-.256-.94-.684-.684-2.992 1.71-3.419 5.471-4.1 8.548a21.149 21.149 0 0 1-2.564 6.667c-1.026 1.71-2.308 3.077-2.906 4.958 0 .427.427.769.684.513z" class="cls-3" data-name="Path 1400" transform="translate(-33.1 -180.32)"/>
                        </g>
                    </g>
                    <g id="Group_2115" data-name="Group 2115" transform="translate(.017 2.425)">
                        <g id="Group_2114" data-name="Group 2114">
                            <path id="Path_1401" d="M15.1 178.4c.94-1.539-1.368-4.274-2.479-5.214-1.453-1.2-3.932-1.881-5.556-.6s-.427 2.992 1.111 3.676c1.026.427 2.137.6 3.163.94 1.368.427 2.137 1.453 3.248 2.222a.435.435 0 0 0 .6-.513c-.94-2.992-4.7-2.65-6.838-3.932-.342-.171-.855-.684-.6-1.111.256-.6 1.71-.427 2.137-.342a6.363 6.363 0 0 1 2.308 1.368 9.326 9.326 0 0 1 1.624 2.821 1.411 1.411 0 0 0 .855.855.312.312 0 0 0 .427-.171z" class="cls-3" data-name="Path 1401" transform="translate(-6.292 -171.893)"/>
                        </g>
                    </g>
                    <g id="Group_2117" data-name="Group 2117" transform="translate(0 14.304)">
                        <g id="Group_2116" data-name="Group 2116">
                            <path id="Path_1402" d="M14.331 186.824c-2.992-2.65-8.462.171-8.035 4.188a2.05 2.05 0 0 0 2.904 1.881 7.258 7.258 0 0 0 2.479-2.051 11.008 11.008 0 0 1 1.368-1.453 15.677 15.677 0 0 1 2.052-1.111.332.332 0 0 0-.085-.6c-2.479-.684-3.761 2.735-5.471 3.761a1.066 1.066 0 0 1-1.026.256c-.513.256-.769.085-.769-.427a1.667 1.667 0 0 1-.085-1.111 3.573 3.573 0 0 1 1.624-2.222c1.453-.94 2.992-.684 4.616-.256a.529.529 0 0 0 .427-.855z" class="cls-3" data-name="Path 1402" transform="translate(-6.272 -185.79)"/>
                        </g>
                    </g>
                    <g id="Group_2119" data-name="Group 2119" transform="translate(39.131 4.608)">
                        <g id="Group_2118" data-name="Group 2118">
                            <path id="Path_1403" d="M53.46 178.253a24.346 24.346 0 0 1 2.222-1.966 4.189 4.189 0 0 1 2.052-.684c1.026.085 1.71.94.94 1.624-.769.769-2.479.427-3.59.427a5.631 5.631 0 0 0-2.906.427.321.321 0 0 0 0 .513 7.851 7.851 0 0 0 3.163.342 13.82 13.82 0 0 0 3.248-.171 1.945 1.945 0 0 0 1.453-2.564c-1.026-3.5-6.838-1.111-7.351 1.539a.531.531 0 0 0 .769.513z" class="cls-3" data-name="Path 1403" transform="translate(-52.05 -174.447)"/>
                        </g>
                    </g>
                </g>
                <g id="Group_2714" class="cls-10" data-name="Group 2714" transform="translate(151.948 4614.967)">
                    <g id="Group_2274" data-name="Group 2274">
                        <g id="Group_2273" data-name="Group 2273">
                            <path id="Path_1474" d="M15.917 220.911c0 3.761 1.71 7.351 3.5 10.514 1.539 2.65 4.018 7.009 6.838 8.462a2.738 2.738 0 0 0 2.308.256c1.8-.513 1.111-1.368 3.5-1.026 2.821.342 5.043 3.334 7.18 5.129 2.308 1.966 4.53 3.932 6.924 5.813.171-.513.256-1.026.427-1.539a20.452 20.452 0 0 0-11.882 10.6c.342-.085.769-.085 1.111-.171-3.077-2.992-18.805-10.087-11.283-15.643a.81.81 0 0 0 .171-1.282 44.344 44.344 0 0 1-8.8-9.488 27.645 27.645 0 0 1-2.821-5.471 20.669 20.669 0 0 1-.855-3.077 6.507 6.507 0 0 1-.256-1.8c-.513-1.881.513-2.992 3.334-3.248a.6.6 0 0 0 .855-.855 3.44 3.44 0 0 0-4.616-.6c-1.881 1.368-1.453 4.359-1.2 6.325 1.282 8.121 7.009 14.275 13.164 19.4.085-.427.085-.855.171-1.282a6.38 6.38 0 0 0-1.881 8.206c2.479 5.214 9.4 5.813 13.078 9.916a.683.683 0 0 0 1.116-.161 19.048 19.048 0 0 1 11.117-9.489.949.949 0 0 0 .427-1.539c-3.248-2.992-6.753-5.9-10.172-8.719-2.052-1.624-4.188-4.1-7.009-2.992-1.368.513-1.966 1.71-3.676.855-1.8-.94-3.59-4.018-4.7-5.471-2.564-3.59-3.59-7.693-5.556-11.54-.171-.427-.513-.342-.513-.085z" class="cls-3" data-name="Path 1474" transform="translate(-10.13 -216.853)"/>
                        </g>
                    </g>
                    <g id="Group_2276" data-name="Group 2276" transform="translate(18.956 27.66)">
                        <g id="Group_2275" data-name="Group 2275">
                            <path id="Path_1475" d="M32.643 257.75c2.479.6 5.471.427 7.522-1.282a6.776 6.776 0 0 0 1.8-6.838.638.638 0 0 0-1.2 0c-.513 2.051.513 4.1-1.282 5.813-1.881 1.8-4.359 1.453-6.667 1.2-.6-.085-.684.94-.171 1.111z" class="cls-3" data-name="Path 1475" transform="translate(-32.306 -249.212)"/>
                        </g>
                    </g>
                </g>
                <g id="Group_2716" class="cls-11" data-name="Group 2716" transform="translate(991.028 4397.96)">
                    <g id="Group_2175" data-name="Group 2175">
                        <g id="Group_2174" data-name="Group 2174">
                            <path id="Path_1428" d="M378.6 222.2a15.039 15.039 0 0 0-9.6 6.7 26.92 26.92 0 0 0-2.7 6l-1.2 3.9a10.908 10.908 0 0 1-1.9 3.9c-.6 1.6-1.9 2-3.8 1.1-.1-.3 2.9-4.1 3.1-4.8a12.213 12.213 0 0 0 .5-6c-.4-4.8-1.7-9.6 4.5-11.3 4.2-1.2 7.4 1.2 11.3 2.1 1.1.2 1.6-1.4.5-1.7-5.8-1.5-13.1-5.4-17.5 1.2-1.6 2.4-1.5 5-1.1 7.7.5 3.4.9 5.9-.8 9.1-.6 1.2-2.3 2.5-2.5 3.8-.6 3.9 4.5 3 6.3 1.2 2.5-2.5 3.1-6.6 4.3-9.8 2.2-5.9 5.5-9.3 11.1-11.9.8-.2.3-1.3-.5-1.2z" class="cls-3" data-name="Path 1428"/>
                        </g>
                    </g>
                    <g id="Group_2177" data-name="Group 2177">
                        <g id="Group_2176" data-name="Group 2176">
                            <path id="Path_1429" d="M353.8 223.9a3.307 3.307 0 0 0-2.9.5 3.6 3.6 0 0 0-1.3 2.9 5.524 5.524 0 0 0 4.6 5c5 .7 4.2-8.9-.3-8a.668.668 0 0 0-.3 1.1 11.381 11.381 0 0 1 1.9 1.9c.5 1 .5 2.7-.8 3-1.2.3-2.6-1.1-3-2.2s.4-3.6 2-3.3c.4 0 .6-.9.1-.9z" class="cls-3" data-name="Path 1429"/>
                        </g>
                    </g>
                    <g id="Group_2179" data-name="Group 2179">
                        <g id="Group_2178" data-name="Group 2178">
                            <path id="Path_1430" d="M364.3 248c-3.6.4-7.6.8-8.9-3.6-.6-2.2-.7-4.4-1.5-6.5a11.633 11.633 0 0 0-6.1-6.6c-3.4-1.5-14.2.6-10.8 5.9.7 1 2.7 2.2 3.9 3.1 3 2.2 4.8 4 6 7.6 1.1 3.2 1.5 6.1 4.7 8 2.6 1.5 6.5 2.2 9.3.7 3-1.5 3-4.5 3.8-7.4a.809.809 0 0 0-1.3-.8c-3.5 2.9-.8 8.4-8.2 6.9-5.8-1.2-5.3-5.5-6.9-9.8a10.327 10.327 0 0 0-3.6-4.9c-1.1-.9-2.4-1.5-3.6-2.3a17.1 17.1 0 0 0-2.3-1.3c-.4-2.9.6-4.3 2.9-4.4 5.7-2.3 9.5 4.1 10.7 8.6.7 2.6.7 5.5 2.6 7.6 2.4 2.7 7.2 3.1 9.5.2.4-.4.3-1-.2-1z" class="cls-3" data-name="Path 1430"/>
                        </g>
                    </g>
                    <g id="Group_2181" data-name="Group 2181">
                        <g id="Group_2180" data-name="Group 2180">
                            <path id="Path_1431" d="M383.7 233.5c-11.4 2.5-7.6 20.2-15.2 26.6-.1.1 0 .3.2.2 9.3-6.3 5-20.3 15.5-25.7.5-.4.1-1.3-.5-1.1z" class="cls-3" data-name="Path 1431"/>
                        </g>
                    </g>
                    <g id="Group_2183" data-name="Group 2183">
                        <g id="Group_2182" data-name="Group 2182">
                            <path id="Path_1432" d="M365 260.2c-6.6 2.1-16.9-5.5-22 1.6-1.5 2.1 0 5.4-1.3 7.1-2.9 3.7-5.1-4.6-4-6.9 2-4 7.5-4 11.2-3.5 6.1.7 13.5 2.8 17.9-3 2.2-2.9 2.5-6.6 3.2-10 1.5-6.5 6.3-13.2 13.8-10.7 1.1.4 1.6-1.4.5-1.8a11.505 11.505 0 0 0-11.7 2.6c-3.9 3.5-4.6 8.6-5.7 13.5-3.8 18-21.4.5-30.1 10.8-2.3 2.6-2.2 6-.5 8.9 1 1.8 3.4 4.3 5.6 2.8 4.6-3.3-1.5-10.2 7.6-11.1 5.7-.7 10.1 2.8 15.5-.3z" class="cls-3" data-name="Path 1432"/>
                        </g>
                    </g>
                </g>
                <g id="Group_2718" class="cls-12" data-name="Group 2718" transform="translate(910.028 4345.96)">
                    <g id="Group_2341" data-name="Group 2341">
                        <g id="Group_2340" data-name="Group 2340">
                            <path id="Path_1504" d="M343.5 275.1a42.583 42.583 0 0 0-.5 13.8c.6 4.5 2.9 8.8 2.7 13.3-.1 3-.2 5.5 2.7 7.2a4.2 4.2 0 0 0 5.1-.1c1.7-1.5 2.2-4.2 2.2-6.4 0-5.1-1.5-10-1.4-15.2.1-3 2.6-19.2-4.3-17a.767.767 0 0 0 .2 1.5c1.3.1 2 4.8 2.1 5.9.1 1.5 0 3.2 0 4.8 0 2.9-.2 5.7 0 8.6.2 3.3 3.8 13.2.8 15.4-1.5 0-2.9.1-4.4.1l-1.2-4.2c-.1-.9.2-1.9.1-2.8-.2-1.9-1.2-3.7-1.8-5.6a43.1 43.1 0 0 1-.8-18.9c.3-1-1.3-1.5-1.5-.4z" class="cls-3" data-name="Path 1504"/>
                        </g>
                    </g>
                    <g id="Group_2343" data-name="Group 2343">
                        <g id="Group_2342" data-name="Group 2342">
                            <path id="Path_1505" d="M360.6 272.6c-2.8-.9-3.7 1.3-3.9 3.8-.2 2.9.9 5.8 1.3 8.6.5 3.3 0 6.6.4 9.9.3 2.6 3 19.6 8.6 14.4 3-2.8 2.4-10.5 2.3-14.1-.2-6-.2-12.4-1-18.4-.4-3.2-1.9-7.4-5.7-7.7a3.949 3.949 0 0 0-4.5 3.9.544.544 0 0 0 1 .3c1.7-3.6 6.3 1.1 6.9 3.9a20.751 20.751 0 0 1 .3 4.3c.2 2.6.3 5.2.5 7.8.2 2.9.4 5.7.5 8.6.1 1.9-.5 12.2-3.8 8.1-1.1-1.4-1.6-5.2-2.1-6.9a26.281 26.281 0 0 1-1.2-8.4 32.309 32.309 0 0 0-.4-6.2c-.5-3-3.6-10 .7-11.7.2.1.2-.1.1-.2z" class="cls-3" data-name="Path 1505"/>
                        </g>
                    </g>
                    <g id="Group_2345" data-name="Group 2345">
                        <g id="Group_2344" data-name="Group 2344">
                            <path id="Path_1506" d="M372.2 278.7c-2.4 3.8-.5 7.6.3 11.7 1.1 6.4-.1 12.8.5 19.2.2 2.5 1.7 12.6 6.1 9.5 2-1.4 3.6-5.4 4.3-7.7 1.4-5.1.6-11.7.2-16.9-.4-5.7-2.2-20.3-11.4-16.1a.994.994 0 0 0 .8 1.8c9.1-3.1 8.6 18.2 8.6 22.9 0 3.3.1 6.4-1 9.5-.8 2.3-2.5 5.9-4.5 2.6-.8-1.3-.8-3.7-1-5.2a68.258 68.258 0 0 1-.5-11.1 51.757 51.757 0 0 0-.2-8.8c-.5-3.4-2.3-7.1-.3-10.3a1.1 1.1 0 0 0-1.9-1.1z" class="cls-3" data-name="Path 1506"/>
                        </g>
                    </g>
                    <g id="Group_2347" data-name="Group 2347">
                        <g id="Group_2346" data-name="Group 2346">
                            <path id="Path_1507" d="M374 296.7c2.4.7 6.5 1.5 8.6 0a.7.7 0 0 0 0-1.2 9.379 9.379 0 0 0-3.7-.4c-1.6 0-3.1-.2-4.6-.3a.972.972 0 0 0-.3 1.9z" class="cls-3" data-name="Path 1507"/>
                        </g>
                    </g>
                    <g id="Group_2349" data-name="Group 2349">
                        <g id="Group_2348" data-name="Group 2348">
                            <path id="Path_1508" d="M344.8 291.1c2.8-.3 6.1-.3 8.8-1.4a.539.539 0 0 0 0-1c-2.8-.9-6.2-.2-9 .3-1.2.2-.9 2.2.2 2.1z" class="cls-3" data-name="Path 1508"/>
                        </g>
                    </g>
                    <g id="Group_2351" data-name="Group 2351">
                        <g id="Group_2350" data-name="Group 2350">
                            <path id="Path_1509" d="M350.3 314c-1.3-3.6-4.9.8-5.3 2.7-.5 2.1 1 3.4 2.5 4.6 1.4 1.1 3.2 3.1 5.2 2.8 4.2-.5 3.9-6 3.2-9-.4-1.5-1.2-3.5-2.8-4.1-1.3-.5-2.7.1-2.7 1.5a.645.645 0 0 0 .6.6c1.8-.2 2.5-.2 3.5 1.8 1 2.1 1.5 5-.4 6.8-2 1.9-4-.7-5.4-2-.8-.9-1.6-1.8-1.5-3.1 0-.5 2.3-4.1 2.8-2.5.1.2.4.1.3-.1z" class="cls-3" data-name="Path 1509"/>
                        </g>
                    </g>
                </g>
                <g id="Group_2719" class="cls-13" data-name="Group 2719" transform="translate(835.028 4291.96)">
                    <g id="Group_2630" data-name="Group 2630">
                        <g id="Group_2629" data-name="Group 2629">
                            <path id="Path_1641" d="M361.2 349.4c-5.8-2.8-11.1 4.2-10.9 9.4.2 5.3 5 13.4 11.2 9.9 4.6-2.6 5.7-11.8.4-14.2-4.8-2.2-10.2 3.9-6.2 7.9a.971.971 0 0 0 1.6-1 17.416 17.416 0 0 1-.5-2.2c.9-.9 1.7-1.8 2.6-2.7 2.5-.8 3.4 3.4 3.4 4.9a5.614 5.614 0 0 1-2.6 5.3c-3 1.6-5.3-.8-6.6-3.2-1.6-3-1.9-6.8.1-9.7 1.9-2.6 4.2-2.9 7.2-3.3a.584.584 0 0 0 .3-1.1z" class="cls-3" data-name="Path 1641"/>
                        </g>
                    </g>
                    <g id="Group_2632" data-name="Group 2632">
                        <g id="Group_2631" data-name="Group 2631">
                            <path id="Path_1642" d="M349.6 345.9c7.8-2 15.9 1.5 17.9 9.8 1 4.3-2.6 11.6.5 15.3 1.6 1.9 3.3 1.2 5-.4a16.323 16.323 0 0 0 3.1-5.2c.6-1.4.6-4.2 1.6-5.3.9-1 4.5-1.7 5.8-2.4a16.256 16.256 0 0 0 4.9-4.1c2.1-2.6 3.3-6.1 1.7-9.2-4.5-8.5-14.8-2.2-19.7 2 .5.4 1 .8 1.6 1.2 2.7-6.3 6.1-16.7-2.4-20.5-8.3-3.7-12.2 7.2-13.2 13.1.6-.2 1.2-.3 1.9-.5-3.6-4.3-7.4-12.1-14-6.2-4.8 4.3-2 10.9 2.8 13.7a1.056 1.056 0 0 0 1.1-1.8c-2.6-1.5-5.1-4.4-4.1-7.8a4.631 4.631 0 0 1 7.7-2.3c2 1.8 3.2 4.1 5 6.1.7.8 1.8.1 1.9-.8.4-3.1.7-8 3.5-10 3.5-2.5 7.7-2 9.7 1.8 2.5 4.6.2 10.2-1.7 14.6-.4 1 1 1.5 1.7 1a24.075 24.075 0 0 1 7.5-4.6c3.2-.9 8.4-.2 8.6 4.4.2 5.4-8.1 9.3-12.3 10.5a1.292 1.292 0 0 0-.9 1.2c.1 2.8 0 6.9-2.2 9-3.2 3.1-3.7-2.6-3.3-4.9.2-1.1.6-2.3.7-3.4a15.511 15.511 0 0 0-20.9-15.8c-1 .2-.6 1.7.5 1.5z" class="cls-3" data-name="Path 1642"/>
                        </g>
                    </g>
                    <g id="Group_2634" data-name="Group 2634">
                        <g id="Group_2633" data-name="Group 2633">
                            <path id="Path_1643" d="M346.2 357.1a6.554 6.554 0 0 0-7-.1.712.712 0 0 0 .3 1.3 33.143 33.143 0 0 0 6.3 0c.7-.2.9-.8.4-1.2z" class="cls-3" data-name="Path 1643"/>
                        </g>
                    </g>
                    <g id="Group_2636" data-name="Group 2636">
                        <g id="Group_2635" data-name="Group 2635">
                            <path id="Path_1644" d="M344.4 369.8c-1.5.6-2.8 2.1-4.1 3.2a27.862 27.862 0 0 0-4 3.7c-.3.4 0 1.1.5.9a13.966 13.966 0 0 0 4.8-2.6c1.4-1 3.2-2.3 4-3.9.6-.9-.3-1.7-1.2-1.3z" class="cls-3" data-name="Path 1644"/>
                        </g>
                    </g>
                </g>
                <g id="Group_2720" class="cls-14" data-name="Group 2720" transform="translate(753.028 4242.96)">
                    <g id="Group_2662" data-name="Group 2662">
                        <g id="Group_2661" data-name="Group 2661">
                            <path id="Path_1656" d="M364.7 406.9c.9-1.7 1.7-3.5 2.7-5.1a12.515 12.515 0 0 1 3.6-4c2.9-2.3 4.7-1 5.5 3.8-1.4 2.2-3.3 1.7-4.1 4.7-.7 3.1 1.1 7.1 1.1 10.2a12.1 12.1 0 0 1-3 8.9c-3 3.2-7.1 2.3-10.9 1.5a.5.5 0 0 0-.4.9 9.845 9.845 0 0 0 14-3.7 18.252 18.252 0 0 0 1.9-9.5c-.1-1.8-.9-3.8-.9-5.5 0-6.8 1.8-4.2 4.5-7.2 3.3-3.6.2-7.3-4.1-7.2-6 .2-9.6 6.5-10.6 11.7-.2.6.5.9.7.5z" class="cls-3" data-name="Path 1656"/>
                        </g>
                    </g>
                    <g id="Group_2664" data-name="Group 2664">
                        <g id="Group_2663" data-name="Group 2663">
                            <path id="Path_1657" d="M352.3 392.1c.1 3 2.5 6.1 4.1 8.5 1.7 2.6 3.5 5.5 6.1 7.2.3.2.6-.2.4-.4-1.4-2.9-3.7-5.4-5.4-8.1-1.5-2.4-2.5-5.7-4.5-7.5a.425.425 0 0 0-.7.3z" class="cls-3" data-name="Path 1657"/>
                        </g>
                    </g>
                    <g id="Group_2666" data-name="Group 2666">
                        <g id="Group_2665" data-name="Group 2665">
                            <path id="Path_1658" d="M351.7 392.6c-3.6-.5-3 4.1-2.1 6.1 1.5 3.6 4.1 7.7 7.4 9.8a.368.368 0 0 0 .5-.5c-2.2-3.3-10.4-11.1-5.6-15.1.1 0-.1-.2-.2-.3z" class="cls-3" data-name="Path 1658"/>
                        </g>
                    </g>
                    <g id="Group_2668" data-name="Group 2668">
                        <g id="Group_2667" data-name="Group 2667">
                            <path id="Path_1659" d="M345 389.8a32.749 32.749 0 0 0 4.6 10.7.335.335 0 0 0 .6-.3c-1.5-3.5-2.8-7.1-4.2-10.6-.3-.7-1.2-.5-1 .2z" class="cls-3" data-name="Path 1659"/>
                        </g>
                    </g>
                    <g id="Group_2670" data-name="Group 2670">
                        <g id="Group_2669" data-name="Group 2669">
                            <path id="Path_1660" d="M343.4 389.4c-3.6-1.3-4.3 3.1-3.5 5.6a35.454 35.454 0 0 0 10.4 15.2c.3.2.8-.1.5-.4-1.9-2.6-3.8-5-5.5-7.8-.7-1.2-1.4-2.4-2.1-3.5-.5-.8-.9-1.6-1.4-2.4-1.5-1.9-1-3.9 1.4-6a.37.37 0 0 0 .2-.7z" class="cls-3" data-name="Path 1660"/>
                        </g>
                    </g>
                    <g id="Group_2672" data-name="Group 2672">
                        <g id="Group_2671" data-name="Group 2671">
                            <path id="Path_1661" d="M341.8 399.5c-3.3-1.1-3.4 3.7-2.7 5.7a23.216 23.216 0 0 0 9.9 11.3c.4.2.8-.3.5-.6-3-3.6-12.9-10.6-7.5-15.8.2-.2.1-.5-.2-.6z" class="cls-3" data-name="Path 1661"/>
                        </g>
                    </g>
                    <g id="Group_2674" data-name="Group 2674">
                        <g id="Group_2673" data-name="Group 2673">
                            <path id="Path_1662" d="M342.1 410.7c-5.6 1.1-1.5 6.9 1 8.8a40.9 40.9 0 0 1 7.3 7.1c1.5 1.8 2.9 2.9 5.2 2.4.3-.1.3-.6 0-.6-3.9-.7-6-5.1-9-7.5-1.2-1-2.3-2-3.4-3.1-.6-.6-1.6-1.3-1.9-2.1-.7-1.6.4-3.1 1.1-4.4.3-.3 0-.6-.3-.6z" class="cls-3" data-name="Path 1662"/>
                        </g>
                    </g>
                    <g id="Group_2676" data-name="Group 2676">
                        <g id="Group_2675" data-name="Group 2675">
                            <path id="Path_1663" d="M363.6 397a15.593 15.593 0 0 1 7.4-4.9c3-.9 5.3.1 8.2.1.5 0 .8-.7.4-1-2.2-2.1-6.4-1.6-9.1-.8a10.654 10.654 0 0 0-7.2 6.5s.2.3.3.1z" class="cls-3" data-name="Path 1663"/>
                        </g>
                    </g>
                    <g id="Group_2678" data-name="Group 2678">
                        <g id="Group_2677" data-name="Group 2677">
                            <path id="Path_1664" d="M365.1 389.9c2.8-1.4 5.4-2.6 8.7-2.6 2.7.1 4.9 1.1 7.5 1.5a8.812 8.812 0 0 0 7-1.6 8.66 8.66 0 0 0-.3-14c-3.1-2.1-10.8-1.7-12.3 2.5-1.6 4.4 5.2 8.6 8.9 7.8a.921.921 0 0 0-.2-1.8c-3.2.1-9.2-4.1-4.1-7.1 2.7-1.6 5.7-.3 7.4 1.9 2.6 3.4 1.8 8.4-2.8 9.9-2.3.7-4.8-.4-7-.9-4.8-1-9.7-.3-13.6 2.9-.9.9 0 1.9.8 1.5z" class="cls-3" data-name="Path 1664"/>
                        </g>
                    </g>
                    <g id="Group_2680" data-name="Group 2680">
                        <g id="Group_2679" data-name="Group 2679">
                            <path id="Path_1665" d="M368.7 410.6c-1.7 1.8-.7 5.3-1.3 7.7-.9 3.6-3.6 5.3-7.1 3.9-.4-.2-.8.4-.6.7 1.8 2.9 6 1.6 7.8-.6a10.04 10.04 0 0 0 2-4.9c.3-1.9.9-5-.2-6.7-.2-.3-.5-.3-.6-.1z" class="cls-3" data-name="Path 1665"/>
                        </g>
                    </g>
                </g>
            </g>
            <g id="Aset_Curve_Putih" data-name="Aset Curve Putih" transform="translate(0 5028.033)">
                <path id="Path_4195" d="M0 74.1h1443v-37s-55.2-14.4-158.5-11.6c-103.4 2.8-352.3 15.2-532.2-.4S0 25.1 0 25.1z" class="cls-15" data-name="Path 4195"/>
                <path id="Path_4196" d="M1443 18.9v18.2s-55.2-14.4-158.5-11.6c-103.4 2.8-352.3 15.2-532.2-.4C572.3 9.5 0 25.1 0 25.1V6.9s572.2-15.6 752.2 0 428.9 3.2 532.2.4C1387.8 4.5 1443 18.9 1443 18.9z" class="cls-16" data-name="Path 4196"/>
            </g>
        </g>
    </g>
</svg>
