<svg id="svg" xmlns="http://www.w3.org/2000/svg" xmlns:xlink="http://www.w3.org/1999/xlink" width="400" height="408.1212121212121" viewBox="0, 0, 400,408.1212121212121"><g id="svgg"><path id="path0" d="M399.808 1.233 C 399.796 1.256,399.770 1.731,399.751 2.287 C 399.731 2.843,399.635 3.325,399.536 3.358 C 399.437 3.391,399.395 3.567,399.443 3.751 C 399.491 3.934,399.425 4.213,399.297 4.370 C 399.138 4.566,399.132 4.617,399.277 4.529 C 399.497 4.397,399.575 4.620,399.379 4.816 C 399.318 4.877,399.241 5.285,399.208 5.721 C 399.175 6.158,399.081 6.599,399.000 6.701 C 398.919 6.804,398.880 7.056,398.914 7.262 C 398.947 7.468,398.907 7.678,398.823 7.730 C 398.740 7.781,398.711 7.976,398.760 8.163 C 398.809 8.350,398.766 8.503,398.665 8.503 C 398.563 8.503,398.521 8.610,398.571 8.741 C 398.622 8.872,398.573 9.035,398.463 9.103 C 398.314 9.194,398.322 9.264,398.494 9.372 C 398.625 9.456,398.643 9.520,398.535 9.521 C 398.431 9.523,398.364 9.696,398.386 9.906 C 398.409 10.117,398.352 10.480,398.261 10.714 C 398.169 10.948,398.070 11.431,398.040 11.786 C 398.010 12.142,397.897 12.540,397.788 12.671 C 397.678 12.804,397.643 13.071,397.708 13.278 C 397.786 13.523,397.764 13.610,397.642 13.535 C 397.523 13.461,397.467 13.630,397.481 14.016 C 397.493 14.343,397.413 14.720,397.302 14.853 C 397.191 14.987,397.118 15.327,397.140 15.609 C 397.161 15.892,397.085 16.235,396.971 16.373 C 396.856 16.511,396.815 16.761,396.880 16.928 C 396.961 17.141,396.935 17.195,396.792 17.106 C 396.646 17.016,396.610 17.106,396.667 17.418 C 396.710 17.660,396.682 17.857,396.603 17.857 C 396.525 17.857,396.504 18.022,396.556 18.224 C 396.622 18.475,396.590 18.552,396.455 18.469 C 396.319 18.385,396.259 18.550,396.259 19.004 C 396.259 19.365,396.163 19.763,396.046 19.889 C 395.876 20.072,395.876 20.094,396.046 19.998 C 396.337 19.834,396.313 20.085,395.994 20.540 C 395.848 20.748,395.781 20.918,395.845 20.918 C 395.908 20.918,395.868 21.030,395.754 21.166 C 395.641 21.302,395.598 21.494,395.659 21.591 C 395.719 21.689,395.687 21.769,395.588 21.769 C 395.489 21.769,395.408 21.850,395.408 21.949 C 395.408 22.048,395.478 22.086,395.562 22.034 C 395.647 21.981,395.628 22.129,395.520 22.362 C 395.412 22.596,395.261 22.787,395.186 22.788 C 395.110 22.789,395.101 22.874,395.165 22.978 C 395.229 23.082,395.176 23.235,395.047 23.318 C 394.851 23.445,394.854 23.496,395.068 23.637 C 395.219 23.736,395.241 23.805,395.122 23.807 C 394.901 23.810,394.636 24.443,394.705 24.801 C 394.729 24.926,394.628 25.213,394.479 25.439 C 394.291 25.727,394.272 25.850,394.416 25.850 C 394.530 25.850,394.474 25.971,394.293 26.118 C 394.111 26.265,394.058 26.337,394.175 26.278 C 394.468 26.130,394.443 26.443,394.143 26.692 C 394.008 26.804,393.944 27.017,394.002 27.166 C 394.074 27.356,394.041 27.397,393.888 27.303 C 393.729 27.204,393.700 27.260,393.780 27.512 C 393.846 27.720,393.787 27.958,393.629 28.116 C 393.476 28.268,393.415 28.499,393.482 28.672 C 393.559 28.872,393.531 28.928,393.398 28.846 C 393.272 28.768,393.235 28.813,393.296 28.971 C 393.348 29.106,393.312 29.266,393.216 29.325 C 393.120 29.384,393.085 29.545,393.138 29.682 C 393.191 29.821,393.138 29.932,393.017 29.932 C 392.898 29.932,392.845 29.977,392.900 30.031 C 393.043 30.174,392.686 31.122,392.489 31.122 C 392.398 31.122,392.371 31.269,392.427 31.448 C 392.484 31.627,392.450 31.824,392.351 31.885 C 392.252 31.946,392.218 32.072,392.276 32.165 C 392.333 32.258,392.244 32.485,392.076 32.670 C 391.909 32.855,391.754 33.137,391.732 33.297 C 391.629 34.029,391.334 34.924,391.160 35.032 C 391.055 35.097,390.958 35.334,390.944 35.560 C 390.930 35.785,390.742 36.306,390.527 36.718 C 390.312 37.129,390.136 37.544,390.136 37.639 C 390.136 37.735,390.008 37.954,389.852 38.127 C 389.696 38.299,389.558 38.573,389.544 38.735 C 389.531 38.898,389.426 39.203,389.312 39.413 C 389.197 39.624,389.154 39.796,389.216 39.796 C 389.277 39.796,389.227 39.917,389.104 40.065 C 388.981 40.213,388.869 40.493,388.854 40.686 C 388.840 40.879,388.699 41.132,388.541 41.248 C 388.382 41.364,388.268 41.524,388.287 41.605 C 388.355 41.898,388.055 42.682,387.909 42.592 C 387.826 42.541,387.805 42.618,387.860 42.763 C 387.919 42.917,387.871 43.027,387.745 43.027 C 387.626 43.027,387.573 43.072,387.628 43.127 C 387.775 43.274,387.406 44.232,387.241 44.130 C 387.163 44.082,387.049 44.216,386.987 44.428 C 386.792 45.094,386.486 45.748,386.369 45.748 C 386.307 45.748,386.293 45.888,386.337 46.058 C 386.382 46.228,386.298 46.467,386.151 46.589 C 386.004 46.711,385.884 46.908,385.884 47.026 C 385.884 47.145,385.777 47.284,385.645 47.334 C 385.514 47.385,385.355 47.661,385.292 47.948 C 385.229 48.235,385.087 48.471,384.978 48.472 C 384.863 48.473,384.887 48.544,385.034 48.639 C 385.206 48.751,385.220 48.805,385.075 48.807 C 384.957 48.808,384.739 49.115,384.589 49.489 C 384.440 49.862,384.249 50.126,384.166 50.074 C 384.082 50.022,384.004 50.099,383.992 50.245 C 383.981 50.391,383.952 50.587,383.929 50.680 C 383.905 50.774,383.876 50.965,383.865 51.105 C 383.853 51.246,383.724 51.361,383.578 51.361 C 383.433 51.361,383.361 51.437,383.418 51.531 C 383.476 51.624,383.442 51.701,383.343 51.701 C 383.244 51.701,383.163 51.897,383.163 52.136 C 383.163 52.375,383.092 52.527,383.005 52.473 C 382.918 52.419,382.799 52.453,382.740 52.548 C 382.681 52.643,382.719 52.721,382.823 52.721 C 382.928 52.721,382.965 52.799,382.906 52.894 C 382.848 52.989,382.715 53.015,382.612 52.951 C 382.493 52.877,382.464 52.936,382.532 53.114 C 382.599 53.288,382.510 53.482,382.294 53.634 C 382.041 53.811,382.009 53.899,382.173 53.965 C 382.308 54.019,382.261 54.061,382.058 54.071 C 381.775 54.084,381.760 54.115,381.973 54.252 C 382.149 54.366,382.161 54.417,382.011 54.419 C 381.824 54.421,381.476 55.024,381.518 55.272 C 381.526 55.319,381.401 55.510,381.241 55.697 C 381.081 55.884,380.969 56.076,380.993 56.122 C 381.017 56.169,380.845 56.464,380.612 56.779 C 379.950 57.668,379.597 58.222,379.485 58.544 C 379.429 58.707,379.303 58.790,379.206 58.730 C 379.109 58.670,379.077 58.698,379.135 58.792 C 379.193 58.886,379.052 59.219,378.821 59.531 C 378.590 59.844,378.401 60.192,378.401 60.304 C 378.401 60.416,378.293 60.550,378.159 60.601 C 378.026 60.652,377.892 60.870,377.862 61.087 C 377.831 61.303,377.717 61.480,377.608 61.480 C 377.499 61.480,377.346 61.549,377.268 61.634 C 377.185 61.724,377.215 61.738,377.338 61.667 C 377.696 61.461,377.575 61.758,377.136 62.165 C 376.908 62.376,376.766 62.594,376.821 62.648 C 376.875 62.703,376.794 62.795,376.641 62.854 C 376.488 62.913,376.406 63.031,376.460 63.118 C 376.513 63.204,376.313 63.502,376.015 63.780 C 375.718 64.058,375.535 64.286,375.610 64.286 C 375.684 64.286,375.597 64.406,375.415 64.553 C 375.234 64.701,375.188 64.768,375.315 64.703 C 375.500 64.607,375.507 64.655,375.349 64.950 C 375.241 65.151,375.080 65.271,374.991 65.216 C 374.846 65.126,374.757 65.356,374.810 65.689 C 374.821 65.759,374.715 65.816,374.575 65.816 C 374.435 65.816,374.329 65.874,374.340 65.944 C 374.396 66.300,374.299 66.504,374.123 66.395 C 373.994 66.315,373.974 66.349,374.064 66.496 C 374.147 66.630,374.103 66.792,373.953 66.905 C 373.816 67.008,373.651 67.231,373.588 67.400 C 373.521 67.579,373.389 67.657,373.274 67.587 C 373.152 67.511,373.123 67.539,373.197 67.659 C 373.322 67.861,373.227 68.006,372.336 68.973 C 372.039 69.295,371.848 69.560,371.910 69.562 C 371.973 69.564,371.832 69.723,371.599 69.916 C 371.365 70.110,371.268 70.219,371.384 70.159 C 371.522 70.088,371.561 70.140,371.496 70.309 C 371.441 70.451,371.346 70.561,371.285 70.553 C 370.963 70.510,370.862 70.602,371.080 70.739 C 371.277 70.864,371.236 70.936,370.872 71.102 C 370.623 71.215,370.459 71.373,370.508 71.452 C 370.557 71.531,370.405 71.788,370.170 72.022 C 369.935 72.257,369.786 72.449,369.838 72.449 C 369.891 72.449,369.581 72.782,369.150 73.189 C 368.720 73.596,368.367 74.059,368.367 74.219 C 368.367 74.379,368.291 74.463,368.197 74.405 C 368.104 74.347,368.027 74.416,368.027 74.559 C 368.027 74.701,367.884 74.895,367.709 74.988 C 367.534 75.082,367.263 75.429,367.106 75.759 C 366.949 76.090,366.782 76.361,366.734 76.361 C 366.686 76.361,366.704 76.265,366.774 76.148 C 366.851 76.020,366.780 76.034,366.596 76.184 C 366.392 76.350,366.357 76.456,366.492 76.501 C 366.603 76.538,366.452 76.716,366.155 76.897 C 365.825 77.097,365.651 77.318,365.707 77.464 C 365.761 77.606,365.662 77.747,365.465 77.810 C 365.281 77.868,365.172 77.981,365.221 78.061 C 365.271 78.141,365.156 78.256,364.966 78.316 C 364.776 78.377,364.662 78.492,364.712 78.574 C 364.814 78.738,363.796 79.847,363.543 79.847 C 363.455 79.847,363.362 79.988,363.337 80.160 C 363.312 80.332,363.266 80.485,363.236 80.500 C 362.715 80.754,362.510 80.965,362.553 81.201 C 362.585 81.376,362.469 81.525,362.255 81.581 C 362.063 81.631,361.905 81.783,361.905 81.918 C 361.905 82.053,361.837 82.121,361.754 82.070 C 361.671 82.018,361.499 82.105,361.371 82.262 C 361.172 82.508,361.175 82.528,361.395 82.401 C 361.535 82.320,361.444 82.464,361.194 82.720 C 360.943 82.977,360.682 83.176,360.613 83.163 C 360.545 83.151,360.388 83.380,360.265 83.674 C 360.117 84.026,359.967 84.165,359.825 84.083 C 359.706 84.015,359.660 84.016,359.722 84.086 C 359.870 84.250,359.338 84.874,359.149 84.758 C 359.070 84.709,359.026 84.766,359.052 84.886 C 359.078 85.006,358.984 85.111,358.844 85.119 C 358.703 85.128,358.608 85.228,358.632 85.343 C 358.656 85.458,358.484 85.625,358.250 85.714 C 357.770 85.896,357.658 86.098,358.121 85.946 C 358.286 85.892,358.202 86.027,357.932 86.249 C 357.664 86.469,357.243 86.865,356.996 87.128 C 356.749 87.391,356.248 87.926,355.882 88.318 C 355.516 88.710,355.134 89.031,355.032 89.031 C 354.930 89.031,354.847 89.126,354.847 89.243 C 354.847 89.360,354.770 89.471,354.677 89.489 C 354.412 89.540,354.109 89.867,354.195 90.009 C 354.237 90.079,354.188 90.136,354.086 90.136 C 353.918 90.136,353.164 90.856,352.583 91.570 C 352.461 91.721,352.277 91.792,352.174 91.729 C 352.067 91.663,352.036 91.692,352.102 91.798 C 352.164 91.898,352.080 92.007,351.916 92.039 C 351.751 92.070,351.616 92.242,351.616 92.420 C 351.616 92.597,351.509 92.778,351.379 92.822 C 351.216 92.877,351.187 92.829,351.284 92.667 C 351.404 92.468,351.382 92.468,351.140 92.664 C 350.983 92.791,350.890 92.953,350.933 93.023 C 351.022 93.168,349.923 94.218,349.683 94.218 C 349.597 94.218,349.480 94.337,349.424 94.484 C 349.368 94.630,349.243 94.701,349.147 94.641 C 349.050 94.581,348.992 94.604,349.018 94.690 C 349.078 94.893,347.882 96.060,347.109 96.553 C 346.781 96.762,346.588 96.934,346.679 96.936 C 346.888 96.940,346.064 97.528,345.833 97.541 C 345.740 97.545,345.682 97.642,345.706 97.754 C 345.729 97.867,345.668 97.959,345.570 97.959 C 345.472 97.959,345.037 98.323,344.602 98.767 C 344.168 99.211,343.923 99.422,344.058 99.235 C 344.284 98.921,344.280 98.912,344.005 99.128 C 343.841 99.256,343.707 99.475,343.707 99.614 C 343.707 99.765,343.608 99.828,343.460 99.772 C 343.314 99.715,343.037 99.887,342.780 100.192 C 342.542 100.475,342.347 100.659,342.347 100.602 C 342.347 100.544,342.240 100.595,342.110 100.716 C 341.979 100.837,341.907 100.993,341.950 101.063 C 341.992 101.133,341.905 101.190,341.756 101.190 C 341.608 101.190,341.442 101.305,341.388 101.446 C 341.334 101.586,341.189 101.701,341.065 101.701 C 340.941 101.701,340.673 101.935,340.469 102.221 C 340.266 102.507,340.065 102.707,340.023 102.665 C 339.981 102.623,339.579 102.963,339.129 103.420 C 338.336 104.226,337.957 104.475,338.188 104.039 C 338.249 103.922,338.095 104.076,337.844 104.381 C 337.593 104.686,337.325 104.897,337.249 104.850 C 337.173 104.802,337.065 104.883,337.009 105.029 C 336.952 105.177,336.820 105.240,336.710 105.172 C 336.594 105.100,336.558 105.123,336.622 105.227 C 336.682 105.325,336.533 105.535,336.290 105.694 C 336.047 105.854,335.617 106.205,335.334 106.475 C 335.052 106.745,334.754 106.925,334.672 106.874 C 334.591 106.824,334.524 106.868,334.524 106.973 C 334.524 107.077,334.435 107.108,334.327 107.042 C 334.211 106.970,334.177 106.995,334.243 107.102 C 334.305 107.202,334.088 107.449,333.760 107.652 C 333.432 107.855,333.163 108.091,333.163 108.177 C 333.163 108.263,333.010 108.333,332.823 108.333 C 332.636 108.333,332.483 108.412,332.483 108.507 C 332.483 108.603,332.294 108.767,332.063 108.872 C 331.832 108.977,331.692 109.142,331.751 109.237 C 331.815 109.341,331.750 109.370,331.590 109.308 C 331.429 109.247,331.279 109.313,331.218 109.474 C 331.161 109.622,331.071 109.700,331.019 109.647 C 330.966 109.594,330.694 109.794,330.413 110.090 C 330.133 110.387,329.960 110.522,330.029 110.390 C 330.112 110.233,330.088 110.193,329.958 110.273 C 329.850 110.340,329.762 110.505,329.762 110.639 C 329.762 110.774,329.628 110.885,329.464 110.885 C 329.019 110.887,328.144 111.504,328.427 111.617 C 328.584 111.679,328.563 111.712,328.359 111.721 C 328.195 111.729,328.061 111.806,328.061 111.893 C 328.061 112.071,327.388 112.338,327.126 112.264 C 327.032 112.238,327.009 112.269,327.073 112.334 C 327.244 112.504,326.825 112.897,326.575 112.801 C 326.459 112.756,326.318 112.839,326.262 112.985 C 326.156 113.261,325.009 114.033,324.787 113.978 C 324.717 113.960,324.660 114.055,324.660 114.189 C 324.660 114.395,324.185 114.673,323.781 114.703 C 323.719 114.707,323.528 114.871,323.356 115.067 C 323.185 115.263,322.946 115.389,322.826 115.349 C 322.706 115.308,322.630 115.377,322.656 115.503 C 322.683 115.628,322.589 115.731,322.449 115.731 C 322.111 115.731,321.780 116.031,321.899 116.228 C 321.952 116.314,321.868 116.336,321.714 116.277 C 321.559 116.217,321.451 116.235,321.473 116.316 C 321.495 116.396,321.437 116.485,321.344 116.513 C 321.250 116.540,321.028 116.698,320.850 116.864 C 320.672 117.030,320.462 117.125,320.382 117.076 C 320.303 117.027,320.238 117.081,320.238 117.195 C 320.238 117.310,320.188 117.354,320.127 117.293 C 320.066 117.232,319.908 117.315,319.775 117.477 C 319.642 117.639,319.588 117.665,319.657 117.533 C 319.738 117.376,319.713 117.336,319.584 117.416 C 319.476 117.482,319.388 117.656,319.388 117.800 C 319.388 117.964,319.292 118.027,319.133 117.966 C 318.972 117.904,318.878 117.967,318.878 118.136 C 318.878 118.288,318.780 118.366,318.653 118.317 C 318.529 118.270,318.335 118.380,318.222 118.561 C 318.109 118.742,317.939 118.843,317.844 118.784 C 317.607 118.638,317.155 119.042,317.291 119.279 C 317.352 119.386,317.339 119.416,317.262 119.347 C 317.186 119.277,317.020 119.306,316.895 119.410 C 316.769 119.514,316.667 119.537,316.667 119.461 C 316.667 119.385,316.546 119.471,316.399 119.653 C 316.252 119.834,316.182 119.868,316.244 119.728 C 316.305 119.588,316.190 119.664,315.986 119.898 C 315.783 120.132,315.673 120.216,315.743 120.084 C 315.826 119.927,315.802 119.887,315.673 119.967 C 315.565 120.033,315.475 120.218,315.474 120.376 C 315.472 120.573,315.430 120.599,315.342 120.460 C 315.204 120.243,314.756 120.421,314.781 120.682 C 314.789 120.765,314.713 120.833,314.612 120.833 C 314.511 120.833,314.330 120.967,314.211 121.131 C 313.962 121.471,313.700 121.536,313.865 121.216 C 313.926 121.099,313.826 121.187,313.644 121.411 C 313.431 121.671,313.233 121.769,313.092 121.682 C 312.948 121.593,312.914 121.613,312.994 121.742 C 313.099 121.912,312.921 122.006,312.570 121.968 C 312.515 121.962,312.223 122.184,311.920 122.460 C 311.617 122.737,311.303 122.923,311.223 122.873 C 311.143 122.824,311.023 122.873,310.955 122.983 C 310.873 123.115,310.906 123.136,311.054 123.044 C 311.202 122.953,311.236 122.973,311.156 123.103 C 311.089 123.211,310.862 123.299,310.652 123.299 C 310.442 123.299,309.975 123.570,309.613 123.902 C 309.251 124.233,308.850 124.463,308.721 124.414 C 308.591 124.364,308.529 124.394,308.582 124.480 C 308.636 124.566,308.601 124.684,308.506 124.743 C 308.411 124.802,308.331 124.750,308.328 124.627 C 308.325 124.492,308.255 124.522,308.148 124.706 C 308.051 124.872,307.889 124.955,307.786 124.892 C 307.680 124.826,307.649 124.855,307.714 124.960 C 307.849 125.180,306.839 125.723,306.586 125.566 C 306.489 125.507,306.456 125.532,306.512 125.623 C 306.648 125.843,305.665 126.413,305.416 126.259 C 305.308 126.192,305.265 126.211,305.320 126.300 C 305.375 126.389,305.264 126.560,305.073 126.679 C 304.833 126.829,304.764 126.834,304.850 126.696 C 304.943 126.545,304.886 126.543,304.612 126.690 C 304.414 126.796,304.252 126.923,304.252 126.972 C 304.252 127.021,304.328 127.014,304.422 126.956 C 304.515 126.898,304.592 126.891,304.592 126.941 C 304.592 127.102,303.618 127.541,303.508 127.431 C 303.449 127.372,303.401 127.413,303.401 127.522 C 303.401 127.750,301.722 128.605,301.520 128.480 C 301.446 128.434,301.336 128.551,301.276 128.739 C 301.216 128.927,301.092 129.082,300.999 129.082 C 300.906 129.082,300.878 129.005,300.935 128.912 C 301.114 128.623,300.921 128.722,300.441 129.167 C 300.189 129.401,299.872 129.592,299.736 129.592 C 299.601 129.592,299.490 129.663,299.490 129.750 C 299.490 129.927,298.832 130.189,298.531 130.132 C 298.425 130.112,298.292 130.217,298.235 130.365 C 298.178 130.513,298.055 130.586,297.960 130.528 C 297.866 130.470,297.789 130.508,297.789 130.612 C 297.789 130.717,297.719 130.759,297.634 130.706 C 297.548 130.653,297.452 130.681,297.421 130.768 C 297.390 130.856,297.249 130.952,297.109 130.982 C 296.969 131.013,296.778 131.129,296.684 131.241 C 296.590 131.352,296.399 131.467,296.259 131.496 C 296.118 131.524,295.903 131.683,295.779 131.848 C 295.656 132.013,295.489 132.108,295.408 132.058 C 295.328 132.008,295.213 132.046,295.153 132.143 C 295.093 132.239,294.973 132.274,294.886 132.221 C 294.799 132.167,294.728 132.208,294.728 132.313 C 294.728 132.418,294.651 132.456,294.558 132.398 C 294.464 132.340,294.388 132.382,294.388 132.491 C 294.388 132.600,294.275 132.646,294.137 132.593 C 293.999 132.540,293.822 132.612,293.743 132.753 C 293.664 132.894,293.436 133.022,293.236 133.037 C 293.036 133.052,292.906 133.099,292.948 133.141 C 293.095 133.288,292.345 133.692,292.150 133.572 C 292.029 133.497,292.000 133.526,292.076 133.647 C 292.188 133.830,292.115 133.865,291.532 133.913 C 291.411 133.923,291.251 134.031,291.176 134.152 C 291.101 134.273,290.971 134.359,290.886 134.343 C 290.534 134.276,290.293 134.365,290.391 134.524 C 290.450 134.620,290.313 134.694,290.075 134.694 C 289.844 134.694,289.628 134.771,289.597 134.866 C 289.565 134.960,289.357 135.072,289.135 135.115 C 288.912 135.158,288.682 135.246,288.625 135.311 C 288.567 135.375,288.673 135.378,288.861 135.316 L 289.201 135.203 288.861 135.467 C 288.673 135.612,288.389 135.696,288.229 135.655 C 288.068 135.613,287.953 135.667,287.974 135.774 C 287.994 135.882,287.849 135.972,287.652 135.975 C 287.455 135.978,287.166 136.109,287.010 136.265 C 286.853 136.422,286.609 136.506,286.468 136.452 C 286.306 136.389,286.229 136.439,286.260 136.586 C 286.292 136.738,286.140 136.826,285.825 136.837 C 285.558 136.847,285.290 136.923,285.230 137.007 C 284.988 137.341,284.446 137.693,284.601 137.415 C 284.680 137.275,284.577 137.332,284.372 137.543 C 283.990 137.936,283.743 138.055,283.927 137.757 C 283.987 137.661,283.919 137.632,283.768 137.690 C 283.624 137.745,283.543 137.851,283.588 137.925 C 283.701 138.107,283.179 138.295,282.952 138.155 C 282.852 138.093,282.816 138.116,282.871 138.205 C 282.926 138.294,282.823 138.460,282.642 138.573 C 282.430 138.705,282.313 138.715,282.313 138.600 C 282.313 138.502,282.143 138.580,281.936 138.773 C 281.729 138.966,281.463 139.087,281.346 139.042 C 281.228 138.997,281.012 139.081,280.864 139.228 C 280.717 139.376,280.557 139.457,280.509 139.409 C 280.461 139.361,280.218 139.509,279.970 139.739 C 279.718 139.973,279.389 140.123,279.221 140.079 C 279.055 140.035,278.939 140.087,278.960 140.196 C 278.981 140.308,278.833 140.368,278.614 140.338 C 278.403 140.309,278.231 140.354,278.231 140.438 C 278.231 140.635,277.464 140.986,277.033 140.986 C 276.850 140.986,276.559 141.128,276.385 141.302 C 276.212 141.475,275.881 141.665,275.650 141.723 C 275.419 141.781,274.964 142.009,274.638 142.230 C 274.312 142.451,273.916 142.613,273.758 142.589 C 273.599 142.566,273.469 142.625,273.469 142.720 C 273.469 142.816,273.352 142.848,273.208 142.793 C 273.061 142.737,272.905 142.800,272.853 142.937 C 272.764 143.168,271.659 143.647,271.386 143.572 C 271.316 143.553,271.259 143.614,271.259 143.707 C 271.259 143.801,271.201 143.868,271.131 143.857 C 271.061 143.846,270.927 143.855,270.833 143.877 C 270.740 143.899,270.548 143.927,270.408 143.940 C 270.268 143.952,270.174 144.064,270.200 144.188 C 270.225 144.312,270.168 144.365,270.072 144.305 C 269.976 144.246,269.898 144.279,269.898 144.378 C 269.898 144.477,269.841 144.545,269.770 144.530 C 269.700 144.515,269.426 144.592,269.161 144.702 C 268.896 144.811,268.615 144.861,268.537 144.813 C 268.459 144.764,268.283 144.837,268.146 144.973 C 268.009 145.110,267.850 145.175,267.792 145.117 C 267.734 145.059,267.687 145.109,267.687 145.228 C 267.687 145.347,267.579 145.403,267.446 145.352 C 267.313 145.301,267.160 145.377,267.104 145.522 C 267.046 145.674,266.894 145.741,266.741 145.683 C 266.597 145.627,266.521 145.650,266.573 145.734 C 266.692 145.926,265.602 146.363,264.632 146.512 C 264.401 146.548,264.131 146.688,264.031 146.825 C 263.824 147.108,262.664 147.471,262.497 147.305 C 262.436 147.244,262.412 147.309,262.443 147.449 C 262.481 147.618,262.374 147.700,262.126 147.691 C 261.919 147.685,261.798 147.754,261.856 147.848 C 261.918 147.949,261.843 147.972,261.669 147.905 C 261.508 147.843,261.419 147.861,261.470 147.943 C 261.575 148.113,260.775 148.357,260.556 148.221 C 260.477 148.173,260.319 148.246,260.204 148.384 C 260.089 148.523,259.933 148.597,259.856 148.550 C 259.780 148.503,259.669 148.543,259.609 148.639 C 259.549 148.736,259.438 148.776,259.361 148.729 C 259.285 148.682,259.128 148.757,259.012 148.896 C 258.896 149.036,258.624 149.150,258.406 149.150 C 258.188 149.150,257.939 149.276,257.853 149.430 C 257.752 149.612,257.568 149.677,257.334 149.616 C 257.105 149.556,256.917 149.619,256.823 149.787 C 256.737 149.941,256.561 150.009,256.403 149.948 C 256.254 149.891,256.072 149.942,255.999 150.062 C 255.832 150.338,254.576 150.828,254.294 150.728 C 254.177 150.686,254.082 150.726,254.082 150.816 C 254.082 151.031,253.128 151.422,252.919 151.293 C 252.830 151.238,252.710 151.315,252.652 151.466 C 252.586 151.637,252.423 151.707,252.215 151.652 C 252.026 151.603,251.722 151.704,251.510 151.888 C 251.306 152.066,251.002 152.211,250.834 152.211 C 250.667 152.211,250.485 152.284,250.430 152.374 C 250.374 152.463,250.217 152.493,250.080 152.440 C 249.941 152.387,249.830 152.441,249.830 152.561 C 249.830 152.680,249.780 152.727,249.718 152.666 C 249.656 152.604,249.503 152.639,249.378 152.743 C 249.252 152.848,249.150 152.871,249.150 152.794 C 249.150 152.718,249.037 152.805,248.900 152.986 C 248.734 153.205,248.648 153.238,248.645 153.084 C 248.641 152.901,248.549 152.911,248.209 153.134 C 247.973 153.289,247.705 153.370,247.614 153.313 C 247.523 153.257,247.449 153.278,247.449 153.359 C 247.449 153.560,246.239 154.079,245.484 154.201 C 245.145 154.256,244.826 154.410,244.775 154.544 C 244.712 154.707,244.545 154.753,244.265 154.683 C 244.001 154.616,243.888 154.642,243.957 154.753 C 244.020 154.855,243.962 154.888,243.819 154.833 C 243.683 154.781,243.521 154.822,243.458 154.923 C 243.395 155.025,243.273 155.064,243.186 155.010 C 243.098 154.956,243.027 154.997,243.027 155.102 C 243.027 155.207,242.956 155.248,242.869 155.194 C 242.782 155.141,242.662 155.176,242.602 155.272 C 242.542 155.369,242.422 155.403,242.334 155.349 C 242.246 155.294,241.971 155.409,241.723 155.604 C 241.440 155.827,241.149 155.919,240.938 155.852 C 240.735 155.788,240.645 155.813,240.709 155.916 C 240.843 156.133,240.428 156.297,239.969 156.208 C 239.774 156.170,239.662 156.213,239.717 156.303 C 239.843 156.506,239.159 156.774,238.653 156.720 C 238.445 156.698,238.315 156.746,238.365 156.827 C 238.464 156.987,238.409 157.004,237.703 157.043 C 237.440 157.058,237.162 157.172,237.084 157.298 C 237.002 157.431,236.852 157.471,236.727 157.393 C 236.579 157.302,236.554 157.329,236.649 157.481 C 236.751 157.648,236.675 157.681,236.340 157.617 C 236.095 157.570,235.935 157.598,235.985 157.678 C 236.069 157.815,235.833 157.870,235.169 157.869 C 235.010 157.869,234.895 157.954,234.914 158.058 C 234.934 158.164,234.780 158.225,234.566 158.195 C 234.356 158.166,234.184 158.231,234.184 158.341 C 234.184 158.450,234.074 158.498,233.940 158.446 C 233.805 158.395,233.669 158.433,233.636 158.531 C 233.603 158.630,233.337 158.720,233.044 158.732 C 232.752 158.744,232.557 158.825,232.611 158.913 C 232.665 159.001,232.583 159.023,232.426 158.963 C 232.270 158.903,232.143 158.936,232.143 159.037 C 232.143 159.138,232.025 159.175,231.881 159.120 C 231.731 159.062,231.578 159.129,231.521 159.276 C 231.440 159.487,231.375 159.494,231.155 159.316 C 230.933 159.135,230.912 159.140,231.033 159.340 C 231.142 159.521,231.108 159.554,230.897 159.473 C 230.742 159.414,230.521 159.466,230.406 159.589 C 230.291 159.712,230.049 159.774,229.868 159.726 C 229.648 159.669,229.579 159.705,229.660 159.837 C 229.739 159.964,229.643 160.035,229.389 160.038 C 229.173 160.040,228.690 160.180,228.316 160.350 C 227.942 160.520,227.536 160.625,227.413 160.584 C 227.290 160.542,227.091 160.643,226.970 160.808 C 226.829 161.002,226.623 161.074,226.386 161.012 C 226.185 160.959,226.020 160.977,226.020 161.051 C 226.020 161.193,225.358 161.449,225.104 161.405 C 225.020 161.390,224.676 161.512,224.338 161.676 C 224.001 161.840,223.602 161.955,223.453 161.933 C 223.304 161.911,223.081 162.013,222.958 162.162 C 222.779 162.377,222.705 162.387,222.588 162.210 C 222.474 162.038,222.390 162.058,222.202 162.304 C 222.070 162.478,221.886 162.572,221.794 162.515 C 221.702 162.458,221.511 162.527,221.371 162.667 C 221.178 162.860,221.094 162.871,221.028 162.711 C 220.961 162.552,220.885 162.563,220.716 162.755 C 220.594 162.895,220.302 163.037,220.068 163.070 C 219.834 163.104,219.442 163.235,219.197 163.361 C 218.951 163.488,218.706 163.547,218.651 163.493 C 218.597 163.438,218.415 163.453,218.247 163.526 C 218.079 163.600,217.885 163.647,217.815 163.632 C 217.744 163.618,217.687 163.691,217.687 163.795 C 217.687 163.902,217.537 163.946,217.347 163.896 C 217.132 163.840,217.048 163.874,217.118 163.988 C 217.190 164.104,217.098 164.135,216.863 164.073 C 216.662 164.021,216.497 164.051,216.497 164.142 C 216.497 164.232,216.429 164.264,216.346 164.213 C 216.263 164.161,216.101 164.233,215.986 164.371 C 215.872 164.509,215.712 164.582,215.632 164.532 C 215.552 164.482,215.254 164.562,214.971 164.708 C 214.579 164.911,214.455 164.923,214.453 164.758 C 214.452 164.621,214.404 164.605,214.326 164.714 C 214.166 164.936,213.247 165.344,213.143 165.240 C 213.099 165.197,212.713 165.312,212.284 165.496 C 211.856 165.679,211.404 165.791,211.280 165.743 C 211.156 165.696,211.054 165.736,211.054 165.832 C 211.054 165.928,210.983 165.962,210.896 165.909 C 210.809 165.855,210.693 165.884,210.637 165.973 C 210.582 166.062,210.384 166.106,210.196 166.070 C 210.008 166.034,209.900 166.077,209.954 166.165 C 210.009 166.254,209.901 166.327,209.714 166.327 C 209.527 166.327,209.324 166.407,209.264 166.505 C 209.187 166.629,209.087 166.628,208.936 166.503 C 208.778 166.372,208.658 166.395,208.499 166.587 C 208.378 166.733,208.176 166.813,208.051 166.765 C 207.926 166.717,207.823 166.760,207.823 166.860 C 207.823 166.961,207.704 166.998,207.559 166.942 C 207.389 166.877,207.338 166.909,207.414 167.033 C 207.496 167.165,207.393 167.199,207.088 167.141 C 206.812 167.088,206.683 167.121,206.749 167.228 C 206.815 167.334,206.714 167.363,206.489 167.305 C 206.287 167.252,206.122 167.287,206.122 167.383 C 206.122 167.478,205.972 167.517,205.789 167.469 C 205.605 167.421,205.366 167.489,205.258 167.620 C 205.149 167.750,204.974 167.856,204.869 167.855 C 204.763 167.853,204.792 167.778,204.932 167.687 C 205.367 167.406,205.037 167.500,204.337 167.857 C 203.965 168.047,203.525 168.152,203.344 168.094 C 203.110 168.020,203.056 168.051,203.152 168.206 C 203.248 168.363,203.184 168.395,202.915 168.324 C 202.695 168.267,202.439 168.334,202.284 168.489 C 202.140 168.632,201.818 168.750,201.568 168.750 C 201.318 168.750,200.940 168.864,200.727 169.003 C 200.476 169.168,200.340 169.189,200.340 169.065 C 200.340 168.932,200.160 168.948,199.759 169.116 C 199.439 169.249,199.132 169.314,199.077 169.258 C 199.021 169.203,198.865 169.305,198.728 169.485 C 198.538 169.737,198.478 169.754,198.472 169.558 C 198.465 169.331,198.446 169.331,198.299 169.558 C 198.209 169.698,198.133 169.762,198.132 169.700 C 198.130 169.638,197.729 169.733,197.241 169.912 C 196.752 170.091,196.207 170.191,196.029 170.134 C 195.835 170.073,195.748 170.100,195.811 170.201 C 195.869 170.296,195.636 170.423,195.279 170.490 C 194.929 170.555,194.533 170.697,194.398 170.806 C 194.209 170.958,194.181 170.956,194.277 170.796 C 194.350 170.674,194.101 170.723,193.672 170.916 C 193.234 171.113,192.918 171.175,192.882 171.071 C 192.849 170.975,192.665 171.035,192.470 171.206 C 192.232 171.414,192.166 171.431,192.265 171.259 C 192.387 171.047,192.368 171.039,192.151 171.215 C 192.008 171.331,191.828 171.369,191.751 171.300 C 191.675 171.230,191.675 171.281,191.751 171.413 C 191.861 171.603,191.788 171.632,191.395 171.553 C 191.093 171.493,190.773 171.549,190.570 171.698 C 190.388 171.831,190.101 171.897,189.932 171.843 C 189.764 171.790,189.626 171.827,189.626 171.927 C 189.626 172.027,189.568 172.096,189.498 172.081 C 189.428 172.066,189.169 172.138,188.921 172.240 C 188.674 172.343,188.311 172.385,188.113 172.333 C 187.896 172.276,187.755 172.320,187.755 172.443 C 187.755 172.556,187.660 172.616,187.544 172.577 C 187.428 172.538,187.224 172.615,187.091 172.748 C 186.953 172.887,186.644 172.960,186.367 172.919 C 186.102 172.880,185.884 172.916,185.884 172.999 C 185.884 173.082,185.803 173.099,185.704 173.038 C 185.604 172.976,185.382 173.053,185.210 173.209 C 185.028 173.374,184.855 173.423,184.796 173.326 C 184.666 173.116,184.085 173.264,183.828 173.573 C 183.599 173.849,183.089 173.897,183.256 173.627 C 183.318 173.527,183.074 173.594,182.713 173.777 C 182.021 174.128,180.745 174.412,180.206 174.336 C 180.030 174.311,179.825 174.388,179.751 174.508 C 179.537 174.854,178.298 175.165,178.049 174.936 C 177.891 174.791,177.874 174.802,177.978 174.984 C 178.082 175.168,178.029 175.201,177.748 175.128 C 177.540 175.074,177.381 175.111,177.381 175.214 C 177.381 175.315,177.331 175.346,177.269 175.285 C 177.208 175.223,177.053 175.260,176.925 175.366 C 176.797 175.472,176.649 175.515,176.596 175.462 C 176.543 175.409,176.191 175.475,175.814 175.608 C 175.436 175.741,174.912 175.850,174.649 175.850 C 174.385 175.850,174.119 175.932,174.057 176.032 C 173.996 176.132,173.847 176.176,173.728 176.130 C 173.609 176.084,173.414 176.137,173.295 176.246 C 173.126 176.403,173.110 176.390,173.222 176.190 C 173.335 175.988,173.314 175.974,173.119 176.121 C 172.737 176.410,171.391 176.899,171.511 176.704 C 171.659 176.465,171.497 176.487,170.930 176.780 C 170.665 176.917,170.286 176.998,170.088 176.960 C 169.890 176.921,169.728 176.950,169.728 177.022 C 169.728 177.095,169.632 177.165,169.515 177.178 C 169.235 177.208,168.044 177.383,167.797 177.429 C 167.690 177.450,167.551 177.537,167.488 177.624 C 167.425 177.711,167.067 177.784,166.692 177.786 C 166.303 177.789,166.052 177.860,166.109 177.953 C 166.167 178.046,166.057 178.075,165.851 178.021 C 165.654 177.969,165.470 177.992,165.442 178.071 C 165.414 178.150,165.120 178.242,164.790 178.276 C 164.459 178.309,164.114 178.376,164.024 178.424 C 163.934 178.473,163.620 178.526,163.325 178.543 C 163.031 178.560,162.509 178.692,162.165 178.835 C 161.821 178.979,161.392 179.050,161.212 178.993 C 161.023 178.933,160.884 178.968,160.884 179.078 C 160.884 179.182,160.789 179.251,160.672 179.232 C 160.555 179.213,160.344 179.237,160.204 179.284 C 159.103 179.656,158.853 179.714,158.937 179.578 C 158.990 179.492,158.953 179.422,158.854 179.422 C 158.755 179.422,158.673 179.486,158.673 179.563 C 158.673 179.715,158.362 179.777,157.611 179.776 C 157.353 179.776,157.143 179.839,157.143 179.918 C 157.143 180.087,156.273 180.305,155.442 180.345 C 155.115 180.360,154.667 180.472,154.447 180.593 C 154.227 180.714,153.907 180.776,153.735 180.731 C 153.555 180.684,153.382 180.758,153.325 180.905 C 153.246 181.111,153.178 181.120,152.974 180.951 C 152.798 180.805,152.721 180.799,152.721 180.932 C 152.721 181.037,152.545 181.122,152.330 181.122 C 152.115 181.122,151.836 181.218,151.710 181.335 C 151.541 181.492,151.511 181.493,151.597 181.341 C 151.684 181.187,151.571 181.192,151.154 181.361 C 150.362 181.682,149.500 181.864,149.830 181.640 C 150.051 181.491,150.047 181.467,149.800 181.465 C 149.643 181.464,149.412 181.565,149.288 181.689 C 149.163 181.814,148.886 181.903,148.673 181.887 C 148.460 181.871,148.245 181.924,148.195 182.003 C 148.146 182.083,148.035 182.104,147.947 182.051 C 147.860 181.997,147.789 182.034,147.789 182.133 C 147.789 182.232,147.708 182.313,147.609 182.313 C 147.510 182.313,147.480 182.231,147.542 182.130 C 147.621 182.002,147.560 181.999,147.339 182.119 C 146.695 182.470,145.929 182.639,145.816 182.455 C 145.743 182.337,145.661 182.349,145.573 182.491 C 145.443 182.701,144.811 182.855,144.133 182.843 C 143.946 182.839,143.434 182.943,142.997 183.072 C 142.559 183.202,142.031 183.263,141.822 183.209 C 141.561 183.140,141.481 183.171,141.565 183.307 C 141.632 183.416,141.587 183.513,141.464 183.525 C 141.342 183.537,141.088 183.570,140.901 183.599 C 140.714 183.627,140.217 183.701,139.796 183.762 C 138.706 183.920,138.556 183.951,138.223 184.093 C 138.059 184.163,137.818 184.179,137.687 184.129 C 137.556 184.078,137.400 184.085,137.342 184.144 C 137.224 184.261,136.812 184.370,136.352 184.404 C 136.188 184.417,136.054 184.500,136.054 184.589 C 136.054 184.678,136.004 184.700,135.943 184.639 C 135.881 184.577,135.735 184.606,135.618 184.704 C 135.470 184.826,135.371 184.826,135.294 184.702 C 135.234 184.604,135.107 184.524,135.014 184.524 C 134.920 184.524,134.898 184.612,134.965 184.720 C 135.042 184.844,135.012 184.870,134.883 184.791 C 134.771 184.721,134.571 184.754,134.438 184.864 C 134.290 184.987,133.991 185.019,133.659 184.946 C 133.250 184.856,133.152 184.879,133.252 185.040 C 133.349 185.197,133.266 185.231,132.939 185.168 C 132.695 185.122,132.471 185.156,132.441 185.244 C 132.412 185.332,132.118 185.422,131.788 185.444 C 131.457 185.466,131.115 185.526,131.027 185.576 C 130.939 185.627,130.657 185.657,130.400 185.643 C 130.142 185.629,129.932 185.676,129.932 185.746 C 129.932 185.816,129.817 185.830,129.677 185.776 C 129.528 185.719,129.421 185.774,129.419 185.909 C 129.417 186.103,129.393 186.103,129.270 185.909 C 129.099 185.638,128.403 185.798,128.399 186.108 C 128.397 186.227,128.329 186.205,128.231 186.054 C 128.111 185.869,128.066 185.860,128.064 186.022 C 128.062 186.144,127.981 186.195,127.884 186.135 C 127.786 186.075,127.598 186.115,127.467 186.224 C 127.335 186.333,127.066 186.371,126.869 186.309 C 126.670 186.246,126.269 186.306,125.968 186.444 C 125.104 186.839,124.490 186.944,124.487 186.695 C 124.485 186.537,124.445 186.542,124.334 186.717 C 124.252 186.848,124.064 186.908,123.917 186.852 C 123.770 186.796,123.604 186.824,123.548 186.915 C 123.492 187.006,123.375 187.036,123.288 186.983 C 123.200 186.929,123.129 186.956,123.129 187.043 C 123.129 187.130,122.823 187.182,122.449 187.160 C 122.075 187.137,121.769 187.191,121.769 187.278 C 121.769 187.366,121.606 187.386,121.407 187.323 C 121.141 187.239,121.081 187.265,121.178 187.423 C 121.264 187.561,121.242 187.595,121.118 187.518 C 121.012 187.453,120.782 187.476,120.608 187.569 C 120.386 187.688,120.224 187.678,120.069 187.535 C 119.895 187.373,119.875 187.378,119.977 187.556 C 120.066 187.714,120.010 187.769,119.789 187.736 C 119.615 187.711,119.295 187.750,119.079 187.823 C 118.862 187.896,118.364 187.990,117.973 188.032 C 117.093 188.128,116.438 188.225,116.327 188.277 C 116.280 188.299,116.165 188.332,116.071 188.350 C 115.978 188.368,115.766 188.442,115.601 188.514 C 115.436 188.585,115.113 188.608,114.883 188.564 C 114.654 188.520,114.501 188.540,114.543 188.609 C 114.641 188.767,113.301 188.987,113.077 188.850 C 112.986 188.793,112.815 188.825,112.699 188.922 C 112.582 189.019,112.165 189.117,111.771 189.140 C 111.377 189.163,111.054 189.253,111.054 189.340 C 111.054 189.426,110.925 189.392,110.767 189.264 C 110.608 189.136,110.527 189.111,110.586 189.210 C 110.651 189.318,110.479 189.400,110.151 189.418 C 109.495 189.452,109.154 189.517,108.929 189.651 C 108.835 189.707,108.624 189.730,108.460 189.704 C 108.296 189.677,108.197 189.713,108.240 189.783 C 108.283 189.852,108.073 189.918,107.773 189.928 C 106.863 189.960,106.218 190.057,105.994 190.195 C 105.866 190.274,105.781 190.238,105.780 190.104 C 105.778 189.929,105.745 189.931,105.629 190.115 C 105.547 190.244,105.400 190.300,105.303 190.240 C 105.205 190.180,105.082 190.201,105.028 190.288 C 104.974 190.375,104.797 190.424,104.634 190.398 C 104.470 190.372,104.194 190.425,104.019 190.515 C 103.795 190.631,103.735 190.625,103.816 190.493 C 103.880 190.390,103.855 190.306,103.762 190.306 C 103.668 190.306,103.540 190.389,103.477 190.491 C 103.414 190.593,103.218 190.638,103.042 190.592 C 102.865 190.546,102.758 190.568,102.803 190.641 C 102.848 190.714,102.587 190.822,102.223 190.880 C 101.858 190.938,101.420 191.031,101.248 191.087 C 100.988 191.171,100.979 191.158,101.190 191.005 C 101.395 190.858,101.345 190.822,100.935 190.822 C 100.536 190.822,100.481 190.859,100.680 190.994 C 100.871 191.124,100.823 191.141,100.486 191.063 C 100.216 191.000,99.826 191.068,99.508 191.232 C 99.161 191.411,98.980 191.439,98.980 191.312 C 98.980 191.185,98.821 191.162,98.512 191.244 C 98.255 191.313,97.949 191.372,97.832 191.376 C 97.715 191.380,97.619 191.440,97.619 191.510 C 97.619 191.580,97.485 191.615,97.321 191.589 C 97.158 191.562,96.947 191.588,96.854 191.646 C 96.760 191.704,96.490 191.756,96.253 191.761 C 96.016 191.767,95.717 191.836,95.589 191.915 C 95.421 192.019,95.394 191.997,95.493 191.837 C 95.588 191.684,95.565 191.655,95.419 191.745 C 95.057 191.969,93.531 192.325,93.632 192.162 C 93.787 191.911,93.536 191.984,93.245 192.274 C 93.037 192.483,92.949 192.495,92.845 192.328 C 92.741 192.158,92.661 192.157,92.462 192.322 C 92.323 192.437,91.876 192.550,91.468 192.574 C 91.060 192.598,90.637 192.673,90.527 192.741 C 90.417 192.809,90.112 192.867,89.849 192.871 C 88.518 192.891,87.961 192.948,88.028 193.055 C 88.068 193.121,87.890 193.151,87.631 193.121 C 87.372 193.092,87.083 193.128,86.990 193.201 C 86.896 193.274,86.590 193.358,86.310 193.387 C 86.029 193.416,85.700 193.512,85.580 193.600 C 85.438 193.704,85.293 193.694,85.171 193.572 C 85.038 193.440,84.884 193.436,84.654 193.559 C 84.473 193.656,83.995 193.747,83.590 193.763 C 83.186 193.779,82.891 193.849,82.934 193.920 C 82.978 193.990,82.889 194.048,82.738 194.048 C 82.573 194.048,82.512 193.969,82.584 193.851 C 82.668 193.716,82.631 193.702,82.467 193.806 C 82.335 193.889,82.190 193.964,82.143 193.973 C 81.412 194.104,80.292 194.280,80.063 194.300 C 79.901 194.313,79.720 194.373,79.660 194.433 C 79.601 194.492,79.340 194.499,79.082 194.447 C 78.824 194.396,78.448 194.442,78.247 194.550 C 78.045 194.657,77.344 194.779,76.688 194.820 C 76.033 194.860,75.346 194.974,75.163 195.072 C 74.980 195.170,74.830 195.214,74.830 195.171 C 74.830 195.127,74.601 195.157,74.322 195.237 C 74.018 195.325,73.774 195.319,73.715 195.223 C 73.661 195.135,73.526 195.119,73.415 195.188 C 73.124 195.370,72.622 195.467,71.896 195.481 C 71.545 195.488,71.259 195.552,71.259 195.624 C 71.259 195.696,71.067 195.720,70.833 195.678 C 70.599 195.635,70.408 195.653,70.408 195.717 C 70.408 195.781,70.159 195.853,69.855 195.876 C 68.571 195.977,68.048 196.056,67.847 196.180 C 67.700 196.271,67.677 196.242,67.774 196.086 C 67.879 195.915,67.834 195.893,67.587 195.995 C 67.148 196.175,66.509 196.295,65.949 196.302 C 65.663 196.306,65.527 196.379,65.591 196.496 C 65.649 196.599,65.593 196.588,65.467 196.471 C 65.198 196.221,64.901 196.186,65.046 196.421 C 65.106 196.517,64.919 196.555,64.594 196.514 C 64.290 196.475,63.998 196.514,63.945 196.600 C 63.892 196.685,63.392 196.777,62.834 196.804 C 62.276 196.832,61.764 196.930,61.695 197.024 C 61.618 197.128,61.569 197.107,61.567 196.971 C 61.566 196.844,61.479 196.802,61.364 196.873 C 61.158 197.000,60.582 197.092,59.524 197.169 C 59.196 197.192,58.803 197.270,58.648 197.342 C 58.494 197.413,58.265 197.451,58.138 197.426 C 58.012 197.401,57.510 197.479,57.023 197.600 C 56.537 197.720,56.058 197.770,55.960 197.709 C 55.862 197.649,55.781 197.699,55.780 197.822 C 55.778 197.999,55.747 197.997,55.631 197.813 C 55.536 197.664,55.351 197.625,55.106 197.703 C 54.519 197.889,53.925 197.969,52.659 198.031 C 52.017 198.062,51.442 198.167,51.382 198.264 C 51.323 198.361,50.777 198.487,50.169 198.545 C 49.562 198.603,48.682 198.691,48.214 198.741 C 47.747 198.791,46.981 198.861,46.514 198.896 C 45.326 198.987,44.583 199.098,43.793 199.304 C 43.418 199.401,42.864 199.436,42.560 199.382 C 42.158 199.309,42.006 199.345,42.004 199.513 C 42.002 199.693,41.965 199.688,41.837 199.490 C 41.746 199.349,41.671 199.311,41.669 199.405 C 41.666 199.573,41.067 199.690,40.025 199.726 C 39.730 199.736,39.518 199.793,39.554 199.851 C 39.590 199.910,39.431 199.957,39.201 199.957 C 38.970 199.957,38.820 199.895,38.867 199.820 C 38.914 199.744,38.702 199.759,38.396 199.854 C 37.663 200.080,36.806 200.216,35.969 200.238 C 35.595 200.247,35.233 200.332,35.164 200.425 C 35.085 200.532,35.038 200.521,35.037 200.395 C 35.035 200.250,34.883 200.237,34.500 200.347 C 34.206 200.431,33.896 200.458,33.812 200.406 C 33.728 200.353,33.566 200.388,33.452 200.482 C 33.339 200.576,32.847 200.632,32.359 200.605 C 31.871 200.579,31.510 200.620,31.557 200.696 C 31.604 200.772,31.372 200.807,31.041 200.775 C 30.710 200.743,30.402 200.779,30.355 200.854 C 30.309 200.929,30.080 200.969,29.846 200.944 C 29.613 200.918,29.422 200.950,29.422 201.014 C 29.422 201.079,29.112 201.120,28.733 201.106 C 28.354 201.092,28.005 201.144,27.957 201.221 C 27.910 201.298,27.722 201.282,27.541 201.185 C 27.359 201.088,27.211 201.072,27.211 201.150 C 27.211 201.229,27.039 201.304,26.828 201.317 C 26.618 201.331,26.139 201.360,25.765 201.382 C 25.391 201.404,25.029 201.504,24.960 201.604 C 24.878 201.724,24.834 201.710,24.833 201.563 C 24.831 201.425,24.749 201.393,24.617 201.478 C 24.500 201.554,24.060 201.623,23.639 201.631 C 23.219 201.640,22.568 201.705,22.194 201.775 C 21.820 201.846,21.264 201.922,20.960 201.945 C 20.656 201.967,20.358 202.034,20.300 202.092 C 20.241 202.151,20.050 202.122,19.876 202.029 C 19.701 201.935,19.558 201.926,19.558 202.008 C 19.558 202.090,19.271 202.161,18.920 202.166 C 18.237 202.176,17.391 202.334,17.120 202.501 C 17.028 202.558,17.008 202.516,17.076 202.407 C 17.147 202.292,17.091 202.211,16.942 202.211 C 16.802 202.211,16.638 202.290,16.577 202.388 C 16.514 202.490,16.153 202.527,15.724 202.477 C 15.315 202.429,14.938 202.459,14.886 202.543 C 14.834 202.627,14.371 202.653,13.858 202.600 C 13.273 202.539,12.925 202.568,12.925 202.677 C 12.925 202.773,12.772 202.892,12.585 202.940 C 12.398 202.989,12.284 202.965,12.333 202.887 C 12.381 202.808,12.209 202.772,11.950 202.806 C 11.691 202.840,11.480 202.879,11.480 202.892 C 11.480 202.954,10.734 203.056,10.069 203.085 C 9.668 203.102,9.300 203.181,9.251 203.259 C 9.203 203.337,9.072 203.400,8.961 203.399 C 8.839 203.397,8.860 203.330,9.014 203.229 C 9.200 203.107,9.098 203.074,8.631 203.104 C 8.281 203.127,7.994 203.185,7.993 203.231 C 7.993 203.338,6.848 203.428,5.565 203.422 C 4.888 203.419,4.618 203.476,4.698 203.606 C 4.770 203.722,4.737 203.746,4.611 203.668 C 4.499 203.599,4.281 203.644,4.127 203.769 C 3.927 203.931,3.883 203.936,3.974 203.784 C 4.054 203.650,4.003 203.571,3.837 203.571 C 3.691 203.571,3.571 203.648,3.571 203.741 C 3.571 203.835,3.490 203.912,3.391 203.912 C 3.292 203.912,3.257 203.838,3.312 203.748 C 3.372 203.652,3.201 203.659,2.895 203.766 C 2.610 203.865,2.263 203.903,2.124 203.849 C 1.985 203.796,1.871 203.810,1.871 203.880 C 1.871 203.950,1.469 204.005,0.978 204.002 L 0.085 203.997 0.042 305.995 L -0.000 407.993 200.000 407.993 L 400.000 407.993 400.000 204.592 C 400.000 92.721,399.961 1.190,399.915 1.190 C 399.868 1.190,399.820 1.210,399.808 1.233 " stroke="none" fill="#f4fcfc" fill-rule="evenodd"></path><path id="path1" d="M399.575 2.721 C 399.510 3.015,399.493 3.291,399.536 3.334 C 399.580 3.378,399.664 3.169,399.724 2.870 C 399.865 2.161,399.728 2.024,399.575 2.721 M399.307 3.869 C 399.300 4.033,399.262 4.344,399.222 4.560 C 399.181 4.776,399.213 4.913,399.291 4.864 C 399.440 4.773,399.540 3.571,399.400 3.571 C 399.356 3.571,399.314 3.705,399.307 3.869 M399.098 5.740 C 398.921 6.055,398.809 6.823,398.953 6.734 C 399.040 6.681,399.144 6.406,399.186 6.125 C 399.261 5.614,399.234 5.498,399.098 5.740 M395.972 20.196 C 395.914 20.359,395.834 20.570,395.794 20.663 C 395.755 20.757,395.844 20.685,395.991 20.503 C 396.258 20.174,396.339 19.898,396.168 19.898 C 396.118 19.898,396.030 20.032,395.972 20.196 M391.955 32.493 C 391.880 32.780,391.907 32.807,392.105 32.642 C 392.376 32.417,392.426 32.143,392.197 32.143 C 392.114 32.143,392.005 32.300,391.955 32.493 M391.254 34.451 C 391.191 34.700,391.178 34.942,391.225 34.989 C 391.272 35.036,391.361 34.870,391.424 34.621 C 391.486 34.372,391.499 34.130,391.452 34.083 C 391.406 34.036,391.316 34.202,391.254 34.451 M390.660 36.028 C 390.389 36.535,390.133 37.245,390.221 37.245 C 390.339 37.245,390.994 35.835,390.914 35.755 C 390.875 35.717,390.761 35.840,390.660 36.028 M387.992 42.280 C 387.851 42.618,387.766 42.925,387.804 42.962 C 387.841 43.000,387.993 42.724,388.140 42.349 C 388.473 41.501,388.343 41.440,387.992 42.280 M387.303 43.624 C 387.195 43.857,387.169 44.086,387.244 44.132 C 387.320 44.179,387.462 43.988,387.560 43.707 C 387.774 43.092,387.580 43.028,387.303 43.624 M385.971 46.489 C 385.791 46.822,385.698 47.149,385.764 47.216 C 385.830 47.282,385.884 47.233,385.884 47.108 C 385.884 46.983,386.007 46.745,386.157 46.579 C 386.307 46.414,386.400 46.189,386.363 46.080 C 386.327 45.971,386.150 46.155,385.971 46.489 M384.381 49.582 C 384.096 50.208,384.151 50.341,384.459 49.772 C 384.603 49.507,384.689 49.258,384.650 49.219 C 384.611 49.180,384.490 49.343,384.381 49.582 M383.624 51.020 C 383.575 51.207,383.596 51.361,383.670 51.361 C 383.743 51.361,383.844 51.207,383.893 51.020 C 383.942 50.833,383.921 50.680,383.847 50.680 C 383.774 50.680,383.673 50.833,383.624 51.020 M381.686 54.464 C 381.171 55.265,381.052 55.612,381.293 55.612 C 381.386 55.612,381.450 55.555,381.435 55.485 C 381.383 55.241,381.782 54.457,382.004 54.368 C 382.154 54.308,382.161 54.274,382.025 54.265 C 381.914 54.258,381.761 54.347,381.686 54.464 M380.816 55.986 C 380.704 56.099,380.612 56.259,380.612 56.343 C 380.612 56.427,380.440 56.735,380.230 57.029 C 379.630 57.866,379.354 58.431,379.676 58.164 C 379.817 58.047,379.932 57.880,379.932 57.793 C 379.932 57.706,380.142 57.371,380.400 57.049 C 380.657 56.726,380.869 56.405,380.870 56.335 C 380.871 56.265,380.933 56.112,381.008 55.995 C 381.179 55.725,381.082 55.721,380.816 55.986 M378.951 59.111 C 378.740 59.431,378.602 59.694,378.643 59.694 C 378.762 59.694,379.466 58.661,379.396 58.591 C 379.361 58.556,379.161 58.790,378.951 59.111 M377.581 61.267 C 377.474 61.477,377.258 61.841,377.102 62.075 C 376.946 62.309,377.060 62.232,377.354 61.905 C 377.649 61.577,377.891 61.214,377.891 61.097 C 377.891 60.786,377.801 60.835,377.581 61.267 M376.238 63.308 C 375.905 63.738,375.792 64.002,375.993 63.877 C 376.195 63.753,376.598 63.095,376.472 63.095 C 376.434 63.095,376.328 63.191,376.238 63.308 M373.012 67.902 C 372.714 68.294,372.514 68.655,372.568 68.704 C 372.621 68.752,372.697 68.704,372.736 68.596 C 372.775 68.488,372.994 68.182,373.223 67.916 C 373.576 67.505,373.752 67.160,373.597 67.183 C 373.574 67.187,373.310 67.510,373.012 67.902 M370.179 71.740 C 369.869 72.082,369.801 72.359,370.067 72.194 C 370.245 72.085,370.637 71.429,370.526 71.429 C 370.490 71.429,370.334 71.569,370.179 71.740 M369.203 73.002 C 368.925 73.408,368.911 73.464,369.149 73.214 C 369.327 73.027,369.583 72.778,369.718 72.662 C 369.862 72.536,369.884 72.449,369.772 72.449 C 369.667 72.449,369.411 72.698,369.203 73.002 M364.270 79.044 C 364.028 79.298,363.767 79.622,363.689 79.762 C 363.612 79.902,363.829 79.725,364.172 79.367 C 364.723 78.793,364.894 78.561,364.753 78.576 C 364.730 78.579,364.513 78.789,364.270 79.044 M362.153 81.304 C 362.091 81.404,362.082 81.526,362.132 81.576 C 362.253 81.698,362.585 81.483,362.585 81.282 C 362.585 81.065,362.291 81.080,362.153 81.304 M359.879 83.948 C 359.666 84.193,359.588 84.361,359.706 84.321 C 359.912 84.253,360.493 83.503,360.341 83.503 C 360.299 83.503,360.091 83.703,359.879 83.948 M358.790 85.063 C 358.118 85.790,358.318 85.837,359.016 85.116 C 359.332 84.791,359.518 84.529,359.430 84.535 C 359.341 84.542,359.053 84.779,358.790 85.063 M357.653 86.310 C 357.139 86.856,357.288 86.857,357.924 86.310 C 358.196 86.076,358.336 85.885,358.235 85.885 C 358.135 85.884,357.873 86.076,357.653 86.310 M355.910 88.063 C 355.466 88.508,355.102 88.937,355.102 89.015 C 355.102 89.149,356.106 88.165,356.611 87.536 C 357.030 87.013,356.734 87.236,355.910 88.063 M352.329 91.587 C 352.067 91.818,351.918 92.007,351.999 92.007 C 352.155 92.007,352.891 91.369,352.891 91.235 C 352.891 91.108,352.831 91.146,352.329 91.587 M350.680 93.197 C 350.072 93.754,349.636 94.211,349.710 94.213 C 349.784 94.216,350.160 93.931,350.544 93.580 C 350.929 93.229,351.434 92.770,351.667 92.560 C 351.900 92.349,352.022 92.179,351.938 92.181 C 351.854 92.184,351.288 92.641,350.680 93.197 M348.285 95.372 C 348.146 95.533,347.768 95.882,347.443 96.146 C 347.119 96.410,347.022 96.543,347.227 96.441 C 347.717 96.199,348.729 95.271,348.621 95.163 C 348.574 95.116,348.423 95.210,348.285 95.372 M343.100 100.044 L 342.602 100.594 343.112 100.169 C 343.393 99.936,343.654 99.726,343.693 99.702 C 343.732 99.679,343.727 99.622,343.681 99.577 C 343.635 99.531,343.374 99.741,343.100 100.044 M338.895 103.423 C 338.446 103.807,338.117 104.160,338.163 104.207 C 338.210 104.253,338.612 103.938,339.056 103.506 C 340.056 102.533,339.979 102.493,338.895 103.423 M335.459 106.135 C 334.868 106.581,334.527 106.973,334.729 106.973 C 334.764 106.973,335.131 106.667,335.544 106.293 C 336.435 105.486,336.402 105.424,335.459 106.135 M333.506 107.659 C 332.992 108.030,332.661 108.333,332.768 108.333 C 332.876 108.333,333.143 108.182,333.361 107.997 C 333.580 107.811,333.950 107.508,334.184 107.322 C 334.922 106.735,334.478 106.956,333.506 107.659 M327.466 112.087 C 327.092 112.370,326.756 112.687,326.719 112.792 C 326.683 112.897,326.830 112.818,327.047 112.616 C 327.264 112.414,327.580 112.204,327.751 112.150 C 327.922 112.096,328.061 111.986,328.061 111.906 C 328.061 111.825,328.195 111.725,328.359 111.682 C 328.568 111.627,328.580 111.600,328.401 111.589 C 328.261 111.581,327.840 111.805,327.466 112.087 M324.150 114.464 L 323.724 114.805 324.192 114.603 C 324.449 114.492,324.660 114.337,324.660 114.258 C 324.660 114.064,324.636 114.074,324.150 114.464 M313.053 121.696 C 312.417 122.041,312.456 122.184,313.095 121.854 C 313.376 121.709,313.605 121.554,313.605 121.509 C 313.605 121.400,313.587 121.406,313.053 121.696 M311.375 122.768 C 311.152 122.943,310.906 123.090,310.828 123.094 C 310.576 123.106,310.479 123.300,310.728 123.293 C 310.861 123.290,311.199 123.099,311.480 122.869 C 312.072 122.383,311.978 122.293,311.375 122.768 M308.888 124.203 C 308.586 124.407,308.337 124.634,308.336 124.706 C 308.333 124.846,309.116 124.385,309.493 124.024 C 309.844 123.689,309.497 123.792,308.888 124.203 M306.595 125.567 C 305.779 126.050,305.014 126.549,304.894 126.675 C 304.775 126.801,305.276 126.552,306.009 126.122 C 306.742 125.692,307.399 125.340,307.471 125.340 C 307.542 125.340,307.739 125.187,307.908 125.000 C 308.317 124.549,308.306 124.553,306.595 125.567 M304.039 127.068 C 303.782 127.162,303.571 127.311,303.571 127.399 C 303.571 127.488,303.801 127.441,304.082 127.296 C 304.476 127.092,304.803 126.804,304.549 126.884 C 304.526 126.892,304.296 126.974,304.039 127.068 M302.664 127.826 C 302.398 127.970,302.219 128.126,302.265 128.172 C 302.356 128.263,303.401 127.766,303.401 127.632 C 303.401 127.493,303.163 127.555,302.664 127.826 M298.956 129.935 L 298.554 130.278 299.022 130.077 C 299.279 129.967,299.490 129.813,299.490 129.735 C 299.490 129.522,299.399 129.556,298.956 129.935 M295.468 131.802 C 295.267 131.883,295.042 132.050,294.968 132.173 C 294.859 132.355,294.883 132.357,295.094 132.187 C 295.237 132.071,295.394 132.015,295.442 132.063 C 295.490 132.112,295.627 132.034,295.745 131.892 C 295.987 131.600,295.976 131.597,295.468 131.802 M292.298 133.449 C 291.850 133.690,291.521 133.925,291.567 133.971 C 291.655 134.059,293.197 133.207,293.197 133.071 C 293.197 132.964,293.210 132.958,292.298 133.449 M288.223 135.559 C 287.685 135.828,287.245 136.093,287.245 136.147 C 287.245 136.200,287.302 136.214,287.372 136.178 C 287.443 136.141,287.857 135.947,288.294 135.748 C 288.731 135.548,289.138 135.306,289.197 135.210 C 289.331 134.994,289.398 134.970,288.223 135.559 M285.789 136.811 C 285.471 137.049,285.473 137.054,285.844 136.961 C 286.056 136.907,286.271 136.796,286.322 136.714 C 286.466 136.481,286.155 136.538,285.789 136.811 M282.866 138.222 C 282.562 138.373,282.313 138.557,282.313 138.631 C 282.313 138.735,283.291 138.262,283.659 137.979 C 283.860 137.825,283.348 137.982,282.866 138.222 M279.382 139.869 C 278.939 140.081,278.621 140.299,278.675 140.353 C 278.772 140.450,279.863 139.911,280.179 139.610 C 280.404 139.395,280.300 139.429,279.382 139.869 M274.022 142.352 C 273.812 142.437,273.639 142.540,273.639 142.582 C 273.639 142.726,274.154 142.580,274.355 142.379 C 274.589 142.145,274.546 142.142,274.022 142.352 M272.066 143.217 C 271.228 143.642,271.252 143.750,272.109 143.413 C 272.483 143.266,272.789 143.081,272.789 143.001 C 272.789 142.922,272.770 142.865,272.747 142.876 C 272.723 142.886,272.417 143.040,272.066 143.217 M268.878 144.656 L 268.452 144.912 268.878 144.801 C 269.111 144.740,269.375 144.622,269.464 144.539 C 269.724 144.296,269.351 144.370,268.878 144.656 M266.743 145.552 C 266.654 145.631,266.140 145.870,265.601 146.083 C 265.061 146.296,264.575 146.544,264.519 146.634 C 264.464 146.723,264.656 146.674,264.945 146.524 C 265.235 146.374,265.513 146.256,265.562 146.262 C 265.727 146.280,267.177 145.599,267.177 145.503 C 267.177 145.361,266.926 145.389,266.743 145.552 M263.350 147.040 L 262.840 147.281 263.350 147.181 C 263.882 147.077,264.051 146.986,263.931 146.869 C 263.892 146.831,263.631 146.908,263.350 147.040 M262.160 147.550 C 261.879 147.698,261.517 147.846,261.356 147.879 C 261.194 147.912,260.926 148.024,260.760 148.130 C 260.502 148.294,260.521 148.308,260.894 148.230 C 261.528 148.098,262.545 147.652,262.668 147.452 C 262.809 147.223,262.762 147.233,262.160 147.550 M257.355 149.495 C 256.848 149.699,256.869 149.803,257.398 149.701 C 257.632 149.657,257.823 149.553,257.823 149.470 C 257.823 149.387,257.804 149.325,257.781 149.331 C 257.757 149.336,257.566 149.411,257.355 149.495 M254.667 150.593 C 254.365 150.824,254.384 150.830,254.889 150.661 C 255.467 150.469,255.599 150.340,255.220 150.340 C 255.097 150.340,254.848 150.454,254.667 150.593 M253.316 151.112 C 253.036 151.240,252.921 151.346,253.061 151.347 C 253.202 151.348,253.508 151.239,253.741 151.105 C 254.279 150.798,253.992 150.802,253.316 151.112 M239.413 156.320 C 239.156 156.414,238.946 156.554,238.946 156.631 C 238.946 156.835,239.582 156.636,239.811 156.359 C 240.035 156.090,240.042 156.091,239.413 156.320 M238.223 156.750 C 238.059 156.793,237.925 156.901,237.925 156.991 C 237.925 157.085,238.087 157.070,238.308 156.956 C 238.946 156.624,238.922 156.567,238.223 156.750 M236.839 157.282 C 236.784 157.371,236.472 157.494,236.147 157.555 C 235.822 157.616,235.515 157.732,235.465 157.813 C 235.376 157.958,236.883 157.562,237.047 157.397 C 237.094 157.351,237.088 157.270,237.035 157.217 C 236.982 157.164,236.894 157.193,236.839 157.282 M227.849 160.321 C 227.685 160.364,227.551 160.473,227.551 160.563 C 227.551 160.657,227.713 160.642,227.934 160.527 C 228.571 160.195,228.548 160.139,227.849 160.321 M216.922 163.946 C 216.707 164.038,216.676 164.092,216.837 164.092 C 216.977 164.092,217.245 164.026,217.432 163.946 C 217.646 163.853,217.678 163.799,217.517 163.799 C 217.377 163.799,217.109 163.865,216.922 163.946 M214.753 164.573 C 214.590 164.616,214.456 164.724,214.456 164.814 C 214.456 164.909,214.618 164.894,214.838 164.779 C 215.476 164.447,215.453 164.390,214.753 164.573 M211.395 165.646 C 211.168 165.793,211.168 165.811,211.395 165.811 C 211.535 165.811,211.764 165.737,211.905 165.646 C 212.132 165.500,212.132 165.481,211.905 165.481 C 211.764 165.481,211.535 165.556,211.395 165.646 M206.709 167.130 L 206.207 167.355 206.803 167.247 C 207.130 167.187,207.513 167.074,207.653 166.997 C 208.083 166.759,207.281 166.872,206.709 167.130 M203.827 167.948 C 203.401 168.153,203.387 168.177,203.741 168.090 C 204.223 167.972,204.765 167.696,204.507 167.700 C 204.413 167.701,204.107 167.813,203.827 167.948 M201.572 168.495 C 201.455 168.534,201.397 168.629,201.445 168.706 C 201.544 168.867,202.211 168.728,202.211 168.546 C 202.211 168.411,201.900 168.386,201.572 168.495 M195.068 170.416 C 194.882 170.542,194.951 170.558,195.323 170.474 C 195.948 170.335,196.084 170.237,195.649 170.241 C 195.470 170.242,195.208 170.321,195.068 170.416 M193.240 170.868 C 193.029 170.909,192.857 171.009,192.857 171.091 C 192.857 171.174,193.087 171.161,193.367 171.063 C 193.825 170.903,194.076 170.712,193.750 170.771 C 193.680 170.784,193.450 170.828,193.240 170.868 M188.690 172.200 C 188.263 172.406,188.249 172.429,188.605 172.343 C 188.839 172.287,189.103 172.173,189.192 172.090 C 189.413 171.884,189.292 171.910,188.690 172.200 M186.395 172.789 L 185.969 172.925 186.395 172.940 C 186.628 172.948,186.935 172.880,187.075 172.789 C 187.400 172.579,187.050 172.579,186.395 172.789 M183.248 173.639 C 183.190 173.733,183.258 173.810,183.398 173.810 C 183.539 173.810,183.701 173.733,183.759 173.639 C 183.816 173.546,183.749 173.469,183.609 173.469 C 183.468 173.469,183.306 173.546,183.248 173.639 M181.558 174.001 C 181.189 174.087,180.845 174.201,180.792 174.254 C 180.655 174.392,182.009 174.133,182.313 173.963 C 182.627 173.787,182.428 173.797,181.558 174.001 M178.821 174.737 C 177.734 175.004,177.315 175.180,177.976 175.093 C 178.912 174.970,179.598 174.788,179.690 174.638 C 179.741 174.556,179.758 174.498,179.729 174.509 C 179.701 174.519,179.292 174.622,178.821 174.737 M171.811 176.536 C 171.242 176.765,171.348 176.881,171.939 176.675 C 172.219 176.577,172.449 176.467,172.449 176.429 C 172.449 176.328,172.242 176.363,171.811 176.536 M150.450 181.407 C 149.996 181.543,149.658 181.687,149.699 181.728 C 149.740 181.770,150.144 181.692,150.596 181.556 C 151.049 181.420,151.477 181.344,151.548 181.388 C 151.619 181.432,151.715 181.406,151.762 181.331 C 151.899 181.109,151.338 181.142,150.450 181.407 M146.545 182.223 C 146.094 182.322,145.773 182.451,145.831 182.509 C 145.889 182.567,146.258 182.519,146.650 182.403 C 147.043 182.287,147.460 182.226,147.577 182.267 C 147.693 182.308,147.789 182.271,147.789 182.185 C 147.789 181.990,147.572 181.996,146.545 182.223 M144.600 182.658 C 144.066 182.873,144.119 183.022,144.657 182.818 C 144.899 182.726,145.161 182.691,145.241 182.740 C 145.320 182.789,145.433 182.751,145.491 182.656 C 145.621 182.446,145.125 182.447,144.600 182.658 M140.816 183.503 C 140.816 183.703,140.947 183.703,141.412 183.503 C 141.713 183.374,141.698 183.356,141.284 183.345 C 141.027 183.339,140.816 183.410,140.816 183.503 M133.929 184.864 C 133.601 185.005,133.602 185.011,133.961 185.022 C 134.166 185.029,134.381 184.957,134.439 184.864 C 134.563 184.663,134.397 184.663,133.929 184.864 M130.357 185.553 C 130.122 185.650,130.244 185.676,130.751 185.637 C 131.154 185.605,131.519 185.545,131.561 185.503 C 131.698 185.366,130.707 185.407,130.357 185.553 M124.490 186.738 C 124.490 186.841,124.680 186.866,124.957 186.799 C 125.625 186.639,125.648 186.565,125.028 186.565 C 124.732 186.565,124.490 186.643,124.490 186.738 M119.813 187.594 C 119.547 187.715,119.597 187.733,120.042 187.679 C 120.354 187.641,120.654 187.566,120.708 187.512 C 120.860 187.360,120.192 187.421,119.813 187.594 M114.322 188.561 C 113.640 188.703,113.114 188.851,113.154 188.890 C 113.261 188.998,115.538 188.571,115.723 188.408 C 115.922 188.232,115.885 188.236,114.322 188.561 M112.160 188.946 C 111.832 189.086,111.833 189.092,112.192 189.104 C 112.397 189.110,112.612 189.039,112.670 188.946 C 112.794 188.744,112.628 188.744,112.160 188.946 M107.653 189.762 C 107.653 189.932,108.303 189.983,108.403 189.821 C 108.445 189.753,108.293 189.683,108.066 189.664 C 107.839 189.645,107.653 189.689,107.653 189.762 M102.078 190.723 C 101.584 190.842,101.125 191.001,101.058 191.075 C 100.990 191.150,101.052 191.169,101.195 191.119 C 101.338 191.068,101.892 190.935,102.428 190.824 C 102.963 190.713,103.401 190.589,103.401 190.549 C 103.401 190.439,103.069 190.483,102.078 190.723 M90.051 192.687 L 89.541 192.817 89.998 192.837 C 90.250 192.848,90.503 192.781,90.561 192.687 C 90.619 192.594,90.643 192.526,90.614 192.537 C 90.585 192.548,90.332 192.616,90.051 192.687 M76.871 194.737 C 76.688 194.861,76.808 194.878,77.296 194.797 C 78.140 194.655,78.275 194.557,77.622 194.560 C 77.349 194.562,77.011 194.641,76.871 194.737 M73.732 195.251 C 73.803 195.365,74.660 195.254,74.660 195.131 C 74.660 195.093,74.436 195.080,74.161 195.101 C 73.887 195.121,73.694 195.189,73.732 195.251 M71.641 195.525 C 71.805 195.568,72.073 195.568,72.236 195.525 C 72.400 195.483,72.266 195.448,71.939 195.448 C 71.611 195.448,71.477 195.483,71.641 195.525 M58.333 197.282 C 57.937 197.412,57.944 197.420,58.449 197.400 C 58.747 197.388,58.953 197.318,58.907 197.244 C 58.861 197.169,58.809 197.116,58.791 197.126 C 58.773 197.135,58.567 197.205,58.333 197.282 M50.277 198.434 C 50.231 198.508,50.456 198.538,50.777 198.500 C 51.098 198.463,51.361 198.402,51.361 198.366 C 51.361 198.238,50.359 198.301,50.277 198.434 M48.319 198.624 C 48.174 198.716,48.402 198.742,48.914 198.692 C 50.066 198.580,50.227 198.498,49.320 198.485 C 48.899 198.479,48.448 198.542,48.319 198.624 M38.849 199.849 C 38.764 199.987,40.314 199.879,40.455 199.737 C 40.492 199.701,40.165 199.679,39.730 199.687 C 39.295 199.696,38.898 199.769,38.849 199.849 M36.499 200.139 C 36.451 200.216,36.638 200.245,36.914 200.205 C 37.189 200.165,37.415 200.102,37.415 200.066 C 37.415 199.936,36.583 200.003,36.499 200.139 M32.185 200.627 C 32.349 200.670,32.617 200.670,32.781 200.627 C 32.944 200.585,32.810 200.550,32.483 200.550 C 32.156 200.550,32.022 200.585,32.185 200.627 M23.980 201.531 C 23.772 201.665,23.794 201.696,24.097 201.698 C 24.302 201.700,24.517 201.624,24.575 201.531 C 24.709 201.314,24.315 201.314,23.980 201.531 M99.957 408.121 C 154.981 408.144,245.019 408.144,300.043 408.121 C 355.066 408.097,310.047 408.078,200.000 408.078 C 89.953 408.078,44.934 408.097,99.957 408.121 " stroke="none" fill="#f4f4fc" fill-rule="evenodd"></path></g></svg>