<svg id="svg" xmlns="http://www.w3.org/2000/svg" xmlns:xlink="http://www.w3.org/1999/xlink" width="400" height="713.0952380952381" viewBox="0, 0, 400,713.0952380952381"><g id="svgg"><path id="path0" d="M167.262 2.330 C 66.755 20.354,-2.894 104.359,0.289 203.720 C 1.995 256.986,40.045 365.883,116.706 536.905 C 149.421 609.887,198.212 713.095,200.000 713.095 C 201.788 713.095,250.579 609.887,283.294 536.905 C 359.955 365.883,398.005 256.986,399.711 203.720 C 403.686 79.649,289.202 -19.538,167.262 2.330 M227.976 49.485 C 344.818 69.747,392.057 213.543,309.906 298.881 C 231.765 380.055,94.888 348.352,60.785 241.181 C 27.100 135.324,118.521 30.503,227.976 49.485 " stroke="none" fill="#f2982d" fill-rule="evenodd"></path></g></svg>