<svg id="svg" xmlns="http://www.w3.org/2000/svg" xmlns:xlink="http://www.w3.org/1999/xlink" width="400" height="199.03030303030306" viewBox="0, 0, 400,199.03030303030306"><g id="svgg"><path id="path0" d="M399.710 1.208 C 399.688 1.415,399.643 2.087,399.611 2.702 C 399.578 3.317,399.456 3.936,399.339 4.077 C 399.181 4.267,399.174 4.391,399.311 4.557 C 399.414 4.680,399.444 4.834,399.379 4.898 C 399.315 4.963,399.239 5.219,399.212 5.466 C 399.185 5.714,399.151 6.010,399.137 6.125 C 399.123 6.240,399.061 6.333,399.000 6.333 C 398.939 6.333,398.876 6.427,398.861 6.542 C 398.830 6.765,398.683 8.300,398.622 9.026 C 398.601 9.270,398.536 9.439,398.476 9.402 C 398.417 9.365,398.327 9.442,398.277 9.574 C 398.227 9.705,398.275 9.848,398.384 9.893 C 398.536 9.954,398.535 9.977,398.380 9.987 C 398.269 9.994,398.221 10.113,398.274 10.252 C 398.327 10.391,398.297 10.597,398.208 10.710 C 398.048 10.913,397.995 11.222,397.995 11.950 C 397.995 12.152,397.921 12.362,397.831 12.418 C 397.741 12.474,397.667 12.740,397.667 13.010 C 397.667 13.279,397.592 13.500,397.500 13.500 C 397.408 13.500,397.333 13.579,397.333 13.677 C 397.333 13.774,397.408 13.807,397.500 13.750 C 397.592 13.693,397.667 13.722,397.667 13.814 C 397.667 13.905,397.590 14.027,397.497 14.085 C 397.404 14.143,397.371 14.260,397.424 14.345 C 397.477 14.430,397.457 14.500,397.379 14.500 C 397.302 14.500,397.249 14.706,397.262 14.958 C 397.289 15.511,397.177 15.860,397.007 15.754 C 396.938 15.712,396.878 15.881,396.874 16.130 C 396.858 17.074,396.670 17.871,396.336 18.413 C 396.119 18.763,396.053 19.013,396.159 19.079 C 396.268 19.146,396.233 19.332,396.062 19.592 C 395.915 19.816,395.845 20.000,395.907 20.000 C 395.969 20.000,395.902 20.167,395.759 20.370 C 395.466 20.789,395.418 21.071,395.665 20.918 C 395.759 20.859,395.787 20.926,395.730 21.075 C 395.676 21.217,395.558 21.333,395.469 21.333 C 395.374 21.333,395.354 21.549,395.421 21.854 C 395.501 22.216,395.479 22.340,395.351 22.261 C 395.236 22.190,395.167 22.296,395.167 22.542 C 395.167 22.759,395.057 23.082,394.922 23.260 C 394.787 23.438,394.676 23.658,394.675 23.750 C 394.673 23.842,394.744 23.804,394.833 23.667 C 394.928 23.520,394.996 23.498,394.997 23.613 C 394.999 23.721,394.882 23.927,394.738 24.071 C 394.594 24.215,394.521 24.333,394.575 24.333 C 394.630 24.333,394.554 24.518,394.406 24.743 C 394.259 24.968,394.188 25.234,394.250 25.333 C 394.312 25.433,394.272 25.623,394.162 25.755 C 394.053 25.887,394.001 26.095,394.047 26.216 C 394.094 26.338,393.998 26.615,393.833 26.833 C 393.669 27.051,393.572 27.328,393.618 27.448 C 393.665 27.568,393.601 27.668,393.476 27.669 C 393.302 27.671,393.307 27.709,393.500 27.833 C 393.667 27.941,393.681 27.996,393.542 27.997 C 393.427 27.999,393.333 28.106,393.333 28.236 C 393.333 28.366,393.240 28.510,393.125 28.557 C 392.968 28.620,392.979 28.685,393.167 28.818 C 393.383 28.971,393.378 28.995,393.130 28.997 C 392.943 28.999,392.877 29.088,392.941 29.252 C 392.994 29.391,392.947 29.613,392.838 29.745 C 392.728 29.877,392.682 30.057,392.737 30.145 C 392.791 30.233,392.750 30.333,392.647 30.368 C 392.543 30.402,392.439 30.615,392.417 30.840 C 392.394 31.066,392.365 31.363,392.352 31.500 C 392.331 31.722,392.310 31.722,392.167 31.500 C 392.041 31.305,392.005 31.351,392.003 31.708 C 392.001 31.961,391.907 32.168,391.792 32.169 C 391.651 32.171,391.663 32.222,391.829 32.327 C 392.039 32.460,392.033 32.498,391.788 32.592 C 391.631 32.652,391.541 32.765,391.589 32.843 C 391.736 33.080,391.477 33.839,391.290 33.723 C 391.194 33.664,391.163 33.693,391.222 33.788 C 391.281 33.883,391.170 34.162,390.977 34.408 C 390.783 34.654,390.625 35.037,390.625 35.258 C 390.625 35.479,390.551 35.615,390.461 35.559 C 390.362 35.498,390.341 35.595,390.407 35.804 C 390.482 36.038,390.407 36.260,390.175 36.491 C 389.987 36.679,389.921 36.833,390.029 36.833 C 390.137 36.833,390.052 37.018,389.840 37.243 C 389.628 37.468,389.437 37.824,389.416 38.035 C 389.394 38.245,389.366 38.515,389.355 38.635 C 389.343 38.755,389.258 38.807,389.167 38.750 C 389.075 38.693,388.989 38.745,388.975 38.865 C 388.961 38.985,388.940 39.158,388.929 39.250 C 388.917 39.342,388.849 39.510,388.777 39.625 C 388.706 39.740,388.691 39.905,388.745 39.992 C 388.799 40.079,388.693 40.230,388.511 40.328 C 388.315 40.432,388.218 40.606,388.274 40.753 C 388.326 40.889,388.286 41.000,388.184 41.000 C 388.083 41.000,388.008 41.056,388.018 41.125 C 388.059 41.410,387.784 41.989,387.648 41.905 C 387.566 41.855,387.500 41.953,387.500 42.123 C 387.500 42.294,387.410 42.523,387.300 42.633 C 387.144 42.789,387.153 42.833,387.337 42.833 C 387.482 42.833,387.426 42.937,387.193 43.101 C 386.983 43.248,386.850 43.471,386.899 43.596 C 386.947 43.722,386.858 43.899,386.701 43.991 C 386.545 44.082,386.492 44.160,386.583 44.164 C 386.675 44.168,386.637 44.244,386.500 44.333 C 386.324 44.447,386.314 44.496,386.464 44.497 C 386.628 44.499,386.636 44.580,386.498 44.838 C 386.398 45.024,386.237 45.127,386.140 45.067 C 386.028 44.998,386.002 45.078,386.069 45.289 C 386.133 45.491,386.075 45.702,385.920 45.830 C 385.781 45.946,385.667 46.140,385.667 46.262 C 385.667 46.384,385.559 46.543,385.429 46.617 C 385.197 46.747,385.167 46.810,385.167 47.177 C 385.167 47.274,385.080 47.299,384.974 47.234 C 384.861 47.164,384.827 47.188,384.891 47.293 C 385.033 47.521,384.842 48.025,384.658 47.911 C 384.581 47.864,384.547 47.976,384.582 48.162 C 384.624 48.380,384.559 48.500,384.397 48.500 C 384.260 48.500,384.190 48.569,384.242 48.653 C 384.294 48.738,384.237 48.906,384.115 49.028 C 383.885 49.258,383.833 49.377,383.833 49.677 C 383.833 49.774,383.759 49.807,383.669 49.751 C 383.574 49.693,383.546 49.760,383.603 49.908 C 383.658 50.050,383.616 50.167,383.511 50.167 C 383.405 50.167,383.341 50.298,383.368 50.458 C 383.397 50.634,383.326 50.731,383.188 50.702 C 383.042 50.671,382.995 50.746,383.058 50.910 C 383.123 51.079,383.059 51.168,382.870 51.169 C 382.624 51.171,382.619 51.195,382.833 51.333 C 383.058 51.479,382.954 51.572,382.625 51.520 C 382.556 51.509,382.509 51.556,382.520 51.625 C 382.575 51.974,382.479 52.174,382.308 52.067 C 382.194 51.997,382.160 52.021,382.225 52.126 C 382.355 52.336,382.182 52.863,382.017 52.761 C 381.954 52.722,381.892 52.833,381.879 53.007 C 381.856 53.307,381.776 53.435,381.167 54.151 C 381.029 54.312,380.895 54.551,380.869 54.681 C 380.772 55.164,380.250 56.000,380.045 56.000 C 379.929 56.000,379.833 56.112,379.833 56.250 C 379.833 56.387,379.754 56.500,379.657 56.500 C 379.560 56.500,379.516 56.557,379.559 56.627 C 379.602 56.697,379.534 56.941,379.408 57.169 C 379.282 57.397,379.175 57.508,379.172 57.417 C 379.164 57.240,378.661 58.136,378.612 58.413 C 378.596 58.502,378.414 58.714,378.207 58.884 C 378.000 59.054,377.867 59.253,377.912 59.326 C 377.957 59.399,377.806 59.660,377.577 59.907 C 377.349 60.154,377.212 60.438,377.273 60.537 C 377.340 60.645,377.307 60.670,377.192 60.599 C 377.077 60.528,377.000 60.589,377.000 60.750 C 377.000 60.898,376.943 60.984,376.872 60.941 C 376.802 60.897,376.659 61.043,376.555 61.264 C 376.432 61.523,376.427 61.629,376.539 61.559 C 376.636 61.500,376.460 61.791,376.149 62.207 C 375.838 62.622,375.508 62.921,375.417 62.871 C 375.325 62.821,375.304 62.839,375.369 62.912 C 375.545 63.107,375.181 63.695,374.966 63.562 C 374.859 63.496,374.829 63.524,374.894 63.630 C 374.955 63.729,374.838 63.928,374.632 64.072 C 374.427 64.216,374.316 64.333,374.385 64.333 C 374.455 64.333,374.430 64.485,374.331 64.671 C 374.231 64.857,374.094 64.975,374.026 64.933 C 373.958 64.891,373.891 65.007,373.877 65.192 C 373.863 65.377,373.642 65.724,373.384 65.963 C 373.127 66.202,372.935 66.459,372.958 66.532 C 372.981 66.606,372.887 66.667,372.750 66.667 C 372.612 66.667,372.500 66.813,372.500 66.991 C 372.500 67.382,371.773 68.212,371.582 68.039 C 371.507 67.972,371.498 68.006,371.560 68.115 C 371.623 68.224,371.568 68.374,371.439 68.448 C 371.310 68.522,371.176 68.733,371.141 68.917 C 371.107 69.100,370.992 69.250,370.887 69.250 C 370.665 69.250,370.426 69.459,370.396 69.681 C 370.384 69.765,370.366 69.904,370.354 69.991 C 370.316 70.280,369.552 70.997,369.415 70.872 C 369.341 70.805,369.331 70.839,369.393 70.948 C 369.456 71.057,369.374 71.224,369.212 71.318 C 369.049 71.413,368.976 71.492,369.048 71.495 C 369.121 71.498,369.083 71.605,368.965 71.733 C 368.847 71.860,368.682 71.924,368.599 71.873 C 368.516 71.823,368.500 71.866,368.564 71.969 C 368.628 72.072,368.527 72.251,368.340 72.368 C 368.153 72.485,368.000 72.670,368.000 72.780 C 368.000 72.890,367.913 73.034,367.808 73.099 C 367.678 73.179,367.660 73.142,367.751 72.984 C 367.831 72.846,367.825 72.807,367.735 72.889 C 367.652 72.965,367.574 73.097,367.563 73.181 C 367.551 73.265,367.532 73.402,367.521 73.486 C 367.480 73.784,366.224 75.002,366.087 74.877 C 366.010 74.807,366.003 74.847,366.071 74.966 C 366.206 75.199,365.623 75.868,365.128 76.049 C 364.962 76.109,364.878 76.257,364.932 76.395 C 364.989 76.544,364.891 76.679,364.676 76.747 C 364.485 76.808,364.372 76.927,364.424 77.012 C 364.477 77.097,364.412 77.167,364.280 77.167 C 364.149 77.167,363.938 77.298,363.812 77.458 C 363.601 77.728,363.607 77.731,363.902 77.500 C 364.203 77.264,364.210 77.271,364.021 77.625 C 363.912 77.831,363.717 78.000,363.589 78.000 C 363.461 78.000,363.308 78.151,363.249 78.336 C 363.191 78.520,363.082 78.634,363.007 78.588 C 362.932 78.541,362.769 78.630,362.644 78.784 C 362.448 79.025,362.452 79.044,362.667 78.922 C 362.804 78.844,362.729 78.966,362.500 79.193 C 362.271 79.420,362.027 79.577,361.958 79.543 C 361.890 79.509,361.833 79.581,361.833 79.704 C 361.833 79.994,360.178 81.833,359.917 81.833 C 359.623 81.833,359.117 82.451,359.244 82.656 C 359.304 82.754,359.232 82.833,359.083 82.833 C 358.935 82.833,358.840 82.890,358.871 82.958 C 358.946 83.120,357.876 84.153,357.757 84.034 C 357.707 83.985,357.667 84.063,357.667 84.207 C 357.667 84.352,357.448 84.646,357.182 84.860 C 356.915 85.075,356.559 85.362,356.390 85.500 C 356.221 85.638,355.997 85.900,355.891 86.083 C 355.784 86.267,355.610 86.396,355.503 86.371 C 355.396 86.346,355.351 86.393,355.402 86.476 C 355.453 86.559,355.234 86.805,354.915 87.022 C 354.597 87.239,354.335 87.508,354.334 87.620 C 354.334 87.732,354.221 87.780,354.083 87.727 C 353.932 87.669,353.833 87.726,353.833 87.873 C 353.833 88.183,353.251 88.862,353.108 88.719 C 353.049 88.660,353.000 88.703,353.000 88.815 C 353.000 88.928,352.913 88.966,352.808 88.901 C 352.697 88.832,352.660 88.855,352.721 88.953 C 352.779 89.048,352.630 89.265,352.389 89.437 C 352.149 89.609,351.837 89.877,351.696 90.033 C 351.556 90.189,351.384 90.282,351.316 90.239 C 351.247 90.197,351.142 90.314,351.083 90.500 C 351.024 90.686,350.917 90.802,350.846 90.758 C 350.774 90.713,350.629 90.866,350.524 91.098 C 350.409 91.349,350.255 91.471,350.140 91.400 C 350.022 91.327,349.994 91.355,350.067 91.474 C 350.138 91.588,350.014 91.743,349.759 91.859 C 349.525 91.966,349.333 92.147,349.333 92.260 C 349.333 92.374,349.115 92.543,348.849 92.636 C 348.583 92.729,348.313 92.967,348.251 93.165 C 348.177 93.396,348.047 93.490,347.886 93.428 C 347.725 93.366,347.604 93.455,347.545 93.679 C 347.495 93.870,347.270 94.096,347.044 94.181 C 346.819 94.267,346.595 94.486,346.548 94.669 C 346.500 94.851,346.390 95.000,346.304 95.000 C 346.218 95.000,346.203 94.906,346.272 94.792 C 346.358 94.648,346.310 94.654,346.117 94.811 C 345.963 94.936,345.878 95.104,345.928 95.186 C 345.979 95.267,345.921 95.333,345.800 95.333 C 345.679 95.333,345.485 95.486,345.368 95.673 C 345.251 95.860,345.095 95.975,345.020 95.929 C 344.945 95.883,344.788 96.024,344.671 96.242 C 344.549 96.470,344.360 96.602,344.229 96.552 C 344.093 96.500,344.000 96.574,344.000 96.732 C 344.000 96.879,343.917 97.000,343.816 97.000 C 343.714 97.000,343.483 97.188,343.302 97.418 C 343.121 97.648,342.910 97.797,342.832 97.749 C 342.754 97.701,342.641 97.818,342.580 98.010 C 342.515 98.215,342.376 98.321,342.240 98.269 C 342.114 98.221,341.959 98.265,341.896 98.366 C 341.820 98.489,341.860 98.504,342.016 98.410 C 342.213 98.292,342.215 98.313,342.029 98.541 C 341.908 98.691,341.721 98.780,341.613 98.740 C 341.505 98.699,341.283 98.901,341.120 99.189 C 340.957 99.477,340.776 99.665,340.720 99.608 C 340.663 99.552,340.510 99.635,340.379 99.794 C 340.227 99.979,340.184 99.993,340.259 99.833 C 340.323 99.696,340.135 99.865,339.842 100.208 C 339.549 100.552,339.165 100.833,338.988 100.833 C 338.811 100.833,338.667 100.941,338.667 101.073 C 338.667 101.206,338.580 101.367,338.474 101.433 C 338.344 101.513,338.327 101.476,338.423 101.317 C 338.537 101.129,338.501 101.131,338.240 101.329 C 337.414 101.958,337.023 102.301,337.071 102.356 C 337.100 102.390,336.972 102.567,336.786 102.750 C 336.601 102.933,336.502 102.990,336.568 102.875 C 336.633 102.760,336.607 102.667,336.510 102.667 C 336.413 102.667,336.333 102.777,336.333 102.911 C 336.333 103.199,335.769 103.541,335.579 103.369 C 335.506 103.304,335.508 103.356,335.584 103.487 C 335.686 103.663,335.651 103.696,335.446 103.618 C 335.295 103.560,335.189 103.586,335.210 103.677 C 335.232 103.768,335.025 103.971,334.750 104.129 C 334.476 104.287,334.113 104.567,333.945 104.750 C 333.776 104.933,333.584 105.083,333.517 105.083 C 333.450 105.083,333.205 105.288,332.972 105.539 C 332.740 105.790,332.509 105.954,332.459 105.904 C 332.410 105.854,332.180 105.986,331.950 106.198 C 331.276 106.819,331.025 107.000,330.840 107.000 C 330.745 107.000,330.667 107.077,330.667 107.171 C 330.667 107.265,330.477 107.414,330.246 107.502 C 330.014 107.590,329.781 107.775,329.728 107.914 C 329.675 108.053,329.461 108.167,329.253 108.167 C 329.044 108.167,328.771 108.298,328.645 108.458 C 328.433 108.729,328.441 108.732,328.750 108.500 C 329.061 108.267,329.068 108.270,328.848 108.549 C 328.719 108.714,328.519 108.812,328.404 108.768 C 328.289 108.724,328.153 108.796,328.102 108.929 C 328.051 109.061,327.937 109.150,327.850 109.127 C 327.762 109.103,327.567 109.233,327.416 109.417 C 327.265 109.600,327.197 109.645,327.263 109.516 C 327.343 109.362,327.319 109.323,327.192 109.401 C 327.087 109.466,326.999 109.646,326.997 109.802 C 326.995 110.028,326.966 110.038,326.849 109.852 C 326.732 109.668,326.664 109.693,326.513 109.976 C 326.409 110.171,326.269 110.313,326.203 110.293 C 326.137 110.272,325.884 110.430,325.640 110.645 C 325.396 110.859,325.133 111.037,325.057 111.040 C 324.980 111.042,324.818 111.186,324.697 111.359 C 324.576 111.531,324.410 111.631,324.327 111.580 C 324.245 111.529,324.082 111.640,323.965 111.827 C 323.849 112.014,323.670 112.167,323.569 112.167 C 323.468 112.167,323.249 112.317,323.083 112.500 C 322.917 112.683,322.700 112.832,322.599 112.831 C 322.499 112.829,322.529 112.756,322.667 112.667 C 322.857 112.544,322.863 112.504,322.693 112.503 C 322.570 112.501,322.430 112.650,322.382 112.833 C 322.333 113.018,322.154 113.167,321.981 113.167 C 321.808 113.167,321.667 113.234,321.667 113.317 C 321.667 113.400,321.436 113.548,321.154 113.646 C 320.872 113.744,320.689 113.902,320.747 113.996 C 320.805 114.090,320.736 114.167,320.593 114.167 C 320.450 114.167,320.333 114.246,320.333 114.343 C 320.333 114.440,320.264 114.477,320.178 114.424 C 320.093 114.371,319.975 114.405,319.917 114.500 C 319.858 114.595,319.729 114.622,319.629 114.560 C 319.521 114.493,319.496 114.526,319.569 114.643 C 319.647 114.769,319.505 114.874,319.163 114.942 C 318.874 115.000,318.599 115.149,318.552 115.273 C 318.504 115.397,318.398 115.457,318.316 115.406 C 318.234 115.355,318.167 115.386,318.167 115.474 C 318.167 115.562,317.885 115.809,317.542 116.022 C 317.198 116.236,316.813 116.478,316.685 116.560 C 316.517 116.668,316.487 116.646,316.573 116.479 C 316.638 116.353,316.569 116.400,316.420 116.583 C 316.270 116.767,316.032 116.893,315.891 116.864 C 315.742 116.833,315.680 116.886,315.743 116.989 C 315.804 117.087,315.736 117.167,315.593 117.167 C 315.450 117.167,315.333 117.242,315.333 117.333 C 315.333 117.425,315.179 117.500,314.990 117.500 C 314.771 117.500,314.690 117.570,314.768 117.695 C 314.848 117.826,314.797 117.855,314.613 117.785 C 314.435 117.716,314.276 117.796,314.161 118.011 C 314.063 118.193,313.925 118.307,313.853 118.262 C 313.782 118.218,313.449 118.409,313.113 118.685 C 312.778 118.962,312.435 119.146,312.352 119.095 C 312.269 119.044,312.159 119.114,312.106 119.251 C 312.053 119.388,311.839 119.501,311.630 119.503 C 311.324 119.505,311.298 119.536,311.500 119.667 C 311.733 119.817,311.708 119.833,311.250 119.833 C 311.204 119.833,311.018 119.982,310.837 120.163 C 310.635 120.365,310.398 120.451,310.226 120.385 C 310.040 120.313,309.985 120.341,310.063 120.467 C 310.135 120.583,310.017 120.698,309.757 120.763 C 309.524 120.822,309.333 120.944,309.333 121.036 C 309.333 121.127,309.222 121.160,309.085 121.107 C 308.942 121.052,308.854 121.097,308.877 121.214 C 308.899 121.326,308.785 121.406,308.625 121.394 C 308.465 121.381,308.333 121.434,308.333 121.513 C 308.333 121.591,308.174 121.740,307.980 121.844 C 307.695 121.997,307.649 121.990,307.742 121.808 C 307.806 121.685,307.750 121.715,307.619 121.875 C 307.487 122.035,307.294 122.167,307.190 122.167 C 307.085 122.167,307.000 122.246,307.000 122.343 C 307.000 122.440,306.933 122.479,306.852 122.428 C 306.771 122.378,306.612 122.448,306.500 122.583 C 306.388 122.719,306.229 122.789,306.148 122.738 C 306.067 122.688,306.000 122.708,306.000 122.783 C 306.000 122.858,305.842 123.018,305.649 123.139 C 305.456 123.259,305.348 123.278,305.408 123.181 C 305.475 123.072,305.416 123.043,305.251 123.106 C 305.105 123.162,305.026 123.248,305.075 123.297 C 305.216 123.439,304.518 123.864,304.333 123.750 C 304.242 123.693,304.167 123.769,304.167 123.918 C 304.167 124.108,304.072 124.159,303.853 124.090 C 303.652 124.026,303.503 124.085,303.438 124.256 C 303.382 124.402,303.270 124.481,303.190 124.431 C 303.110 124.382,302.908 124.492,302.741 124.676 C 302.574 124.861,302.345 124.976,302.233 124.933 C 302.120 124.890,301.982 124.973,301.927 125.118 C 301.871 125.263,301.778 125.334,301.721 125.276 C 301.663 125.219,301.510 125.302,301.379 125.461 C 301.249 125.620,301.189 125.656,301.247 125.542 C 301.410 125.220,301.218 125.294,300.815 125.708 C 300.615 125.915,300.505 125.971,300.571 125.833 C 300.637 125.696,300.573 125.729,300.429 125.907 C 300.285 126.085,300.167 126.173,300.167 126.103 C 300.167 126.033,300.048 126.095,299.903 126.240 C 299.758 126.385,299.579 126.465,299.504 126.419 C 299.429 126.373,299.322 126.455,299.266 126.602 C 299.209 126.751,299.056 126.827,298.920 126.774 C 298.783 126.722,298.573 126.827,298.441 127.016 C 298.312 127.200,298.047 127.363,297.853 127.378 C 297.659 127.392,297.500 127.461,297.500 127.531 C 297.500 127.734,296.606 128.129,296.352 128.039 C 296.224 127.994,296.162 128.024,296.213 128.106 C 296.263 128.188,296.124 128.341,295.902 128.445 C 295.681 128.550,295.541 128.568,295.592 128.486 C 295.642 128.404,295.568 128.382,295.425 128.436 C 295.283 128.491,295.167 128.653,295.167 128.796 C 295.167 128.939,295.119 129.008,295.060 128.949 C 295.002 128.891,294.735 128.999,294.468 129.190 C 294.200 129.380,293.934 129.490,293.878 129.433 C 293.821 129.377,293.588 129.500,293.360 129.707 C 293.133 129.914,293.007 129.979,293.081 129.851 C 293.232 129.591,292.175 130.125,291.961 130.417 C 291.891 130.512,291.837 130.516,291.836 130.426 C 291.834 130.340,291.732 130.408,291.608 130.577 C 291.484 130.747,291.203 130.905,290.983 130.929 C 290.763 130.953,290.523 130.978,290.448 130.986 C 290.374 130.994,290.368 131.088,290.434 131.195 C 290.514 131.324,290.466 131.356,290.291 131.289 C 290.135 131.229,289.987 131.292,289.929 131.444 C 289.875 131.586,289.721 131.659,289.586 131.608 C 289.452 131.556,289.276 131.632,289.195 131.777 C 289.114 131.922,288.833 132.064,288.571 132.093 C 288.309 132.122,288.017 132.252,287.922 132.382 C 287.747 132.621,287.025 132.928,286.787 132.865 C 286.716 132.846,286.614 132.943,286.561 133.082 C 286.505 133.227,286.257 133.333,285.972 133.333 C 285.702 133.333,285.522 133.400,285.573 133.483 C 285.691 133.673,285.194 133.870,284.959 133.725 C 284.861 133.664,284.830 133.693,284.890 133.790 C 284.949 133.886,284.882 134.010,284.740 134.064 C 284.567 134.130,284.522 134.095,284.602 133.956 C 284.667 133.843,284.509 133.938,284.250 134.167 C 283.991 134.396,283.842 134.471,283.918 134.333 C 284.018 134.153,283.964 134.165,283.723 134.375 C 283.540 134.536,283.339 134.617,283.278 134.556 C 283.217 134.495,283.167 134.540,283.167 134.657 C 283.167 134.780,283.058 134.827,282.908 134.770 C 282.760 134.713,282.693 134.741,282.751 134.835 C 282.808 134.927,282.665 135.000,282.427 135.000 C 282.191 135.000,282.000 135.096,282.000 135.213 C 282.000 135.331,281.774 135.512,281.499 135.616 C 281.157 135.745,281.033 135.749,281.108 135.627 C 281.226 135.436,281.182 135.458,280.119 136.119 C 279.772 136.335,279.425 136.473,279.349 136.426 C 279.272 136.379,279.036 136.491,278.823 136.676 C 278.610 136.860,278.338 136.973,278.218 136.927 C 278.098 136.881,278.000 136.908,278.000 136.986 C 278.000 137.064,277.803 137.257,277.563 137.415 C 277.272 137.605,277.170 137.625,277.258 137.476 C 277.341 137.334,277.271 137.351,277.070 137.520 C 276.894 137.668,276.656 137.756,276.541 137.714 C 276.426 137.672,276.101 137.832,275.820 138.069 C 275.368 138.449,275.129 138.540,274.723 138.485 C 274.663 138.477,274.547 138.589,274.465 138.735 C 274.383 138.881,274.241 139.000,274.149 139.000 C 274.056 139.000,274.033 138.906,274.098 138.792 C 274.163 138.677,274.054 138.750,273.857 138.953 C 273.648 139.167,273.389 139.280,273.239 139.223 C 273.090 139.166,272.842 139.273,272.651 139.479 C 272.307 139.848,272.070 139.958,272.252 139.664 C 272.309 139.571,272.084 139.679,271.752 139.905 C 271.419 140.131,271.039 140.274,270.907 140.223 C 270.775 140.172,270.667 140.222,270.667 140.333 C 270.667 140.448,270.554 140.493,270.408 140.436 C 270.266 140.382,270.192 140.406,270.244 140.490 C 270.296 140.575,270.263 140.691,270.169 140.748 C 270.076 140.806,270.000 140.768,270.000 140.665 C 270.000 140.556,269.890 140.587,269.738 140.738 C 269.477 140.999,269.272 141.064,268.875 141.012 C 268.760 140.998,268.667 141.064,268.667 141.159 C 268.667 141.255,268.560 141.333,268.431 141.333 C 268.301 141.333,268.157 141.427,268.110 141.542 C 268.046 141.701,268.023 141.698,268.013 141.530 C 268.003 141.366,267.931 141.379,267.729 141.581 C 267.579 141.730,267.366 141.818,267.255 141.775 C 267.144 141.732,266.947 141.773,266.818 141.864 C 266.641 141.991,266.665 142.005,266.917 141.923 C 267.144 141.848,267.196 141.868,267.081 141.985 C 266.987 142.079,266.674 142.174,266.384 142.196 C 266.094 142.218,265.893 142.295,265.938 142.368 C 265.983 142.441,265.870 142.500,265.686 142.500 C 265.503 142.500,265.306 142.576,265.248 142.669 C 265.191 142.763,265.062 142.789,264.963 142.727 C 264.864 142.666,264.685 142.749,264.566 142.912 C 264.438 143.087,264.240 143.166,264.083 143.106 C 263.936 143.050,263.857 143.070,263.907 143.151 C 263.957 143.232,263.793 143.349,263.542 143.412 C 263.292 143.475,263.047 143.591,262.999 143.669 C 262.925 143.788,262.407 143.923,261.782 143.986 C 261.708 143.994,261.701 144.087,261.766 144.192 C 261.841 144.314,261.811 144.339,261.685 144.261 C 261.575 144.193,261.292 144.265,261.055 144.420 C 260.765 144.610,260.669 144.628,260.758 144.476 C 260.831 144.352,260.736 144.385,260.547 144.551 C 260.256 144.805,259.867 144.925,259.115 144.989 C 259.041 144.995,259.020 145.064,259.068 145.142 C 259.117 145.221,258.966 145.371,258.734 145.477 C 258.502 145.583,258.351 145.606,258.399 145.528 C 258.447 145.451,258.233 145.467,257.923 145.564 C 257.613 145.661,257.395 145.798,257.438 145.868 C 257.482 145.939,257.409 145.954,257.276 145.903 C 257.143 145.852,256.983 145.892,256.922 145.991 C 256.861 146.091,256.740 146.129,256.654 146.075 C 256.568 146.022,256.453 146.096,256.398 146.239 C 256.343 146.383,256.118 146.500,255.899 146.500 C 255.679 146.500,255.500 146.580,255.500 146.679 C 255.500 146.777,255.331 146.844,255.125 146.827 C 254.485 146.775,254.309 146.826,254.433 147.026 C 254.515 147.159,254.438 147.189,254.190 147.124 C 253.977 147.069,253.724 147.133,253.577 147.280 C 253.439 147.418,253.234 147.544,253.122 147.562 C 253.009 147.579,252.811 147.658,252.683 147.739 C 252.523 147.838,252.486 147.824,252.566 147.694 C 252.642 147.571,252.593 147.539,252.426 147.603 C 252.285 147.657,252.210 147.769,252.261 147.851 C 252.312 147.933,252.124 148.000,251.843 148.000 C 251.556 148.000,251.188 148.145,251.000 148.333 C 250.635 148.699,250.238 148.789,250.441 148.461 C 250.510 148.349,250.353 148.425,250.091 148.631 C 249.816 148.847,249.490 148.966,249.321 148.913 C 249.160 148.862,248.979 148.898,248.920 148.994 C 248.861 149.090,248.584 149.287,248.304 149.432 C 248.025 149.576,247.847 149.613,247.908 149.514 C 247.969 149.415,247.948 149.333,247.861 149.333 C 247.774 149.333,247.656 149.454,247.600 149.601 C 247.526 149.793,247.367 149.842,247.040 149.774 C 246.789 149.722,246.693 149.726,246.826 149.782 C 246.979 149.846,246.797 149.964,246.338 150.100 C 245.936 150.219,245.534 150.271,245.444 150.216 C 245.347 150.155,245.336 150.204,245.418 150.336 C 245.518 150.498,245.478 150.527,245.269 150.447 C 245.099 150.382,245.024 150.404,245.085 150.502 C 245.180 150.657,244.844 150.740,244.371 150.678 C 244.255 150.663,244.039 150.771,243.891 150.918 C 243.744 151.065,243.517 151.145,243.387 151.095 C 243.237 151.038,243.193 151.075,243.267 151.195 C 243.346 151.322,243.277 151.357,243.063 151.301 C 242.885 151.255,242.650 151.314,242.539 151.433 C 242.428 151.551,242.176 151.617,241.979 151.579 C 241.783 151.541,241.668 151.557,241.725 151.614 C 241.874 151.763,241.032 152.167,240.574 152.167 C 240.361 152.167,240.136 152.248,240.074 152.348 C 240.013 152.448,239.837 152.496,239.685 152.456 C 239.532 152.416,239.312 152.485,239.197 152.609 C 239.081 152.732,238.807 152.833,238.587 152.833 C 238.366 152.833,238.137 152.913,238.076 153.011 C 238.016 153.109,237.868 153.152,237.747 153.105 C 237.626 153.059,237.482 153.140,237.427 153.284 C 237.371 153.429,237.278 153.500,237.220 153.442 C 237.162 153.384,237.014 153.419,236.892 153.520 C 236.771 153.621,236.560 153.661,236.424 153.609 C 236.288 153.557,236.135 153.583,236.083 153.667 C 236.032 153.750,235.880 153.777,235.746 153.725 C 235.612 153.674,235.459 153.745,235.407 153.883 C 235.354 154.021,235.184 154.113,235.030 154.088 C 234.876 154.063,234.660 154.115,234.549 154.202 C 234.438 154.290,234.270 154.314,234.174 154.255 C 234.078 154.195,234.000 154.225,234.000 154.321 C 234.000 154.510,232.832 155.055,232.703 154.926 C 232.660 154.882,232.402 154.962,232.130 155.102 C 231.858 155.243,231.593 155.315,231.540 155.262 C 231.487 155.210,231.544 155.167,231.667 155.167 C 231.789 155.167,231.843 155.121,231.787 155.064 C 231.730 155.008,231.429 155.120,231.118 155.312 C 230.806 155.505,230.511 155.622,230.462 155.573 C 230.413 155.524,230.096 155.639,229.759 155.828 C 229.421 156.018,229.088 156.138,229.019 156.095 C 228.950 156.052,228.649 156.166,228.350 156.348 C 228.051 156.529,227.855 156.600,227.913 156.506 C 227.972 156.411,227.903 156.333,227.760 156.333 C 227.617 156.333,227.519 156.416,227.542 156.517 C 227.565 156.618,227.359 156.728,227.086 156.760 C 226.812 156.792,226.562 156.897,226.530 156.993 C 226.498 157.088,226.399 157.167,226.310 157.167 C 226.220 157.167,226.193 157.092,226.250 157.000 C 226.307 156.908,226.274 156.833,226.177 156.833 C 226.079 156.833,226.000 156.908,226.000 157.000 C 226.000 157.092,225.944 157.151,225.875 157.131 C 225.806 157.112,225.593 157.183,225.401 157.290 C 225.209 157.397,224.859 157.519,224.624 157.562 C 224.388 157.604,224.030 157.728,223.828 157.836 C 223.580 157.969,223.497 157.973,223.573 157.850 C 223.744 157.573,223.393 157.630,223.095 157.929 C 222.951 158.073,222.833 158.143,222.833 158.086 C 222.833 158.028,222.667 158.098,222.463 158.241 C 222.259 158.383,221.968 158.500,221.815 158.500 C 221.663 158.500,221.323 158.612,221.061 158.748 C 220.789 158.889,220.560 158.927,220.529 158.836 C 220.499 158.747,220.305 158.787,220.094 158.925 C 219.877 159.067,219.585 159.125,219.413 159.059 C 219.219 158.985,219.151 159.007,219.222 159.121 C 219.282 159.219,219.219 159.341,219.082 159.394 C 218.945 159.447,218.832 159.398,218.831 159.286 C 218.829 159.145,218.791 159.139,218.706 159.267 C 218.512 159.556,217.867 159.849,217.805 159.676 C 217.775 159.590,217.397 159.692,216.965 159.900 C 216.533 160.109,216.219 160.217,216.266 160.140 C 216.314 160.063,216.274 160.000,216.177 160.000 C 216.079 160.000,215.999 160.056,215.999 160.125 C 215.998 160.194,215.810 160.337,215.582 160.443 C 215.353 160.549,215.208 160.568,215.260 160.484 C 215.311 160.401,215.240 160.333,215.101 160.333 C 214.963 160.333,214.773 160.465,214.680 160.625 C 214.546 160.856,214.508 160.865,214.500 160.667 C 214.491 160.450,214.463 160.451,214.286 160.677 C 213.993 161.053,213.573 161.171,213.329 160.945 C 213.207 160.833,213.160 160.826,213.218 160.930 C 213.331 161.134,210.867 161.954,210.441 161.855 C 210.362 161.837,210.197 161.906,210.073 162.009 C 209.949 162.111,209.775 162.150,209.685 162.095 C 209.596 162.040,209.473 162.076,209.411 162.175 C 209.350 162.275,209.195 162.316,209.066 162.267 C 208.938 162.217,208.833 162.233,208.833 162.302 C 208.833 162.500,207.876 162.809,207.417 162.758 C 207.188 162.733,207.000 162.782,207.000 162.866 C 207.000 162.951,206.930 162.977,206.845 162.924 C 206.760 162.871,206.639 162.909,206.578 163.009 C 206.517 163.108,206.361 163.149,206.233 163.100 C 206.105 163.051,206.000 163.075,206.000 163.154 C 206.000 163.233,205.884 163.342,205.741 163.397 C 205.593 163.454,205.526 163.426,205.585 163.331 C 205.726 163.103,205.563 163.125,205.013 163.410 C 204.754 163.544,204.495 163.606,204.438 163.549 C 204.380 163.491,204.333 163.536,204.333 163.649 C 204.333 163.761,204.264 163.810,204.178 163.757 C 204.093 163.704,203.979 163.733,203.925 163.820 C 203.871 163.908,203.678 163.951,203.496 163.916 C 203.315 163.881,203.167 163.921,203.167 164.004 C 203.167 164.088,203.042 164.108,202.889 164.050 C 202.681 163.970,202.648 164.003,202.755 164.180 C 202.876 164.382,202.856 164.383,202.615 164.188 C 202.441 164.047,202.333 164.029,202.333 164.141 C 202.333 164.240,201.957 164.372,201.496 164.433 C 201.036 164.494,200.618 164.610,200.568 164.691 C 200.518 164.772,200.407 164.796,200.322 164.743 C 200.236 164.690,200.167 164.735,200.167 164.843 C 200.167 164.961,200.004 165.008,199.755 164.960 C 199.516 164.914,199.385 164.949,199.443 165.042 C 199.502 165.138,199.399 165.157,199.188 165.090 C 198.977 165.023,198.833 165.050,198.833 165.155 C 198.833 165.253,198.777 165.321,198.708 165.306 C 198.482 165.256,197.591 165.518,197.125 165.770 C 196.763 165.967,196.666 165.973,196.664 165.801 C 196.662 165.624,196.635 165.625,196.521 165.804 C 196.444 165.926,196.277 166.008,196.149 165.986 C 196.021 165.964,195.700 166.036,195.435 166.145 C 195.170 166.254,194.920 166.309,194.878 166.267 C 194.837 166.226,194.459 166.339,194.039 166.519 C 193.619 166.699,193.169 166.806,193.039 166.756 C 192.909 166.706,192.716 166.720,192.610 166.786 C 192.368 166.938,192.004 167.025,191.621 167.022 C 191.459 167.021,191.369 167.090,191.422 167.175 C 191.474 167.260,191.409 167.288,191.276 167.237 C 191.143 167.186,190.983 167.225,190.922 167.325 C 190.861 167.424,190.740 167.462,190.655 167.410 C 190.570 167.357,190.500 167.391,190.500 167.485 C 190.500 167.579,190.254 167.647,189.954 167.636 C 189.653 167.625,189.250 167.699,189.059 167.802 C 188.867 167.904,188.663 167.941,188.605 167.883 C 188.547 167.825,188.500 167.853,188.500 167.944 C 188.500 168.036,188.406 168.118,188.292 168.126 C 188.177 168.133,187.896 168.192,187.667 168.257 C 187.438 168.321,186.969 168.410,186.626 168.454 C 186.283 168.499,186.039 168.595,186.085 168.669 C 186.131 168.743,186.037 168.783,185.876 168.757 C 185.715 168.731,185.491 168.783,185.377 168.873 C 185.264 168.964,185.060 168.995,184.924 168.943 C 184.788 168.891,184.637 168.913,184.588 168.992 C 184.539 169.072,184.369 169.118,184.211 169.095 C 184.053 169.072,183.828 169.148,183.711 169.265 C 183.594 169.382,183.305 169.443,183.069 169.400 C 182.751 169.342,182.673 169.378,182.769 169.536 C 182.850 169.671,182.782 169.658,182.583 169.500 C 182.336 169.303,182.299 169.300,182.411 169.485 C 182.520 169.666,182.470 169.698,182.192 169.625 C 181.962 169.565,181.872 169.595,181.942 169.708 C 182.016 169.828,181.867 169.850,181.484 169.776 C 181.085 169.699,180.991 169.716,181.167 169.831 C 181.389 169.977,181.389 169.997,181.167 170.010 C 181.029 170.018,180.729 170.057,180.500 170.097 C 178.972 170.360,178.937 170.368,178.460 170.575 C 178.300 170.645,177.925 170.712,177.627 170.726 C 177.328 170.739,177.043 170.804,176.993 170.871 C 176.943 170.937,176.739 171.017,176.539 171.047 C 176.339 171.078,176.123 171.154,176.060 171.218 C 175.996 171.281,175.863 171.332,175.764 171.331 C 175.665 171.329,175.696 171.247,175.833 171.148 C 176.041 170.999,176.032 170.985,175.778 171.068 C 175.610 171.122,175.437 171.167,175.393 171.167 C 175.349 171.167,175.350 171.226,175.395 171.298 C 175.473 171.424,175.267 171.469,174.292 171.537 C 174.040 171.555,173.832 171.647,173.831 171.743 C 173.829 171.839,173.756 171.804,173.667 171.667 C 173.578 171.529,173.504 171.501,173.503 171.604 C 173.501 171.707,173.297 171.792,173.049 171.792 C 172.800 171.792,172.569 171.876,172.535 171.979 C 172.500 172.082,172.263 172.167,172.007 172.167 C 171.751 172.167,171.232 172.276,170.854 172.409 C 170.340 172.591,170.166 172.601,170.164 172.451 C 170.162 172.315,170.114 172.325,170.016 172.480 C 169.936 172.606,169.794 172.662,169.700 172.604 C 169.605 172.545,169.503 172.575,169.471 172.670 C 169.440 172.765,169.152 172.869,168.832 172.902 C 168.512 172.935,168.137 173.004,168.000 173.056 C 167.571 173.218,166.269 173.544,165.833 173.598 C 165.604 173.627,165.154 173.680,164.833 173.716 C 164.066 173.802,163.772 173.886,163.647 174.057 C 163.591 174.134,163.242 174.209,162.873 174.224 C 162.503 174.238,162.243 174.319,162.294 174.403 C 162.346 174.488,162.272 174.512,162.131 174.458 C 161.990 174.404,161.802 174.432,161.713 174.520 C 161.625 174.608,161.204 174.696,160.777 174.715 C 160.350 174.734,160.000 174.794,160.000 174.847 C 160.000 174.901,159.906 174.950,159.792 174.958 C 159.677 174.965,159.338 175.048,159.038 175.141 C 158.721 175.241,158.534 175.247,158.590 175.156 C 158.643 175.070,158.607 175.000,158.510 175.000 C 158.413 175.000,158.333 175.083,158.333 175.184 C 158.333 175.286,158.217 175.324,158.075 175.270 C 157.932 175.215,157.859 175.240,157.911 175.324 C 157.963 175.409,157.782 175.472,157.509 175.464 C 157.235 175.456,156.910 175.534,156.785 175.638 C 156.617 175.777,156.509 175.775,156.363 175.629 C 156.230 175.497,156.167 175.492,156.167 175.615 C 156.167 175.782,155.482 175.959,154.542 176.036 C 154.335 176.053,154.167 176.114,154.167 176.172 C 154.167 176.230,154.073 176.284,153.958 176.292 C 153.679 176.311,153.149 176.445,152.792 176.587 C 152.601 176.662,152.499 176.624,152.497 176.476 C 152.495 176.288,152.470 176.289,152.349 176.480 C 152.269 176.606,152.121 176.658,152.019 176.595 C 151.917 176.532,151.833 176.547,151.833 176.629 C 151.833 176.788,151.617 176.828,150.626 176.853 C 150.283 176.862,150.046 176.939,150.098 177.024 C 150.151 177.110,150.003 177.144,149.763 177.100 C 149.527 177.057,149.333 177.084,149.333 177.160 C 149.333 177.325,147.456 177.719,146.750 177.701 C 146.475 177.694,145.964 177.798,145.614 177.931 C 145.264 178.064,144.589 178.213,144.114 178.262 C 143.639 178.311,142.998 178.467,142.691 178.609 C 142.383 178.750,141.938 178.828,141.701 178.783 C 141.464 178.738,141.102 178.811,140.896 178.945 C 140.678 179.088,140.309 179.157,140.010 179.110 C 139.669 179.056,139.535 179.089,139.610 179.209 C 139.681 179.324,139.620 179.351,139.444 179.284 C 139.291 179.225,139.167 179.247,139.167 179.332 C 139.167 179.417,138.960 179.489,138.708 179.493 C 138.137 179.501,136.945 179.616,136.833 179.674 C 136.787 179.698,136.675 179.728,136.583 179.741 C 136.492 179.755,136.267 179.845,136.083 179.943 C 135.900 180.041,135.469 180.105,135.125 180.085 C 134.781 180.065,134.500 180.118,134.500 180.202 C 134.500 180.286,134.369 180.333,134.208 180.306 C 134.048 180.280,133.823 180.317,133.708 180.389 C 133.594 180.461,133.500 180.475,133.500 180.421 C 133.500 180.366,133.341 180.407,133.147 180.511 C 132.898 180.644,132.827 180.645,132.906 180.517 C 132.969 180.416,132.938 180.333,132.838 180.333 C 132.738 180.333,132.612 180.448,132.559 180.588 C 132.483 180.784,132.408 180.798,132.231 180.651 C 132.085 180.530,132.000 180.523,132.000 180.631 C 132.000 180.725,131.850 180.763,131.667 180.715 C 131.470 180.664,131.333 180.710,131.333 180.827 C 131.333 180.959,131.136 181.001,130.752 180.949 C 130.400 180.901,130.209 180.934,130.270 181.032 C 130.325 181.121,130.230 181.173,130.060 181.148 C 129.628 181.083,128.459 181.328,128.208 181.535 C 128.085 181.637,128.000 181.643,128.000 181.548 C 128.000 181.461,127.891 181.389,127.757 181.389 C 127.624 181.389,127.560 181.462,127.616 181.552 C 127.678 181.653,127.547 181.673,127.275 181.604 C 127.015 181.539,126.833 181.563,126.833 181.662 C 126.833 181.760,126.571 181.798,126.208 181.753 C 125.836 181.706,125.673 181.731,125.806 181.814 C 125.974 181.920,125.944 181.976,125.681 182.045 C 125.490 182.095,125.333 182.065,125.333 181.979 C 125.333 181.887,125.196 181.895,125.004 181.998 C 124.822 182.095,124.428 182.195,124.127 182.219 C 123.826 182.244,123.475 182.329,123.348 182.408 C 123.189 182.506,123.153 182.490,123.234 182.359 C 123.299 182.253,123.274 182.167,123.177 182.167 C 123.079 182.167,123.000 182.223,123.000 182.292 C 123.000 182.360,122.831 182.433,122.625 182.452 C 122.147 182.498,121.853 182.575,121.333 182.789 C 121.094 182.888,120.802 182.901,120.647 182.820 C 120.499 182.742,120.328 182.728,120.267 182.788 C 120.117 182.939,119.674 183.038,119.130 183.044 C 118.881 183.046,118.717 183.112,118.765 183.191 C 118.813 183.269,118.732 183.333,118.583 183.333 C 118.435 183.333,118.359 183.259,118.415 183.169 C 118.474 183.074,118.407 183.046,118.260 183.103 C 118.118 183.157,118.043 183.268,118.093 183.349 C 118.143 183.429,117.953 183.469,117.672 183.436 C 117.390 183.403,117.115 183.449,117.060 183.538 C 117.005 183.627,116.744 183.657,116.480 183.604 C 116.216 183.552,116.000 183.574,116.000 183.654 C 116.000 183.734,115.737 183.776,115.417 183.746 C 115.096 183.716,114.833 183.761,114.833 183.846 C 114.833 183.931,114.641 184.000,114.406 184.000 C 114.171 184.000,113.824 184.082,113.636 184.183 C 113.386 184.317,113.324 184.317,113.407 184.183 C 113.481 184.063,113.387 184.024,113.135 184.070 C 112.923 184.110,112.750 184.153,112.750 184.167 C 112.750 184.230,112.039 184.374,111.625 184.394 C 111.373 184.407,111.166 184.492,111.164 184.583 C 111.163 184.675,111.089 184.637,111.000 184.500 C 110.898 184.342,110.838 184.324,110.836 184.453 C 110.834 184.576,110.616 184.648,110.287 184.636 C 109.986 184.625,109.571 184.706,109.364 184.817 C 109.157 184.928,108.766 184.983,108.495 184.940 C 108.224 184.898,107.965 184.921,107.921 184.993 C 107.837 185.129,106.500 185.362,105.500 185.415 C 105.179 185.432,104.630 185.541,104.280 185.656 C 103.931 185.772,103.600 185.822,103.546 185.768 C 103.492 185.714,103.355 185.746,103.243 185.839 C 103.044 186.004,101.509 186.222,100.667 186.205 C 100.438 186.201,100.213 186.258,100.167 186.333 C 100.120 186.408,99.708 186.489,99.250 186.512 C 98.791 186.536,98.342 186.596,98.250 186.647 C 98.158 186.697,97.821 186.744,97.500 186.750 C 97.179 186.756,96.830 186.815,96.723 186.881 C 96.617 186.947,96.411 186.955,96.265 186.899 C 96.112 186.841,96.000 186.884,96.000 187.000 C 96.000 187.133,95.857 187.167,95.583 187.098 C 95.303 187.028,95.166 187.063,95.164 187.205 C 95.162 187.351,95.110 187.339,94.997 187.167 C 94.879 186.987,94.798 186.971,94.708 187.109 C 94.640 187.214,94.208 187.356,93.750 187.423 C 93.292 187.490,92.753 187.606,92.553 187.681 C 92.312 187.771,92.166 187.749,92.122 187.617 C 92.072 187.470,91.971 187.484,91.745 187.667 C 91.470 187.889,91.452 187.889,91.583 187.667 C 91.710 187.451,91.692 187.448,91.449 187.645 C 91.294 187.771,91.167 187.818,91.167 187.750 C 91.167 187.682,91.040 187.729,90.885 187.855 C 90.641 188.052,90.623 188.049,90.750 187.833 C 90.878 187.615,90.860 187.614,90.606 187.819 C 90.429 187.964,89.933 188.056,89.332 188.056 C 88.744 188.056,88.388 188.120,88.447 188.216 C 88.502 188.304,88.442 188.339,88.315 188.294 C 88.188 188.249,87.943 188.284,87.772 188.372 C 87.543 188.490,87.492 188.481,87.582 188.336 C 87.653 188.221,87.489 188.250,87.185 188.407 C 86.900 188.555,86.667 188.611,86.667 188.532 C 86.667 188.361,86.152 188.333,85.917 188.491 C 85.825 188.553,85.638 188.597,85.500 188.588 C 85.362 188.579,85.204 188.638,85.147 188.718 C 85.091 188.798,84.491 188.900,83.814 188.945 C 81.871 189.072,81.833 189.077,81.833 189.206 C 81.833 189.274,81.665 189.327,81.458 189.324 C 81.117 189.318,79.925 189.432,79.080 189.552 C 78.895 189.578,78.647 189.659,78.529 189.732 C 78.411 189.805,78.124 189.817,77.891 189.759 C 77.641 189.696,77.359 189.741,77.202 189.868 C 76.982 190.046,76.960 190.044,77.071 189.858 C 77.182 189.674,77.140 189.669,76.836 189.832 C 76.633 189.941,76.192 190.053,75.858 190.081 C 75.524 190.109,75.122 190.184,74.966 190.247 C 74.810 190.311,74.604 190.314,74.508 190.255 C 74.412 190.196,74.333 190.229,74.333 190.329 C 74.333 190.460,74.239 190.461,74.000 190.333 C 73.756 190.203,73.667 190.207,73.667 190.348 C 73.667 190.472,73.495 190.507,73.191 190.447 C 72.929 190.394,72.640 190.427,72.547 190.520 C 72.454 190.612,71.960 190.696,71.448 190.707 C 70.936 190.717,70.543 190.769,70.576 190.821 C 70.651 190.944,69.665 191.054,68.542 191.048 C 68.060 191.046,67.667 191.094,67.667 191.155 C 67.667 191.217,67.498 191.275,67.292 191.285 C 67.085 191.295,66.617 191.349,66.250 191.405 C 65.883 191.461,65.341 191.514,65.044 191.523 C 64.737 191.532,64.548 191.610,64.606 191.703 C 64.661 191.793,64.539 191.777,64.333 191.667 C 64.128 191.557,64.003 191.537,64.056 191.623 C 64.141 191.759,63.340 191.878,62.458 191.860 C 62.298 191.857,62.167 191.917,62.167 191.993 C 62.167 192.070,61.911 192.120,61.598 192.106 C 61.285 192.091,61.064 192.136,61.108 192.206 C 61.151 192.276,61.107 192.333,61.010 192.333 C 60.913 192.333,60.832 192.240,60.831 192.125 C 60.829 191.986,60.774 192.000,60.667 192.167 C 60.523 192.389,60.505 192.389,60.500 192.167 C 60.496 191.979,60.462 191.969,60.362 192.125 C 60.290 192.240,59.843 192.357,59.369 192.385 C 58.896 192.413,58.457 192.488,58.394 192.550 C 58.332 192.613,58.177 192.578,58.051 192.473 C 57.878 192.330,57.724 192.336,57.422 192.497 C 57.202 192.615,56.905 192.666,56.761 192.611 C 56.618 192.556,56.500 192.583,56.500 192.672 C 56.500 192.761,56.205 192.833,55.844 192.833 C 55.483 192.833,54.992 192.908,54.751 192.999 C 54.511 193.091,54.353 193.104,54.399 193.028 C 54.472 192.910,53.911 192.897,53.667 193.011 C 53.621 193.033,53.433 193.063,53.250 193.080 C 53.067 193.096,52.617 193.172,52.250 193.250 C 51.883 193.327,51.470 193.400,51.330 193.412 C 51.191 193.423,50.973 193.497,50.846 193.575 C 50.690 193.672,50.653 193.656,50.733 193.528 C 50.855 193.329,50.507 193.361,49.000 193.684 C 48.587 193.772,47.970 193.808,47.629 193.764 C 47.265 193.716,46.920 193.766,46.795 193.883 C 46.679 193.993,46.396 194.090,46.167 194.098 C 45.504 194.122,44.122 194.341,43.944 194.451 C 43.854 194.507,43.835 194.466,43.901 194.359 C 44.050 194.117,43.909 194.114,43.469 194.350 C 43.220 194.483,43.157 194.483,43.240 194.350 C 43.379 194.125,43.240 194.116,42.852 194.324 C 42.533 194.494,40.860 194.723,40.125 194.697 C 39.870 194.687,39.666 194.769,39.664 194.882 C 39.663 195.007,39.601 194.989,39.500 194.833 C 39.356 194.611,39.338 194.611,39.333 194.833 C 39.329 195.056,39.310 195.056,39.167 194.833 C 39.078 194.696,39.004 194.665,39.003 194.764 C 39.000 194.950,38.484 195.007,36.752 195.012 C 36.064 195.014,35.831 195.063,36.002 195.172 C 36.242 195.323,35.734 195.437,35.252 195.340 C 34.982 195.286,34.614 195.313,34.083 195.425 C 33.808 195.484,33.227 195.527,32.792 195.522 C 32.356 195.517,32.000 195.578,32.000 195.657 C 32.000 195.736,31.719 195.798,31.375 195.794 C 30.802 195.787,29.250 195.944,29.250 196.008 C 29.250 196.024,29.025 196.049,28.750 196.065 C 28.475 196.080,28.145 196.159,28.016 196.239 C 27.856 196.339,27.819 196.324,27.901 196.192 C 27.976 196.071,27.896 196.000,27.686 196.000 C 27.503 196.000,27.311 196.068,27.260 196.150 C 27.209 196.233,26.942 196.285,26.667 196.266 C 26.392 196.246,26.167 196.285,26.167 196.351 C 26.167 196.417,25.792 196.441,25.333 196.405 C 24.798 196.363,24.500 196.406,24.500 196.524 C 24.500 196.653,24.430 196.650,24.266 196.513 C 24.123 196.395,24.010 196.383,23.975 196.483 C 23.896 196.705,23.000 196.854,23.000 196.646 C 23.000 196.555,22.909 196.536,22.799 196.605 C 22.559 196.753,21.992 196.846,21.083 196.887 C 20.717 196.904,20.338 196.968,20.242 197.031 C 20.146 197.093,19.958 197.076,19.825 196.992 C 19.692 196.907,19.508 196.838,19.417 196.838 C 19.325 196.838,19.362 196.911,19.500 197.000 C 19.682 197.117,19.570 197.156,19.083 197.144 C 18.717 197.135,18.117 197.188,17.750 197.263 C 17.383 197.337,16.615 197.394,16.042 197.389 C 15.469 197.384,15.000 197.445,15.000 197.523 C 15.000 197.602,14.921 197.667,14.823 197.667 C 14.726 197.667,14.703 197.573,14.772 197.458 C 14.865 197.304,14.835 197.294,14.657 197.420 C 14.525 197.514,14.210 197.581,13.958 197.570 C 13.706 197.559,13.500 197.603,13.500 197.669 C 13.500 197.734,13.296 197.765,13.046 197.738 C 12.796 197.710,12.491 197.772,12.367 197.875 C 12.231 197.988,12.097 198.000,12.029 197.906 C 11.881 197.700,11.102 197.593,11.227 197.796 C 11.281 197.884,11.144 197.918,10.912 197.873 C 10.667 197.826,10.500 197.872,10.500 197.986 C 10.500 198.122,10.409 198.130,10.189 198.012 C 10.017 197.920,9.826 197.896,9.764 197.958 C 9.639 198.083,9.213 198.146,7.833 198.242 C 7.329 198.277,6.767 198.357,6.583 198.419 C 6.314 198.510,6.298 198.497,6.500 198.352 C 6.638 198.253,6.669 198.171,6.569 198.169 C 6.470 198.168,6.335 198.220,6.270 198.286 C 6.205 198.351,5.873 198.423,5.534 198.445 C 5.194 198.467,4.542 198.530,4.083 198.584 C 3.625 198.639,3.044 198.693,2.792 198.705 C -2.240 198.946,34.118 199.000,201.167 199.000 L 400.000 199.000 400.000 99.917 C 400.000 45.421,399.944 0.833,399.875 0.833 C 399.806 0.833,399.732 1.002,399.710 1.208 " stroke="none" fill="#f4fcfc" fill-rule="evenodd"></path></g></svg>