<svg xmlns="http://www.w3.org/2000/svg" width="114.015" height="114.015" viewBox="0 0 114.015 114.015">
    <defs>
        <style>
            .cls-1{fill:none}.cls-2{fill:#fff}.cls-3,.cls-4{stroke:none}.cls-4{fill:#f2982d}
        </style>
    </defs>
    <g id="Group_2783" data-name="Group 2783" transform="translate(-282 -2979)">
        <g id="Path_1674" class="cls-1" data-name="Path 1674">
            <path d="M57.007 0A57.007 57.007 0 1 1 0 57.007 57.007 57.007 0 0 1 57.007 0z" class="cls-3" transform="translate(282 2979)"/>
            <path d="M57.007 4C49.85 4 42.908 5.4 36.376 8.164a52.835 52.835 0 0 0-16.85 11.361 52.835 52.835 0 0 0-11.362 16.85C5.4 42.909 4 49.85 4 57.008c0 7.158 1.4 14.1 4.164 20.632a52.835 52.835 0 0 0 11.361 16.85 52.835 52.835 0 0 0 16.85 11.362c6.533 2.763 13.475 4.164 20.632 4.164 7.158 0 14.1-1.401 20.632-4.164a52.835 52.835 0 0 0 16.85-11.362 52.835 52.835 0 0 0 11.362-16.85c2.763-6.532 4.164-13.474 4.164-20.632 0-7.157-1.401-14.099-4.164-20.631a52.835 52.835 0 0 0-11.362-16.85A52.835 52.835 0 0 0 77.64 8.163C71.107 5.4 64.165 4 57.007 4m0-4c31.485 0 57.008 25.523 57.008 57.007 0 31.485-25.523 57.008-57.008 57.008C25.523 114.015 0 88.492 0 57.007 0 25.523 25.523 0 57.007 0z" class="cls-4" transform="translate(282 2979)"/>
        </g>
        <path id="Path_1245" d="M49.581 26.039L5.265.517A3.479 3.479 0 0 0 0 3.515v51.117A3.534 3.534 0 0 0 5.265 57.7l44.243-25.6a3.475 3.475 0 0 0 .073-6.061z" class="cls-2" data-name="Path 1245" transform="translate(317.479 3006.313)"/>
    </g>
</svg>
